%TF.GenerationSoftware,KiCad,Pcbnew,5.1.10-88a1d61d58~88~ubuntu20.04.1*%
%TF.CreationDate,2021-07-14T14:10:21+02:00*%
%TF.ProjectId,atari_punk,61746172-695f-4707-956e-6b2e6b696361,rev?*%
%TF.SameCoordinates,Original*%
%TF.FileFunction,Soldermask,Bot*%
%TF.FilePolarity,Negative*%
%FSLAX46Y46*%
G04 Gerber Fmt 4.6, Leading zero omitted, Abs format (unit mm)*
G04 Created by KiCad (PCBNEW 5.1.10-88a1d61d58~88~ubuntu20.04.1) date 2021-07-14 14:10:21*
%MOMM*%
%LPD*%
G01*
G04 APERTURE LIST*
%ADD10O,3.840000X2.820000*%
%ADD11C,1.900000*%
%ADD12O,2.300000X3.600000*%
%ADD13O,1.600000X2.600000*%
%ADD14O,1.800000X1.800000*%
%ADD15O,1.700000X1.700000*%
%ADD16C,1.700000*%
G04 APERTURE END LIST*
D10*
%TO.C,R4*%
X102369000Y-126605000D03*
X102369000Y-136205000D03*
D11*
X94869000Y-133905000D03*
X94869000Y-131405000D03*
G36*
G01*
X95769000Y-129855000D02*
X93969000Y-129855000D01*
G75*
G02*
X93919000Y-129805000I0J50000D01*
G01*
X93919000Y-128005000D01*
G75*
G02*
X93969000Y-127955000I50000J0D01*
G01*
X95769000Y-127955000D01*
G75*
G02*
X95819000Y-128005000I0J-50000D01*
G01*
X95819000Y-129805000D01*
G75*
G02*
X95769000Y-129855000I-50000J0D01*
G01*
G37*
%TD*%
D10*
%TO.C,R1*%
X102369000Y-103745000D03*
X102369000Y-113345000D03*
D11*
X94869000Y-111045000D03*
X94869000Y-108545000D03*
G36*
G01*
X95769000Y-106995000D02*
X93969000Y-106995000D01*
G75*
G02*
X93919000Y-106945000I0J50000D01*
G01*
X93919000Y-105145000D01*
G75*
G02*
X93969000Y-105095000I50000J0D01*
G01*
X95769000Y-105095000D01*
G75*
G02*
X95819000Y-105145000I0J-50000D01*
G01*
X95819000Y-106945000D01*
G75*
G02*
X95769000Y-106995000I-50000J0D01*
G01*
G37*
%TD*%
D12*
%TO.C,SW1*%
X117725000Y-100076000D03*
X125925000Y-100076000D03*
D13*
X119825000Y-100076000D03*
X121825000Y-100076000D03*
G36*
G01*
X124625000Y-98826000D02*
X124625000Y-101326000D01*
G75*
G02*
X124575000Y-101376000I-50000J0D01*
G01*
X123075000Y-101376000D01*
G75*
G02*
X123025000Y-101326000I0J50000D01*
G01*
X123025000Y-98826000D01*
G75*
G02*
X123075000Y-98776000I50000J0D01*
G01*
X124575000Y-98776000D01*
G75*
G02*
X124625000Y-98826000I0J-50000D01*
G01*
G37*
%TD*%
D14*
%TO.C,J2*%
X131318000Y-136652000D03*
G36*
G01*
X133008000Y-135752000D02*
X134708000Y-135752000D01*
G75*
G02*
X134758000Y-135802000I0J-50000D01*
G01*
X134758000Y-137502000D01*
G75*
G02*
X134708000Y-137552000I-50000J0D01*
G01*
X133008000Y-137552000D01*
G75*
G02*
X132958000Y-137502000I0J50000D01*
G01*
X132958000Y-135802000D01*
G75*
G02*
X133008000Y-135752000I50000J0D01*
G01*
G37*
%TD*%
%TO.C,J1*%
X131318000Y-104140000D03*
G36*
G01*
X133008000Y-103240000D02*
X134708000Y-103240000D01*
G75*
G02*
X134758000Y-103290000I0J-50000D01*
G01*
X134758000Y-104990000D01*
G75*
G02*
X134708000Y-105040000I-50000J0D01*
G01*
X133008000Y-105040000D01*
G75*
G02*
X132958000Y-104990000I0J50000D01*
G01*
X132958000Y-103290000D01*
G75*
G02*
X133008000Y-103240000I50000J0D01*
G01*
G37*
%TD*%
D15*
%TO.C,R6*%
X90932000Y-125984000D03*
D16*
X90932000Y-136144000D03*
%TD*%
D15*
%TO.C,R5*%
X90932000Y-103886000D03*
D16*
X90932000Y-114046000D03*
%TD*%
%TO.C,C1*%
X111379000Y-106680000D03*
X111379000Y-111680000D03*
%TD*%
%TO.C,C2*%
G36*
G01*
X131915000Y-110275000D02*
X133515000Y-110275000D01*
G75*
G02*
X133565000Y-110325000I0J-50000D01*
G01*
X133565000Y-111925000D01*
G75*
G02*
X133515000Y-111975000I-50000J0D01*
G01*
X131915000Y-111975000D01*
G75*
G02*
X131865000Y-111925000I0J50000D01*
G01*
X131865000Y-110325000D01*
G75*
G02*
X131915000Y-110275000I50000J0D01*
G01*
G37*
X132715000Y-113625000D03*
%TD*%
%TO.C,C3*%
X111379000Y-128985000D03*
X111379000Y-133985000D03*
%TD*%
%TO.C,R2*%
X106299000Y-120015000D03*
D15*
X96139000Y-120015000D03*
%TD*%
%TO.C,R3*%
X132715000Y-120015000D03*
D16*
X132715000Y-130175000D03*
%TD*%
%TO.C,U1*%
G36*
G01*
X118529000Y-113880000D02*
X116929000Y-113880000D01*
G75*
G02*
X116879000Y-113830000I0J50000D01*
G01*
X116879000Y-112230000D01*
G75*
G02*
X116929000Y-112180000I50000J0D01*
G01*
X118529000Y-112180000D01*
G75*
G02*
X118579000Y-112230000I0J-50000D01*
G01*
X118579000Y-113830000D01*
G75*
G02*
X118529000Y-113880000I-50000J0D01*
G01*
G37*
D15*
X125349000Y-105410000D03*
X120269000Y-113030000D03*
X122809000Y-105410000D03*
X122809000Y-113030000D03*
X120269000Y-105410000D03*
X125349000Y-113030000D03*
X117729000Y-105410000D03*
%TD*%
%TO.C,U2*%
X117729000Y-127635000D03*
X125349000Y-135255000D03*
X120269000Y-127635000D03*
X122809000Y-135255000D03*
X122809000Y-127635000D03*
X120269000Y-135255000D03*
X125349000Y-127635000D03*
G36*
G01*
X118529000Y-136105000D02*
X116929000Y-136105000D01*
G75*
G02*
X116879000Y-136055000I0J50000D01*
G01*
X116879000Y-134455000D01*
G75*
G02*
X116929000Y-134405000I50000J0D01*
G01*
X118529000Y-134405000D01*
G75*
G02*
X118579000Y-134455000I0J-50000D01*
G01*
X118579000Y-136055000D01*
G75*
G02*
X118529000Y-136105000I-50000J0D01*
G01*
G37*
%TD*%
M02*
