%TF.GenerationSoftware,KiCad,Pcbnew,5.1.6-c6e7f7d~87~ubuntu18.04.1*%
%TF.CreationDate,2020-12-24T16:50:43+01:00*%
%TF.ProjectId,atari_punk,61746172-695f-4707-956e-6b2e6b696361,rev?*%
%TF.SameCoordinates,Original*%
%TF.FileFunction,Legend,Top*%
%TF.FilePolarity,Positive*%
%FSLAX46Y46*%
G04 Gerber Fmt 4.6, Leading zero omitted, Abs format (unit mm)*
G04 Created by KiCad (PCBNEW 5.1.6-c6e7f7d~87~ubuntu18.04.1) date 2020-12-24 16:50:43*
%MOMM*%
%LPD*%
G01*
G04 APERTURE LIST*
%ADD10C,0.150000*%
%ADD11C,0.120000*%
G04 APERTURE END LIST*
D10*
X130238809Y-134151666D02*
X130715000Y-134151666D01*
X130143571Y-134437380D02*
X130476904Y-133437380D01*
X130810238Y-134437380D01*
X131286428Y-134437380D02*
X131191190Y-134389761D01*
X131143571Y-134294523D01*
X131143571Y-133437380D01*
X131524523Y-133770714D02*
X131905476Y-133770714D01*
X131667380Y-133437380D02*
X131667380Y-134294523D01*
X131715000Y-134389761D01*
X131810238Y-134437380D01*
X131905476Y-134437380D01*
X132667380Y-134437380D02*
X132667380Y-133913571D01*
X132619761Y-133818333D01*
X132524523Y-133770714D01*
X132334047Y-133770714D01*
X132238809Y-133818333D01*
X132667380Y-134389761D02*
X132572142Y-134437380D01*
X132334047Y-134437380D01*
X132238809Y-134389761D01*
X132191190Y-134294523D01*
X132191190Y-134199285D01*
X132238809Y-134104047D01*
X132334047Y-134056428D01*
X132572142Y-134056428D01*
X132667380Y-134008809D01*
X133048333Y-133770714D02*
X133286428Y-134437380D01*
X133524523Y-133770714D01*
X134048333Y-134437380D02*
X133953095Y-134389761D01*
X133905476Y-134342142D01*
X133857857Y-134246904D01*
X133857857Y-133961190D01*
X133905476Y-133865952D01*
X133953095Y-133818333D01*
X134048333Y-133770714D01*
X134191190Y-133770714D01*
X134286428Y-133818333D01*
X134334047Y-133865952D01*
X134381666Y-133961190D01*
X134381666Y-134246904D01*
X134334047Y-134342142D01*
X134286428Y-134389761D01*
X134191190Y-134437380D01*
X134048333Y-134437380D01*
X134715000Y-133770714D02*
X135238809Y-133770714D01*
X134715000Y-134437380D01*
X135238809Y-134437380D01*
X136779047Y-136596428D02*
X137540952Y-136596428D01*
X127889047Y-136596428D02*
X128650952Y-136596428D01*
X128270000Y-136977380D02*
X128270000Y-136215476D01*
X132095952Y-102052380D02*
X132286428Y-102052380D01*
X132381666Y-102004761D01*
X132429285Y-101957142D01*
X132524523Y-101814285D01*
X132572142Y-101623809D01*
X132572142Y-101242857D01*
X132524523Y-101147619D01*
X132476904Y-101100000D01*
X132381666Y-101052380D01*
X132191190Y-101052380D01*
X132095952Y-101100000D01*
X132048333Y-101147619D01*
X132000714Y-101242857D01*
X132000714Y-101480952D01*
X132048333Y-101576190D01*
X132095952Y-101623809D01*
X132191190Y-101671428D01*
X132381666Y-101671428D01*
X132476904Y-101623809D01*
X132524523Y-101576190D01*
X132572142Y-101480952D01*
X132857857Y-101052380D02*
X133191190Y-102052380D01*
X133524523Y-101052380D01*
X136779047Y-104211428D02*
X137540952Y-104211428D01*
X127889047Y-104211428D02*
X128650952Y-104211428D01*
X128270000Y-104592380D02*
X128270000Y-103830476D01*
D11*
%TO.C,C1*%
X109655000Y-106910000D02*
X109655000Y-111450000D01*
X107515000Y-106910000D02*
X107515000Y-111450000D01*
X109655000Y-106910000D02*
X109640000Y-106910000D01*
X107530000Y-106910000D02*
X107515000Y-106910000D01*
X109655000Y-111450000D02*
X109640000Y-111450000D01*
X107530000Y-111450000D02*
X107515000Y-111450000D01*
%TO.C,C2*%
X135335000Y-112375000D02*
G75*
G03*
X135335000Y-112375000I-2620000J0D01*
G01*
X135295000Y-112375000D02*
X130135000Y-112375000D01*
X135295000Y-112415000D02*
X130135000Y-112415000D01*
X135294000Y-112455000D02*
X130136000Y-112455000D01*
X135293000Y-112495000D02*
X130137000Y-112495000D01*
X135291000Y-112535000D02*
X130139000Y-112535000D01*
X135288000Y-112575000D02*
X130142000Y-112575000D01*
X135284000Y-112615000D02*
X133755000Y-112615000D01*
X131675000Y-112615000D02*
X130146000Y-112615000D01*
X135280000Y-112655000D02*
X133755000Y-112655000D01*
X131675000Y-112655000D02*
X130150000Y-112655000D01*
X135276000Y-112695000D02*
X133755000Y-112695000D01*
X131675000Y-112695000D02*
X130154000Y-112695000D01*
X135271000Y-112735000D02*
X133755000Y-112735000D01*
X131675000Y-112735000D02*
X130159000Y-112735000D01*
X135265000Y-112775000D02*
X133755000Y-112775000D01*
X131675000Y-112775000D02*
X130165000Y-112775000D01*
X135258000Y-112815000D02*
X133755000Y-112815000D01*
X131675000Y-112815000D02*
X130172000Y-112815000D01*
X135251000Y-112855000D02*
X133755000Y-112855000D01*
X131675000Y-112855000D02*
X130179000Y-112855000D01*
X135243000Y-112895000D02*
X133755000Y-112895000D01*
X131675000Y-112895000D02*
X130187000Y-112895000D01*
X135235000Y-112935000D02*
X133755000Y-112935000D01*
X131675000Y-112935000D02*
X130195000Y-112935000D01*
X135226000Y-112975000D02*
X133755000Y-112975000D01*
X131675000Y-112975000D02*
X130204000Y-112975000D01*
X135216000Y-113015000D02*
X133755000Y-113015000D01*
X131675000Y-113015000D02*
X130214000Y-113015000D01*
X135206000Y-113055000D02*
X133755000Y-113055000D01*
X131675000Y-113055000D02*
X130224000Y-113055000D01*
X135195000Y-113096000D02*
X133755000Y-113096000D01*
X131675000Y-113096000D02*
X130235000Y-113096000D01*
X135183000Y-113136000D02*
X133755000Y-113136000D01*
X131675000Y-113136000D02*
X130247000Y-113136000D01*
X135170000Y-113176000D02*
X133755000Y-113176000D01*
X131675000Y-113176000D02*
X130260000Y-113176000D01*
X135157000Y-113216000D02*
X133755000Y-113216000D01*
X131675000Y-113216000D02*
X130273000Y-113216000D01*
X135143000Y-113256000D02*
X133755000Y-113256000D01*
X131675000Y-113256000D02*
X130287000Y-113256000D01*
X135129000Y-113296000D02*
X133755000Y-113296000D01*
X131675000Y-113296000D02*
X130301000Y-113296000D01*
X135113000Y-113336000D02*
X133755000Y-113336000D01*
X131675000Y-113336000D02*
X130317000Y-113336000D01*
X135097000Y-113376000D02*
X133755000Y-113376000D01*
X131675000Y-113376000D02*
X130333000Y-113376000D01*
X135080000Y-113416000D02*
X133755000Y-113416000D01*
X131675000Y-113416000D02*
X130350000Y-113416000D01*
X135063000Y-113456000D02*
X133755000Y-113456000D01*
X131675000Y-113456000D02*
X130367000Y-113456000D01*
X135044000Y-113496000D02*
X133755000Y-113496000D01*
X131675000Y-113496000D02*
X130386000Y-113496000D01*
X135025000Y-113536000D02*
X133755000Y-113536000D01*
X131675000Y-113536000D02*
X130405000Y-113536000D01*
X135005000Y-113576000D02*
X133755000Y-113576000D01*
X131675000Y-113576000D02*
X130425000Y-113576000D01*
X134983000Y-113616000D02*
X133755000Y-113616000D01*
X131675000Y-113616000D02*
X130447000Y-113616000D01*
X134962000Y-113656000D02*
X133755000Y-113656000D01*
X131675000Y-113656000D02*
X130468000Y-113656000D01*
X134939000Y-113696000D02*
X133755000Y-113696000D01*
X131675000Y-113696000D02*
X130491000Y-113696000D01*
X134915000Y-113736000D02*
X133755000Y-113736000D01*
X131675000Y-113736000D02*
X130515000Y-113736000D01*
X134890000Y-113776000D02*
X133755000Y-113776000D01*
X131675000Y-113776000D02*
X130540000Y-113776000D01*
X134864000Y-113816000D02*
X133755000Y-113816000D01*
X131675000Y-113816000D02*
X130566000Y-113816000D01*
X134837000Y-113856000D02*
X133755000Y-113856000D01*
X131675000Y-113856000D02*
X130593000Y-113856000D01*
X134810000Y-113896000D02*
X133755000Y-113896000D01*
X131675000Y-113896000D02*
X130620000Y-113896000D01*
X134780000Y-113936000D02*
X133755000Y-113936000D01*
X131675000Y-113936000D02*
X130650000Y-113936000D01*
X134750000Y-113976000D02*
X133755000Y-113976000D01*
X131675000Y-113976000D02*
X130680000Y-113976000D01*
X134719000Y-114016000D02*
X133755000Y-114016000D01*
X131675000Y-114016000D02*
X130711000Y-114016000D01*
X134686000Y-114056000D02*
X133755000Y-114056000D01*
X131675000Y-114056000D02*
X130744000Y-114056000D01*
X134652000Y-114096000D02*
X133755000Y-114096000D01*
X131675000Y-114096000D02*
X130778000Y-114096000D01*
X134616000Y-114136000D02*
X133755000Y-114136000D01*
X131675000Y-114136000D02*
X130814000Y-114136000D01*
X134579000Y-114176000D02*
X133755000Y-114176000D01*
X131675000Y-114176000D02*
X130851000Y-114176000D01*
X134541000Y-114216000D02*
X133755000Y-114216000D01*
X131675000Y-114216000D02*
X130889000Y-114216000D01*
X134500000Y-114256000D02*
X133755000Y-114256000D01*
X131675000Y-114256000D02*
X130930000Y-114256000D01*
X134458000Y-114296000D02*
X133755000Y-114296000D01*
X131675000Y-114296000D02*
X130972000Y-114296000D01*
X134414000Y-114336000D02*
X133755000Y-114336000D01*
X131675000Y-114336000D02*
X131016000Y-114336000D01*
X134368000Y-114376000D02*
X133755000Y-114376000D01*
X131675000Y-114376000D02*
X131062000Y-114376000D01*
X134320000Y-114416000D02*
X133755000Y-114416000D01*
X131675000Y-114416000D02*
X131110000Y-114416000D01*
X134269000Y-114456000D02*
X133755000Y-114456000D01*
X131675000Y-114456000D02*
X131161000Y-114456000D01*
X134215000Y-114496000D02*
X133755000Y-114496000D01*
X131675000Y-114496000D02*
X131215000Y-114496000D01*
X134158000Y-114536000D02*
X133755000Y-114536000D01*
X131675000Y-114536000D02*
X131272000Y-114536000D01*
X134098000Y-114576000D02*
X133755000Y-114576000D01*
X131675000Y-114576000D02*
X131332000Y-114576000D01*
X134034000Y-114616000D02*
X133755000Y-114616000D01*
X131675000Y-114616000D02*
X131396000Y-114616000D01*
X133966000Y-114656000D02*
X133755000Y-114656000D01*
X131675000Y-114656000D02*
X131464000Y-114656000D01*
X133893000Y-114696000D02*
X131537000Y-114696000D01*
X133813000Y-114736000D02*
X131617000Y-114736000D01*
X133726000Y-114776000D02*
X131704000Y-114776000D01*
X133630000Y-114816000D02*
X131800000Y-114816000D01*
X133520000Y-114856000D02*
X131910000Y-114856000D01*
X133392000Y-114896000D02*
X132038000Y-114896000D01*
X133233000Y-114936000D02*
X132197000Y-114936000D01*
X132999000Y-114976000D02*
X132431000Y-114976000D01*
X134190000Y-109570225D02*
X134190000Y-110070225D01*
X134440000Y-109820225D02*
X133940000Y-109820225D01*
%TO.C,C3*%
X109640000Y-129215000D02*
X109655000Y-129215000D01*
X107515000Y-129215000D02*
X107530000Y-129215000D01*
X109640000Y-133755000D02*
X109655000Y-133755000D01*
X107515000Y-133755000D02*
X107530000Y-133755000D01*
X109655000Y-133755000D02*
X109655000Y-129215000D01*
X107515000Y-133755000D02*
X107515000Y-129215000D01*
%TO.C,J1*%
X130115000Y-102810000D02*
X130115000Y-105470000D01*
X132715000Y-102810000D02*
X130115000Y-102810000D01*
X132715000Y-105470000D02*
X130115000Y-105470000D01*
X132715000Y-102810000D02*
X132715000Y-105470000D01*
X133985000Y-102810000D02*
X135315000Y-102810000D01*
X135315000Y-102810000D02*
X135315000Y-104140000D01*
%TO.C,J2*%
X135315000Y-135195000D02*
X135315000Y-136525000D01*
X133985000Y-135195000D02*
X135315000Y-135195000D01*
X132715000Y-135195000D02*
X132715000Y-137855000D01*
X132715000Y-137855000D02*
X130115000Y-137855000D01*
X132715000Y-135195000D02*
X130115000Y-135195000D01*
X130115000Y-135195000D02*
X130115000Y-137855000D01*
%TO.C,R1*%
X104545000Y-113415000D02*
X104545000Y-103675000D01*
X92955000Y-113415000D02*
X92955000Y-111925000D01*
X101485000Y-113415000D02*
X104545000Y-113415000D01*
X92955000Y-103665000D02*
X97675000Y-103665000D01*
X101485000Y-103675000D02*
X104545000Y-103675000D01*
X92955000Y-113415000D02*
X97675000Y-113415000D01*
X92955000Y-104855000D02*
X92955000Y-103675000D01*
X92955000Y-107755000D02*
X92955000Y-107225000D01*
X92955000Y-110205000D02*
X92955000Y-109375000D01*
%TO.C,R2*%
X101695000Y-121385000D02*
X101695000Y-118645000D01*
X101695000Y-118645000D02*
X95155000Y-118645000D01*
X95155000Y-118645000D02*
X95155000Y-121385000D01*
X95155000Y-121385000D02*
X101695000Y-121385000D01*
X102465000Y-120015000D02*
X101695000Y-120015000D01*
X94385000Y-120015000D02*
X95155000Y-120015000D01*
%TO.C,R3*%
X132715000Y-121055000D02*
X132715000Y-121825000D01*
X132715000Y-129135000D02*
X132715000Y-128365000D01*
X131345000Y-121825000D02*
X131345000Y-128365000D01*
X134085000Y-121825000D02*
X131345000Y-121825000D01*
X134085000Y-128365000D02*
X134085000Y-121825000D01*
X131345000Y-128365000D02*
X134085000Y-128365000D01*
%TO.C,R4*%
X92955000Y-133065000D02*
X92955000Y-132235000D01*
X92955000Y-130615000D02*
X92955000Y-130085000D01*
X92955000Y-127715000D02*
X92955000Y-126535000D01*
X92955000Y-136275000D02*
X97675000Y-136275000D01*
X101485000Y-126535000D02*
X104545000Y-126535000D01*
X92955000Y-126525000D02*
X97675000Y-126525000D01*
X101485000Y-136275000D02*
X104545000Y-136275000D01*
X92955000Y-136275000D02*
X92955000Y-134785000D01*
X104545000Y-136275000D02*
X104545000Y-126535000D01*
%TO.C,U1*%
X113605000Y-110220000D02*
X113605000Y-111870000D01*
X113605000Y-111870000D02*
X123885000Y-111870000D01*
X123885000Y-111870000D02*
X123885000Y-106570000D01*
X123885000Y-106570000D02*
X113605000Y-106570000D01*
X113605000Y-106570000D02*
X113605000Y-108220000D01*
X113605000Y-108220000D02*
G75*
G02*
X113605000Y-110220000I0J-1000000D01*
G01*
%TO.C,U2*%
X113605000Y-128795000D02*
X113605000Y-130445000D01*
X123885000Y-128795000D02*
X113605000Y-128795000D01*
X123885000Y-134095000D02*
X123885000Y-128795000D01*
X113605000Y-134095000D02*
X123885000Y-134095000D01*
X113605000Y-132445000D02*
X113605000Y-134095000D01*
X113605000Y-130445000D02*
G75*
G02*
X113605000Y-132445000I0J-1000000D01*
G01*
%TO.C,C1*%
D10*
X108418333Y-114022142D02*
X108370714Y-114069761D01*
X108227857Y-114117380D01*
X108132619Y-114117380D01*
X107989761Y-114069761D01*
X107894523Y-113974523D01*
X107846904Y-113879285D01*
X107799285Y-113688809D01*
X107799285Y-113545952D01*
X107846904Y-113355476D01*
X107894523Y-113260238D01*
X107989761Y-113165000D01*
X108132619Y-113117380D01*
X108227857Y-113117380D01*
X108370714Y-113165000D01*
X108418333Y-113212619D01*
X109370714Y-114117380D02*
X108799285Y-114117380D01*
X109085000Y-114117380D02*
X109085000Y-113117380D01*
X108989761Y-113260238D01*
X108894523Y-113355476D01*
X108799285Y-113403095D01*
X107465952Y-105227380D02*
X106894523Y-105227380D01*
X107180238Y-105227380D02*
X107180238Y-104227380D01*
X107085000Y-104370238D01*
X106989761Y-104465476D01*
X106894523Y-104513095D01*
X108085000Y-104227380D02*
X108180238Y-104227380D01*
X108275476Y-104275000D01*
X108323095Y-104322619D01*
X108370714Y-104417857D01*
X108418333Y-104608333D01*
X108418333Y-104846428D01*
X108370714Y-105036904D01*
X108323095Y-105132142D01*
X108275476Y-105179761D01*
X108180238Y-105227380D01*
X108085000Y-105227380D01*
X107989761Y-105179761D01*
X107942142Y-105132142D01*
X107894523Y-105036904D01*
X107846904Y-104846428D01*
X107846904Y-104608333D01*
X107894523Y-104417857D01*
X107942142Y-104322619D01*
X107989761Y-104275000D01*
X108085000Y-104227380D01*
X109037380Y-104227380D02*
X109132619Y-104227380D01*
X109227857Y-104275000D01*
X109275476Y-104322619D01*
X109323095Y-104417857D01*
X109370714Y-104608333D01*
X109370714Y-104846428D01*
X109323095Y-105036904D01*
X109275476Y-105132142D01*
X109227857Y-105179761D01*
X109132619Y-105227380D01*
X109037380Y-105227380D01*
X108942142Y-105179761D01*
X108894523Y-105132142D01*
X108846904Y-105036904D01*
X108799285Y-104846428D01*
X108799285Y-104608333D01*
X108846904Y-104417857D01*
X108894523Y-104322619D01*
X108942142Y-104275000D01*
X109037380Y-104227380D01*
X109799285Y-104560714D02*
X109799285Y-105227380D01*
X109799285Y-104655952D02*
X109846904Y-104608333D01*
X109942142Y-104560714D01*
X110085000Y-104560714D01*
X110180238Y-104608333D01*
X110227857Y-104703571D01*
X110227857Y-105227380D01*
%TO.C,C2*%
X132548333Y-116562142D02*
X132500714Y-116609761D01*
X132357857Y-116657380D01*
X132262619Y-116657380D01*
X132119761Y-116609761D01*
X132024523Y-116514523D01*
X131976904Y-116419285D01*
X131929285Y-116228809D01*
X131929285Y-116085952D01*
X131976904Y-115895476D01*
X132024523Y-115800238D01*
X132119761Y-115705000D01*
X132262619Y-115657380D01*
X132357857Y-115657380D01*
X132500714Y-115705000D01*
X132548333Y-115752619D01*
X132929285Y-115752619D02*
X132976904Y-115705000D01*
X133072142Y-115657380D01*
X133310238Y-115657380D01*
X133405476Y-115705000D01*
X133453095Y-115752619D01*
X133500714Y-115847857D01*
X133500714Y-115943095D01*
X133453095Y-116085952D01*
X132881666Y-116657380D01*
X133500714Y-116657380D01*
X132072142Y-109037380D02*
X131500714Y-109037380D01*
X131786428Y-109037380D02*
X131786428Y-108037380D01*
X131691190Y-108180238D01*
X131595952Y-108275476D01*
X131500714Y-108323095D01*
X132691190Y-108037380D02*
X132786428Y-108037380D01*
X132881666Y-108085000D01*
X132929285Y-108132619D01*
X132976904Y-108227857D01*
X133024523Y-108418333D01*
X133024523Y-108656428D01*
X132976904Y-108846904D01*
X132929285Y-108942142D01*
X132881666Y-108989761D01*
X132786428Y-109037380D01*
X132691190Y-109037380D01*
X132595952Y-108989761D01*
X132548333Y-108942142D01*
X132500714Y-108846904D01*
X132453095Y-108656428D01*
X132453095Y-108418333D01*
X132500714Y-108227857D01*
X132548333Y-108132619D01*
X132595952Y-108085000D01*
X132691190Y-108037380D01*
X133881666Y-108370714D02*
X133881666Y-109037380D01*
X133453095Y-108370714D02*
X133453095Y-108894523D01*
X133500714Y-108989761D01*
X133595952Y-109037380D01*
X133738809Y-109037380D01*
X133834047Y-108989761D01*
X133881666Y-108942142D01*
%TO.C,C3*%
X108418333Y-136247142D02*
X108370714Y-136294761D01*
X108227857Y-136342380D01*
X108132619Y-136342380D01*
X107989761Y-136294761D01*
X107894523Y-136199523D01*
X107846904Y-136104285D01*
X107799285Y-135913809D01*
X107799285Y-135770952D01*
X107846904Y-135580476D01*
X107894523Y-135485238D01*
X107989761Y-135390000D01*
X108132619Y-135342380D01*
X108227857Y-135342380D01*
X108370714Y-135390000D01*
X108418333Y-135437619D01*
X108751666Y-135342380D02*
X109370714Y-135342380D01*
X109037380Y-135723333D01*
X109180238Y-135723333D01*
X109275476Y-135770952D01*
X109323095Y-135818571D01*
X109370714Y-135913809D01*
X109370714Y-136151904D01*
X109323095Y-136247142D01*
X109275476Y-136294761D01*
X109180238Y-136342380D01*
X108894523Y-136342380D01*
X108799285Y-136294761D01*
X108751666Y-136247142D01*
X107465952Y-127452380D02*
X106894523Y-127452380D01*
X107180238Y-127452380D02*
X107180238Y-126452380D01*
X107085000Y-126595238D01*
X106989761Y-126690476D01*
X106894523Y-126738095D01*
X108085000Y-126452380D02*
X108180238Y-126452380D01*
X108275476Y-126500000D01*
X108323095Y-126547619D01*
X108370714Y-126642857D01*
X108418333Y-126833333D01*
X108418333Y-127071428D01*
X108370714Y-127261904D01*
X108323095Y-127357142D01*
X108275476Y-127404761D01*
X108180238Y-127452380D01*
X108085000Y-127452380D01*
X107989761Y-127404761D01*
X107942142Y-127357142D01*
X107894523Y-127261904D01*
X107846904Y-127071428D01*
X107846904Y-126833333D01*
X107894523Y-126642857D01*
X107942142Y-126547619D01*
X107989761Y-126500000D01*
X108085000Y-126452380D01*
X109037380Y-126452380D02*
X109132619Y-126452380D01*
X109227857Y-126500000D01*
X109275476Y-126547619D01*
X109323095Y-126642857D01*
X109370714Y-126833333D01*
X109370714Y-127071428D01*
X109323095Y-127261904D01*
X109275476Y-127357142D01*
X109227857Y-127404761D01*
X109132619Y-127452380D01*
X109037380Y-127452380D01*
X108942142Y-127404761D01*
X108894523Y-127357142D01*
X108846904Y-127261904D01*
X108799285Y-127071428D01*
X108799285Y-126833333D01*
X108846904Y-126642857D01*
X108894523Y-126547619D01*
X108942142Y-126500000D01*
X109037380Y-126452380D01*
X109799285Y-126785714D02*
X109799285Y-127452380D01*
X109799285Y-126880952D02*
X109846904Y-126833333D01*
X109942142Y-126785714D01*
X110085000Y-126785714D01*
X110180238Y-126833333D01*
X110227857Y-126928571D01*
X110227857Y-127452380D01*
%TO.C,J1*%
X132381666Y-106132380D02*
X132381666Y-106846666D01*
X132334047Y-106989523D01*
X132238809Y-107084761D01*
X132095952Y-107132380D01*
X132000714Y-107132380D01*
X133381666Y-107132380D02*
X132810238Y-107132380D01*
X133095952Y-107132380D02*
X133095952Y-106132380D01*
X133000714Y-106275238D01*
X132905476Y-106370476D01*
X132810238Y-106418095D01*
%TO.C,J2*%
X132381666Y-138517380D02*
X132381666Y-139231666D01*
X132334047Y-139374523D01*
X132238809Y-139469761D01*
X132095952Y-139517380D01*
X132000714Y-139517380D01*
X132810238Y-138612619D02*
X132857857Y-138565000D01*
X132953095Y-138517380D01*
X133191190Y-138517380D01*
X133286428Y-138565000D01*
X133334047Y-138612619D01*
X133381666Y-138707857D01*
X133381666Y-138803095D01*
X133334047Y-138945952D01*
X132762619Y-139517380D01*
X133381666Y-139517380D01*
%TO.C,R1*%
X98618333Y-116657380D02*
X98285000Y-116181190D01*
X98046904Y-116657380D02*
X98046904Y-115657380D01*
X98427857Y-115657380D01*
X98523095Y-115705000D01*
X98570714Y-115752619D01*
X98618333Y-115847857D01*
X98618333Y-115990714D01*
X98570714Y-116085952D01*
X98523095Y-116133571D01*
X98427857Y-116181190D01*
X98046904Y-116181190D01*
X99570714Y-116657380D02*
X98999285Y-116657380D01*
X99285000Y-116657380D02*
X99285000Y-115657380D01*
X99189761Y-115800238D01*
X99094523Y-115895476D01*
X98999285Y-115943095D01*
X98360714Y-107997380D02*
X97884523Y-107997380D01*
X97836904Y-108473571D01*
X97884523Y-108425952D01*
X97979761Y-108378333D01*
X98217857Y-108378333D01*
X98313095Y-108425952D01*
X98360714Y-108473571D01*
X98408333Y-108568809D01*
X98408333Y-108806904D01*
X98360714Y-108902142D01*
X98313095Y-108949761D01*
X98217857Y-108997380D01*
X97979761Y-108997380D01*
X97884523Y-108949761D01*
X97836904Y-108902142D01*
X99027380Y-107997380D02*
X99122619Y-107997380D01*
X99217857Y-108045000D01*
X99265476Y-108092619D01*
X99313095Y-108187857D01*
X99360714Y-108378333D01*
X99360714Y-108616428D01*
X99313095Y-108806904D01*
X99265476Y-108902142D01*
X99217857Y-108949761D01*
X99122619Y-108997380D01*
X99027380Y-108997380D01*
X98932142Y-108949761D01*
X98884523Y-108902142D01*
X98836904Y-108806904D01*
X98789285Y-108616428D01*
X98789285Y-108378333D01*
X98836904Y-108187857D01*
X98884523Y-108092619D01*
X98932142Y-108045000D01*
X99027380Y-107997380D01*
X99979761Y-107997380D02*
X100075000Y-107997380D01*
X100170238Y-108045000D01*
X100217857Y-108092619D01*
X100265476Y-108187857D01*
X100313095Y-108378333D01*
X100313095Y-108616428D01*
X100265476Y-108806904D01*
X100217857Y-108902142D01*
X100170238Y-108949761D01*
X100075000Y-108997380D01*
X99979761Y-108997380D01*
X99884523Y-108949761D01*
X99836904Y-108902142D01*
X99789285Y-108806904D01*
X99741666Y-108616428D01*
X99741666Y-108378333D01*
X99789285Y-108187857D01*
X99836904Y-108092619D01*
X99884523Y-108045000D01*
X99979761Y-107997380D01*
X100741666Y-108997380D02*
X100741666Y-107997380D01*
X101313095Y-108997380D02*
X100884523Y-108425952D01*
X101313095Y-107997380D02*
X100741666Y-108568809D01*
%TO.C,R2*%
X98258333Y-122837380D02*
X97925000Y-122361190D01*
X97686904Y-122837380D02*
X97686904Y-121837380D01*
X98067857Y-121837380D01*
X98163095Y-121885000D01*
X98210714Y-121932619D01*
X98258333Y-122027857D01*
X98258333Y-122170714D01*
X98210714Y-122265952D01*
X98163095Y-122313571D01*
X98067857Y-122361190D01*
X97686904Y-122361190D01*
X98639285Y-121932619D02*
X98686904Y-121885000D01*
X98782142Y-121837380D01*
X99020238Y-121837380D01*
X99115476Y-121885000D01*
X99163095Y-121932619D01*
X99210714Y-122027857D01*
X99210714Y-122123095D01*
X99163095Y-122265952D01*
X98591666Y-122837380D01*
X99210714Y-122837380D01*
X98210714Y-120467380D02*
X97639285Y-120467380D01*
X97925000Y-120467380D02*
X97925000Y-119467380D01*
X97829761Y-119610238D01*
X97734523Y-119705476D01*
X97639285Y-119753095D01*
X98639285Y-120467380D02*
X98639285Y-119467380D01*
X99210714Y-120467380D02*
X98782142Y-119895952D01*
X99210714Y-119467380D02*
X98639285Y-120038809D01*
%TO.C,R3*%
X132548333Y-132532380D02*
X132215000Y-132056190D01*
X131976904Y-132532380D02*
X131976904Y-131532380D01*
X132357857Y-131532380D01*
X132453095Y-131580000D01*
X132500714Y-131627619D01*
X132548333Y-131722857D01*
X132548333Y-131865714D01*
X132500714Y-131960952D01*
X132453095Y-132008571D01*
X132357857Y-132056190D01*
X131976904Y-132056190D01*
X132881666Y-131532380D02*
X133500714Y-131532380D01*
X133167380Y-131913333D01*
X133310238Y-131913333D01*
X133405476Y-131960952D01*
X133453095Y-132008571D01*
X133500714Y-132103809D01*
X133500714Y-132341904D01*
X133453095Y-132437142D01*
X133405476Y-132484761D01*
X133310238Y-132532380D01*
X133024523Y-132532380D01*
X132929285Y-132484761D01*
X132881666Y-132437142D01*
X133167380Y-125761666D02*
X133167380Y-126333095D01*
X133167380Y-126047380D02*
X132167380Y-126047380D01*
X132310238Y-126142619D01*
X132405476Y-126237857D01*
X132453095Y-126333095D01*
X132167380Y-125142619D02*
X132167380Y-125047380D01*
X132215000Y-124952142D01*
X132262619Y-124904523D01*
X132357857Y-124856904D01*
X132548333Y-124809285D01*
X132786428Y-124809285D01*
X132976904Y-124856904D01*
X133072142Y-124904523D01*
X133119761Y-124952142D01*
X133167380Y-125047380D01*
X133167380Y-125142619D01*
X133119761Y-125237857D01*
X133072142Y-125285476D01*
X132976904Y-125333095D01*
X132786428Y-125380714D01*
X132548333Y-125380714D01*
X132357857Y-125333095D01*
X132262619Y-125285476D01*
X132215000Y-125237857D01*
X132167380Y-125142619D01*
X132167380Y-124190238D02*
X132167380Y-124095000D01*
X132215000Y-123999761D01*
X132262619Y-123952142D01*
X132357857Y-123904523D01*
X132548333Y-123856904D01*
X132786428Y-123856904D01*
X132976904Y-123904523D01*
X133072142Y-123952142D01*
X133119761Y-123999761D01*
X133167380Y-124095000D01*
X133167380Y-124190238D01*
X133119761Y-124285476D01*
X133072142Y-124333095D01*
X132976904Y-124380714D01*
X132786428Y-124428333D01*
X132548333Y-124428333D01*
X132357857Y-124380714D01*
X132262619Y-124333095D01*
X132215000Y-124285476D01*
X132167380Y-124190238D01*
%TO.C,R4*%
X98618333Y-139517380D02*
X98285000Y-139041190D01*
X98046904Y-139517380D02*
X98046904Y-138517380D01*
X98427857Y-138517380D01*
X98523095Y-138565000D01*
X98570714Y-138612619D01*
X98618333Y-138707857D01*
X98618333Y-138850714D01*
X98570714Y-138945952D01*
X98523095Y-138993571D01*
X98427857Y-139041190D01*
X98046904Y-139041190D01*
X99475476Y-138850714D02*
X99475476Y-139517380D01*
X99237380Y-138469761D02*
X98999285Y-139184047D01*
X99618333Y-139184047D01*
X98360714Y-130857380D02*
X97884523Y-130857380D01*
X97836904Y-131333571D01*
X97884523Y-131285952D01*
X97979761Y-131238333D01*
X98217857Y-131238333D01*
X98313095Y-131285952D01*
X98360714Y-131333571D01*
X98408333Y-131428809D01*
X98408333Y-131666904D01*
X98360714Y-131762142D01*
X98313095Y-131809761D01*
X98217857Y-131857380D01*
X97979761Y-131857380D01*
X97884523Y-131809761D01*
X97836904Y-131762142D01*
X99027380Y-130857380D02*
X99122619Y-130857380D01*
X99217857Y-130905000D01*
X99265476Y-130952619D01*
X99313095Y-131047857D01*
X99360714Y-131238333D01*
X99360714Y-131476428D01*
X99313095Y-131666904D01*
X99265476Y-131762142D01*
X99217857Y-131809761D01*
X99122619Y-131857380D01*
X99027380Y-131857380D01*
X98932142Y-131809761D01*
X98884523Y-131762142D01*
X98836904Y-131666904D01*
X98789285Y-131476428D01*
X98789285Y-131238333D01*
X98836904Y-131047857D01*
X98884523Y-130952619D01*
X98932142Y-130905000D01*
X99027380Y-130857380D01*
X99979761Y-130857380D02*
X100075000Y-130857380D01*
X100170238Y-130905000D01*
X100217857Y-130952619D01*
X100265476Y-131047857D01*
X100313095Y-131238333D01*
X100313095Y-131476428D01*
X100265476Y-131666904D01*
X100217857Y-131762142D01*
X100170238Y-131809761D01*
X100075000Y-131857380D01*
X99979761Y-131857380D01*
X99884523Y-131809761D01*
X99836904Y-131762142D01*
X99789285Y-131666904D01*
X99741666Y-131476428D01*
X99741666Y-131238333D01*
X99789285Y-131047857D01*
X99836904Y-130952619D01*
X99884523Y-130905000D01*
X99979761Y-130857380D01*
X100741666Y-131857380D02*
X100741666Y-130857380D01*
X101313095Y-131857380D02*
X100884523Y-131285952D01*
X101313095Y-130857380D02*
X100741666Y-131428809D01*
%TO.C,U1*%
X117983095Y-114387380D02*
X117983095Y-115196904D01*
X118030714Y-115292142D01*
X118078333Y-115339761D01*
X118173571Y-115387380D01*
X118364047Y-115387380D01*
X118459285Y-115339761D01*
X118506904Y-115292142D01*
X118554523Y-115196904D01*
X118554523Y-114387380D01*
X119554523Y-115387380D02*
X118983095Y-115387380D01*
X119268809Y-115387380D02*
X119268809Y-114387380D01*
X119173571Y-114530238D01*
X119078333Y-114625476D01*
X118983095Y-114673095D01*
X116713333Y-109672380D02*
X116713333Y-108672380D01*
X117284761Y-109672380D01*
X117284761Y-108672380D01*
X117760952Y-109148571D02*
X118094285Y-109148571D01*
X118237142Y-109672380D02*
X117760952Y-109672380D01*
X117760952Y-108672380D01*
X118237142Y-108672380D01*
X119141904Y-108672380D02*
X118665714Y-108672380D01*
X118618095Y-109148571D01*
X118665714Y-109100952D01*
X118760952Y-109053333D01*
X118999047Y-109053333D01*
X119094285Y-109100952D01*
X119141904Y-109148571D01*
X119189523Y-109243809D01*
X119189523Y-109481904D01*
X119141904Y-109577142D01*
X119094285Y-109624761D01*
X118999047Y-109672380D01*
X118760952Y-109672380D01*
X118665714Y-109624761D01*
X118618095Y-109577142D01*
X120094285Y-108672380D02*
X119618095Y-108672380D01*
X119570476Y-109148571D01*
X119618095Y-109100952D01*
X119713333Y-109053333D01*
X119951428Y-109053333D01*
X120046666Y-109100952D01*
X120094285Y-109148571D01*
X120141904Y-109243809D01*
X120141904Y-109481904D01*
X120094285Y-109577142D01*
X120046666Y-109624761D01*
X119951428Y-109672380D01*
X119713333Y-109672380D01*
X119618095Y-109624761D01*
X119570476Y-109577142D01*
X121046666Y-108672380D02*
X120570476Y-108672380D01*
X120522857Y-109148571D01*
X120570476Y-109100952D01*
X120665714Y-109053333D01*
X120903809Y-109053333D01*
X120999047Y-109100952D01*
X121046666Y-109148571D01*
X121094285Y-109243809D01*
X121094285Y-109481904D01*
X121046666Y-109577142D01*
X120999047Y-109624761D01*
X120903809Y-109672380D01*
X120665714Y-109672380D01*
X120570476Y-109624761D01*
X120522857Y-109577142D01*
X121522857Y-109672380D02*
X121522857Y-108672380D01*
X121903809Y-108672380D01*
X121999047Y-108720000D01*
X122046666Y-108767619D01*
X122094285Y-108862857D01*
X122094285Y-109005714D01*
X122046666Y-109100952D01*
X121999047Y-109148571D01*
X121903809Y-109196190D01*
X121522857Y-109196190D01*
%TO.C,U2*%
X117983095Y-136612380D02*
X117983095Y-137421904D01*
X118030714Y-137517142D01*
X118078333Y-137564761D01*
X118173571Y-137612380D01*
X118364047Y-137612380D01*
X118459285Y-137564761D01*
X118506904Y-137517142D01*
X118554523Y-137421904D01*
X118554523Y-136612380D01*
X118983095Y-136707619D02*
X119030714Y-136660000D01*
X119125952Y-136612380D01*
X119364047Y-136612380D01*
X119459285Y-136660000D01*
X119506904Y-136707619D01*
X119554523Y-136802857D01*
X119554523Y-136898095D01*
X119506904Y-137040952D01*
X118935476Y-137612380D01*
X119554523Y-137612380D01*
X116713333Y-131897380D02*
X116713333Y-130897380D01*
X117284761Y-131897380D01*
X117284761Y-130897380D01*
X117760952Y-131373571D02*
X118094285Y-131373571D01*
X118237142Y-131897380D02*
X117760952Y-131897380D01*
X117760952Y-130897380D01*
X118237142Y-130897380D01*
X119141904Y-130897380D02*
X118665714Y-130897380D01*
X118618095Y-131373571D01*
X118665714Y-131325952D01*
X118760952Y-131278333D01*
X118999047Y-131278333D01*
X119094285Y-131325952D01*
X119141904Y-131373571D01*
X119189523Y-131468809D01*
X119189523Y-131706904D01*
X119141904Y-131802142D01*
X119094285Y-131849761D01*
X118999047Y-131897380D01*
X118760952Y-131897380D01*
X118665714Y-131849761D01*
X118618095Y-131802142D01*
X120094285Y-130897380D02*
X119618095Y-130897380D01*
X119570476Y-131373571D01*
X119618095Y-131325952D01*
X119713333Y-131278333D01*
X119951428Y-131278333D01*
X120046666Y-131325952D01*
X120094285Y-131373571D01*
X120141904Y-131468809D01*
X120141904Y-131706904D01*
X120094285Y-131802142D01*
X120046666Y-131849761D01*
X119951428Y-131897380D01*
X119713333Y-131897380D01*
X119618095Y-131849761D01*
X119570476Y-131802142D01*
X121046666Y-130897380D02*
X120570476Y-130897380D01*
X120522857Y-131373571D01*
X120570476Y-131325952D01*
X120665714Y-131278333D01*
X120903809Y-131278333D01*
X120999047Y-131325952D01*
X121046666Y-131373571D01*
X121094285Y-131468809D01*
X121094285Y-131706904D01*
X121046666Y-131802142D01*
X120999047Y-131849761D01*
X120903809Y-131897380D01*
X120665714Y-131897380D01*
X120570476Y-131849761D01*
X120522857Y-131802142D01*
X121522857Y-131897380D02*
X121522857Y-130897380D01*
X121903809Y-130897380D01*
X121999047Y-130945000D01*
X122046666Y-130992619D01*
X122094285Y-131087857D01*
X122094285Y-131230714D01*
X122046666Y-131325952D01*
X121999047Y-131373571D01*
X121903809Y-131421190D01*
X121522857Y-131421190D01*
%TD*%
M02*
