%TF.GenerationSoftware,KiCad,Pcbnew,5.1.6-c6e7f7d~87~ubuntu18.04.1*%
%TF.CreationDate,2021-05-03T12:22:11+02:00*%
%TF.ProjectId,atari_punk,61746172-695f-4707-956e-6b2e6b696361,rev?*%
%TF.SameCoordinates,Original*%
%TF.FileFunction,Soldermask,Bot*%
%TF.FilePolarity,Negative*%
%FSLAX46Y46*%
G04 Gerber Fmt 4.6, Leading zero omitted, Abs format (unit mm)*
G04 Created by KiCad (PCBNEW 5.1.6-c6e7f7d~87~ubuntu18.04.1) date 2021-05-03 12:22:11*
%MOMM*%
%LPD*%
G01*
G04 APERTURE LIST*
%ADD10O,2.300000X3.600000*%
%ADD11O,1.600000X2.600000*%
%ADD12R,1.600000X2.600000*%
%ADD13O,1.800000X1.800000*%
%ADD14R,1.800000X1.800000*%
%ADD15O,1.700000X1.700000*%
%ADD16C,1.700000*%
%ADD17R,1.700000X1.700000*%
%ADD18R,1.900000X1.900000*%
%ADD19C,1.900000*%
%ADD20O,3.340000X2.820000*%
G04 APERTURE END LIST*
D10*
%TO.C,SW1*%
X117725000Y-100076000D03*
X125925000Y-100076000D03*
D11*
X119825000Y-100076000D03*
X121825000Y-100076000D03*
D12*
X123825000Y-100076000D03*
%TD*%
D13*
%TO.C,J2*%
X131318000Y-136652000D03*
D14*
X133858000Y-136652000D03*
%TD*%
D13*
%TO.C,J1*%
X131318000Y-104140000D03*
D14*
X133858000Y-104140000D03*
%TD*%
D15*
%TO.C,R6*%
X90932000Y-125984000D03*
D16*
X90932000Y-136144000D03*
%TD*%
D15*
%TO.C,R5*%
X90932000Y-103886000D03*
D16*
X90932000Y-114046000D03*
%TD*%
%TO.C,C1*%
X111379000Y-106680000D03*
X111379000Y-111680000D03*
%TD*%
D17*
%TO.C,C2*%
X132715000Y-111125000D03*
D16*
X132715000Y-113625000D03*
%TD*%
%TO.C,C3*%
X111379000Y-128985000D03*
X111379000Y-133985000D03*
%TD*%
D18*
%TO.C,R1*%
X94869000Y-106045000D03*
D19*
X94869000Y-108545000D03*
X94869000Y-111045000D03*
D20*
X102369000Y-113345000D03*
X102369000Y-103745000D03*
%TD*%
D16*
%TO.C,R2*%
X106299000Y-120015000D03*
D15*
X96139000Y-120015000D03*
%TD*%
%TO.C,R3*%
X132715000Y-120015000D03*
D16*
X132715000Y-130175000D03*
%TD*%
D20*
%TO.C,R4*%
X102369000Y-126605000D03*
X102369000Y-136205000D03*
D19*
X94869000Y-133905000D03*
X94869000Y-131405000D03*
D18*
X94869000Y-128905000D03*
%TD*%
D17*
%TO.C,U1*%
X117729000Y-113030000D03*
D15*
X125349000Y-105410000D03*
X120269000Y-113030000D03*
X122809000Y-105410000D03*
X122809000Y-113030000D03*
X120269000Y-105410000D03*
X125349000Y-113030000D03*
X117729000Y-105410000D03*
%TD*%
%TO.C,U2*%
X117729000Y-127635000D03*
X125349000Y-135255000D03*
X120269000Y-127635000D03*
X122809000Y-135255000D03*
X122809000Y-127635000D03*
X120269000Y-135255000D03*
X125349000Y-127635000D03*
D17*
X117729000Y-135255000D03*
%TD*%
M02*
