%TF.GenerationSoftware,KiCad,Pcbnew,5.1.6-c6e7f7d~87~ubuntu18.04.1*%
%TF.CreationDate,2020-12-24T16:50:43+01:00*%
%TF.ProjectId,atari_punk,61746172-695f-4707-956e-6b2e6b696361,rev?*%
%TF.SameCoordinates,Original*%
%TF.FileFunction,Copper,L1,Top*%
%TF.FilePolarity,Positive*%
%FSLAX46Y46*%
G04 Gerber Fmt 4.6, Leading zero omitted, Abs format (unit mm)*
G04 Created by KiCad (PCBNEW 5.1.6-c6e7f7d~87~ubuntu18.04.1) date 2020-12-24 16:50:43*
%MOMM*%
%LPD*%
G01*
G04 APERTURE LIST*
%TA.AperFunction,ComponentPad*%
%ADD10C,1.600000*%
%TD*%
%TA.AperFunction,ComponentPad*%
%ADD11R,1.600000X1.600000*%
%TD*%
%TA.AperFunction,ComponentPad*%
%ADD12R,1.700000X1.700000*%
%TD*%
%TA.AperFunction,ComponentPad*%
%ADD13O,1.700000X1.700000*%
%TD*%
%TA.AperFunction,ComponentPad*%
%ADD14R,1.800000X1.800000*%
%TD*%
%TA.AperFunction,ComponentPad*%
%ADD15C,1.800000*%
%TD*%
%TA.AperFunction,ComponentPad*%
%ADD16O,3.240000X2.720000*%
%TD*%
%TA.AperFunction,ComponentPad*%
%ADD17O,1.600000X1.600000*%
%TD*%
%TA.AperFunction,Conductor*%
%ADD18C,0.609600*%
%TD*%
%TA.AperFunction,Conductor*%
%ADD19C,0.254000*%
%TD*%
G04 APERTURE END LIST*
D10*
%TO.P,C1,1*%
%TO.N,GND*%
X108585000Y-106680000D03*
%TO.P,C1,2*%
%TO.N,Net-(C1-Pad2)*%
X108585000Y-111680000D03*
%TD*%
D11*
%TO.P,C2,1*%
%TO.N,Net-(C2-Pad1)*%
X132715000Y-111125000D03*
D10*
%TO.P,C2,2*%
%TO.N,Net-(C2-Pad2)*%
X132715000Y-113625000D03*
%TD*%
%TO.P,C3,2*%
%TO.N,GND*%
X108585000Y-128985000D03*
%TO.P,C3,1*%
%TO.N,Net-(C3-Pad1)*%
X108585000Y-133985000D03*
%TD*%
D12*
%TO.P,J1,1*%
%TO.N,GND*%
X133985000Y-104140000D03*
D13*
%TO.P,J1,2*%
%TO.N,+9V*%
X131445000Y-104140000D03*
%TD*%
%TO.P,J2,2*%
%TO.N,AUDIO*%
X131445000Y-136525000D03*
D12*
%TO.P,J2,1*%
%TO.N,GND*%
X133985000Y-136525000D03*
%TD*%
D14*
%TO.P,R1,1*%
%TO.N,+9V*%
X92075000Y-106045000D03*
D15*
%TO.P,R1,2*%
%TO.N,Net-(R1-Pad2)*%
X92075000Y-108545000D03*
%TO.P,R1,3*%
%TO.N,N/C*%
X92075000Y-111045000D03*
D16*
%TO.P,R1,*%
%TO.N,*%
X99575000Y-113345000D03*
X99575000Y-103745000D03*
%TD*%
D10*
%TO.P,R2,1*%
%TO.N,Net-(C1-Pad2)*%
X103505000Y-120015000D03*
D17*
%TO.P,R2,2*%
%TO.N,Net-(R1-Pad2)*%
X93345000Y-120015000D03*
%TD*%
%TO.P,R3,2*%
%TO.N,Net-(C2-Pad2)*%
X132715000Y-120015000D03*
D10*
%TO.P,R3,1*%
%TO.N,AUDIO*%
X132715000Y-130175000D03*
%TD*%
D16*
%TO.P,R4,*%
%TO.N,*%
X99575000Y-126605000D03*
X99575000Y-136205000D03*
D15*
%TO.P,R4,3*%
%TO.N,N/C*%
X92075000Y-133905000D03*
%TO.P,R4,2*%
%TO.N,Net-(C3-Pad1)*%
X92075000Y-131405000D03*
D14*
%TO.P,R4,1*%
%TO.N,+9V*%
X92075000Y-128905000D03*
%TD*%
D11*
%TO.P,U1,1*%
%TO.N,GND*%
X114935000Y-113030000D03*
D17*
%TO.P,U1,5*%
%TO.N,Net-(U1-Pad5)*%
X122555000Y-105410000D03*
%TO.P,U1,2*%
%TO.N,Net-(C1-Pad2)*%
X117475000Y-113030000D03*
%TO.P,U1,6*%
X120015000Y-105410000D03*
%TO.P,U1,3*%
%TO.N,Net-(U1-Pad3)*%
X120015000Y-113030000D03*
%TO.P,U1,7*%
%TO.N,Net-(R1-Pad2)*%
X117475000Y-105410000D03*
%TO.P,U1,4*%
%TO.N,+9V*%
X122555000Y-113030000D03*
%TO.P,U1,8*%
X114935000Y-105410000D03*
%TD*%
%TO.P,U2,8*%
%TO.N,+9V*%
X114935000Y-127635000D03*
%TO.P,U2,4*%
X122555000Y-135255000D03*
%TO.P,U2,7*%
%TO.N,Net-(C3-Pad1)*%
X117475000Y-127635000D03*
%TO.P,U2,3*%
%TO.N,Net-(C2-Pad1)*%
X120015000Y-135255000D03*
%TO.P,U2,6*%
%TO.N,Net-(C3-Pad1)*%
X120015000Y-127635000D03*
%TO.P,U2,2*%
%TO.N,Net-(U1-Pad3)*%
X117475000Y-135255000D03*
%TO.P,U2,5*%
%TO.N,Net-(U2-Pad5)*%
X122555000Y-127635000D03*
D11*
%TO.P,U2,1*%
%TO.N,GND*%
X114935000Y-135255000D03*
%TD*%
D18*
%TO.N,Net-(C1-Pad2)*%
X108585000Y-114935000D02*
X103505000Y-120015000D01*
X108585000Y-111680000D02*
X108585000Y-114935000D01*
X120015000Y-110490000D02*
X117475000Y-113030000D01*
X120015000Y-105410000D02*
X120015000Y-110490000D01*
X117475000Y-114300000D02*
X117475000Y-113030000D01*
X116205000Y-115570000D02*
X117475000Y-114300000D01*
X109220000Y-115570000D02*
X116205000Y-115570000D01*
X108585000Y-114935000D02*
X109220000Y-115570000D01*
%TO.N,Net-(C2-Pad1)*%
X130175000Y-113665000D02*
X132715000Y-111125000D01*
X130175000Y-127000000D02*
X130175000Y-113665000D01*
X123825000Y-133350000D02*
X130175000Y-127000000D01*
X121285000Y-133350000D02*
X123825000Y-133350000D01*
X120015000Y-134620000D02*
X121285000Y-133350000D01*
X120015000Y-135255000D02*
X120015000Y-134620000D01*
%TO.N,Net-(C2-Pad2)*%
X132715000Y-113625000D02*
X132715000Y-120015000D01*
%TO.N,Net-(C3-Pad1)*%
X117475000Y-127635000D02*
X120015000Y-127635000D01*
X111125000Y-133985000D02*
X108585000Y-133985000D01*
X117475000Y-127635000D02*
X111125000Y-133985000D01*
X92750000Y-132080000D02*
X92075000Y-131405000D01*
X106680000Y-132080000D02*
X92750000Y-132080000D01*
X108585000Y-133985000D02*
X106680000Y-132080000D01*
%TO.N,AUDIO*%
X131445000Y-133350000D02*
X131445000Y-136525000D01*
X132715000Y-132080000D02*
X131445000Y-133350000D01*
X132715000Y-130175000D02*
X132715000Y-132080000D01*
%TO.N,Net-(R1-Pad2)*%
X94144999Y-119215001D02*
X94144999Y-110614999D01*
X94144999Y-110614999D02*
X92075000Y-108545000D01*
X93345000Y-120015000D02*
X94144999Y-119215001D01*
X95539998Y-109220000D02*
X94144999Y-110614999D01*
X115570000Y-109220000D02*
X95539998Y-109220000D01*
X117475000Y-107315000D02*
X115570000Y-109220000D01*
X117475000Y-105410000D02*
X117475000Y-107315000D01*
%TO.N,Net-(U1-Pad3)*%
X121920000Y-129540000D02*
X117475000Y-133985000D01*
X124460000Y-128270000D02*
X123190000Y-129540000D01*
X124460000Y-119380000D02*
X124460000Y-128270000D01*
X117475000Y-133985000D02*
X117475000Y-135255000D01*
X120015000Y-114935000D02*
X124460000Y-119380000D01*
X123190000Y-129540000D02*
X121920000Y-129540000D01*
X120015000Y-113030000D02*
X120015000Y-114935000D01*
%TD*%
D19*
%TO.N,+9V*%
G36*
X137277869Y-100369722D02*
G01*
X137391246Y-100403953D01*
X137495819Y-100459555D01*
X137587596Y-100534407D01*
X137663091Y-100625664D01*
X137719419Y-100729844D01*
X137754440Y-100842976D01*
X137770000Y-100991022D01*
X137770001Y-139667711D01*
X137755278Y-139817869D01*
X137721047Y-139931246D01*
X137665446Y-140035817D01*
X137590594Y-140127595D01*
X137499335Y-140203091D01*
X137395160Y-140259419D01*
X137282024Y-140294440D01*
X137133979Y-140310000D01*
X89567279Y-140310000D01*
X89417131Y-140295278D01*
X89303754Y-140261047D01*
X89199183Y-140205446D01*
X89107405Y-140130594D01*
X89031909Y-140039335D01*
X88975581Y-139935160D01*
X88940560Y-139822024D01*
X88925000Y-139673979D01*
X88925000Y-136205000D01*
X97310348Y-136205000D01*
X97348867Y-136596088D01*
X97462943Y-136972147D01*
X97648193Y-137318725D01*
X97897497Y-137622503D01*
X98201275Y-137871807D01*
X98547853Y-138057057D01*
X98923912Y-138171133D01*
X99217002Y-138200000D01*
X99932998Y-138200000D01*
X100226088Y-138171133D01*
X100602147Y-138057057D01*
X100948725Y-137871807D01*
X101252503Y-137622503D01*
X101501807Y-137318725D01*
X101687057Y-136972147D01*
X101801133Y-136596088D01*
X101839652Y-136205000D01*
X101801133Y-135813912D01*
X101687057Y-135437853D01*
X101501807Y-135091275D01*
X101252503Y-134787497D01*
X100948725Y-134538193D01*
X100602147Y-134352943D01*
X100226088Y-134238867D01*
X99932998Y-134210000D01*
X99217002Y-134210000D01*
X98923912Y-134238867D01*
X98547853Y-134352943D01*
X98201275Y-134538193D01*
X97897497Y-134787497D01*
X97648193Y-135091275D01*
X97462943Y-135437853D01*
X97348867Y-135813912D01*
X97310348Y-136205000D01*
X88925000Y-136205000D01*
X88925000Y-128843665D01*
X107150000Y-128843665D01*
X107150000Y-129126335D01*
X107205147Y-129403574D01*
X107313320Y-129664727D01*
X107470363Y-129899759D01*
X107670241Y-130099637D01*
X107905273Y-130256680D01*
X108166426Y-130364853D01*
X108443665Y-130420000D01*
X108726335Y-130420000D01*
X109003574Y-130364853D01*
X109264727Y-130256680D01*
X109499759Y-130099637D01*
X109699637Y-129899759D01*
X109856680Y-129664727D01*
X109964853Y-129403574D01*
X110020000Y-129126335D01*
X110020000Y-128843665D01*
X109964853Y-128566426D01*
X109856680Y-128305273D01*
X109699637Y-128070241D01*
X109499759Y-127870363D01*
X109264727Y-127713320D01*
X109003574Y-127605147D01*
X108726335Y-127550000D01*
X108443665Y-127550000D01*
X108166426Y-127605147D01*
X107905273Y-127713320D01*
X107670241Y-127870363D01*
X107470363Y-128070241D01*
X107313320Y-128305273D01*
X107205147Y-128566426D01*
X107150000Y-128843665D01*
X88925000Y-128843665D01*
X88925000Y-128005000D01*
X90536928Y-128005000D01*
X90540000Y-128619250D01*
X90698750Y-128778000D01*
X91948000Y-128778000D01*
X91948000Y-127528750D01*
X92202000Y-127528750D01*
X92202000Y-128778000D01*
X93451250Y-128778000D01*
X93610000Y-128619250D01*
X93613072Y-128005000D01*
X93600812Y-127880518D01*
X93564502Y-127760820D01*
X93505537Y-127650506D01*
X93426185Y-127553815D01*
X93329494Y-127474463D01*
X93219180Y-127415498D01*
X93099482Y-127379188D01*
X92975000Y-127366928D01*
X92360750Y-127370000D01*
X92202000Y-127528750D01*
X91948000Y-127528750D01*
X91789250Y-127370000D01*
X91175000Y-127366928D01*
X91050518Y-127379188D01*
X90930820Y-127415498D01*
X90820506Y-127474463D01*
X90723815Y-127553815D01*
X90644463Y-127650506D01*
X90585498Y-127760820D01*
X90549188Y-127880518D01*
X90536928Y-128005000D01*
X88925000Y-128005000D01*
X88925000Y-126605000D01*
X97310348Y-126605000D01*
X97348867Y-126996088D01*
X97462943Y-127372147D01*
X97648193Y-127718725D01*
X97897497Y-128022503D01*
X98201275Y-128271807D01*
X98547853Y-128457057D01*
X98923912Y-128571133D01*
X99217002Y-128600000D01*
X99932998Y-128600000D01*
X100226088Y-128571133D01*
X100602147Y-128457057D01*
X100948725Y-128271807D01*
X101252503Y-128022503D01*
X101501807Y-127718725D01*
X101687057Y-127372147D01*
X101713201Y-127285960D01*
X113543091Y-127285960D01*
X113664376Y-127508000D01*
X114808000Y-127508000D01*
X114808000Y-126365085D01*
X114585961Y-126243096D01*
X114451913Y-126283754D01*
X114197580Y-126403963D01*
X113971586Y-126571481D01*
X113782615Y-126779869D01*
X113637930Y-127021119D01*
X113543091Y-127285960D01*
X101713201Y-127285960D01*
X101801133Y-126996088D01*
X101839652Y-126605000D01*
X101801133Y-126213912D01*
X101687057Y-125837853D01*
X101501807Y-125491275D01*
X101252503Y-125187497D01*
X100948725Y-124938193D01*
X100602147Y-124752943D01*
X100226088Y-124638867D01*
X99932998Y-124610000D01*
X99217002Y-124610000D01*
X98923912Y-124638867D01*
X98547853Y-124752943D01*
X98201275Y-124938193D01*
X97897497Y-125187497D01*
X97648193Y-125491275D01*
X97462943Y-125837853D01*
X97348867Y-126213912D01*
X97310348Y-126605000D01*
X88925000Y-126605000D01*
X88925000Y-106945000D01*
X90536928Y-106945000D01*
X90549188Y-107069482D01*
X90585498Y-107189180D01*
X90644463Y-107299494D01*
X90723815Y-107396185D01*
X90820506Y-107475537D01*
X90920303Y-107528880D01*
X90882688Y-107566495D01*
X90714701Y-107817905D01*
X90598989Y-108097257D01*
X90540000Y-108393816D01*
X90540000Y-108696184D01*
X90598989Y-108992743D01*
X90714701Y-109272095D01*
X90882688Y-109523505D01*
X91096495Y-109737312D01*
X91182831Y-109795000D01*
X91096495Y-109852688D01*
X90882688Y-110066495D01*
X90714701Y-110317905D01*
X90598989Y-110597257D01*
X90540000Y-110893816D01*
X90540000Y-111196184D01*
X90598989Y-111492743D01*
X90714701Y-111772095D01*
X90882688Y-112023505D01*
X91096495Y-112237312D01*
X91347905Y-112405299D01*
X91627257Y-112521011D01*
X91923816Y-112580000D01*
X92226184Y-112580000D01*
X92522743Y-112521011D01*
X92802095Y-112405299D01*
X93053505Y-112237312D01*
X93205200Y-112085617D01*
X93205199Y-118580000D01*
X93203665Y-118580000D01*
X92926426Y-118635147D01*
X92665273Y-118743320D01*
X92430241Y-118900363D01*
X92230363Y-119100241D01*
X92073320Y-119335273D01*
X91965147Y-119596426D01*
X91910000Y-119873665D01*
X91910000Y-120156335D01*
X91965147Y-120433574D01*
X92073320Y-120694727D01*
X92230363Y-120929759D01*
X92430241Y-121129637D01*
X92665273Y-121286680D01*
X92926426Y-121394853D01*
X93203665Y-121450000D01*
X93486335Y-121450000D01*
X93763574Y-121394853D01*
X94024727Y-121286680D01*
X94259759Y-121129637D01*
X94459637Y-120929759D01*
X94616680Y-120694727D01*
X94724853Y-120433574D01*
X94780000Y-120156335D01*
X94780000Y-119909635D01*
X94812753Y-119882755D01*
X94930195Y-119739652D01*
X95017462Y-119576387D01*
X95071201Y-119399234D01*
X95084799Y-119261168D01*
X95084799Y-119261159D01*
X95089345Y-119215002D01*
X95084799Y-119168845D01*
X95084799Y-113345000D01*
X97310348Y-113345000D01*
X97348867Y-113736088D01*
X97462943Y-114112147D01*
X97648193Y-114458725D01*
X97897497Y-114762503D01*
X98201275Y-115011807D01*
X98547853Y-115197057D01*
X98923912Y-115311133D01*
X99217002Y-115340000D01*
X99932998Y-115340000D01*
X100226088Y-115311133D01*
X100602147Y-115197057D01*
X100948725Y-115011807D01*
X101252503Y-114762503D01*
X101501807Y-114458725D01*
X101687057Y-114112147D01*
X101801133Y-113736088D01*
X101839652Y-113345000D01*
X101801133Y-112953912D01*
X101687057Y-112577853D01*
X101501807Y-112231275D01*
X101252503Y-111927497D01*
X100948725Y-111678193D01*
X100602147Y-111492943D01*
X100226088Y-111378867D01*
X99932998Y-111350000D01*
X99217002Y-111350000D01*
X98923912Y-111378867D01*
X98547853Y-111492943D01*
X98201275Y-111678193D01*
X97897497Y-111927497D01*
X97648193Y-112231275D01*
X97462943Y-112577853D01*
X97348867Y-112953912D01*
X97310348Y-113345000D01*
X95084799Y-113345000D01*
X95084799Y-111004275D01*
X95929276Y-110159800D01*
X115523843Y-110159800D01*
X115570000Y-110164346D01*
X115616157Y-110159800D01*
X115616167Y-110159800D01*
X115754233Y-110146202D01*
X115931386Y-110092463D01*
X116094651Y-110005196D01*
X116237754Y-109887754D01*
X116267191Y-109851885D01*
X118106896Y-108012182D01*
X118142754Y-107982754D01*
X118172184Y-107946894D01*
X118260196Y-107839652D01*
X118347463Y-107676386D01*
X118372224Y-107594759D01*
X118401202Y-107499233D01*
X118414800Y-107361167D01*
X118414800Y-107361157D01*
X118419346Y-107315000D01*
X118414800Y-107268843D01*
X118414800Y-106499596D01*
X118589637Y-106324759D01*
X118745000Y-106092241D01*
X118900363Y-106324759D01*
X119075200Y-106499596D01*
X119075201Y-110100721D01*
X117580923Y-111595000D01*
X117333665Y-111595000D01*
X117056426Y-111650147D01*
X116795273Y-111758320D01*
X116560241Y-111915363D01*
X116361643Y-112113961D01*
X116360812Y-112105518D01*
X116324502Y-111985820D01*
X116265537Y-111875506D01*
X116186185Y-111778815D01*
X116089494Y-111699463D01*
X115979180Y-111640498D01*
X115859482Y-111604188D01*
X115735000Y-111591928D01*
X114135000Y-111591928D01*
X114010518Y-111604188D01*
X113890820Y-111640498D01*
X113780506Y-111699463D01*
X113683815Y-111778815D01*
X113604463Y-111875506D01*
X113545498Y-111985820D01*
X113509188Y-112105518D01*
X113496928Y-112230000D01*
X113496928Y-113830000D01*
X113509188Y-113954482D01*
X113545498Y-114074180D01*
X113604463Y-114184494D01*
X113683815Y-114281185D01*
X113780506Y-114360537D01*
X113890820Y-114419502D01*
X114010518Y-114455812D01*
X114135000Y-114468072D01*
X115735000Y-114468072D01*
X115859482Y-114455812D01*
X115979180Y-114419502D01*
X116080669Y-114365254D01*
X115815724Y-114630200D01*
X109609277Y-114630200D01*
X109524800Y-114545723D01*
X109524800Y-112769596D01*
X109699637Y-112594759D01*
X109856680Y-112359727D01*
X109964853Y-112098574D01*
X110020000Y-111821335D01*
X110020000Y-111538665D01*
X109964853Y-111261426D01*
X109856680Y-111000273D01*
X109699637Y-110765241D01*
X109499759Y-110565363D01*
X109264727Y-110408320D01*
X109003574Y-110300147D01*
X108726335Y-110245000D01*
X108443665Y-110245000D01*
X108166426Y-110300147D01*
X107905273Y-110408320D01*
X107670241Y-110565363D01*
X107470363Y-110765241D01*
X107313320Y-111000273D01*
X107205147Y-111261426D01*
X107150000Y-111538665D01*
X107150000Y-111821335D01*
X107205147Y-112098574D01*
X107313320Y-112359727D01*
X107470363Y-112594759D01*
X107645200Y-112769596D01*
X107645201Y-114545721D01*
X103610924Y-118580000D01*
X103363665Y-118580000D01*
X103086426Y-118635147D01*
X102825273Y-118743320D01*
X102590241Y-118900363D01*
X102390363Y-119100241D01*
X102233320Y-119335273D01*
X102125147Y-119596426D01*
X102070000Y-119873665D01*
X102070000Y-120156335D01*
X102125147Y-120433574D01*
X102233320Y-120694727D01*
X102390363Y-120929759D01*
X102590241Y-121129637D01*
X102825273Y-121286680D01*
X103086426Y-121394853D01*
X103363665Y-121450000D01*
X103646335Y-121450000D01*
X103923574Y-121394853D01*
X104184727Y-121286680D01*
X104419759Y-121129637D01*
X104619637Y-120929759D01*
X104776680Y-120694727D01*
X104884853Y-120433574D01*
X104940000Y-120156335D01*
X104940000Y-119909076D01*
X108584694Y-116264384D01*
X108588104Y-116267182D01*
X108588106Y-116267184D01*
X108695348Y-116355196D01*
X108858612Y-116442462D01*
X108858614Y-116442463D01*
X109035767Y-116496202D01*
X109173833Y-116509800D01*
X109173835Y-116509800D01*
X109220000Y-116514347D01*
X109266165Y-116509800D01*
X116158843Y-116509800D01*
X116205000Y-116514346D01*
X116251157Y-116509800D01*
X116251167Y-116509800D01*
X116389233Y-116496202D01*
X116566386Y-116442463D01*
X116729651Y-116355196D01*
X116872754Y-116237754D01*
X116902191Y-116201885D01*
X118106895Y-114997182D01*
X118142754Y-114967754D01*
X118260196Y-114824651D01*
X118347463Y-114661386D01*
X118401202Y-114484233D01*
X118414800Y-114346167D01*
X118414800Y-114346158D01*
X118419346Y-114300001D01*
X118414800Y-114253844D01*
X118414800Y-114119596D01*
X118589637Y-113944759D01*
X118745000Y-113712241D01*
X118900363Y-113944759D01*
X119075201Y-114119597D01*
X119075201Y-114888833D01*
X119070654Y-114935000D01*
X119088799Y-115119233D01*
X119142538Y-115296386D01*
X119229804Y-115459651D01*
X119289959Y-115532948D01*
X119347247Y-115602754D01*
X119383110Y-115632186D01*
X123520200Y-119769278D01*
X123520201Y-126570805D01*
X123469759Y-126520363D01*
X123234727Y-126363320D01*
X122973574Y-126255147D01*
X122696335Y-126200000D01*
X122413665Y-126200000D01*
X122136426Y-126255147D01*
X121875273Y-126363320D01*
X121640241Y-126520363D01*
X121440363Y-126720241D01*
X121285000Y-126952759D01*
X121129637Y-126720241D01*
X120929759Y-126520363D01*
X120694727Y-126363320D01*
X120433574Y-126255147D01*
X120156335Y-126200000D01*
X119873665Y-126200000D01*
X119596426Y-126255147D01*
X119335273Y-126363320D01*
X119100241Y-126520363D01*
X118925404Y-126695200D01*
X118564596Y-126695200D01*
X118389759Y-126520363D01*
X118154727Y-126363320D01*
X117893574Y-126255147D01*
X117616335Y-126200000D01*
X117333665Y-126200000D01*
X117056426Y-126255147D01*
X116795273Y-126363320D01*
X116560241Y-126520363D01*
X116360363Y-126720241D01*
X116203320Y-126955273D01*
X116198933Y-126965865D01*
X116087385Y-126779869D01*
X115898414Y-126571481D01*
X115672420Y-126403963D01*
X115418087Y-126283754D01*
X115284039Y-126243096D01*
X115062000Y-126365085D01*
X115062000Y-127508000D01*
X115082000Y-127508000D01*
X115082000Y-127762000D01*
X115062000Y-127762000D01*
X115062000Y-127782000D01*
X114808000Y-127782000D01*
X114808000Y-127762000D01*
X113664376Y-127762000D01*
X113543091Y-127984040D01*
X113637930Y-128248881D01*
X113782615Y-128490131D01*
X113971586Y-128698519D01*
X114197580Y-128866037D01*
X114451913Y-128986246D01*
X114585961Y-129026904D01*
X114807998Y-128904916D01*
X114807998Y-128972925D01*
X110735724Y-133045200D01*
X109674596Y-133045200D01*
X109499759Y-132870363D01*
X109264727Y-132713320D01*
X109003574Y-132605147D01*
X108726335Y-132550000D01*
X108479077Y-132550000D01*
X107377191Y-131448115D01*
X107347754Y-131412246D01*
X107204651Y-131294804D01*
X107041386Y-131207537D01*
X106864233Y-131153798D01*
X106726167Y-131140200D01*
X106726157Y-131140200D01*
X106680000Y-131135654D01*
X106633843Y-131140200D01*
X93587400Y-131140200D01*
X93551011Y-130957257D01*
X93435299Y-130677905D01*
X93267312Y-130426495D01*
X93229697Y-130388880D01*
X93329494Y-130335537D01*
X93426185Y-130256185D01*
X93505537Y-130159494D01*
X93564502Y-130049180D01*
X93600812Y-129929482D01*
X93613072Y-129805000D01*
X93610000Y-129190750D01*
X93451250Y-129032000D01*
X92202000Y-129032000D01*
X92202000Y-129052000D01*
X91948000Y-129052000D01*
X91948000Y-129032000D01*
X90698750Y-129032000D01*
X90540000Y-129190750D01*
X90536928Y-129805000D01*
X90549188Y-129929482D01*
X90585498Y-130049180D01*
X90644463Y-130159494D01*
X90723815Y-130256185D01*
X90820506Y-130335537D01*
X90920303Y-130388880D01*
X90882688Y-130426495D01*
X90714701Y-130677905D01*
X90598989Y-130957257D01*
X90540000Y-131253816D01*
X90540000Y-131556184D01*
X90598989Y-131852743D01*
X90714701Y-132132095D01*
X90882688Y-132383505D01*
X91096495Y-132597312D01*
X91182831Y-132655000D01*
X91096495Y-132712688D01*
X90882688Y-132926495D01*
X90714701Y-133177905D01*
X90598989Y-133457257D01*
X90540000Y-133753816D01*
X90540000Y-134056184D01*
X90598989Y-134352743D01*
X90714701Y-134632095D01*
X90882688Y-134883505D01*
X91096495Y-135097312D01*
X91347905Y-135265299D01*
X91627257Y-135381011D01*
X91923816Y-135440000D01*
X92226184Y-135440000D01*
X92522743Y-135381011D01*
X92802095Y-135265299D01*
X93053505Y-135097312D01*
X93267312Y-134883505D01*
X93435299Y-134632095D01*
X93551011Y-134352743D01*
X93610000Y-134056184D01*
X93610000Y-133753816D01*
X93551011Y-133457257D01*
X93435299Y-133177905D01*
X93329656Y-133019800D01*
X106290724Y-133019800D01*
X107150000Y-133879077D01*
X107150000Y-134126335D01*
X107205147Y-134403574D01*
X107313320Y-134664727D01*
X107470363Y-134899759D01*
X107670241Y-135099637D01*
X107905273Y-135256680D01*
X108166426Y-135364853D01*
X108443665Y-135420000D01*
X108726335Y-135420000D01*
X109003574Y-135364853D01*
X109264727Y-135256680D01*
X109499759Y-135099637D01*
X109674596Y-134924800D01*
X111078843Y-134924800D01*
X111125000Y-134929346D01*
X111171157Y-134924800D01*
X111171167Y-134924800D01*
X111309233Y-134911202D01*
X111486386Y-134857463D01*
X111649651Y-134770196D01*
X111792754Y-134652754D01*
X111822191Y-134616885D01*
X117369078Y-129070000D01*
X117616335Y-129070000D01*
X117893574Y-129014853D01*
X118154727Y-128906680D01*
X118389759Y-128749637D01*
X118564596Y-128574800D01*
X118925404Y-128574800D01*
X119100241Y-128749637D01*
X119335273Y-128906680D01*
X119596426Y-129014853D01*
X119873665Y-129070000D01*
X120156335Y-129070000D01*
X120433574Y-129014853D01*
X120694727Y-128906680D01*
X120929759Y-128749637D01*
X121129637Y-128549759D01*
X121285000Y-128317241D01*
X121440363Y-128549759D01*
X121558306Y-128667702D01*
X121395349Y-128754804D01*
X121252246Y-128872246D01*
X121222818Y-128908104D01*
X116843115Y-133287809D01*
X116807246Y-133317246D01*
X116689804Y-133460349D01*
X116602537Y-133623615D01*
X116548798Y-133800768D01*
X116535200Y-133938834D01*
X116535200Y-133938843D01*
X116530654Y-133985000D01*
X116535200Y-134031158D01*
X116535200Y-134165404D01*
X116361643Y-134338961D01*
X116360812Y-134330518D01*
X116324502Y-134210820D01*
X116265537Y-134100506D01*
X116186185Y-134003815D01*
X116089494Y-133924463D01*
X115979180Y-133865498D01*
X115859482Y-133829188D01*
X115735000Y-133816928D01*
X114135000Y-133816928D01*
X114010518Y-133829188D01*
X113890820Y-133865498D01*
X113780506Y-133924463D01*
X113683815Y-134003815D01*
X113604463Y-134100506D01*
X113545498Y-134210820D01*
X113509188Y-134330518D01*
X113496928Y-134455000D01*
X113496928Y-136055000D01*
X113509188Y-136179482D01*
X113545498Y-136299180D01*
X113604463Y-136409494D01*
X113683815Y-136506185D01*
X113780506Y-136585537D01*
X113890820Y-136644502D01*
X114010518Y-136680812D01*
X114135000Y-136693072D01*
X115735000Y-136693072D01*
X115859482Y-136680812D01*
X115979180Y-136644502D01*
X116089494Y-136585537D01*
X116186185Y-136506185D01*
X116265537Y-136409494D01*
X116324502Y-136299180D01*
X116360812Y-136179482D01*
X116361643Y-136171039D01*
X116560241Y-136369637D01*
X116795273Y-136526680D01*
X117056426Y-136634853D01*
X117333665Y-136690000D01*
X117616335Y-136690000D01*
X117893574Y-136634853D01*
X118154727Y-136526680D01*
X118389759Y-136369637D01*
X118589637Y-136169759D01*
X118745000Y-135937241D01*
X118900363Y-136169759D01*
X119100241Y-136369637D01*
X119335273Y-136526680D01*
X119596426Y-136634853D01*
X119873665Y-136690000D01*
X120156335Y-136690000D01*
X120433574Y-136634853D01*
X120694727Y-136526680D01*
X120929759Y-136369637D01*
X121129637Y-136169759D01*
X121286680Y-135934727D01*
X121291067Y-135924135D01*
X121402615Y-136110131D01*
X121591586Y-136318519D01*
X121817580Y-136486037D01*
X122071913Y-136606246D01*
X122205961Y-136646904D01*
X122428000Y-136524915D01*
X122428000Y-135382000D01*
X122682000Y-135382000D01*
X122682000Y-136524915D01*
X122904039Y-136646904D01*
X123038087Y-136606246D01*
X123292420Y-136486037D01*
X123437171Y-136378740D01*
X129960000Y-136378740D01*
X129960000Y-136671260D01*
X130017068Y-136958158D01*
X130129010Y-137228411D01*
X130291525Y-137471632D01*
X130498368Y-137678475D01*
X130741589Y-137840990D01*
X131011842Y-137952932D01*
X131298740Y-138010000D01*
X131591260Y-138010000D01*
X131878158Y-137952932D01*
X132148411Y-137840990D01*
X132391632Y-137678475D01*
X132523487Y-137546620D01*
X132545498Y-137619180D01*
X132604463Y-137729494D01*
X132683815Y-137826185D01*
X132780506Y-137905537D01*
X132890820Y-137964502D01*
X133010518Y-138000812D01*
X133135000Y-138013072D01*
X134835000Y-138013072D01*
X134959482Y-138000812D01*
X135079180Y-137964502D01*
X135189494Y-137905537D01*
X135286185Y-137826185D01*
X135365537Y-137729494D01*
X135424502Y-137619180D01*
X135460812Y-137499482D01*
X135473072Y-137375000D01*
X135473072Y-135675000D01*
X135460812Y-135550518D01*
X135424502Y-135430820D01*
X135365537Y-135320506D01*
X135286185Y-135223815D01*
X135189494Y-135144463D01*
X135079180Y-135085498D01*
X134959482Y-135049188D01*
X134835000Y-135036928D01*
X133135000Y-135036928D01*
X133010518Y-135049188D01*
X132890820Y-135085498D01*
X132780506Y-135144463D01*
X132683815Y-135223815D01*
X132604463Y-135320506D01*
X132545498Y-135430820D01*
X132523487Y-135503380D01*
X132391632Y-135371525D01*
X132384800Y-135366960D01*
X132384800Y-133739276D01*
X133346895Y-132777182D01*
X133382754Y-132747754D01*
X133412185Y-132711893D01*
X133500195Y-132604652D01*
X133500196Y-132604651D01*
X133587463Y-132441386D01*
X133641202Y-132264233D01*
X133654800Y-132126167D01*
X133654800Y-132126158D01*
X133659346Y-132080001D01*
X133654800Y-132033844D01*
X133654800Y-131264596D01*
X133829637Y-131089759D01*
X133986680Y-130854727D01*
X134094853Y-130593574D01*
X134150000Y-130316335D01*
X134150000Y-130033665D01*
X134094853Y-129756426D01*
X133986680Y-129495273D01*
X133829637Y-129260241D01*
X133629759Y-129060363D01*
X133394727Y-128903320D01*
X133133574Y-128795147D01*
X132856335Y-128740000D01*
X132573665Y-128740000D01*
X132296426Y-128795147D01*
X132035273Y-128903320D01*
X131800241Y-129060363D01*
X131600363Y-129260241D01*
X131443320Y-129495273D01*
X131335147Y-129756426D01*
X131280000Y-130033665D01*
X131280000Y-130316335D01*
X131335147Y-130593574D01*
X131443320Y-130854727D01*
X131600363Y-131089759D01*
X131775201Y-131264597D01*
X131775201Y-131690722D01*
X130813115Y-132652809D01*
X130777246Y-132682246D01*
X130659804Y-132825349D01*
X130572537Y-132988615D01*
X130518798Y-133165768D01*
X130505200Y-133303834D01*
X130505200Y-133303843D01*
X130500654Y-133350000D01*
X130505200Y-133396158D01*
X130505201Y-135366960D01*
X130498368Y-135371525D01*
X130291525Y-135578368D01*
X130129010Y-135821589D01*
X130017068Y-136091842D01*
X129960000Y-136378740D01*
X123437171Y-136378740D01*
X123518414Y-136318519D01*
X123707385Y-136110131D01*
X123852070Y-135868881D01*
X123946909Y-135604040D01*
X123825624Y-135382000D01*
X122682000Y-135382000D01*
X122428000Y-135382000D01*
X122408000Y-135382000D01*
X122408000Y-135128000D01*
X122428000Y-135128000D01*
X122428000Y-135108000D01*
X122682000Y-135108000D01*
X122682000Y-135128000D01*
X123825624Y-135128000D01*
X123946909Y-134905960D01*
X123852070Y-134641119D01*
X123707385Y-134399869D01*
X123607572Y-134289800D01*
X123778843Y-134289800D01*
X123825000Y-134294346D01*
X123871157Y-134289800D01*
X123871167Y-134289800D01*
X124009233Y-134276202D01*
X124186386Y-134222463D01*
X124349651Y-134135196D01*
X124492754Y-134017754D01*
X124522191Y-133981885D01*
X130806896Y-127697182D01*
X130842754Y-127667754D01*
X130872183Y-127631895D01*
X130960196Y-127524652D01*
X131006841Y-127437385D01*
X131047463Y-127361386D01*
X131101202Y-127184233D01*
X131114800Y-127046167D01*
X131114800Y-127046158D01*
X131119346Y-127000001D01*
X131114800Y-126953844D01*
X131114800Y-114054276D01*
X131300364Y-113868712D01*
X131335147Y-114043574D01*
X131443320Y-114304727D01*
X131600363Y-114539759D01*
X131775200Y-114714596D01*
X131775201Y-118925403D01*
X131600363Y-119100241D01*
X131443320Y-119335273D01*
X131335147Y-119596426D01*
X131280000Y-119873665D01*
X131280000Y-120156335D01*
X131335147Y-120433574D01*
X131443320Y-120694727D01*
X131600363Y-120929759D01*
X131800241Y-121129637D01*
X132035273Y-121286680D01*
X132296426Y-121394853D01*
X132573665Y-121450000D01*
X132856335Y-121450000D01*
X133133574Y-121394853D01*
X133394727Y-121286680D01*
X133629759Y-121129637D01*
X133829637Y-120929759D01*
X133986680Y-120694727D01*
X134094853Y-120433574D01*
X134150000Y-120156335D01*
X134150000Y-119873665D01*
X134094853Y-119596426D01*
X133986680Y-119335273D01*
X133829637Y-119100241D01*
X133654800Y-118925404D01*
X133654800Y-114714596D01*
X133829637Y-114539759D01*
X133986680Y-114304727D01*
X134094853Y-114043574D01*
X134150000Y-113766335D01*
X134150000Y-113483665D01*
X134094853Y-113206426D01*
X133986680Y-112945273D01*
X133829637Y-112710241D01*
X133663057Y-112543661D01*
X133759180Y-112514502D01*
X133869494Y-112455537D01*
X133966185Y-112376185D01*
X134045537Y-112279494D01*
X134104502Y-112169180D01*
X134140812Y-112049482D01*
X134153072Y-111925000D01*
X134153072Y-110325000D01*
X134140812Y-110200518D01*
X134104502Y-110080820D01*
X134045537Y-109970506D01*
X133966185Y-109873815D01*
X133869494Y-109794463D01*
X133759180Y-109735498D01*
X133639482Y-109699188D01*
X133515000Y-109686928D01*
X131915000Y-109686928D01*
X131790518Y-109699188D01*
X131670820Y-109735498D01*
X131560506Y-109794463D01*
X131463815Y-109873815D01*
X131384463Y-109970506D01*
X131325498Y-110080820D01*
X131289188Y-110200518D01*
X131276928Y-110325000D01*
X131276928Y-111233995D01*
X129543110Y-112967814D01*
X129507247Y-112997246D01*
X129477817Y-113033107D01*
X129389804Y-113140349D01*
X129302538Y-113303614D01*
X129248799Y-113480767D01*
X129230654Y-113665000D01*
X129235201Y-113711167D01*
X129235200Y-126610722D01*
X123435724Y-132410200D01*
X121331156Y-132410200D01*
X121284999Y-132405654D01*
X121238842Y-132410200D01*
X121238833Y-132410200D01*
X121100767Y-132423798D01*
X120923614Y-132477537D01*
X120760349Y-132564804D01*
X120617246Y-132682246D01*
X120587818Y-132718105D01*
X119383110Y-133922814D01*
X119347247Y-133952246D01*
X119305320Y-134003334D01*
X119100241Y-134140363D01*
X118900363Y-134340241D01*
X118745000Y-134572759D01*
X118589637Y-134340241D01*
X118519236Y-134269840D01*
X122309278Y-130479800D01*
X123143843Y-130479800D01*
X123190000Y-130484346D01*
X123236157Y-130479800D01*
X123236167Y-130479800D01*
X123374233Y-130466202D01*
X123551386Y-130412463D01*
X123714651Y-130325196D01*
X123857754Y-130207754D01*
X123887191Y-130171885D01*
X125091895Y-128967182D01*
X125127754Y-128937754D01*
X125245196Y-128794651D01*
X125332463Y-128631386D01*
X125386202Y-128454233D01*
X125399800Y-128316167D01*
X125399800Y-128316158D01*
X125404346Y-128270001D01*
X125399800Y-128223844D01*
X125399800Y-119426156D01*
X125404346Y-119379999D01*
X125399800Y-119333842D01*
X125399800Y-119333833D01*
X125386202Y-119195767D01*
X125332463Y-119018614D01*
X125245196Y-118855349D01*
X125127754Y-118712246D01*
X125091896Y-118682818D01*
X120954800Y-114545724D01*
X120954800Y-114119596D01*
X121129637Y-113944759D01*
X121286680Y-113709727D01*
X121291067Y-113699135D01*
X121402615Y-113885131D01*
X121591586Y-114093519D01*
X121817580Y-114261037D01*
X122071913Y-114381246D01*
X122205961Y-114421904D01*
X122428000Y-114299915D01*
X122428000Y-113157000D01*
X122682000Y-113157000D01*
X122682000Y-114299915D01*
X122904039Y-114421904D01*
X123038087Y-114381246D01*
X123292420Y-114261037D01*
X123518414Y-114093519D01*
X123707385Y-113885131D01*
X123852070Y-113643881D01*
X123946909Y-113379040D01*
X123825624Y-113157000D01*
X122682000Y-113157000D01*
X122428000Y-113157000D01*
X122408000Y-113157000D01*
X122408000Y-112903000D01*
X122428000Y-112903000D01*
X122428000Y-111760085D01*
X122682000Y-111760085D01*
X122682000Y-112903000D01*
X123825624Y-112903000D01*
X123946909Y-112680960D01*
X123852070Y-112416119D01*
X123707385Y-112174869D01*
X123518414Y-111966481D01*
X123292420Y-111798963D01*
X123038087Y-111678754D01*
X122904039Y-111638096D01*
X122682000Y-111760085D01*
X122428000Y-111760085D01*
X122205961Y-111638096D01*
X122071913Y-111678754D01*
X121817580Y-111798963D01*
X121591586Y-111966481D01*
X121402615Y-112174869D01*
X121291067Y-112360865D01*
X121286680Y-112350273D01*
X121129637Y-112115241D01*
X120929759Y-111915363D01*
X120694727Y-111758320D01*
X120433574Y-111650147D01*
X120225350Y-111608728D01*
X120646896Y-111187182D01*
X120682754Y-111157754D01*
X120800196Y-111014651D01*
X120887463Y-110851386D01*
X120941202Y-110674233D01*
X120954800Y-110536167D01*
X120954800Y-110536158D01*
X120959346Y-110490001D01*
X120954800Y-110443844D01*
X120954800Y-106499596D01*
X121129637Y-106324759D01*
X121285000Y-106092241D01*
X121440363Y-106324759D01*
X121640241Y-106524637D01*
X121875273Y-106681680D01*
X122136426Y-106789853D01*
X122413665Y-106845000D01*
X122696335Y-106845000D01*
X122973574Y-106789853D01*
X123234727Y-106681680D01*
X123469759Y-106524637D01*
X123669637Y-106324759D01*
X123826680Y-106089727D01*
X123934853Y-105828574D01*
X123990000Y-105551335D01*
X123990000Y-105268665D01*
X123934853Y-104991426D01*
X123826680Y-104730273D01*
X123670740Y-104496891D01*
X130003519Y-104496891D01*
X130100843Y-104771252D01*
X130249822Y-105021355D01*
X130444731Y-105237588D01*
X130678080Y-105411641D01*
X130940901Y-105536825D01*
X131088110Y-105581476D01*
X131318000Y-105460155D01*
X131318000Y-104267000D01*
X130124186Y-104267000D01*
X130003519Y-104496891D01*
X123670740Y-104496891D01*
X123669637Y-104495241D01*
X123469759Y-104295363D01*
X123234727Y-104138320D01*
X122973574Y-104030147D01*
X122696335Y-103975000D01*
X122413665Y-103975000D01*
X122136426Y-104030147D01*
X121875273Y-104138320D01*
X121640241Y-104295363D01*
X121440363Y-104495241D01*
X121285000Y-104727759D01*
X121129637Y-104495241D01*
X120929759Y-104295363D01*
X120694727Y-104138320D01*
X120433574Y-104030147D01*
X120156335Y-103975000D01*
X119873665Y-103975000D01*
X119596426Y-104030147D01*
X119335273Y-104138320D01*
X119100241Y-104295363D01*
X118900363Y-104495241D01*
X118745000Y-104727759D01*
X118589637Y-104495241D01*
X118389759Y-104295363D01*
X118154727Y-104138320D01*
X117893574Y-104030147D01*
X117616335Y-103975000D01*
X117333665Y-103975000D01*
X117056426Y-104030147D01*
X116795273Y-104138320D01*
X116560241Y-104295363D01*
X116360363Y-104495241D01*
X116203320Y-104730273D01*
X116198933Y-104740865D01*
X116087385Y-104554869D01*
X115898414Y-104346481D01*
X115672420Y-104178963D01*
X115418087Y-104058754D01*
X115284039Y-104018096D01*
X115062000Y-104140085D01*
X115062000Y-105283000D01*
X115082000Y-105283000D01*
X115082000Y-105537000D01*
X115062000Y-105537000D01*
X115062000Y-106679915D01*
X115284039Y-106801904D01*
X115418087Y-106761246D01*
X115672420Y-106641037D01*
X115898414Y-106473519D01*
X116087385Y-106265131D01*
X116198933Y-106079135D01*
X116203320Y-106089727D01*
X116360363Y-106324759D01*
X116535201Y-106499597D01*
X116535201Y-106925722D01*
X115180724Y-108280200D01*
X95586165Y-108280200D01*
X95539998Y-108275653D01*
X95493831Y-108280200D01*
X95355765Y-108293798D01*
X95178612Y-108347537D01*
X95015347Y-108434804D01*
X94872244Y-108552246D01*
X94842816Y-108588105D01*
X94144999Y-109285922D01*
X93600918Y-108741841D01*
X93610000Y-108696184D01*
X93610000Y-108393816D01*
X93551011Y-108097257D01*
X93435299Y-107817905D01*
X93267312Y-107566495D01*
X93229697Y-107528880D01*
X93329494Y-107475537D01*
X93426185Y-107396185D01*
X93505537Y-107299494D01*
X93564502Y-107189180D01*
X93600812Y-107069482D01*
X93613072Y-106945000D01*
X93611040Y-106538665D01*
X107150000Y-106538665D01*
X107150000Y-106821335D01*
X107205147Y-107098574D01*
X107313320Y-107359727D01*
X107470363Y-107594759D01*
X107670241Y-107794637D01*
X107905273Y-107951680D01*
X108166426Y-108059853D01*
X108443665Y-108115000D01*
X108726335Y-108115000D01*
X109003574Y-108059853D01*
X109264727Y-107951680D01*
X109499759Y-107794637D01*
X109699637Y-107594759D01*
X109856680Y-107359727D01*
X109964853Y-107098574D01*
X110020000Y-106821335D01*
X110020000Y-106538665D01*
X109964853Y-106261426D01*
X109856680Y-106000273D01*
X109699637Y-105765241D01*
X109693436Y-105759040D01*
X113543091Y-105759040D01*
X113637930Y-106023881D01*
X113782615Y-106265131D01*
X113971586Y-106473519D01*
X114197580Y-106641037D01*
X114451913Y-106761246D01*
X114585961Y-106801904D01*
X114808000Y-106679915D01*
X114808000Y-105537000D01*
X113664376Y-105537000D01*
X113543091Y-105759040D01*
X109693436Y-105759040D01*
X109499759Y-105565363D01*
X109264727Y-105408320D01*
X109003574Y-105300147D01*
X108726335Y-105245000D01*
X108443665Y-105245000D01*
X108166426Y-105300147D01*
X107905273Y-105408320D01*
X107670241Y-105565363D01*
X107470363Y-105765241D01*
X107313320Y-106000273D01*
X107205147Y-106261426D01*
X107150000Y-106538665D01*
X93611040Y-106538665D01*
X93610000Y-106330750D01*
X93451250Y-106172000D01*
X92202000Y-106172000D01*
X92202000Y-106192000D01*
X91948000Y-106192000D01*
X91948000Y-106172000D01*
X90698750Y-106172000D01*
X90540000Y-106330750D01*
X90536928Y-106945000D01*
X88925000Y-106945000D01*
X88925000Y-105145000D01*
X90536928Y-105145000D01*
X90540000Y-105759250D01*
X90698750Y-105918000D01*
X91948000Y-105918000D01*
X91948000Y-104668750D01*
X92202000Y-104668750D01*
X92202000Y-105918000D01*
X93451250Y-105918000D01*
X93610000Y-105759250D01*
X93613072Y-105145000D01*
X93600812Y-105020518D01*
X93564502Y-104900820D01*
X93505537Y-104790506D01*
X93426185Y-104693815D01*
X93329494Y-104614463D01*
X93219180Y-104555498D01*
X93099482Y-104519188D01*
X92975000Y-104506928D01*
X92360750Y-104510000D01*
X92202000Y-104668750D01*
X91948000Y-104668750D01*
X91789250Y-104510000D01*
X91175000Y-104506928D01*
X91050518Y-104519188D01*
X90930820Y-104555498D01*
X90820506Y-104614463D01*
X90723815Y-104693815D01*
X90644463Y-104790506D01*
X90585498Y-104900820D01*
X90549188Y-105020518D01*
X90536928Y-105145000D01*
X88925000Y-105145000D01*
X88925000Y-103745000D01*
X97310348Y-103745000D01*
X97348867Y-104136088D01*
X97462943Y-104512147D01*
X97648193Y-104858725D01*
X97897497Y-105162503D01*
X98201275Y-105411807D01*
X98547853Y-105597057D01*
X98923912Y-105711133D01*
X99217002Y-105740000D01*
X99932998Y-105740000D01*
X100226088Y-105711133D01*
X100602147Y-105597057D01*
X100948725Y-105411807D01*
X101252503Y-105162503D01*
X101335837Y-105060960D01*
X113543091Y-105060960D01*
X113664376Y-105283000D01*
X114808000Y-105283000D01*
X114808000Y-104140085D01*
X114585961Y-104018096D01*
X114451913Y-104058754D01*
X114197580Y-104178963D01*
X113971586Y-104346481D01*
X113782615Y-104554869D01*
X113637930Y-104796119D01*
X113543091Y-105060960D01*
X101335837Y-105060960D01*
X101501807Y-104858725D01*
X101687057Y-104512147D01*
X101801133Y-104136088D01*
X101835898Y-103783109D01*
X130003519Y-103783109D01*
X130124186Y-104013000D01*
X131318000Y-104013000D01*
X131318000Y-102819845D01*
X131572000Y-102819845D01*
X131572000Y-104013000D01*
X131592000Y-104013000D01*
X131592000Y-104267000D01*
X131572000Y-104267000D01*
X131572000Y-105460155D01*
X131801890Y-105581476D01*
X131949099Y-105536825D01*
X132211920Y-105411641D01*
X132445269Y-105237588D01*
X132521034Y-105153534D01*
X132545498Y-105234180D01*
X132604463Y-105344494D01*
X132683815Y-105441185D01*
X132780506Y-105520537D01*
X132890820Y-105579502D01*
X133010518Y-105615812D01*
X133135000Y-105628072D01*
X134835000Y-105628072D01*
X134959482Y-105615812D01*
X135079180Y-105579502D01*
X135189494Y-105520537D01*
X135286185Y-105441185D01*
X135365537Y-105344494D01*
X135424502Y-105234180D01*
X135460812Y-105114482D01*
X135473072Y-104990000D01*
X135473072Y-103290000D01*
X135460812Y-103165518D01*
X135424502Y-103045820D01*
X135365537Y-102935506D01*
X135286185Y-102838815D01*
X135189494Y-102759463D01*
X135079180Y-102700498D01*
X134959482Y-102664188D01*
X134835000Y-102651928D01*
X133135000Y-102651928D01*
X133010518Y-102664188D01*
X132890820Y-102700498D01*
X132780506Y-102759463D01*
X132683815Y-102838815D01*
X132604463Y-102935506D01*
X132545498Y-103045820D01*
X132521034Y-103126466D01*
X132445269Y-103042412D01*
X132211920Y-102868359D01*
X131949099Y-102743175D01*
X131801890Y-102698524D01*
X131572000Y-102819845D01*
X131318000Y-102819845D01*
X131088110Y-102698524D01*
X130940901Y-102743175D01*
X130678080Y-102868359D01*
X130444731Y-103042412D01*
X130249822Y-103258645D01*
X130100843Y-103508748D01*
X130003519Y-103783109D01*
X101835898Y-103783109D01*
X101839652Y-103745000D01*
X101801133Y-103353912D01*
X101687057Y-102977853D01*
X101501807Y-102631275D01*
X101252503Y-102327497D01*
X100948725Y-102078193D01*
X100602147Y-101892943D01*
X100226088Y-101778867D01*
X99932998Y-101750000D01*
X99217002Y-101750000D01*
X98923912Y-101778867D01*
X98547853Y-101892943D01*
X98201275Y-102078193D01*
X97897497Y-102327497D01*
X97648193Y-102631275D01*
X97462943Y-102977853D01*
X97348867Y-103353912D01*
X97310348Y-103745000D01*
X88925000Y-103745000D01*
X88925000Y-100997279D01*
X88939722Y-100847131D01*
X88973953Y-100733754D01*
X89029555Y-100629181D01*
X89104407Y-100537404D01*
X89195664Y-100461909D01*
X89299844Y-100405581D01*
X89412976Y-100370560D01*
X89561022Y-100355000D01*
X137127721Y-100355000D01*
X137277869Y-100369722D01*
G37*
X137277869Y-100369722D02*
X137391246Y-100403953D01*
X137495819Y-100459555D01*
X137587596Y-100534407D01*
X137663091Y-100625664D01*
X137719419Y-100729844D01*
X137754440Y-100842976D01*
X137770000Y-100991022D01*
X137770001Y-139667711D01*
X137755278Y-139817869D01*
X137721047Y-139931246D01*
X137665446Y-140035817D01*
X137590594Y-140127595D01*
X137499335Y-140203091D01*
X137395160Y-140259419D01*
X137282024Y-140294440D01*
X137133979Y-140310000D01*
X89567279Y-140310000D01*
X89417131Y-140295278D01*
X89303754Y-140261047D01*
X89199183Y-140205446D01*
X89107405Y-140130594D01*
X89031909Y-140039335D01*
X88975581Y-139935160D01*
X88940560Y-139822024D01*
X88925000Y-139673979D01*
X88925000Y-136205000D01*
X97310348Y-136205000D01*
X97348867Y-136596088D01*
X97462943Y-136972147D01*
X97648193Y-137318725D01*
X97897497Y-137622503D01*
X98201275Y-137871807D01*
X98547853Y-138057057D01*
X98923912Y-138171133D01*
X99217002Y-138200000D01*
X99932998Y-138200000D01*
X100226088Y-138171133D01*
X100602147Y-138057057D01*
X100948725Y-137871807D01*
X101252503Y-137622503D01*
X101501807Y-137318725D01*
X101687057Y-136972147D01*
X101801133Y-136596088D01*
X101839652Y-136205000D01*
X101801133Y-135813912D01*
X101687057Y-135437853D01*
X101501807Y-135091275D01*
X101252503Y-134787497D01*
X100948725Y-134538193D01*
X100602147Y-134352943D01*
X100226088Y-134238867D01*
X99932998Y-134210000D01*
X99217002Y-134210000D01*
X98923912Y-134238867D01*
X98547853Y-134352943D01*
X98201275Y-134538193D01*
X97897497Y-134787497D01*
X97648193Y-135091275D01*
X97462943Y-135437853D01*
X97348867Y-135813912D01*
X97310348Y-136205000D01*
X88925000Y-136205000D01*
X88925000Y-128843665D01*
X107150000Y-128843665D01*
X107150000Y-129126335D01*
X107205147Y-129403574D01*
X107313320Y-129664727D01*
X107470363Y-129899759D01*
X107670241Y-130099637D01*
X107905273Y-130256680D01*
X108166426Y-130364853D01*
X108443665Y-130420000D01*
X108726335Y-130420000D01*
X109003574Y-130364853D01*
X109264727Y-130256680D01*
X109499759Y-130099637D01*
X109699637Y-129899759D01*
X109856680Y-129664727D01*
X109964853Y-129403574D01*
X110020000Y-129126335D01*
X110020000Y-128843665D01*
X109964853Y-128566426D01*
X109856680Y-128305273D01*
X109699637Y-128070241D01*
X109499759Y-127870363D01*
X109264727Y-127713320D01*
X109003574Y-127605147D01*
X108726335Y-127550000D01*
X108443665Y-127550000D01*
X108166426Y-127605147D01*
X107905273Y-127713320D01*
X107670241Y-127870363D01*
X107470363Y-128070241D01*
X107313320Y-128305273D01*
X107205147Y-128566426D01*
X107150000Y-128843665D01*
X88925000Y-128843665D01*
X88925000Y-128005000D01*
X90536928Y-128005000D01*
X90540000Y-128619250D01*
X90698750Y-128778000D01*
X91948000Y-128778000D01*
X91948000Y-127528750D01*
X92202000Y-127528750D01*
X92202000Y-128778000D01*
X93451250Y-128778000D01*
X93610000Y-128619250D01*
X93613072Y-128005000D01*
X93600812Y-127880518D01*
X93564502Y-127760820D01*
X93505537Y-127650506D01*
X93426185Y-127553815D01*
X93329494Y-127474463D01*
X93219180Y-127415498D01*
X93099482Y-127379188D01*
X92975000Y-127366928D01*
X92360750Y-127370000D01*
X92202000Y-127528750D01*
X91948000Y-127528750D01*
X91789250Y-127370000D01*
X91175000Y-127366928D01*
X91050518Y-127379188D01*
X90930820Y-127415498D01*
X90820506Y-127474463D01*
X90723815Y-127553815D01*
X90644463Y-127650506D01*
X90585498Y-127760820D01*
X90549188Y-127880518D01*
X90536928Y-128005000D01*
X88925000Y-128005000D01*
X88925000Y-126605000D01*
X97310348Y-126605000D01*
X97348867Y-126996088D01*
X97462943Y-127372147D01*
X97648193Y-127718725D01*
X97897497Y-128022503D01*
X98201275Y-128271807D01*
X98547853Y-128457057D01*
X98923912Y-128571133D01*
X99217002Y-128600000D01*
X99932998Y-128600000D01*
X100226088Y-128571133D01*
X100602147Y-128457057D01*
X100948725Y-128271807D01*
X101252503Y-128022503D01*
X101501807Y-127718725D01*
X101687057Y-127372147D01*
X101713201Y-127285960D01*
X113543091Y-127285960D01*
X113664376Y-127508000D01*
X114808000Y-127508000D01*
X114808000Y-126365085D01*
X114585961Y-126243096D01*
X114451913Y-126283754D01*
X114197580Y-126403963D01*
X113971586Y-126571481D01*
X113782615Y-126779869D01*
X113637930Y-127021119D01*
X113543091Y-127285960D01*
X101713201Y-127285960D01*
X101801133Y-126996088D01*
X101839652Y-126605000D01*
X101801133Y-126213912D01*
X101687057Y-125837853D01*
X101501807Y-125491275D01*
X101252503Y-125187497D01*
X100948725Y-124938193D01*
X100602147Y-124752943D01*
X100226088Y-124638867D01*
X99932998Y-124610000D01*
X99217002Y-124610000D01*
X98923912Y-124638867D01*
X98547853Y-124752943D01*
X98201275Y-124938193D01*
X97897497Y-125187497D01*
X97648193Y-125491275D01*
X97462943Y-125837853D01*
X97348867Y-126213912D01*
X97310348Y-126605000D01*
X88925000Y-126605000D01*
X88925000Y-106945000D01*
X90536928Y-106945000D01*
X90549188Y-107069482D01*
X90585498Y-107189180D01*
X90644463Y-107299494D01*
X90723815Y-107396185D01*
X90820506Y-107475537D01*
X90920303Y-107528880D01*
X90882688Y-107566495D01*
X90714701Y-107817905D01*
X90598989Y-108097257D01*
X90540000Y-108393816D01*
X90540000Y-108696184D01*
X90598989Y-108992743D01*
X90714701Y-109272095D01*
X90882688Y-109523505D01*
X91096495Y-109737312D01*
X91182831Y-109795000D01*
X91096495Y-109852688D01*
X90882688Y-110066495D01*
X90714701Y-110317905D01*
X90598989Y-110597257D01*
X90540000Y-110893816D01*
X90540000Y-111196184D01*
X90598989Y-111492743D01*
X90714701Y-111772095D01*
X90882688Y-112023505D01*
X91096495Y-112237312D01*
X91347905Y-112405299D01*
X91627257Y-112521011D01*
X91923816Y-112580000D01*
X92226184Y-112580000D01*
X92522743Y-112521011D01*
X92802095Y-112405299D01*
X93053505Y-112237312D01*
X93205200Y-112085617D01*
X93205199Y-118580000D01*
X93203665Y-118580000D01*
X92926426Y-118635147D01*
X92665273Y-118743320D01*
X92430241Y-118900363D01*
X92230363Y-119100241D01*
X92073320Y-119335273D01*
X91965147Y-119596426D01*
X91910000Y-119873665D01*
X91910000Y-120156335D01*
X91965147Y-120433574D01*
X92073320Y-120694727D01*
X92230363Y-120929759D01*
X92430241Y-121129637D01*
X92665273Y-121286680D01*
X92926426Y-121394853D01*
X93203665Y-121450000D01*
X93486335Y-121450000D01*
X93763574Y-121394853D01*
X94024727Y-121286680D01*
X94259759Y-121129637D01*
X94459637Y-120929759D01*
X94616680Y-120694727D01*
X94724853Y-120433574D01*
X94780000Y-120156335D01*
X94780000Y-119909635D01*
X94812753Y-119882755D01*
X94930195Y-119739652D01*
X95017462Y-119576387D01*
X95071201Y-119399234D01*
X95084799Y-119261168D01*
X95084799Y-119261159D01*
X95089345Y-119215002D01*
X95084799Y-119168845D01*
X95084799Y-113345000D01*
X97310348Y-113345000D01*
X97348867Y-113736088D01*
X97462943Y-114112147D01*
X97648193Y-114458725D01*
X97897497Y-114762503D01*
X98201275Y-115011807D01*
X98547853Y-115197057D01*
X98923912Y-115311133D01*
X99217002Y-115340000D01*
X99932998Y-115340000D01*
X100226088Y-115311133D01*
X100602147Y-115197057D01*
X100948725Y-115011807D01*
X101252503Y-114762503D01*
X101501807Y-114458725D01*
X101687057Y-114112147D01*
X101801133Y-113736088D01*
X101839652Y-113345000D01*
X101801133Y-112953912D01*
X101687057Y-112577853D01*
X101501807Y-112231275D01*
X101252503Y-111927497D01*
X100948725Y-111678193D01*
X100602147Y-111492943D01*
X100226088Y-111378867D01*
X99932998Y-111350000D01*
X99217002Y-111350000D01*
X98923912Y-111378867D01*
X98547853Y-111492943D01*
X98201275Y-111678193D01*
X97897497Y-111927497D01*
X97648193Y-112231275D01*
X97462943Y-112577853D01*
X97348867Y-112953912D01*
X97310348Y-113345000D01*
X95084799Y-113345000D01*
X95084799Y-111004275D01*
X95929276Y-110159800D01*
X115523843Y-110159800D01*
X115570000Y-110164346D01*
X115616157Y-110159800D01*
X115616167Y-110159800D01*
X115754233Y-110146202D01*
X115931386Y-110092463D01*
X116094651Y-110005196D01*
X116237754Y-109887754D01*
X116267191Y-109851885D01*
X118106896Y-108012182D01*
X118142754Y-107982754D01*
X118172184Y-107946894D01*
X118260196Y-107839652D01*
X118347463Y-107676386D01*
X118372224Y-107594759D01*
X118401202Y-107499233D01*
X118414800Y-107361167D01*
X118414800Y-107361157D01*
X118419346Y-107315000D01*
X118414800Y-107268843D01*
X118414800Y-106499596D01*
X118589637Y-106324759D01*
X118745000Y-106092241D01*
X118900363Y-106324759D01*
X119075200Y-106499596D01*
X119075201Y-110100721D01*
X117580923Y-111595000D01*
X117333665Y-111595000D01*
X117056426Y-111650147D01*
X116795273Y-111758320D01*
X116560241Y-111915363D01*
X116361643Y-112113961D01*
X116360812Y-112105518D01*
X116324502Y-111985820D01*
X116265537Y-111875506D01*
X116186185Y-111778815D01*
X116089494Y-111699463D01*
X115979180Y-111640498D01*
X115859482Y-111604188D01*
X115735000Y-111591928D01*
X114135000Y-111591928D01*
X114010518Y-111604188D01*
X113890820Y-111640498D01*
X113780506Y-111699463D01*
X113683815Y-111778815D01*
X113604463Y-111875506D01*
X113545498Y-111985820D01*
X113509188Y-112105518D01*
X113496928Y-112230000D01*
X113496928Y-113830000D01*
X113509188Y-113954482D01*
X113545498Y-114074180D01*
X113604463Y-114184494D01*
X113683815Y-114281185D01*
X113780506Y-114360537D01*
X113890820Y-114419502D01*
X114010518Y-114455812D01*
X114135000Y-114468072D01*
X115735000Y-114468072D01*
X115859482Y-114455812D01*
X115979180Y-114419502D01*
X116080669Y-114365254D01*
X115815724Y-114630200D01*
X109609277Y-114630200D01*
X109524800Y-114545723D01*
X109524800Y-112769596D01*
X109699637Y-112594759D01*
X109856680Y-112359727D01*
X109964853Y-112098574D01*
X110020000Y-111821335D01*
X110020000Y-111538665D01*
X109964853Y-111261426D01*
X109856680Y-111000273D01*
X109699637Y-110765241D01*
X109499759Y-110565363D01*
X109264727Y-110408320D01*
X109003574Y-110300147D01*
X108726335Y-110245000D01*
X108443665Y-110245000D01*
X108166426Y-110300147D01*
X107905273Y-110408320D01*
X107670241Y-110565363D01*
X107470363Y-110765241D01*
X107313320Y-111000273D01*
X107205147Y-111261426D01*
X107150000Y-111538665D01*
X107150000Y-111821335D01*
X107205147Y-112098574D01*
X107313320Y-112359727D01*
X107470363Y-112594759D01*
X107645200Y-112769596D01*
X107645201Y-114545721D01*
X103610924Y-118580000D01*
X103363665Y-118580000D01*
X103086426Y-118635147D01*
X102825273Y-118743320D01*
X102590241Y-118900363D01*
X102390363Y-119100241D01*
X102233320Y-119335273D01*
X102125147Y-119596426D01*
X102070000Y-119873665D01*
X102070000Y-120156335D01*
X102125147Y-120433574D01*
X102233320Y-120694727D01*
X102390363Y-120929759D01*
X102590241Y-121129637D01*
X102825273Y-121286680D01*
X103086426Y-121394853D01*
X103363665Y-121450000D01*
X103646335Y-121450000D01*
X103923574Y-121394853D01*
X104184727Y-121286680D01*
X104419759Y-121129637D01*
X104619637Y-120929759D01*
X104776680Y-120694727D01*
X104884853Y-120433574D01*
X104940000Y-120156335D01*
X104940000Y-119909076D01*
X108584694Y-116264384D01*
X108588104Y-116267182D01*
X108588106Y-116267184D01*
X108695348Y-116355196D01*
X108858612Y-116442462D01*
X108858614Y-116442463D01*
X109035767Y-116496202D01*
X109173833Y-116509800D01*
X109173835Y-116509800D01*
X109220000Y-116514347D01*
X109266165Y-116509800D01*
X116158843Y-116509800D01*
X116205000Y-116514346D01*
X116251157Y-116509800D01*
X116251167Y-116509800D01*
X116389233Y-116496202D01*
X116566386Y-116442463D01*
X116729651Y-116355196D01*
X116872754Y-116237754D01*
X116902191Y-116201885D01*
X118106895Y-114997182D01*
X118142754Y-114967754D01*
X118260196Y-114824651D01*
X118347463Y-114661386D01*
X118401202Y-114484233D01*
X118414800Y-114346167D01*
X118414800Y-114346158D01*
X118419346Y-114300001D01*
X118414800Y-114253844D01*
X118414800Y-114119596D01*
X118589637Y-113944759D01*
X118745000Y-113712241D01*
X118900363Y-113944759D01*
X119075201Y-114119597D01*
X119075201Y-114888833D01*
X119070654Y-114935000D01*
X119088799Y-115119233D01*
X119142538Y-115296386D01*
X119229804Y-115459651D01*
X119289959Y-115532948D01*
X119347247Y-115602754D01*
X119383110Y-115632186D01*
X123520200Y-119769278D01*
X123520201Y-126570805D01*
X123469759Y-126520363D01*
X123234727Y-126363320D01*
X122973574Y-126255147D01*
X122696335Y-126200000D01*
X122413665Y-126200000D01*
X122136426Y-126255147D01*
X121875273Y-126363320D01*
X121640241Y-126520363D01*
X121440363Y-126720241D01*
X121285000Y-126952759D01*
X121129637Y-126720241D01*
X120929759Y-126520363D01*
X120694727Y-126363320D01*
X120433574Y-126255147D01*
X120156335Y-126200000D01*
X119873665Y-126200000D01*
X119596426Y-126255147D01*
X119335273Y-126363320D01*
X119100241Y-126520363D01*
X118925404Y-126695200D01*
X118564596Y-126695200D01*
X118389759Y-126520363D01*
X118154727Y-126363320D01*
X117893574Y-126255147D01*
X117616335Y-126200000D01*
X117333665Y-126200000D01*
X117056426Y-126255147D01*
X116795273Y-126363320D01*
X116560241Y-126520363D01*
X116360363Y-126720241D01*
X116203320Y-126955273D01*
X116198933Y-126965865D01*
X116087385Y-126779869D01*
X115898414Y-126571481D01*
X115672420Y-126403963D01*
X115418087Y-126283754D01*
X115284039Y-126243096D01*
X115062000Y-126365085D01*
X115062000Y-127508000D01*
X115082000Y-127508000D01*
X115082000Y-127762000D01*
X115062000Y-127762000D01*
X115062000Y-127782000D01*
X114808000Y-127782000D01*
X114808000Y-127762000D01*
X113664376Y-127762000D01*
X113543091Y-127984040D01*
X113637930Y-128248881D01*
X113782615Y-128490131D01*
X113971586Y-128698519D01*
X114197580Y-128866037D01*
X114451913Y-128986246D01*
X114585961Y-129026904D01*
X114807998Y-128904916D01*
X114807998Y-128972925D01*
X110735724Y-133045200D01*
X109674596Y-133045200D01*
X109499759Y-132870363D01*
X109264727Y-132713320D01*
X109003574Y-132605147D01*
X108726335Y-132550000D01*
X108479077Y-132550000D01*
X107377191Y-131448115D01*
X107347754Y-131412246D01*
X107204651Y-131294804D01*
X107041386Y-131207537D01*
X106864233Y-131153798D01*
X106726167Y-131140200D01*
X106726157Y-131140200D01*
X106680000Y-131135654D01*
X106633843Y-131140200D01*
X93587400Y-131140200D01*
X93551011Y-130957257D01*
X93435299Y-130677905D01*
X93267312Y-130426495D01*
X93229697Y-130388880D01*
X93329494Y-130335537D01*
X93426185Y-130256185D01*
X93505537Y-130159494D01*
X93564502Y-130049180D01*
X93600812Y-129929482D01*
X93613072Y-129805000D01*
X93610000Y-129190750D01*
X93451250Y-129032000D01*
X92202000Y-129032000D01*
X92202000Y-129052000D01*
X91948000Y-129052000D01*
X91948000Y-129032000D01*
X90698750Y-129032000D01*
X90540000Y-129190750D01*
X90536928Y-129805000D01*
X90549188Y-129929482D01*
X90585498Y-130049180D01*
X90644463Y-130159494D01*
X90723815Y-130256185D01*
X90820506Y-130335537D01*
X90920303Y-130388880D01*
X90882688Y-130426495D01*
X90714701Y-130677905D01*
X90598989Y-130957257D01*
X90540000Y-131253816D01*
X90540000Y-131556184D01*
X90598989Y-131852743D01*
X90714701Y-132132095D01*
X90882688Y-132383505D01*
X91096495Y-132597312D01*
X91182831Y-132655000D01*
X91096495Y-132712688D01*
X90882688Y-132926495D01*
X90714701Y-133177905D01*
X90598989Y-133457257D01*
X90540000Y-133753816D01*
X90540000Y-134056184D01*
X90598989Y-134352743D01*
X90714701Y-134632095D01*
X90882688Y-134883505D01*
X91096495Y-135097312D01*
X91347905Y-135265299D01*
X91627257Y-135381011D01*
X91923816Y-135440000D01*
X92226184Y-135440000D01*
X92522743Y-135381011D01*
X92802095Y-135265299D01*
X93053505Y-135097312D01*
X93267312Y-134883505D01*
X93435299Y-134632095D01*
X93551011Y-134352743D01*
X93610000Y-134056184D01*
X93610000Y-133753816D01*
X93551011Y-133457257D01*
X93435299Y-133177905D01*
X93329656Y-133019800D01*
X106290724Y-133019800D01*
X107150000Y-133879077D01*
X107150000Y-134126335D01*
X107205147Y-134403574D01*
X107313320Y-134664727D01*
X107470363Y-134899759D01*
X107670241Y-135099637D01*
X107905273Y-135256680D01*
X108166426Y-135364853D01*
X108443665Y-135420000D01*
X108726335Y-135420000D01*
X109003574Y-135364853D01*
X109264727Y-135256680D01*
X109499759Y-135099637D01*
X109674596Y-134924800D01*
X111078843Y-134924800D01*
X111125000Y-134929346D01*
X111171157Y-134924800D01*
X111171167Y-134924800D01*
X111309233Y-134911202D01*
X111486386Y-134857463D01*
X111649651Y-134770196D01*
X111792754Y-134652754D01*
X111822191Y-134616885D01*
X117369078Y-129070000D01*
X117616335Y-129070000D01*
X117893574Y-129014853D01*
X118154727Y-128906680D01*
X118389759Y-128749637D01*
X118564596Y-128574800D01*
X118925404Y-128574800D01*
X119100241Y-128749637D01*
X119335273Y-128906680D01*
X119596426Y-129014853D01*
X119873665Y-129070000D01*
X120156335Y-129070000D01*
X120433574Y-129014853D01*
X120694727Y-128906680D01*
X120929759Y-128749637D01*
X121129637Y-128549759D01*
X121285000Y-128317241D01*
X121440363Y-128549759D01*
X121558306Y-128667702D01*
X121395349Y-128754804D01*
X121252246Y-128872246D01*
X121222818Y-128908104D01*
X116843115Y-133287809D01*
X116807246Y-133317246D01*
X116689804Y-133460349D01*
X116602537Y-133623615D01*
X116548798Y-133800768D01*
X116535200Y-133938834D01*
X116535200Y-133938843D01*
X116530654Y-133985000D01*
X116535200Y-134031158D01*
X116535200Y-134165404D01*
X116361643Y-134338961D01*
X116360812Y-134330518D01*
X116324502Y-134210820D01*
X116265537Y-134100506D01*
X116186185Y-134003815D01*
X116089494Y-133924463D01*
X115979180Y-133865498D01*
X115859482Y-133829188D01*
X115735000Y-133816928D01*
X114135000Y-133816928D01*
X114010518Y-133829188D01*
X113890820Y-133865498D01*
X113780506Y-133924463D01*
X113683815Y-134003815D01*
X113604463Y-134100506D01*
X113545498Y-134210820D01*
X113509188Y-134330518D01*
X113496928Y-134455000D01*
X113496928Y-136055000D01*
X113509188Y-136179482D01*
X113545498Y-136299180D01*
X113604463Y-136409494D01*
X113683815Y-136506185D01*
X113780506Y-136585537D01*
X113890820Y-136644502D01*
X114010518Y-136680812D01*
X114135000Y-136693072D01*
X115735000Y-136693072D01*
X115859482Y-136680812D01*
X115979180Y-136644502D01*
X116089494Y-136585537D01*
X116186185Y-136506185D01*
X116265537Y-136409494D01*
X116324502Y-136299180D01*
X116360812Y-136179482D01*
X116361643Y-136171039D01*
X116560241Y-136369637D01*
X116795273Y-136526680D01*
X117056426Y-136634853D01*
X117333665Y-136690000D01*
X117616335Y-136690000D01*
X117893574Y-136634853D01*
X118154727Y-136526680D01*
X118389759Y-136369637D01*
X118589637Y-136169759D01*
X118745000Y-135937241D01*
X118900363Y-136169759D01*
X119100241Y-136369637D01*
X119335273Y-136526680D01*
X119596426Y-136634853D01*
X119873665Y-136690000D01*
X120156335Y-136690000D01*
X120433574Y-136634853D01*
X120694727Y-136526680D01*
X120929759Y-136369637D01*
X121129637Y-136169759D01*
X121286680Y-135934727D01*
X121291067Y-135924135D01*
X121402615Y-136110131D01*
X121591586Y-136318519D01*
X121817580Y-136486037D01*
X122071913Y-136606246D01*
X122205961Y-136646904D01*
X122428000Y-136524915D01*
X122428000Y-135382000D01*
X122682000Y-135382000D01*
X122682000Y-136524915D01*
X122904039Y-136646904D01*
X123038087Y-136606246D01*
X123292420Y-136486037D01*
X123437171Y-136378740D01*
X129960000Y-136378740D01*
X129960000Y-136671260D01*
X130017068Y-136958158D01*
X130129010Y-137228411D01*
X130291525Y-137471632D01*
X130498368Y-137678475D01*
X130741589Y-137840990D01*
X131011842Y-137952932D01*
X131298740Y-138010000D01*
X131591260Y-138010000D01*
X131878158Y-137952932D01*
X132148411Y-137840990D01*
X132391632Y-137678475D01*
X132523487Y-137546620D01*
X132545498Y-137619180D01*
X132604463Y-137729494D01*
X132683815Y-137826185D01*
X132780506Y-137905537D01*
X132890820Y-137964502D01*
X133010518Y-138000812D01*
X133135000Y-138013072D01*
X134835000Y-138013072D01*
X134959482Y-138000812D01*
X135079180Y-137964502D01*
X135189494Y-137905537D01*
X135286185Y-137826185D01*
X135365537Y-137729494D01*
X135424502Y-137619180D01*
X135460812Y-137499482D01*
X135473072Y-137375000D01*
X135473072Y-135675000D01*
X135460812Y-135550518D01*
X135424502Y-135430820D01*
X135365537Y-135320506D01*
X135286185Y-135223815D01*
X135189494Y-135144463D01*
X135079180Y-135085498D01*
X134959482Y-135049188D01*
X134835000Y-135036928D01*
X133135000Y-135036928D01*
X133010518Y-135049188D01*
X132890820Y-135085498D01*
X132780506Y-135144463D01*
X132683815Y-135223815D01*
X132604463Y-135320506D01*
X132545498Y-135430820D01*
X132523487Y-135503380D01*
X132391632Y-135371525D01*
X132384800Y-135366960D01*
X132384800Y-133739276D01*
X133346895Y-132777182D01*
X133382754Y-132747754D01*
X133412185Y-132711893D01*
X133500195Y-132604652D01*
X133500196Y-132604651D01*
X133587463Y-132441386D01*
X133641202Y-132264233D01*
X133654800Y-132126167D01*
X133654800Y-132126158D01*
X133659346Y-132080001D01*
X133654800Y-132033844D01*
X133654800Y-131264596D01*
X133829637Y-131089759D01*
X133986680Y-130854727D01*
X134094853Y-130593574D01*
X134150000Y-130316335D01*
X134150000Y-130033665D01*
X134094853Y-129756426D01*
X133986680Y-129495273D01*
X133829637Y-129260241D01*
X133629759Y-129060363D01*
X133394727Y-128903320D01*
X133133574Y-128795147D01*
X132856335Y-128740000D01*
X132573665Y-128740000D01*
X132296426Y-128795147D01*
X132035273Y-128903320D01*
X131800241Y-129060363D01*
X131600363Y-129260241D01*
X131443320Y-129495273D01*
X131335147Y-129756426D01*
X131280000Y-130033665D01*
X131280000Y-130316335D01*
X131335147Y-130593574D01*
X131443320Y-130854727D01*
X131600363Y-131089759D01*
X131775201Y-131264597D01*
X131775201Y-131690722D01*
X130813115Y-132652809D01*
X130777246Y-132682246D01*
X130659804Y-132825349D01*
X130572537Y-132988615D01*
X130518798Y-133165768D01*
X130505200Y-133303834D01*
X130505200Y-133303843D01*
X130500654Y-133350000D01*
X130505200Y-133396158D01*
X130505201Y-135366960D01*
X130498368Y-135371525D01*
X130291525Y-135578368D01*
X130129010Y-135821589D01*
X130017068Y-136091842D01*
X129960000Y-136378740D01*
X123437171Y-136378740D01*
X123518414Y-136318519D01*
X123707385Y-136110131D01*
X123852070Y-135868881D01*
X123946909Y-135604040D01*
X123825624Y-135382000D01*
X122682000Y-135382000D01*
X122428000Y-135382000D01*
X122408000Y-135382000D01*
X122408000Y-135128000D01*
X122428000Y-135128000D01*
X122428000Y-135108000D01*
X122682000Y-135108000D01*
X122682000Y-135128000D01*
X123825624Y-135128000D01*
X123946909Y-134905960D01*
X123852070Y-134641119D01*
X123707385Y-134399869D01*
X123607572Y-134289800D01*
X123778843Y-134289800D01*
X123825000Y-134294346D01*
X123871157Y-134289800D01*
X123871167Y-134289800D01*
X124009233Y-134276202D01*
X124186386Y-134222463D01*
X124349651Y-134135196D01*
X124492754Y-134017754D01*
X124522191Y-133981885D01*
X130806896Y-127697182D01*
X130842754Y-127667754D01*
X130872183Y-127631895D01*
X130960196Y-127524652D01*
X131006841Y-127437385D01*
X131047463Y-127361386D01*
X131101202Y-127184233D01*
X131114800Y-127046167D01*
X131114800Y-127046158D01*
X131119346Y-127000001D01*
X131114800Y-126953844D01*
X131114800Y-114054276D01*
X131300364Y-113868712D01*
X131335147Y-114043574D01*
X131443320Y-114304727D01*
X131600363Y-114539759D01*
X131775200Y-114714596D01*
X131775201Y-118925403D01*
X131600363Y-119100241D01*
X131443320Y-119335273D01*
X131335147Y-119596426D01*
X131280000Y-119873665D01*
X131280000Y-120156335D01*
X131335147Y-120433574D01*
X131443320Y-120694727D01*
X131600363Y-120929759D01*
X131800241Y-121129637D01*
X132035273Y-121286680D01*
X132296426Y-121394853D01*
X132573665Y-121450000D01*
X132856335Y-121450000D01*
X133133574Y-121394853D01*
X133394727Y-121286680D01*
X133629759Y-121129637D01*
X133829637Y-120929759D01*
X133986680Y-120694727D01*
X134094853Y-120433574D01*
X134150000Y-120156335D01*
X134150000Y-119873665D01*
X134094853Y-119596426D01*
X133986680Y-119335273D01*
X133829637Y-119100241D01*
X133654800Y-118925404D01*
X133654800Y-114714596D01*
X133829637Y-114539759D01*
X133986680Y-114304727D01*
X134094853Y-114043574D01*
X134150000Y-113766335D01*
X134150000Y-113483665D01*
X134094853Y-113206426D01*
X133986680Y-112945273D01*
X133829637Y-112710241D01*
X133663057Y-112543661D01*
X133759180Y-112514502D01*
X133869494Y-112455537D01*
X133966185Y-112376185D01*
X134045537Y-112279494D01*
X134104502Y-112169180D01*
X134140812Y-112049482D01*
X134153072Y-111925000D01*
X134153072Y-110325000D01*
X134140812Y-110200518D01*
X134104502Y-110080820D01*
X134045537Y-109970506D01*
X133966185Y-109873815D01*
X133869494Y-109794463D01*
X133759180Y-109735498D01*
X133639482Y-109699188D01*
X133515000Y-109686928D01*
X131915000Y-109686928D01*
X131790518Y-109699188D01*
X131670820Y-109735498D01*
X131560506Y-109794463D01*
X131463815Y-109873815D01*
X131384463Y-109970506D01*
X131325498Y-110080820D01*
X131289188Y-110200518D01*
X131276928Y-110325000D01*
X131276928Y-111233995D01*
X129543110Y-112967814D01*
X129507247Y-112997246D01*
X129477817Y-113033107D01*
X129389804Y-113140349D01*
X129302538Y-113303614D01*
X129248799Y-113480767D01*
X129230654Y-113665000D01*
X129235201Y-113711167D01*
X129235200Y-126610722D01*
X123435724Y-132410200D01*
X121331156Y-132410200D01*
X121284999Y-132405654D01*
X121238842Y-132410200D01*
X121238833Y-132410200D01*
X121100767Y-132423798D01*
X120923614Y-132477537D01*
X120760349Y-132564804D01*
X120617246Y-132682246D01*
X120587818Y-132718105D01*
X119383110Y-133922814D01*
X119347247Y-133952246D01*
X119305320Y-134003334D01*
X119100241Y-134140363D01*
X118900363Y-134340241D01*
X118745000Y-134572759D01*
X118589637Y-134340241D01*
X118519236Y-134269840D01*
X122309278Y-130479800D01*
X123143843Y-130479800D01*
X123190000Y-130484346D01*
X123236157Y-130479800D01*
X123236167Y-130479800D01*
X123374233Y-130466202D01*
X123551386Y-130412463D01*
X123714651Y-130325196D01*
X123857754Y-130207754D01*
X123887191Y-130171885D01*
X125091895Y-128967182D01*
X125127754Y-128937754D01*
X125245196Y-128794651D01*
X125332463Y-128631386D01*
X125386202Y-128454233D01*
X125399800Y-128316167D01*
X125399800Y-128316158D01*
X125404346Y-128270001D01*
X125399800Y-128223844D01*
X125399800Y-119426156D01*
X125404346Y-119379999D01*
X125399800Y-119333842D01*
X125399800Y-119333833D01*
X125386202Y-119195767D01*
X125332463Y-119018614D01*
X125245196Y-118855349D01*
X125127754Y-118712246D01*
X125091896Y-118682818D01*
X120954800Y-114545724D01*
X120954800Y-114119596D01*
X121129637Y-113944759D01*
X121286680Y-113709727D01*
X121291067Y-113699135D01*
X121402615Y-113885131D01*
X121591586Y-114093519D01*
X121817580Y-114261037D01*
X122071913Y-114381246D01*
X122205961Y-114421904D01*
X122428000Y-114299915D01*
X122428000Y-113157000D01*
X122682000Y-113157000D01*
X122682000Y-114299915D01*
X122904039Y-114421904D01*
X123038087Y-114381246D01*
X123292420Y-114261037D01*
X123518414Y-114093519D01*
X123707385Y-113885131D01*
X123852070Y-113643881D01*
X123946909Y-113379040D01*
X123825624Y-113157000D01*
X122682000Y-113157000D01*
X122428000Y-113157000D01*
X122408000Y-113157000D01*
X122408000Y-112903000D01*
X122428000Y-112903000D01*
X122428000Y-111760085D01*
X122682000Y-111760085D01*
X122682000Y-112903000D01*
X123825624Y-112903000D01*
X123946909Y-112680960D01*
X123852070Y-112416119D01*
X123707385Y-112174869D01*
X123518414Y-111966481D01*
X123292420Y-111798963D01*
X123038087Y-111678754D01*
X122904039Y-111638096D01*
X122682000Y-111760085D01*
X122428000Y-111760085D01*
X122205961Y-111638096D01*
X122071913Y-111678754D01*
X121817580Y-111798963D01*
X121591586Y-111966481D01*
X121402615Y-112174869D01*
X121291067Y-112360865D01*
X121286680Y-112350273D01*
X121129637Y-112115241D01*
X120929759Y-111915363D01*
X120694727Y-111758320D01*
X120433574Y-111650147D01*
X120225350Y-111608728D01*
X120646896Y-111187182D01*
X120682754Y-111157754D01*
X120800196Y-111014651D01*
X120887463Y-110851386D01*
X120941202Y-110674233D01*
X120954800Y-110536167D01*
X120954800Y-110536158D01*
X120959346Y-110490001D01*
X120954800Y-110443844D01*
X120954800Y-106499596D01*
X121129637Y-106324759D01*
X121285000Y-106092241D01*
X121440363Y-106324759D01*
X121640241Y-106524637D01*
X121875273Y-106681680D01*
X122136426Y-106789853D01*
X122413665Y-106845000D01*
X122696335Y-106845000D01*
X122973574Y-106789853D01*
X123234727Y-106681680D01*
X123469759Y-106524637D01*
X123669637Y-106324759D01*
X123826680Y-106089727D01*
X123934853Y-105828574D01*
X123990000Y-105551335D01*
X123990000Y-105268665D01*
X123934853Y-104991426D01*
X123826680Y-104730273D01*
X123670740Y-104496891D01*
X130003519Y-104496891D01*
X130100843Y-104771252D01*
X130249822Y-105021355D01*
X130444731Y-105237588D01*
X130678080Y-105411641D01*
X130940901Y-105536825D01*
X131088110Y-105581476D01*
X131318000Y-105460155D01*
X131318000Y-104267000D01*
X130124186Y-104267000D01*
X130003519Y-104496891D01*
X123670740Y-104496891D01*
X123669637Y-104495241D01*
X123469759Y-104295363D01*
X123234727Y-104138320D01*
X122973574Y-104030147D01*
X122696335Y-103975000D01*
X122413665Y-103975000D01*
X122136426Y-104030147D01*
X121875273Y-104138320D01*
X121640241Y-104295363D01*
X121440363Y-104495241D01*
X121285000Y-104727759D01*
X121129637Y-104495241D01*
X120929759Y-104295363D01*
X120694727Y-104138320D01*
X120433574Y-104030147D01*
X120156335Y-103975000D01*
X119873665Y-103975000D01*
X119596426Y-104030147D01*
X119335273Y-104138320D01*
X119100241Y-104295363D01*
X118900363Y-104495241D01*
X118745000Y-104727759D01*
X118589637Y-104495241D01*
X118389759Y-104295363D01*
X118154727Y-104138320D01*
X117893574Y-104030147D01*
X117616335Y-103975000D01*
X117333665Y-103975000D01*
X117056426Y-104030147D01*
X116795273Y-104138320D01*
X116560241Y-104295363D01*
X116360363Y-104495241D01*
X116203320Y-104730273D01*
X116198933Y-104740865D01*
X116087385Y-104554869D01*
X115898414Y-104346481D01*
X115672420Y-104178963D01*
X115418087Y-104058754D01*
X115284039Y-104018096D01*
X115062000Y-104140085D01*
X115062000Y-105283000D01*
X115082000Y-105283000D01*
X115082000Y-105537000D01*
X115062000Y-105537000D01*
X115062000Y-106679915D01*
X115284039Y-106801904D01*
X115418087Y-106761246D01*
X115672420Y-106641037D01*
X115898414Y-106473519D01*
X116087385Y-106265131D01*
X116198933Y-106079135D01*
X116203320Y-106089727D01*
X116360363Y-106324759D01*
X116535201Y-106499597D01*
X116535201Y-106925722D01*
X115180724Y-108280200D01*
X95586165Y-108280200D01*
X95539998Y-108275653D01*
X95493831Y-108280200D01*
X95355765Y-108293798D01*
X95178612Y-108347537D01*
X95015347Y-108434804D01*
X94872244Y-108552246D01*
X94842816Y-108588105D01*
X94144999Y-109285922D01*
X93600918Y-108741841D01*
X93610000Y-108696184D01*
X93610000Y-108393816D01*
X93551011Y-108097257D01*
X93435299Y-107817905D01*
X93267312Y-107566495D01*
X93229697Y-107528880D01*
X93329494Y-107475537D01*
X93426185Y-107396185D01*
X93505537Y-107299494D01*
X93564502Y-107189180D01*
X93600812Y-107069482D01*
X93613072Y-106945000D01*
X93611040Y-106538665D01*
X107150000Y-106538665D01*
X107150000Y-106821335D01*
X107205147Y-107098574D01*
X107313320Y-107359727D01*
X107470363Y-107594759D01*
X107670241Y-107794637D01*
X107905273Y-107951680D01*
X108166426Y-108059853D01*
X108443665Y-108115000D01*
X108726335Y-108115000D01*
X109003574Y-108059853D01*
X109264727Y-107951680D01*
X109499759Y-107794637D01*
X109699637Y-107594759D01*
X109856680Y-107359727D01*
X109964853Y-107098574D01*
X110020000Y-106821335D01*
X110020000Y-106538665D01*
X109964853Y-106261426D01*
X109856680Y-106000273D01*
X109699637Y-105765241D01*
X109693436Y-105759040D01*
X113543091Y-105759040D01*
X113637930Y-106023881D01*
X113782615Y-106265131D01*
X113971586Y-106473519D01*
X114197580Y-106641037D01*
X114451913Y-106761246D01*
X114585961Y-106801904D01*
X114808000Y-106679915D01*
X114808000Y-105537000D01*
X113664376Y-105537000D01*
X113543091Y-105759040D01*
X109693436Y-105759040D01*
X109499759Y-105565363D01*
X109264727Y-105408320D01*
X109003574Y-105300147D01*
X108726335Y-105245000D01*
X108443665Y-105245000D01*
X108166426Y-105300147D01*
X107905273Y-105408320D01*
X107670241Y-105565363D01*
X107470363Y-105765241D01*
X107313320Y-106000273D01*
X107205147Y-106261426D01*
X107150000Y-106538665D01*
X93611040Y-106538665D01*
X93610000Y-106330750D01*
X93451250Y-106172000D01*
X92202000Y-106172000D01*
X92202000Y-106192000D01*
X91948000Y-106192000D01*
X91948000Y-106172000D01*
X90698750Y-106172000D01*
X90540000Y-106330750D01*
X90536928Y-106945000D01*
X88925000Y-106945000D01*
X88925000Y-105145000D01*
X90536928Y-105145000D01*
X90540000Y-105759250D01*
X90698750Y-105918000D01*
X91948000Y-105918000D01*
X91948000Y-104668750D01*
X92202000Y-104668750D01*
X92202000Y-105918000D01*
X93451250Y-105918000D01*
X93610000Y-105759250D01*
X93613072Y-105145000D01*
X93600812Y-105020518D01*
X93564502Y-104900820D01*
X93505537Y-104790506D01*
X93426185Y-104693815D01*
X93329494Y-104614463D01*
X93219180Y-104555498D01*
X93099482Y-104519188D01*
X92975000Y-104506928D01*
X92360750Y-104510000D01*
X92202000Y-104668750D01*
X91948000Y-104668750D01*
X91789250Y-104510000D01*
X91175000Y-104506928D01*
X91050518Y-104519188D01*
X90930820Y-104555498D01*
X90820506Y-104614463D01*
X90723815Y-104693815D01*
X90644463Y-104790506D01*
X90585498Y-104900820D01*
X90549188Y-105020518D01*
X90536928Y-105145000D01*
X88925000Y-105145000D01*
X88925000Y-103745000D01*
X97310348Y-103745000D01*
X97348867Y-104136088D01*
X97462943Y-104512147D01*
X97648193Y-104858725D01*
X97897497Y-105162503D01*
X98201275Y-105411807D01*
X98547853Y-105597057D01*
X98923912Y-105711133D01*
X99217002Y-105740000D01*
X99932998Y-105740000D01*
X100226088Y-105711133D01*
X100602147Y-105597057D01*
X100948725Y-105411807D01*
X101252503Y-105162503D01*
X101335837Y-105060960D01*
X113543091Y-105060960D01*
X113664376Y-105283000D01*
X114808000Y-105283000D01*
X114808000Y-104140085D01*
X114585961Y-104018096D01*
X114451913Y-104058754D01*
X114197580Y-104178963D01*
X113971586Y-104346481D01*
X113782615Y-104554869D01*
X113637930Y-104796119D01*
X113543091Y-105060960D01*
X101335837Y-105060960D01*
X101501807Y-104858725D01*
X101687057Y-104512147D01*
X101801133Y-104136088D01*
X101835898Y-103783109D01*
X130003519Y-103783109D01*
X130124186Y-104013000D01*
X131318000Y-104013000D01*
X131318000Y-102819845D01*
X131572000Y-102819845D01*
X131572000Y-104013000D01*
X131592000Y-104013000D01*
X131592000Y-104267000D01*
X131572000Y-104267000D01*
X131572000Y-105460155D01*
X131801890Y-105581476D01*
X131949099Y-105536825D01*
X132211920Y-105411641D01*
X132445269Y-105237588D01*
X132521034Y-105153534D01*
X132545498Y-105234180D01*
X132604463Y-105344494D01*
X132683815Y-105441185D01*
X132780506Y-105520537D01*
X132890820Y-105579502D01*
X133010518Y-105615812D01*
X133135000Y-105628072D01*
X134835000Y-105628072D01*
X134959482Y-105615812D01*
X135079180Y-105579502D01*
X135189494Y-105520537D01*
X135286185Y-105441185D01*
X135365537Y-105344494D01*
X135424502Y-105234180D01*
X135460812Y-105114482D01*
X135473072Y-104990000D01*
X135473072Y-103290000D01*
X135460812Y-103165518D01*
X135424502Y-103045820D01*
X135365537Y-102935506D01*
X135286185Y-102838815D01*
X135189494Y-102759463D01*
X135079180Y-102700498D01*
X134959482Y-102664188D01*
X134835000Y-102651928D01*
X133135000Y-102651928D01*
X133010518Y-102664188D01*
X132890820Y-102700498D01*
X132780506Y-102759463D01*
X132683815Y-102838815D01*
X132604463Y-102935506D01*
X132545498Y-103045820D01*
X132521034Y-103126466D01*
X132445269Y-103042412D01*
X132211920Y-102868359D01*
X131949099Y-102743175D01*
X131801890Y-102698524D01*
X131572000Y-102819845D01*
X131318000Y-102819845D01*
X131088110Y-102698524D01*
X130940901Y-102743175D01*
X130678080Y-102868359D01*
X130444731Y-103042412D01*
X130249822Y-103258645D01*
X130100843Y-103508748D01*
X130003519Y-103783109D01*
X101835898Y-103783109D01*
X101839652Y-103745000D01*
X101801133Y-103353912D01*
X101687057Y-102977853D01*
X101501807Y-102631275D01*
X101252503Y-102327497D01*
X100948725Y-102078193D01*
X100602147Y-101892943D01*
X100226088Y-101778867D01*
X99932998Y-101750000D01*
X99217002Y-101750000D01*
X98923912Y-101778867D01*
X98547853Y-101892943D01*
X98201275Y-102078193D01*
X97897497Y-102327497D01*
X97648193Y-102631275D01*
X97462943Y-102977853D01*
X97348867Y-103353912D01*
X97310348Y-103745000D01*
X88925000Y-103745000D01*
X88925000Y-100997279D01*
X88939722Y-100847131D01*
X88973953Y-100733754D01*
X89029555Y-100629181D01*
X89104407Y-100537404D01*
X89195664Y-100461909D01*
X89299844Y-100405581D01*
X89412976Y-100370560D01*
X89561022Y-100355000D01*
X137127721Y-100355000D01*
X137277869Y-100369722D01*
%TD*%
M02*
