%TF.GenerationSoftware,KiCad,Pcbnew,5.1.6-c6e7f7d~87~ubuntu18.04.1*%
%TF.CreationDate,2020-12-24T16:50:43+01:00*%
%TF.ProjectId,atari_punk,61746172-695f-4707-956e-6b2e6b696361,rev?*%
%TF.SameCoordinates,Original*%
%TF.FileFunction,Copper,L2,Bot*%
%TF.FilePolarity,Positive*%
%FSLAX46Y46*%
G04 Gerber Fmt 4.6, Leading zero omitted, Abs format (unit mm)*
G04 Created by KiCad (PCBNEW 5.1.6-c6e7f7d~87~ubuntu18.04.1) date 2020-12-24 16:50:43*
%MOMM*%
%LPD*%
G01*
G04 APERTURE LIST*
%TA.AperFunction,ComponentPad*%
%ADD10C,1.600000*%
%TD*%
%TA.AperFunction,ComponentPad*%
%ADD11R,1.600000X1.600000*%
%TD*%
%TA.AperFunction,ComponentPad*%
%ADD12R,1.700000X1.700000*%
%TD*%
%TA.AperFunction,ComponentPad*%
%ADD13O,1.700000X1.700000*%
%TD*%
%TA.AperFunction,ComponentPad*%
%ADD14R,1.800000X1.800000*%
%TD*%
%TA.AperFunction,ComponentPad*%
%ADD15C,1.800000*%
%TD*%
%TA.AperFunction,ComponentPad*%
%ADD16O,3.240000X2.720000*%
%TD*%
%TA.AperFunction,ComponentPad*%
%ADD17O,1.600000X1.600000*%
%TD*%
%TA.AperFunction,Conductor*%
%ADD18C,0.254000*%
%TD*%
G04 APERTURE END LIST*
D10*
%TO.P,C1,1*%
%TO.N,GND*%
X108585000Y-106680000D03*
%TO.P,C1,2*%
%TO.N,Net-(C1-Pad2)*%
X108585000Y-111680000D03*
%TD*%
D11*
%TO.P,C2,1*%
%TO.N,Net-(C2-Pad1)*%
X132715000Y-111125000D03*
D10*
%TO.P,C2,2*%
%TO.N,Net-(C2-Pad2)*%
X132715000Y-113625000D03*
%TD*%
%TO.P,C3,2*%
%TO.N,GND*%
X108585000Y-128985000D03*
%TO.P,C3,1*%
%TO.N,Net-(C3-Pad1)*%
X108585000Y-133985000D03*
%TD*%
D12*
%TO.P,J1,1*%
%TO.N,GND*%
X133985000Y-104140000D03*
D13*
%TO.P,J1,2*%
%TO.N,+9V*%
X131445000Y-104140000D03*
%TD*%
%TO.P,J2,2*%
%TO.N,AUDIO*%
X131445000Y-136525000D03*
D12*
%TO.P,J2,1*%
%TO.N,GND*%
X133985000Y-136525000D03*
%TD*%
D14*
%TO.P,R1,1*%
%TO.N,+9V*%
X92075000Y-106045000D03*
D15*
%TO.P,R1,2*%
%TO.N,Net-(R1-Pad2)*%
X92075000Y-108545000D03*
%TO.P,R1,3*%
%TO.N,N/C*%
X92075000Y-111045000D03*
D16*
%TO.P,R1,*%
%TO.N,*%
X99575000Y-113345000D03*
X99575000Y-103745000D03*
%TD*%
D10*
%TO.P,R2,1*%
%TO.N,Net-(C1-Pad2)*%
X103505000Y-120015000D03*
D17*
%TO.P,R2,2*%
%TO.N,Net-(R1-Pad2)*%
X93345000Y-120015000D03*
%TD*%
%TO.P,R3,2*%
%TO.N,Net-(C2-Pad2)*%
X132715000Y-120015000D03*
D10*
%TO.P,R3,1*%
%TO.N,AUDIO*%
X132715000Y-130175000D03*
%TD*%
D16*
%TO.P,R4,*%
%TO.N,*%
X99575000Y-126605000D03*
X99575000Y-136205000D03*
D15*
%TO.P,R4,3*%
%TO.N,N/C*%
X92075000Y-133905000D03*
%TO.P,R4,2*%
%TO.N,Net-(C3-Pad1)*%
X92075000Y-131405000D03*
D14*
%TO.P,R4,1*%
%TO.N,+9V*%
X92075000Y-128905000D03*
%TD*%
D11*
%TO.P,U1,1*%
%TO.N,GND*%
X114935000Y-113030000D03*
D17*
%TO.P,U1,5*%
%TO.N,Net-(U1-Pad5)*%
X122555000Y-105410000D03*
%TO.P,U1,2*%
%TO.N,Net-(C1-Pad2)*%
X117475000Y-113030000D03*
%TO.P,U1,6*%
X120015000Y-105410000D03*
%TO.P,U1,3*%
%TO.N,Net-(U1-Pad3)*%
X120015000Y-113030000D03*
%TO.P,U1,7*%
%TO.N,Net-(R1-Pad2)*%
X117475000Y-105410000D03*
%TO.P,U1,4*%
%TO.N,+9V*%
X122555000Y-113030000D03*
%TO.P,U1,8*%
X114935000Y-105410000D03*
%TD*%
%TO.P,U2,8*%
%TO.N,+9V*%
X114935000Y-127635000D03*
%TO.P,U2,4*%
X122555000Y-135255000D03*
%TO.P,U2,7*%
%TO.N,Net-(C3-Pad1)*%
X117475000Y-127635000D03*
%TO.P,U2,3*%
%TO.N,Net-(C2-Pad1)*%
X120015000Y-135255000D03*
%TO.P,U2,6*%
%TO.N,Net-(C3-Pad1)*%
X120015000Y-127635000D03*
%TO.P,U2,2*%
%TO.N,Net-(U1-Pad3)*%
X117475000Y-135255000D03*
%TO.P,U2,5*%
%TO.N,Net-(U2-Pad5)*%
X122555000Y-127635000D03*
D11*
%TO.P,U2,1*%
%TO.N,GND*%
X114935000Y-135255000D03*
%TD*%
D18*
%TO.N,GND*%
G36*
X137277869Y-100369722D02*
G01*
X137391246Y-100403953D01*
X137495819Y-100459555D01*
X137587596Y-100534407D01*
X137663091Y-100625664D01*
X137719419Y-100729844D01*
X137754440Y-100842976D01*
X137770000Y-100991022D01*
X137770001Y-139667711D01*
X137755278Y-139817869D01*
X137721047Y-139931246D01*
X137665446Y-140035817D01*
X137590594Y-140127595D01*
X137499335Y-140203091D01*
X137395160Y-140259419D01*
X137282024Y-140294440D01*
X137133979Y-140310000D01*
X89567279Y-140310000D01*
X89417131Y-140295278D01*
X89303754Y-140261047D01*
X89199183Y-140205446D01*
X89107405Y-140130594D01*
X89031909Y-140039335D01*
X88975581Y-139935160D01*
X88940560Y-139822024D01*
X88925000Y-139673979D01*
X88925000Y-136205000D01*
X97310348Y-136205000D01*
X97348867Y-136596088D01*
X97462943Y-136972147D01*
X97648193Y-137318725D01*
X97897497Y-137622503D01*
X98201275Y-137871807D01*
X98547853Y-138057057D01*
X98923912Y-138171133D01*
X99217002Y-138200000D01*
X99932998Y-138200000D01*
X100226088Y-138171133D01*
X100602147Y-138057057D01*
X100948725Y-137871807D01*
X101252503Y-137622503D01*
X101501807Y-137318725D01*
X101687057Y-136972147D01*
X101801133Y-136596088D01*
X101839652Y-136205000D01*
X101824879Y-136055000D01*
X113496928Y-136055000D01*
X113509188Y-136179482D01*
X113545498Y-136299180D01*
X113604463Y-136409494D01*
X113683815Y-136506185D01*
X113780506Y-136585537D01*
X113890820Y-136644502D01*
X114010518Y-136680812D01*
X114135000Y-136693072D01*
X114649250Y-136690000D01*
X114808000Y-136531250D01*
X114808000Y-135382000D01*
X113658750Y-135382000D01*
X113500000Y-135540750D01*
X113496928Y-136055000D01*
X101824879Y-136055000D01*
X101801133Y-135813912D01*
X101687057Y-135437853D01*
X101501807Y-135091275D01*
X101252503Y-134787497D01*
X100948725Y-134538193D01*
X100602147Y-134352943D01*
X100226088Y-134238867D01*
X99932998Y-134210000D01*
X99217002Y-134210000D01*
X98923912Y-134238867D01*
X98547853Y-134352943D01*
X98201275Y-134538193D01*
X97897497Y-134787497D01*
X97648193Y-135091275D01*
X97462943Y-135437853D01*
X97348867Y-135813912D01*
X97310348Y-136205000D01*
X88925000Y-136205000D01*
X88925000Y-128005000D01*
X90536928Y-128005000D01*
X90536928Y-129805000D01*
X90549188Y-129929482D01*
X90585498Y-130049180D01*
X90644463Y-130159494D01*
X90723815Y-130256185D01*
X90820506Y-130335537D01*
X90920303Y-130388880D01*
X90882688Y-130426495D01*
X90714701Y-130677905D01*
X90598989Y-130957257D01*
X90540000Y-131253816D01*
X90540000Y-131556184D01*
X90598989Y-131852743D01*
X90714701Y-132132095D01*
X90882688Y-132383505D01*
X91096495Y-132597312D01*
X91182831Y-132655000D01*
X91096495Y-132712688D01*
X90882688Y-132926495D01*
X90714701Y-133177905D01*
X90598989Y-133457257D01*
X90540000Y-133753816D01*
X90540000Y-134056184D01*
X90598989Y-134352743D01*
X90714701Y-134632095D01*
X90882688Y-134883505D01*
X91096495Y-135097312D01*
X91347905Y-135265299D01*
X91627257Y-135381011D01*
X91923816Y-135440000D01*
X92226184Y-135440000D01*
X92522743Y-135381011D01*
X92802095Y-135265299D01*
X93053505Y-135097312D01*
X93267312Y-134883505D01*
X93435299Y-134632095D01*
X93551011Y-134352743D01*
X93610000Y-134056184D01*
X93610000Y-133843665D01*
X107150000Y-133843665D01*
X107150000Y-134126335D01*
X107205147Y-134403574D01*
X107313320Y-134664727D01*
X107470363Y-134899759D01*
X107670241Y-135099637D01*
X107905273Y-135256680D01*
X108166426Y-135364853D01*
X108443665Y-135420000D01*
X108726335Y-135420000D01*
X109003574Y-135364853D01*
X109264727Y-135256680D01*
X109499759Y-135099637D01*
X109699637Y-134899759D01*
X109856680Y-134664727D01*
X109943551Y-134455000D01*
X113496928Y-134455000D01*
X113500000Y-134969250D01*
X113658750Y-135128000D01*
X114808000Y-135128000D01*
X114808000Y-133978750D01*
X115062000Y-133978750D01*
X115062000Y-135128000D01*
X115082000Y-135128000D01*
X115082000Y-135382000D01*
X115062000Y-135382000D01*
X115062000Y-136531250D01*
X115220750Y-136690000D01*
X115735000Y-136693072D01*
X115859482Y-136680812D01*
X115979180Y-136644502D01*
X116089494Y-136585537D01*
X116186185Y-136506185D01*
X116265537Y-136409494D01*
X116324502Y-136299180D01*
X116360812Y-136179482D01*
X116361643Y-136171039D01*
X116560241Y-136369637D01*
X116795273Y-136526680D01*
X117056426Y-136634853D01*
X117333665Y-136690000D01*
X117616335Y-136690000D01*
X117893574Y-136634853D01*
X118154727Y-136526680D01*
X118389759Y-136369637D01*
X118589637Y-136169759D01*
X118745000Y-135937241D01*
X118900363Y-136169759D01*
X119100241Y-136369637D01*
X119335273Y-136526680D01*
X119596426Y-136634853D01*
X119873665Y-136690000D01*
X120156335Y-136690000D01*
X120433574Y-136634853D01*
X120694727Y-136526680D01*
X120929759Y-136369637D01*
X121129637Y-136169759D01*
X121285000Y-135937241D01*
X121440363Y-136169759D01*
X121640241Y-136369637D01*
X121875273Y-136526680D01*
X122136426Y-136634853D01*
X122413665Y-136690000D01*
X122696335Y-136690000D01*
X122973574Y-136634853D01*
X123234727Y-136526680D01*
X123456135Y-136378740D01*
X129960000Y-136378740D01*
X129960000Y-136671260D01*
X130017068Y-136958158D01*
X130129010Y-137228411D01*
X130291525Y-137471632D01*
X130498368Y-137678475D01*
X130741589Y-137840990D01*
X131011842Y-137952932D01*
X131298740Y-138010000D01*
X131591260Y-138010000D01*
X131878158Y-137952932D01*
X132148411Y-137840990D01*
X132391632Y-137678475D01*
X132523487Y-137546620D01*
X132545498Y-137619180D01*
X132604463Y-137729494D01*
X132683815Y-137826185D01*
X132780506Y-137905537D01*
X132890820Y-137964502D01*
X133010518Y-138000812D01*
X133135000Y-138013072D01*
X133699250Y-138010000D01*
X133858000Y-137851250D01*
X133858000Y-136652000D01*
X134112000Y-136652000D01*
X134112000Y-137851250D01*
X134270750Y-138010000D01*
X134835000Y-138013072D01*
X134959482Y-138000812D01*
X135079180Y-137964502D01*
X135189494Y-137905537D01*
X135286185Y-137826185D01*
X135365537Y-137729494D01*
X135424502Y-137619180D01*
X135460812Y-137499482D01*
X135473072Y-137375000D01*
X135470000Y-136810750D01*
X135311250Y-136652000D01*
X134112000Y-136652000D01*
X133858000Y-136652000D01*
X133838000Y-136652000D01*
X133838000Y-136398000D01*
X133858000Y-136398000D01*
X133858000Y-135198750D01*
X134112000Y-135198750D01*
X134112000Y-136398000D01*
X135311250Y-136398000D01*
X135470000Y-136239250D01*
X135473072Y-135675000D01*
X135460812Y-135550518D01*
X135424502Y-135430820D01*
X135365537Y-135320506D01*
X135286185Y-135223815D01*
X135189494Y-135144463D01*
X135079180Y-135085498D01*
X134959482Y-135049188D01*
X134835000Y-135036928D01*
X134270750Y-135040000D01*
X134112000Y-135198750D01*
X133858000Y-135198750D01*
X133699250Y-135040000D01*
X133135000Y-135036928D01*
X133010518Y-135049188D01*
X132890820Y-135085498D01*
X132780506Y-135144463D01*
X132683815Y-135223815D01*
X132604463Y-135320506D01*
X132545498Y-135430820D01*
X132523487Y-135503380D01*
X132391632Y-135371525D01*
X132148411Y-135209010D01*
X131878158Y-135097068D01*
X131591260Y-135040000D01*
X131298740Y-135040000D01*
X131011842Y-135097068D01*
X130741589Y-135209010D01*
X130498368Y-135371525D01*
X130291525Y-135578368D01*
X130129010Y-135821589D01*
X130017068Y-136091842D01*
X129960000Y-136378740D01*
X123456135Y-136378740D01*
X123469759Y-136369637D01*
X123669637Y-136169759D01*
X123826680Y-135934727D01*
X123934853Y-135673574D01*
X123990000Y-135396335D01*
X123990000Y-135113665D01*
X123934853Y-134836426D01*
X123826680Y-134575273D01*
X123669637Y-134340241D01*
X123469759Y-134140363D01*
X123234727Y-133983320D01*
X122973574Y-133875147D01*
X122696335Y-133820000D01*
X122413665Y-133820000D01*
X122136426Y-133875147D01*
X121875273Y-133983320D01*
X121640241Y-134140363D01*
X121440363Y-134340241D01*
X121285000Y-134572759D01*
X121129637Y-134340241D01*
X120929759Y-134140363D01*
X120694727Y-133983320D01*
X120433574Y-133875147D01*
X120156335Y-133820000D01*
X119873665Y-133820000D01*
X119596426Y-133875147D01*
X119335273Y-133983320D01*
X119100241Y-134140363D01*
X118900363Y-134340241D01*
X118745000Y-134572759D01*
X118589637Y-134340241D01*
X118389759Y-134140363D01*
X118154727Y-133983320D01*
X117893574Y-133875147D01*
X117616335Y-133820000D01*
X117333665Y-133820000D01*
X117056426Y-133875147D01*
X116795273Y-133983320D01*
X116560241Y-134140363D01*
X116361643Y-134338961D01*
X116360812Y-134330518D01*
X116324502Y-134210820D01*
X116265537Y-134100506D01*
X116186185Y-134003815D01*
X116089494Y-133924463D01*
X115979180Y-133865498D01*
X115859482Y-133829188D01*
X115735000Y-133816928D01*
X115220750Y-133820000D01*
X115062000Y-133978750D01*
X114808000Y-133978750D01*
X114649250Y-133820000D01*
X114135000Y-133816928D01*
X114010518Y-133829188D01*
X113890820Y-133865498D01*
X113780506Y-133924463D01*
X113683815Y-134003815D01*
X113604463Y-134100506D01*
X113545498Y-134210820D01*
X113509188Y-134330518D01*
X113496928Y-134455000D01*
X109943551Y-134455000D01*
X109964853Y-134403574D01*
X110020000Y-134126335D01*
X110020000Y-133843665D01*
X109964853Y-133566426D01*
X109856680Y-133305273D01*
X109699637Y-133070241D01*
X109499759Y-132870363D01*
X109264727Y-132713320D01*
X109003574Y-132605147D01*
X108726335Y-132550000D01*
X108443665Y-132550000D01*
X108166426Y-132605147D01*
X107905273Y-132713320D01*
X107670241Y-132870363D01*
X107470363Y-133070241D01*
X107313320Y-133305273D01*
X107205147Y-133566426D01*
X107150000Y-133843665D01*
X93610000Y-133843665D01*
X93610000Y-133753816D01*
X93551011Y-133457257D01*
X93435299Y-133177905D01*
X93267312Y-132926495D01*
X93053505Y-132712688D01*
X92967169Y-132655000D01*
X93053505Y-132597312D01*
X93267312Y-132383505D01*
X93435299Y-132132095D01*
X93551011Y-131852743D01*
X93610000Y-131556184D01*
X93610000Y-131253816D01*
X93551011Y-130957257D01*
X93435299Y-130677905D01*
X93267312Y-130426495D01*
X93229697Y-130388880D01*
X93329494Y-130335537D01*
X93426185Y-130256185D01*
X93505537Y-130159494D01*
X93564502Y-130049180D01*
X93586184Y-129977702D01*
X107771903Y-129977702D01*
X107843486Y-130221671D01*
X108098996Y-130342571D01*
X108373184Y-130411300D01*
X108655512Y-130425217D01*
X108935130Y-130383787D01*
X109201292Y-130288603D01*
X109326514Y-130221671D01*
X109381676Y-130033665D01*
X131280000Y-130033665D01*
X131280000Y-130316335D01*
X131335147Y-130593574D01*
X131443320Y-130854727D01*
X131600363Y-131089759D01*
X131800241Y-131289637D01*
X132035273Y-131446680D01*
X132296426Y-131554853D01*
X132573665Y-131610000D01*
X132856335Y-131610000D01*
X133133574Y-131554853D01*
X133394727Y-131446680D01*
X133629759Y-131289637D01*
X133829637Y-131089759D01*
X133986680Y-130854727D01*
X134094853Y-130593574D01*
X134150000Y-130316335D01*
X134150000Y-130033665D01*
X134094853Y-129756426D01*
X133986680Y-129495273D01*
X133829637Y-129260241D01*
X133629759Y-129060363D01*
X133394727Y-128903320D01*
X133133574Y-128795147D01*
X132856335Y-128740000D01*
X132573665Y-128740000D01*
X132296426Y-128795147D01*
X132035273Y-128903320D01*
X131800241Y-129060363D01*
X131600363Y-129260241D01*
X131443320Y-129495273D01*
X131335147Y-129756426D01*
X131280000Y-130033665D01*
X109381676Y-130033665D01*
X109398097Y-129977702D01*
X108585000Y-129164605D01*
X107771903Y-129977702D01*
X93586184Y-129977702D01*
X93600812Y-129929482D01*
X93613072Y-129805000D01*
X93613072Y-129055512D01*
X107144783Y-129055512D01*
X107186213Y-129335130D01*
X107281397Y-129601292D01*
X107348329Y-129726514D01*
X107592298Y-129798097D01*
X108405395Y-128985000D01*
X108764605Y-128985000D01*
X109577702Y-129798097D01*
X109821671Y-129726514D01*
X109942571Y-129471004D01*
X110011300Y-129196816D01*
X110025217Y-128914488D01*
X109983787Y-128634870D01*
X109888603Y-128368708D01*
X109821671Y-128243486D01*
X109577702Y-128171903D01*
X108764605Y-128985000D01*
X108405395Y-128985000D01*
X107592298Y-128171903D01*
X107348329Y-128243486D01*
X107227429Y-128498996D01*
X107158700Y-128773184D01*
X107144783Y-129055512D01*
X93613072Y-129055512D01*
X93613072Y-128005000D01*
X93600812Y-127880518D01*
X93564502Y-127760820D01*
X93505537Y-127650506D01*
X93426185Y-127553815D01*
X93329494Y-127474463D01*
X93219180Y-127415498D01*
X93099482Y-127379188D01*
X92975000Y-127366928D01*
X91175000Y-127366928D01*
X91050518Y-127379188D01*
X90930820Y-127415498D01*
X90820506Y-127474463D01*
X90723815Y-127553815D01*
X90644463Y-127650506D01*
X90585498Y-127760820D01*
X90549188Y-127880518D01*
X90536928Y-128005000D01*
X88925000Y-128005000D01*
X88925000Y-126605000D01*
X97310348Y-126605000D01*
X97348867Y-126996088D01*
X97462943Y-127372147D01*
X97648193Y-127718725D01*
X97897497Y-128022503D01*
X98201275Y-128271807D01*
X98547853Y-128457057D01*
X98923912Y-128571133D01*
X99217002Y-128600000D01*
X99932998Y-128600000D01*
X100226088Y-128571133D01*
X100602147Y-128457057D01*
X100948725Y-128271807D01*
X101252503Y-128022503D01*
X101277291Y-127992298D01*
X107771903Y-127992298D01*
X108585000Y-128805395D01*
X109398097Y-127992298D01*
X109326514Y-127748329D01*
X109071004Y-127627429D01*
X108796816Y-127558700D01*
X108514488Y-127544783D01*
X108234870Y-127586213D01*
X107968708Y-127681397D01*
X107843486Y-127748329D01*
X107771903Y-127992298D01*
X101277291Y-127992298D01*
X101501807Y-127718725D01*
X101622104Y-127493665D01*
X113500000Y-127493665D01*
X113500000Y-127776335D01*
X113555147Y-128053574D01*
X113663320Y-128314727D01*
X113820363Y-128549759D01*
X114020241Y-128749637D01*
X114255273Y-128906680D01*
X114516426Y-129014853D01*
X114793665Y-129070000D01*
X115076335Y-129070000D01*
X115353574Y-129014853D01*
X115614727Y-128906680D01*
X115849759Y-128749637D01*
X116049637Y-128549759D01*
X116205000Y-128317241D01*
X116360363Y-128549759D01*
X116560241Y-128749637D01*
X116795273Y-128906680D01*
X117056426Y-129014853D01*
X117333665Y-129070000D01*
X117616335Y-129070000D01*
X117893574Y-129014853D01*
X118154727Y-128906680D01*
X118389759Y-128749637D01*
X118589637Y-128549759D01*
X118745000Y-128317241D01*
X118900363Y-128549759D01*
X119100241Y-128749637D01*
X119335273Y-128906680D01*
X119596426Y-129014853D01*
X119873665Y-129070000D01*
X120156335Y-129070000D01*
X120433574Y-129014853D01*
X120694727Y-128906680D01*
X120929759Y-128749637D01*
X121129637Y-128549759D01*
X121285000Y-128317241D01*
X121440363Y-128549759D01*
X121640241Y-128749637D01*
X121875273Y-128906680D01*
X122136426Y-129014853D01*
X122413665Y-129070000D01*
X122696335Y-129070000D01*
X122973574Y-129014853D01*
X123234727Y-128906680D01*
X123469759Y-128749637D01*
X123669637Y-128549759D01*
X123826680Y-128314727D01*
X123934853Y-128053574D01*
X123990000Y-127776335D01*
X123990000Y-127493665D01*
X123934853Y-127216426D01*
X123826680Y-126955273D01*
X123669637Y-126720241D01*
X123469759Y-126520363D01*
X123234727Y-126363320D01*
X122973574Y-126255147D01*
X122696335Y-126200000D01*
X122413665Y-126200000D01*
X122136426Y-126255147D01*
X121875273Y-126363320D01*
X121640241Y-126520363D01*
X121440363Y-126720241D01*
X121285000Y-126952759D01*
X121129637Y-126720241D01*
X120929759Y-126520363D01*
X120694727Y-126363320D01*
X120433574Y-126255147D01*
X120156335Y-126200000D01*
X119873665Y-126200000D01*
X119596426Y-126255147D01*
X119335273Y-126363320D01*
X119100241Y-126520363D01*
X118900363Y-126720241D01*
X118745000Y-126952759D01*
X118589637Y-126720241D01*
X118389759Y-126520363D01*
X118154727Y-126363320D01*
X117893574Y-126255147D01*
X117616335Y-126200000D01*
X117333665Y-126200000D01*
X117056426Y-126255147D01*
X116795273Y-126363320D01*
X116560241Y-126520363D01*
X116360363Y-126720241D01*
X116205000Y-126952759D01*
X116049637Y-126720241D01*
X115849759Y-126520363D01*
X115614727Y-126363320D01*
X115353574Y-126255147D01*
X115076335Y-126200000D01*
X114793665Y-126200000D01*
X114516426Y-126255147D01*
X114255273Y-126363320D01*
X114020241Y-126520363D01*
X113820363Y-126720241D01*
X113663320Y-126955273D01*
X113555147Y-127216426D01*
X113500000Y-127493665D01*
X101622104Y-127493665D01*
X101687057Y-127372147D01*
X101801133Y-126996088D01*
X101839652Y-126605000D01*
X101801133Y-126213912D01*
X101687057Y-125837853D01*
X101501807Y-125491275D01*
X101252503Y-125187497D01*
X100948725Y-124938193D01*
X100602147Y-124752943D01*
X100226088Y-124638867D01*
X99932998Y-124610000D01*
X99217002Y-124610000D01*
X98923912Y-124638867D01*
X98547853Y-124752943D01*
X98201275Y-124938193D01*
X97897497Y-125187497D01*
X97648193Y-125491275D01*
X97462943Y-125837853D01*
X97348867Y-126213912D01*
X97310348Y-126605000D01*
X88925000Y-126605000D01*
X88925000Y-119873665D01*
X91910000Y-119873665D01*
X91910000Y-120156335D01*
X91965147Y-120433574D01*
X92073320Y-120694727D01*
X92230363Y-120929759D01*
X92430241Y-121129637D01*
X92665273Y-121286680D01*
X92926426Y-121394853D01*
X93203665Y-121450000D01*
X93486335Y-121450000D01*
X93763574Y-121394853D01*
X94024727Y-121286680D01*
X94259759Y-121129637D01*
X94459637Y-120929759D01*
X94616680Y-120694727D01*
X94724853Y-120433574D01*
X94780000Y-120156335D01*
X94780000Y-119873665D01*
X102070000Y-119873665D01*
X102070000Y-120156335D01*
X102125147Y-120433574D01*
X102233320Y-120694727D01*
X102390363Y-120929759D01*
X102590241Y-121129637D01*
X102825273Y-121286680D01*
X103086426Y-121394853D01*
X103363665Y-121450000D01*
X103646335Y-121450000D01*
X103923574Y-121394853D01*
X104184727Y-121286680D01*
X104419759Y-121129637D01*
X104619637Y-120929759D01*
X104776680Y-120694727D01*
X104884853Y-120433574D01*
X104940000Y-120156335D01*
X104940000Y-119873665D01*
X131280000Y-119873665D01*
X131280000Y-120156335D01*
X131335147Y-120433574D01*
X131443320Y-120694727D01*
X131600363Y-120929759D01*
X131800241Y-121129637D01*
X132035273Y-121286680D01*
X132296426Y-121394853D01*
X132573665Y-121450000D01*
X132856335Y-121450000D01*
X133133574Y-121394853D01*
X133394727Y-121286680D01*
X133629759Y-121129637D01*
X133829637Y-120929759D01*
X133986680Y-120694727D01*
X134094853Y-120433574D01*
X134150000Y-120156335D01*
X134150000Y-119873665D01*
X134094853Y-119596426D01*
X133986680Y-119335273D01*
X133829637Y-119100241D01*
X133629759Y-118900363D01*
X133394727Y-118743320D01*
X133133574Y-118635147D01*
X132856335Y-118580000D01*
X132573665Y-118580000D01*
X132296426Y-118635147D01*
X132035273Y-118743320D01*
X131800241Y-118900363D01*
X131600363Y-119100241D01*
X131443320Y-119335273D01*
X131335147Y-119596426D01*
X131280000Y-119873665D01*
X104940000Y-119873665D01*
X104884853Y-119596426D01*
X104776680Y-119335273D01*
X104619637Y-119100241D01*
X104419759Y-118900363D01*
X104184727Y-118743320D01*
X103923574Y-118635147D01*
X103646335Y-118580000D01*
X103363665Y-118580000D01*
X103086426Y-118635147D01*
X102825273Y-118743320D01*
X102590241Y-118900363D01*
X102390363Y-119100241D01*
X102233320Y-119335273D01*
X102125147Y-119596426D01*
X102070000Y-119873665D01*
X94780000Y-119873665D01*
X94724853Y-119596426D01*
X94616680Y-119335273D01*
X94459637Y-119100241D01*
X94259759Y-118900363D01*
X94024727Y-118743320D01*
X93763574Y-118635147D01*
X93486335Y-118580000D01*
X93203665Y-118580000D01*
X92926426Y-118635147D01*
X92665273Y-118743320D01*
X92430241Y-118900363D01*
X92230363Y-119100241D01*
X92073320Y-119335273D01*
X91965147Y-119596426D01*
X91910000Y-119873665D01*
X88925000Y-119873665D01*
X88925000Y-113345000D01*
X97310348Y-113345000D01*
X97348867Y-113736088D01*
X97462943Y-114112147D01*
X97648193Y-114458725D01*
X97897497Y-114762503D01*
X98201275Y-115011807D01*
X98547853Y-115197057D01*
X98923912Y-115311133D01*
X99217002Y-115340000D01*
X99932998Y-115340000D01*
X100226088Y-115311133D01*
X100602147Y-115197057D01*
X100948725Y-115011807D01*
X101252503Y-114762503D01*
X101501807Y-114458725D01*
X101687057Y-114112147D01*
X101772645Y-113830000D01*
X113496928Y-113830000D01*
X113509188Y-113954482D01*
X113545498Y-114074180D01*
X113604463Y-114184494D01*
X113683815Y-114281185D01*
X113780506Y-114360537D01*
X113890820Y-114419502D01*
X114010518Y-114455812D01*
X114135000Y-114468072D01*
X114649250Y-114465000D01*
X114808000Y-114306250D01*
X114808000Y-113157000D01*
X113658750Y-113157000D01*
X113500000Y-113315750D01*
X113496928Y-113830000D01*
X101772645Y-113830000D01*
X101801133Y-113736088D01*
X101839652Y-113345000D01*
X101801133Y-112953912D01*
X101687057Y-112577853D01*
X101501807Y-112231275D01*
X101252503Y-111927497D01*
X100948725Y-111678193D01*
X100687687Y-111538665D01*
X107150000Y-111538665D01*
X107150000Y-111821335D01*
X107205147Y-112098574D01*
X107313320Y-112359727D01*
X107470363Y-112594759D01*
X107670241Y-112794637D01*
X107905273Y-112951680D01*
X108166426Y-113059853D01*
X108443665Y-113115000D01*
X108726335Y-113115000D01*
X109003574Y-113059853D01*
X109264727Y-112951680D01*
X109499759Y-112794637D01*
X109699637Y-112594759D01*
X109856680Y-112359727D01*
X109910414Y-112230000D01*
X113496928Y-112230000D01*
X113500000Y-112744250D01*
X113658750Y-112903000D01*
X114808000Y-112903000D01*
X114808000Y-111753750D01*
X115062000Y-111753750D01*
X115062000Y-112903000D01*
X115082000Y-112903000D01*
X115082000Y-113157000D01*
X115062000Y-113157000D01*
X115062000Y-114306250D01*
X115220750Y-114465000D01*
X115735000Y-114468072D01*
X115859482Y-114455812D01*
X115979180Y-114419502D01*
X116089494Y-114360537D01*
X116186185Y-114281185D01*
X116265537Y-114184494D01*
X116324502Y-114074180D01*
X116360812Y-113954482D01*
X116361643Y-113946039D01*
X116560241Y-114144637D01*
X116795273Y-114301680D01*
X117056426Y-114409853D01*
X117333665Y-114465000D01*
X117616335Y-114465000D01*
X117893574Y-114409853D01*
X118154727Y-114301680D01*
X118389759Y-114144637D01*
X118589637Y-113944759D01*
X118745000Y-113712241D01*
X118900363Y-113944759D01*
X119100241Y-114144637D01*
X119335273Y-114301680D01*
X119596426Y-114409853D01*
X119873665Y-114465000D01*
X120156335Y-114465000D01*
X120433574Y-114409853D01*
X120694727Y-114301680D01*
X120929759Y-114144637D01*
X121129637Y-113944759D01*
X121285000Y-113712241D01*
X121440363Y-113944759D01*
X121640241Y-114144637D01*
X121875273Y-114301680D01*
X122136426Y-114409853D01*
X122413665Y-114465000D01*
X122696335Y-114465000D01*
X122973574Y-114409853D01*
X123234727Y-114301680D01*
X123469759Y-114144637D01*
X123669637Y-113944759D01*
X123826680Y-113709727D01*
X123934853Y-113448574D01*
X123990000Y-113171335D01*
X123990000Y-112888665D01*
X123934853Y-112611426D01*
X123826680Y-112350273D01*
X123669637Y-112115241D01*
X123469759Y-111915363D01*
X123234727Y-111758320D01*
X122973574Y-111650147D01*
X122696335Y-111595000D01*
X122413665Y-111595000D01*
X122136426Y-111650147D01*
X121875273Y-111758320D01*
X121640241Y-111915363D01*
X121440363Y-112115241D01*
X121285000Y-112347759D01*
X121129637Y-112115241D01*
X120929759Y-111915363D01*
X120694727Y-111758320D01*
X120433574Y-111650147D01*
X120156335Y-111595000D01*
X119873665Y-111595000D01*
X119596426Y-111650147D01*
X119335273Y-111758320D01*
X119100241Y-111915363D01*
X118900363Y-112115241D01*
X118745000Y-112347759D01*
X118589637Y-112115241D01*
X118389759Y-111915363D01*
X118154727Y-111758320D01*
X117893574Y-111650147D01*
X117616335Y-111595000D01*
X117333665Y-111595000D01*
X117056426Y-111650147D01*
X116795273Y-111758320D01*
X116560241Y-111915363D01*
X116361643Y-112113961D01*
X116360812Y-112105518D01*
X116324502Y-111985820D01*
X116265537Y-111875506D01*
X116186185Y-111778815D01*
X116089494Y-111699463D01*
X115979180Y-111640498D01*
X115859482Y-111604188D01*
X115735000Y-111591928D01*
X115220750Y-111595000D01*
X115062000Y-111753750D01*
X114808000Y-111753750D01*
X114649250Y-111595000D01*
X114135000Y-111591928D01*
X114010518Y-111604188D01*
X113890820Y-111640498D01*
X113780506Y-111699463D01*
X113683815Y-111778815D01*
X113604463Y-111875506D01*
X113545498Y-111985820D01*
X113509188Y-112105518D01*
X113496928Y-112230000D01*
X109910414Y-112230000D01*
X109964853Y-112098574D01*
X110020000Y-111821335D01*
X110020000Y-111538665D01*
X109964853Y-111261426D01*
X109856680Y-111000273D01*
X109699637Y-110765241D01*
X109499759Y-110565363D01*
X109264727Y-110408320D01*
X109063575Y-110325000D01*
X131276928Y-110325000D01*
X131276928Y-111925000D01*
X131289188Y-112049482D01*
X131325498Y-112169180D01*
X131384463Y-112279494D01*
X131463815Y-112376185D01*
X131560506Y-112455537D01*
X131670820Y-112514502D01*
X131766943Y-112543661D01*
X131600363Y-112710241D01*
X131443320Y-112945273D01*
X131335147Y-113206426D01*
X131280000Y-113483665D01*
X131280000Y-113766335D01*
X131335147Y-114043574D01*
X131443320Y-114304727D01*
X131600363Y-114539759D01*
X131800241Y-114739637D01*
X132035273Y-114896680D01*
X132296426Y-115004853D01*
X132573665Y-115060000D01*
X132856335Y-115060000D01*
X133133574Y-115004853D01*
X133394727Y-114896680D01*
X133629759Y-114739637D01*
X133829637Y-114539759D01*
X133986680Y-114304727D01*
X134094853Y-114043574D01*
X134150000Y-113766335D01*
X134150000Y-113483665D01*
X134094853Y-113206426D01*
X133986680Y-112945273D01*
X133829637Y-112710241D01*
X133663057Y-112543661D01*
X133759180Y-112514502D01*
X133869494Y-112455537D01*
X133966185Y-112376185D01*
X134045537Y-112279494D01*
X134104502Y-112169180D01*
X134140812Y-112049482D01*
X134153072Y-111925000D01*
X134153072Y-110325000D01*
X134140812Y-110200518D01*
X134104502Y-110080820D01*
X134045537Y-109970506D01*
X133966185Y-109873815D01*
X133869494Y-109794463D01*
X133759180Y-109735498D01*
X133639482Y-109699188D01*
X133515000Y-109686928D01*
X131915000Y-109686928D01*
X131790518Y-109699188D01*
X131670820Y-109735498D01*
X131560506Y-109794463D01*
X131463815Y-109873815D01*
X131384463Y-109970506D01*
X131325498Y-110080820D01*
X131289188Y-110200518D01*
X131276928Y-110325000D01*
X109063575Y-110325000D01*
X109003574Y-110300147D01*
X108726335Y-110245000D01*
X108443665Y-110245000D01*
X108166426Y-110300147D01*
X107905273Y-110408320D01*
X107670241Y-110565363D01*
X107470363Y-110765241D01*
X107313320Y-111000273D01*
X107205147Y-111261426D01*
X107150000Y-111538665D01*
X100687687Y-111538665D01*
X100602147Y-111492943D01*
X100226088Y-111378867D01*
X99932998Y-111350000D01*
X99217002Y-111350000D01*
X98923912Y-111378867D01*
X98547853Y-111492943D01*
X98201275Y-111678193D01*
X97897497Y-111927497D01*
X97648193Y-112231275D01*
X97462943Y-112577853D01*
X97348867Y-112953912D01*
X97310348Y-113345000D01*
X88925000Y-113345000D01*
X88925000Y-105145000D01*
X90536928Y-105145000D01*
X90536928Y-106945000D01*
X90549188Y-107069482D01*
X90585498Y-107189180D01*
X90644463Y-107299494D01*
X90723815Y-107396185D01*
X90820506Y-107475537D01*
X90920303Y-107528880D01*
X90882688Y-107566495D01*
X90714701Y-107817905D01*
X90598989Y-108097257D01*
X90540000Y-108393816D01*
X90540000Y-108696184D01*
X90598989Y-108992743D01*
X90714701Y-109272095D01*
X90882688Y-109523505D01*
X91096495Y-109737312D01*
X91182831Y-109795000D01*
X91096495Y-109852688D01*
X90882688Y-110066495D01*
X90714701Y-110317905D01*
X90598989Y-110597257D01*
X90540000Y-110893816D01*
X90540000Y-111196184D01*
X90598989Y-111492743D01*
X90714701Y-111772095D01*
X90882688Y-112023505D01*
X91096495Y-112237312D01*
X91347905Y-112405299D01*
X91627257Y-112521011D01*
X91923816Y-112580000D01*
X92226184Y-112580000D01*
X92522743Y-112521011D01*
X92802095Y-112405299D01*
X93053505Y-112237312D01*
X93267312Y-112023505D01*
X93435299Y-111772095D01*
X93551011Y-111492743D01*
X93610000Y-111196184D01*
X93610000Y-110893816D01*
X93551011Y-110597257D01*
X93435299Y-110317905D01*
X93267312Y-110066495D01*
X93053505Y-109852688D01*
X92967169Y-109795000D01*
X93053505Y-109737312D01*
X93267312Y-109523505D01*
X93435299Y-109272095D01*
X93551011Y-108992743D01*
X93610000Y-108696184D01*
X93610000Y-108393816D01*
X93551011Y-108097257D01*
X93435299Y-107817905D01*
X93338278Y-107672702D01*
X107771903Y-107672702D01*
X107843486Y-107916671D01*
X108098996Y-108037571D01*
X108373184Y-108106300D01*
X108655512Y-108120217D01*
X108935130Y-108078787D01*
X109201292Y-107983603D01*
X109326514Y-107916671D01*
X109398097Y-107672702D01*
X108585000Y-106859605D01*
X107771903Y-107672702D01*
X93338278Y-107672702D01*
X93267312Y-107566495D01*
X93229697Y-107528880D01*
X93329494Y-107475537D01*
X93426185Y-107396185D01*
X93505537Y-107299494D01*
X93564502Y-107189180D01*
X93600812Y-107069482D01*
X93613072Y-106945000D01*
X93613072Y-106750512D01*
X107144783Y-106750512D01*
X107186213Y-107030130D01*
X107281397Y-107296292D01*
X107348329Y-107421514D01*
X107592298Y-107493097D01*
X108405395Y-106680000D01*
X108764605Y-106680000D01*
X109577702Y-107493097D01*
X109821671Y-107421514D01*
X109942571Y-107166004D01*
X110011300Y-106891816D01*
X110025217Y-106609488D01*
X109983787Y-106329870D01*
X109888603Y-106063708D01*
X109821671Y-105938486D01*
X109577702Y-105866903D01*
X108764605Y-106680000D01*
X108405395Y-106680000D01*
X107592298Y-105866903D01*
X107348329Y-105938486D01*
X107227429Y-106193996D01*
X107158700Y-106468184D01*
X107144783Y-106750512D01*
X93613072Y-106750512D01*
X93613072Y-105145000D01*
X93600812Y-105020518D01*
X93564502Y-104900820D01*
X93505537Y-104790506D01*
X93426185Y-104693815D01*
X93329494Y-104614463D01*
X93219180Y-104555498D01*
X93099482Y-104519188D01*
X92975000Y-104506928D01*
X91175000Y-104506928D01*
X91050518Y-104519188D01*
X90930820Y-104555498D01*
X90820506Y-104614463D01*
X90723815Y-104693815D01*
X90644463Y-104790506D01*
X90585498Y-104900820D01*
X90549188Y-105020518D01*
X90536928Y-105145000D01*
X88925000Y-105145000D01*
X88925000Y-103745000D01*
X97310348Y-103745000D01*
X97348867Y-104136088D01*
X97462943Y-104512147D01*
X97648193Y-104858725D01*
X97897497Y-105162503D01*
X98201275Y-105411807D01*
X98547853Y-105597057D01*
X98923912Y-105711133D01*
X99217002Y-105740000D01*
X99932998Y-105740000D01*
X100226088Y-105711133D01*
X100304661Y-105687298D01*
X107771903Y-105687298D01*
X108585000Y-106500395D01*
X109398097Y-105687298D01*
X109326514Y-105443329D01*
X109071004Y-105322429D01*
X108856518Y-105268665D01*
X113500000Y-105268665D01*
X113500000Y-105551335D01*
X113555147Y-105828574D01*
X113663320Y-106089727D01*
X113820363Y-106324759D01*
X114020241Y-106524637D01*
X114255273Y-106681680D01*
X114516426Y-106789853D01*
X114793665Y-106845000D01*
X115076335Y-106845000D01*
X115353574Y-106789853D01*
X115614727Y-106681680D01*
X115849759Y-106524637D01*
X116049637Y-106324759D01*
X116205000Y-106092241D01*
X116360363Y-106324759D01*
X116560241Y-106524637D01*
X116795273Y-106681680D01*
X117056426Y-106789853D01*
X117333665Y-106845000D01*
X117616335Y-106845000D01*
X117893574Y-106789853D01*
X118154727Y-106681680D01*
X118389759Y-106524637D01*
X118589637Y-106324759D01*
X118745000Y-106092241D01*
X118900363Y-106324759D01*
X119100241Y-106524637D01*
X119335273Y-106681680D01*
X119596426Y-106789853D01*
X119873665Y-106845000D01*
X120156335Y-106845000D01*
X120433574Y-106789853D01*
X120694727Y-106681680D01*
X120929759Y-106524637D01*
X121129637Y-106324759D01*
X121285000Y-106092241D01*
X121440363Y-106324759D01*
X121640241Y-106524637D01*
X121875273Y-106681680D01*
X122136426Y-106789853D01*
X122413665Y-106845000D01*
X122696335Y-106845000D01*
X122973574Y-106789853D01*
X123234727Y-106681680D01*
X123469759Y-106524637D01*
X123669637Y-106324759D01*
X123826680Y-106089727D01*
X123934853Y-105828574D01*
X123990000Y-105551335D01*
X123990000Y-105268665D01*
X123934853Y-104991426D01*
X123826680Y-104730273D01*
X123669637Y-104495241D01*
X123469759Y-104295363D01*
X123234727Y-104138320D01*
X122973574Y-104030147D01*
X122790547Y-103993740D01*
X129960000Y-103993740D01*
X129960000Y-104286260D01*
X130017068Y-104573158D01*
X130129010Y-104843411D01*
X130291525Y-105086632D01*
X130498368Y-105293475D01*
X130741589Y-105455990D01*
X131011842Y-105567932D01*
X131298740Y-105625000D01*
X131591260Y-105625000D01*
X131878158Y-105567932D01*
X132148411Y-105455990D01*
X132391632Y-105293475D01*
X132523487Y-105161620D01*
X132545498Y-105234180D01*
X132604463Y-105344494D01*
X132683815Y-105441185D01*
X132780506Y-105520537D01*
X132890820Y-105579502D01*
X133010518Y-105615812D01*
X133135000Y-105628072D01*
X133699250Y-105625000D01*
X133858000Y-105466250D01*
X133858000Y-104267000D01*
X134112000Y-104267000D01*
X134112000Y-105466250D01*
X134270750Y-105625000D01*
X134835000Y-105628072D01*
X134959482Y-105615812D01*
X135079180Y-105579502D01*
X135189494Y-105520537D01*
X135286185Y-105441185D01*
X135365537Y-105344494D01*
X135424502Y-105234180D01*
X135460812Y-105114482D01*
X135473072Y-104990000D01*
X135470000Y-104425750D01*
X135311250Y-104267000D01*
X134112000Y-104267000D01*
X133858000Y-104267000D01*
X133838000Y-104267000D01*
X133838000Y-104013000D01*
X133858000Y-104013000D01*
X133858000Y-102813750D01*
X134112000Y-102813750D01*
X134112000Y-104013000D01*
X135311250Y-104013000D01*
X135470000Y-103854250D01*
X135473072Y-103290000D01*
X135460812Y-103165518D01*
X135424502Y-103045820D01*
X135365537Y-102935506D01*
X135286185Y-102838815D01*
X135189494Y-102759463D01*
X135079180Y-102700498D01*
X134959482Y-102664188D01*
X134835000Y-102651928D01*
X134270750Y-102655000D01*
X134112000Y-102813750D01*
X133858000Y-102813750D01*
X133699250Y-102655000D01*
X133135000Y-102651928D01*
X133010518Y-102664188D01*
X132890820Y-102700498D01*
X132780506Y-102759463D01*
X132683815Y-102838815D01*
X132604463Y-102935506D01*
X132545498Y-103045820D01*
X132523487Y-103118380D01*
X132391632Y-102986525D01*
X132148411Y-102824010D01*
X131878158Y-102712068D01*
X131591260Y-102655000D01*
X131298740Y-102655000D01*
X131011842Y-102712068D01*
X130741589Y-102824010D01*
X130498368Y-102986525D01*
X130291525Y-103193368D01*
X130129010Y-103436589D01*
X130017068Y-103706842D01*
X129960000Y-103993740D01*
X122790547Y-103993740D01*
X122696335Y-103975000D01*
X122413665Y-103975000D01*
X122136426Y-104030147D01*
X121875273Y-104138320D01*
X121640241Y-104295363D01*
X121440363Y-104495241D01*
X121285000Y-104727759D01*
X121129637Y-104495241D01*
X120929759Y-104295363D01*
X120694727Y-104138320D01*
X120433574Y-104030147D01*
X120156335Y-103975000D01*
X119873665Y-103975000D01*
X119596426Y-104030147D01*
X119335273Y-104138320D01*
X119100241Y-104295363D01*
X118900363Y-104495241D01*
X118745000Y-104727759D01*
X118589637Y-104495241D01*
X118389759Y-104295363D01*
X118154727Y-104138320D01*
X117893574Y-104030147D01*
X117616335Y-103975000D01*
X117333665Y-103975000D01*
X117056426Y-104030147D01*
X116795273Y-104138320D01*
X116560241Y-104295363D01*
X116360363Y-104495241D01*
X116205000Y-104727759D01*
X116049637Y-104495241D01*
X115849759Y-104295363D01*
X115614727Y-104138320D01*
X115353574Y-104030147D01*
X115076335Y-103975000D01*
X114793665Y-103975000D01*
X114516426Y-104030147D01*
X114255273Y-104138320D01*
X114020241Y-104295363D01*
X113820363Y-104495241D01*
X113663320Y-104730273D01*
X113555147Y-104991426D01*
X113500000Y-105268665D01*
X108856518Y-105268665D01*
X108796816Y-105253700D01*
X108514488Y-105239783D01*
X108234870Y-105281213D01*
X107968708Y-105376397D01*
X107843486Y-105443329D01*
X107771903Y-105687298D01*
X100304661Y-105687298D01*
X100602147Y-105597057D01*
X100948725Y-105411807D01*
X101252503Y-105162503D01*
X101501807Y-104858725D01*
X101687057Y-104512147D01*
X101801133Y-104136088D01*
X101839652Y-103745000D01*
X101801133Y-103353912D01*
X101687057Y-102977853D01*
X101501807Y-102631275D01*
X101252503Y-102327497D01*
X100948725Y-102078193D01*
X100602147Y-101892943D01*
X100226088Y-101778867D01*
X99932998Y-101750000D01*
X99217002Y-101750000D01*
X98923912Y-101778867D01*
X98547853Y-101892943D01*
X98201275Y-102078193D01*
X97897497Y-102327497D01*
X97648193Y-102631275D01*
X97462943Y-102977853D01*
X97348867Y-103353912D01*
X97310348Y-103745000D01*
X88925000Y-103745000D01*
X88925000Y-100997279D01*
X88939722Y-100847131D01*
X88973953Y-100733754D01*
X89029555Y-100629181D01*
X89104407Y-100537404D01*
X89195664Y-100461909D01*
X89299844Y-100405581D01*
X89412976Y-100370560D01*
X89561022Y-100355000D01*
X137127721Y-100355000D01*
X137277869Y-100369722D01*
G37*
X137277869Y-100369722D02*
X137391246Y-100403953D01*
X137495819Y-100459555D01*
X137587596Y-100534407D01*
X137663091Y-100625664D01*
X137719419Y-100729844D01*
X137754440Y-100842976D01*
X137770000Y-100991022D01*
X137770001Y-139667711D01*
X137755278Y-139817869D01*
X137721047Y-139931246D01*
X137665446Y-140035817D01*
X137590594Y-140127595D01*
X137499335Y-140203091D01*
X137395160Y-140259419D01*
X137282024Y-140294440D01*
X137133979Y-140310000D01*
X89567279Y-140310000D01*
X89417131Y-140295278D01*
X89303754Y-140261047D01*
X89199183Y-140205446D01*
X89107405Y-140130594D01*
X89031909Y-140039335D01*
X88975581Y-139935160D01*
X88940560Y-139822024D01*
X88925000Y-139673979D01*
X88925000Y-136205000D01*
X97310348Y-136205000D01*
X97348867Y-136596088D01*
X97462943Y-136972147D01*
X97648193Y-137318725D01*
X97897497Y-137622503D01*
X98201275Y-137871807D01*
X98547853Y-138057057D01*
X98923912Y-138171133D01*
X99217002Y-138200000D01*
X99932998Y-138200000D01*
X100226088Y-138171133D01*
X100602147Y-138057057D01*
X100948725Y-137871807D01*
X101252503Y-137622503D01*
X101501807Y-137318725D01*
X101687057Y-136972147D01*
X101801133Y-136596088D01*
X101839652Y-136205000D01*
X101824879Y-136055000D01*
X113496928Y-136055000D01*
X113509188Y-136179482D01*
X113545498Y-136299180D01*
X113604463Y-136409494D01*
X113683815Y-136506185D01*
X113780506Y-136585537D01*
X113890820Y-136644502D01*
X114010518Y-136680812D01*
X114135000Y-136693072D01*
X114649250Y-136690000D01*
X114808000Y-136531250D01*
X114808000Y-135382000D01*
X113658750Y-135382000D01*
X113500000Y-135540750D01*
X113496928Y-136055000D01*
X101824879Y-136055000D01*
X101801133Y-135813912D01*
X101687057Y-135437853D01*
X101501807Y-135091275D01*
X101252503Y-134787497D01*
X100948725Y-134538193D01*
X100602147Y-134352943D01*
X100226088Y-134238867D01*
X99932998Y-134210000D01*
X99217002Y-134210000D01*
X98923912Y-134238867D01*
X98547853Y-134352943D01*
X98201275Y-134538193D01*
X97897497Y-134787497D01*
X97648193Y-135091275D01*
X97462943Y-135437853D01*
X97348867Y-135813912D01*
X97310348Y-136205000D01*
X88925000Y-136205000D01*
X88925000Y-128005000D01*
X90536928Y-128005000D01*
X90536928Y-129805000D01*
X90549188Y-129929482D01*
X90585498Y-130049180D01*
X90644463Y-130159494D01*
X90723815Y-130256185D01*
X90820506Y-130335537D01*
X90920303Y-130388880D01*
X90882688Y-130426495D01*
X90714701Y-130677905D01*
X90598989Y-130957257D01*
X90540000Y-131253816D01*
X90540000Y-131556184D01*
X90598989Y-131852743D01*
X90714701Y-132132095D01*
X90882688Y-132383505D01*
X91096495Y-132597312D01*
X91182831Y-132655000D01*
X91096495Y-132712688D01*
X90882688Y-132926495D01*
X90714701Y-133177905D01*
X90598989Y-133457257D01*
X90540000Y-133753816D01*
X90540000Y-134056184D01*
X90598989Y-134352743D01*
X90714701Y-134632095D01*
X90882688Y-134883505D01*
X91096495Y-135097312D01*
X91347905Y-135265299D01*
X91627257Y-135381011D01*
X91923816Y-135440000D01*
X92226184Y-135440000D01*
X92522743Y-135381011D01*
X92802095Y-135265299D01*
X93053505Y-135097312D01*
X93267312Y-134883505D01*
X93435299Y-134632095D01*
X93551011Y-134352743D01*
X93610000Y-134056184D01*
X93610000Y-133843665D01*
X107150000Y-133843665D01*
X107150000Y-134126335D01*
X107205147Y-134403574D01*
X107313320Y-134664727D01*
X107470363Y-134899759D01*
X107670241Y-135099637D01*
X107905273Y-135256680D01*
X108166426Y-135364853D01*
X108443665Y-135420000D01*
X108726335Y-135420000D01*
X109003574Y-135364853D01*
X109264727Y-135256680D01*
X109499759Y-135099637D01*
X109699637Y-134899759D01*
X109856680Y-134664727D01*
X109943551Y-134455000D01*
X113496928Y-134455000D01*
X113500000Y-134969250D01*
X113658750Y-135128000D01*
X114808000Y-135128000D01*
X114808000Y-133978750D01*
X115062000Y-133978750D01*
X115062000Y-135128000D01*
X115082000Y-135128000D01*
X115082000Y-135382000D01*
X115062000Y-135382000D01*
X115062000Y-136531250D01*
X115220750Y-136690000D01*
X115735000Y-136693072D01*
X115859482Y-136680812D01*
X115979180Y-136644502D01*
X116089494Y-136585537D01*
X116186185Y-136506185D01*
X116265537Y-136409494D01*
X116324502Y-136299180D01*
X116360812Y-136179482D01*
X116361643Y-136171039D01*
X116560241Y-136369637D01*
X116795273Y-136526680D01*
X117056426Y-136634853D01*
X117333665Y-136690000D01*
X117616335Y-136690000D01*
X117893574Y-136634853D01*
X118154727Y-136526680D01*
X118389759Y-136369637D01*
X118589637Y-136169759D01*
X118745000Y-135937241D01*
X118900363Y-136169759D01*
X119100241Y-136369637D01*
X119335273Y-136526680D01*
X119596426Y-136634853D01*
X119873665Y-136690000D01*
X120156335Y-136690000D01*
X120433574Y-136634853D01*
X120694727Y-136526680D01*
X120929759Y-136369637D01*
X121129637Y-136169759D01*
X121285000Y-135937241D01*
X121440363Y-136169759D01*
X121640241Y-136369637D01*
X121875273Y-136526680D01*
X122136426Y-136634853D01*
X122413665Y-136690000D01*
X122696335Y-136690000D01*
X122973574Y-136634853D01*
X123234727Y-136526680D01*
X123456135Y-136378740D01*
X129960000Y-136378740D01*
X129960000Y-136671260D01*
X130017068Y-136958158D01*
X130129010Y-137228411D01*
X130291525Y-137471632D01*
X130498368Y-137678475D01*
X130741589Y-137840990D01*
X131011842Y-137952932D01*
X131298740Y-138010000D01*
X131591260Y-138010000D01*
X131878158Y-137952932D01*
X132148411Y-137840990D01*
X132391632Y-137678475D01*
X132523487Y-137546620D01*
X132545498Y-137619180D01*
X132604463Y-137729494D01*
X132683815Y-137826185D01*
X132780506Y-137905537D01*
X132890820Y-137964502D01*
X133010518Y-138000812D01*
X133135000Y-138013072D01*
X133699250Y-138010000D01*
X133858000Y-137851250D01*
X133858000Y-136652000D01*
X134112000Y-136652000D01*
X134112000Y-137851250D01*
X134270750Y-138010000D01*
X134835000Y-138013072D01*
X134959482Y-138000812D01*
X135079180Y-137964502D01*
X135189494Y-137905537D01*
X135286185Y-137826185D01*
X135365537Y-137729494D01*
X135424502Y-137619180D01*
X135460812Y-137499482D01*
X135473072Y-137375000D01*
X135470000Y-136810750D01*
X135311250Y-136652000D01*
X134112000Y-136652000D01*
X133858000Y-136652000D01*
X133838000Y-136652000D01*
X133838000Y-136398000D01*
X133858000Y-136398000D01*
X133858000Y-135198750D01*
X134112000Y-135198750D01*
X134112000Y-136398000D01*
X135311250Y-136398000D01*
X135470000Y-136239250D01*
X135473072Y-135675000D01*
X135460812Y-135550518D01*
X135424502Y-135430820D01*
X135365537Y-135320506D01*
X135286185Y-135223815D01*
X135189494Y-135144463D01*
X135079180Y-135085498D01*
X134959482Y-135049188D01*
X134835000Y-135036928D01*
X134270750Y-135040000D01*
X134112000Y-135198750D01*
X133858000Y-135198750D01*
X133699250Y-135040000D01*
X133135000Y-135036928D01*
X133010518Y-135049188D01*
X132890820Y-135085498D01*
X132780506Y-135144463D01*
X132683815Y-135223815D01*
X132604463Y-135320506D01*
X132545498Y-135430820D01*
X132523487Y-135503380D01*
X132391632Y-135371525D01*
X132148411Y-135209010D01*
X131878158Y-135097068D01*
X131591260Y-135040000D01*
X131298740Y-135040000D01*
X131011842Y-135097068D01*
X130741589Y-135209010D01*
X130498368Y-135371525D01*
X130291525Y-135578368D01*
X130129010Y-135821589D01*
X130017068Y-136091842D01*
X129960000Y-136378740D01*
X123456135Y-136378740D01*
X123469759Y-136369637D01*
X123669637Y-136169759D01*
X123826680Y-135934727D01*
X123934853Y-135673574D01*
X123990000Y-135396335D01*
X123990000Y-135113665D01*
X123934853Y-134836426D01*
X123826680Y-134575273D01*
X123669637Y-134340241D01*
X123469759Y-134140363D01*
X123234727Y-133983320D01*
X122973574Y-133875147D01*
X122696335Y-133820000D01*
X122413665Y-133820000D01*
X122136426Y-133875147D01*
X121875273Y-133983320D01*
X121640241Y-134140363D01*
X121440363Y-134340241D01*
X121285000Y-134572759D01*
X121129637Y-134340241D01*
X120929759Y-134140363D01*
X120694727Y-133983320D01*
X120433574Y-133875147D01*
X120156335Y-133820000D01*
X119873665Y-133820000D01*
X119596426Y-133875147D01*
X119335273Y-133983320D01*
X119100241Y-134140363D01*
X118900363Y-134340241D01*
X118745000Y-134572759D01*
X118589637Y-134340241D01*
X118389759Y-134140363D01*
X118154727Y-133983320D01*
X117893574Y-133875147D01*
X117616335Y-133820000D01*
X117333665Y-133820000D01*
X117056426Y-133875147D01*
X116795273Y-133983320D01*
X116560241Y-134140363D01*
X116361643Y-134338961D01*
X116360812Y-134330518D01*
X116324502Y-134210820D01*
X116265537Y-134100506D01*
X116186185Y-134003815D01*
X116089494Y-133924463D01*
X115979180Y-133865498D01*
X115859482Y-133829188D01*
X115735000Y-133816928D01*
X115220750Y-133820000D01*
X115062000Y-133978750D01*
X114808000Y-133978750D01*
X114649250Y-133820000D01*
X114135000Y-133816928D01*
X114010518Y-133829188D01*
X113890820Y-133865498D01*
X113780506Y-133924463D01*
X113683815Y-134003815D01*
X113604463Y-134100506D01*
X113545498Y-134210820D01*
X113509188Y-134330518D01*
X113496928Y-134455000D01*
X109943551Y-134455000D01*
X109964853Y-134403574D01*
X110020000Y-134126335D01*
X110020000Y-133843665D01*
X109964853Y-133566426D01*
X109856680Y-133305273D01*
X109699637Y-133070241D01*
X109499759Y-132870363D01*
X109264727Y-132713320D01*
X109003574Y-132605147D01*
X108726335Y-132550000D01*
X108443665Y-132550000D01*
X108166426Y-132605147D01*
X107905273Y-132713320D01*
X107670241Y-132870363D01*
X107470363Y-133070241D01*
X107313320Y-133305273D01*
X107205147Y-133566426D01*
X107150000Y-133843665D01*
X93610000Y-133843665D01*
X93610000Y-133753816D01*
X93551011Y-133457257D01*
X93435299Y-133177905D01*
X93267312Y-132926495D01*
X93053505Y-132712688D01*
X92967169Y-132655000D01*
X93053505Y-132597312D01*
X93267312Y-132383505D01*
X93435299Y-132132095D01*
X93551011Y-131852743D01*
X93610000Y-131556184D01*
X93610000Y-131253816D01*
X93551011Y-130957257D01*
X93435299Y-130677905D01*
X93267312Y-130426495D01*
X93229697Y-130388880D01*
X93329494Y-130335537D01*
X93426185Y-130256185D01*
X93505537Y-130159494D01*
X93564502Y-130049180D01*
X93586184Y-129977702D01*
X107771903Y-129977702D01*
X107843486Y-130221671D01*
X108098996Y-130342571D01*
X108373184Y-130411300D01*
X108655512Y-130425217D01*
X108935130Y-130383787D01*
X109201292Y-130288603D01*
X109326514Y-130221671D01*
X109381676Y-130033665D01*
X131280000Y-130033665D01*
X131280000Y-130316335D01*
X131335147Y-130593574D01*
X131443320Y-130854727D01*
X131600363Y-131089759D01*
X131800241Y-131289637D01*
X132035273Y-131446680D01*
X132296426Y-131554853D01*
X132573665Y-131610000D01*
X132856335Y-131610000D01*
X133133574Y-131554853D01*
X133394727Y-131446680D01*
X133629759Y-131289637D01*
X133829637Y-131089759D01*
X133986680Y-130854727D01*
X134094853Y-130593574D01*
X134150000Y-130316335D01*
X134150000Y-130033665D01*
X134094853Y-129756426D01*
X133986680Y-129495273D01*
X133829637Y-129260241D01*
X133629759Y-129060363D01*
X133394727Y-128903320D01*
X133133574Y-128795147D01*
X132856335Y-128740000D01*
X132573665Y-128740000D01*
X132296426Y-128795147D01*
X132035273Y-128903320D01*
X131800241Y-129060363D01*
X131600363Y-129260241D01*
X131443320Y-129495273D01*
X131335147Y-129756426D01*
X131280000Y-130033665D01*
X109381676Y-130033665D01*
X109398097Y-129977702D01*
X108585000Y-129164605D01*
X107771903Y-129977702D01*
X93586184Y-129977702D01*
X93600812Y-129929482D01*
X93613072Y-129805000D01*
X93613072Y-129055512D01*
X107144783Y-129055512D01*
X107186213Y-129335130D01*
X107281397Y-129601292D01*
X107348329Y-129726514D01*
X107592298Y-129798097D01*
X108405395Y-128985000D01*
X108764605Y-128985000D01*
X109577702Y-129798097D01*
X109821671Y-129726514D01*
X109942571Y-129471004D01*
X110011300Y-129196816D01*
X110025217Y-128914488D01*
X109983787Y-128634870D01*
X109888603Y-128368708D01*
X109821671Y-128243486D01*
X109577702Y-128171903D01*
X108764605Y-128985000D01*
X108405395Y-128985000D01*
X107592298Y-128171903D01*
X107348329Y-128243486D01*
X107227429Y-128498996D01*
X107158700Y-128773184D01*
X107144783Y-129055512D01*
X93613072Y-129055512D01*
X93613072Y-128005000D01*
X93600812Y-127880518D01*
X93564502Y-127760820D01*
X93505537Y-127650506D01*
X93426185Y-127553815D01*
X93329494Y-127474463D01*
X93219180Y-127415498D01*
X93099482Y-127379188D01*
X92975000Y-127366928D01*
X91175000Y-127366928D01*
X91050518Y-127379188D01*
X90930820Y-127415498D01*
X90820506Y-127474463D01*
X90723815Y-127553815D01*
X90644463Y-127650506D01*
X90585498Y-127760820D01*
X90549188Y-127880518D01*
X90536928Y-128005000D01*
X88925000Y-128005000D01*
X88925000Y-126605000D01*
X97310348Y-126605000D01*
X97348867Y-126996088D01*
X97462943Y-127372147D01*
X97648193Y-127718725D01*
X97897497Y-128022503D01*
X98201275Y-128271807D01*
X98547853Y-128457057D01*
X98923912Y-128571133D01*
X99217002Y-128600000D01*
X99932998Y-128600000D01*
X100226088Y-128571133D01*
X100602147Y-128457057D01*
X100948725Y-128271807D01*
X101252503Y-128022503D01*
X101277291Y-127992298D01*
X107771903Y-127992298D01*
X108585000Y-128805395D01*
X109398097Y-127992298D01*
X109326514Y-127748329D01*
X109071004Y-127627429D01*
X108796816Y-127558700D01*
X108514488Y-127544783D01*
X108234870Y-127586213D01*
X107968708Y-127681397D01*
X107843486Y-127748329D01*
X107771903Y-127992298D01*
X101277291Y-127992298D01*
X101501807Y-127718725D01*
X101622104Y-127493665D01*
X113500000Y-127493665D01*
X113500000Y-127776335D01*
X113555147Y-128053574D01*
X113663320Y-128314727D01*
X113820363Y-128549759D01*
X114020241Y-128749637D01*
X114255273Y-128906680D01*
X114516426Y-129014853D01*
X114793665Y-129070000D01*
X115076335Y-129070000D01*
X115353574Y-129014853D01*
X115614727Y-128906680D01*
X115849759Y-128749637D01*
X116049637Y-128549759D01*
X116205000Y-128317241D01*
X116360363Y-128549759D01*
X116560241Y-128749637D01*
X116795273Y-128906680D01*
X117056426Y-129014853D01*
X117333665Y-129070000D01*
X117616335Y-129070000D01*
X117893574Y-129014853D01*
X118154727Y-128906680D01*
X118389759Y-128749637D01*
X118589637Y-128549759D01*
X118745000Y-128317241D01*
X118900363Y-128549759D01*
X119100241Y-128749637D01*
X119335273Y-128906680D01*
X119596426Y-129014853D01*
X119873665Y-129070000D01*
X120156335Y-129070000D01*
X120433574Y-129014853D01*
X120694727Y-128906680D01*
X120929759Y-128749637D01*
X121129637Y-128549759D01*
X121285000Y-128317241D01*
X121440363Y-128549759D01*
X121640241Y-128749637D01*
X121875273Y-128906680D01*
X122136426Y-129014853D01*
X122413665Y-129070000D01*
X122696335Y-129070000D01*
X122973574Y-129014853D01*
X123234727Y-128906680D01*
X123469759Y-128749637D01*
X123669637Y-128549759D01*
X123826680Y-128314727D01*
X123934853Y-128053574D01*
X123990000Y-127776335D01*
X123990000Y-127493665D01*
X123934853Y-127216426D01*
X123826680Y-126955273D01*
X123669637Y-126720241D01*
X123469759Y-126520363D01*
X123234727Y-126363320D01*
X122973574Y-126255147D01*
X122696335Y-126200000D01*
X122413665Y-126200000D01*
X122136426Y-126255147D01*
X121875273Y-126363320D01*
X121640241Y-126520363D01*
X121440363Y-126720241D01*
X121285000Y-126952759D01*
X121129637Y-126720241D01*
X120929759Y-126520363D01*
X120694727Y-126363320D01*
X120433574Y-126255147D01*
X120156335Y-126200000D01*
X119873665Y-126200000D01*
X119596426Y-126255147D01*
X119335273Y-126363320D01*
X119100241Y-126520363D01*
X118900363Y-126720241D01*
X118745000Y-126952759D01*
X118589637Y-126720241D01*
X118389759Y-126520363D01*
X118154727Y-126363320D01*
X117893574Y-126255147D01*
X117616335Y-126200000D01*
X117333665Y-126200000D01*
X117056426Y-126255147D01*
X116795273Y-126363320D01*
X116560241Y-126520363D01*
X116360363Y-126720241D01*
X116205000Y-126952759D01*
X116049637Y-126720241D01*
X115849759Y-126520363D01*
X115614727Y-126363320D01*
X115353574Y-126255147D01*
X115076335Y-126200000D01*
X114793665Y-126200000D01*
X114516426Y-126255147D01*
X114255273Y-126363320D01*
X114020241Y-126520363D01*
X113820363Y-126720241D01*
X113663320Y-126955273D01*
X113555147Y-127216426D01*
X113500000Y-127493665D01*
X101622104Y-127493665D01*
X101687057Y-127372147D01*
X101801133Y-126996088D01*
X101839652Y-126605000D01*
X101801133Y-126213912D01*
X101687057Y-125837853D01*
X101501807Y-125491275D01*
X101252503Y-125187497D01*
X100948725Y-124938193D01*
X100602147Y-124752943D01*
X100226088Y-124638867D01*
X99932998Y-124610000D01*
X99217002Y-124610000D01*
X98923912Y-124638867D01*
X98547853Y-124752943D01*
X98201275Y-124938193D01*
X97897497Y-125187497D01*
X97648193Y-125491275D01*
X97462943Y-125837853D01*
X97348867Y-126213912D01*
X97310348Y-126605000D01*
X88925000Y-126605000D01*
X88925000Y-119873665D01*
X91910000Y-119873665D01*
X91910000Y-120156335D01*
X91965147Y-120433574D01*
X92073320Y-120694727D01*
X92230363Y-120929759D01*
X92430241Y-121129637D01*
X92665273Y-121286680D01*
X92926426Y-121394853D01*
X93203665Y-121450000D01*
X93486335Y-121450000D01*
X93763574Y-121394853D01*
X94024727Y-121286680D01*
X94259759Y-121129637D01*
X94459637Y-120929759D01*
X94616680Y-120694727D01*
X94724853Y-120433574D01*
X94780000Y-120156335D01*
X94780000Y-119873665D01*
X102070000Y-119873665D01*
X102070000Y-120156335D01*
X102125147Y-120433574D01*
X102233320Y-120694727D01*
X102390363Y-120929759D01*
X102590241Y-121129637D01*
X102825273Y-121286680D01*
X103086426Y-121394853D01*
X103363665Y-121450000D01*
X103646335Y-121450000D01*
X103923574Y-121394853D01*
X104184727Y-121286680D01*
X104419759Y-121129637D01*
X104619637Y-120929759D01*
X104776680Y-120694727D01*
X104884853Y-120433574D01*
X104940000Y-120156335D01*
X104940000Y-119873665D01*
X131280000Y-119873665D01*
X131280000Y-120156335D01*
X131335147Y-120433574D01*
X131443320Y-120694727D01*
X131600363Y-120929759D01*
X131800241Y-121129637D01*
X132035273Y-121286680D01*
X132296426Y-121394853D01*
X132573665Y-121450000D01*
X132856335Y-121450000D01*
X133133574Y-121394853D01*
X133394727Y-121286680D01*
X133629759Y-121129637D01*
X133829637Y-120929759D01*
X133986680Y-120694727D01*
X134094853Y-120433574D01*
X134150000Y-120156335D01*
X134150000Y-119873665D01*
X134094853Y-119596426D01*
X133986680Y-119335273D01*
X133829637Y-119100241D01*
X133629759Y-118900363D01*
X133394727Y-118743320D01*
X133133574Y-118635147D01*
X132856335Y-118580000D01*
X132573665Y-118580000D01*
X132296426Y-118635147D01*
X132035273Y-118743320D01*
X131800241Y-118900363D01*
X131600363Y-119100241D01*
X131443320Y-119335273D01*
X131335147Y-119596426D01*
X131280000Y-119873665D01*
X104940000Y-119873665D01*
X104884853Y-119596426D01*
X104776680Y-119335273D01*
X104619637Y-119100241D01*
X104419759Y-118900363D01*
X104184727Y-118743320D01*
X103923574Y-118635147D01*
X103646335Y-118580000D01*
X103363665Y-118580000D01*
X103086426Y-118635147D01*
X102825273Y-118743320D01*
X102590241Y-118900363D01*
X102390363Y-119100241D01*
X102233320Y-119335273D01*
X102125147Y-119596426D01*
X102070000Y-119873665D01*
X94780000Y-119873665D01*
X94724853Y-119596426D01*
X94616680Y-119335273D01*
X94459637Y-119100241D01*
X94259759Y-118900363D01*
X94024727Y-118743320D01*
X93763574Y-118635147D01*
X93486335Y-118580000D01*
X93203665Y-118580000D01*
X92926426Y-118635147D01*
X92665273Y-118743320D01*
X92430241Y-118900363D01*
X92230363Y-119100241D01*
X92073320Y-119335273D01*
X91965147Y-119596426D01*
X91910000Y-119873665D01*
X88925000Y-119873665D01*
X88925000Y-113345000D01*
X97310348Y-113345000D01*
X97348867Y-113736088D01*
X97462943Y-114112147D01*
X97648193Y-114458725D01*
X97897497Y-114762503D01*
X98201275Y-115011807D01*
X98547853Y-115197057D01*
X98923912Y-115311133D01*
X99217002Y-115340000D01*
X99932998Y-115340000D01*
X100226088Y-115311133D01*
X100602147Y-115197057D01*
X100948725Y-115011807D01*
X101252503Y-114762503D01*
X101501807Y-114458725D01*
X101687057Y-114112147D01*
X101772645Y-113830000D01*
X113496928Y-113830000D01*
X113509188Y-113954482D01*
X113545498Y-114074180D01*
X113604463Y-114184494D01*
X113683815Y-114281185D01*
X113780506Y-114360537D01*
X113890820Y-114419502D01*
X114010518Y-114455812D01*
X114135000Y-114468072D01*
X114649250Y-114465000D01*
X114808000Y-114306250D01*
X114808000Y-113157000D01*
X113658750Y-113157000D01*
X113500000Y-113315750D01*
X113496928Y-113830000D01*
X101772645Y-113830000D01*
X101801133Y-113736088D01*
X101839652Y-113345000D01*
X101801133Y-112953912D01*
X101687057Y-112577853D01*
X101501807Y-112231275D01*
X101252503Y-111927497D01*
X100948725Y-111678193D01*
X100687687Y-111538665D01*
X107150000Y-111538665D01*
X107150000Y-111821335D01*
X107205147Y-112098574D01*
X107313320Y-112359727D01*
X107470363Y-112594759D01*
X107670241Y-112794637D01*
X107905273Y-112951680D01*
X108166426Y-113059853D01*
X108443665Y-113115000D01*
X108726335Y-113115000D01*
X109003574Y-113059853D01*
X109264727Y-112951680D01*
X109499759Y-112794637D01*
X109699637Y-112594759D01*
X109856680Y-112359727D01*
X109910414Y-112230000D01*
X113496928Y-112230000D01*
X113500000Y-112744250D01*
X113658750Y-112903000D01*
X114808000Y-112903000D01*
X114808000Y-111753750D01*
X115062000Y-111753750D01*
X115062000Y-112903000D01*
X115082000Y-112903000D01*
X115082000Y-113157000D01*
X115062000Y-113157000D01*
X115062000Y-114306250D01*
X115220750Y-114465000D01*
X115735000Y-114468072D01*
X115859482Y-114455812D01*
X115979180Y-114419502D01*
X116089494Y-114360537D01*
X116186185Y-114281185D01*
X116265537Y-114184494D01*
X116324502Y-114074180D01*
X116360812Y-113954482D01*
X116361643Y-113946039D01*
X116560241Y-114144637D01*
X116795273Y-114301680D01*
X117056426Y-114409853D01*
X117333665Y-114465000D01*
X117616335Y-114465000D01*
X117893574Y-114409853D01*
X118154727Y-114301680D01*
X118389759Y-114144637D01*
X118589637Y-113944759D01*
X118745000Y-113712241D01*
X118900363Y-113944759D01*
X119100241Y-114144637D01*
X119335273Y-114301680D01*
X119596426Y-114409853D01*
X119873665Y-114465000D01*
X120156335Y-114465000D01*
X120433574Y-114409853D01*
X120694727Y-114301680D01*
X120929759Y-114144637D01*
X121129637Y-113944759D01*
X121285000Y-113712241D01*
X121440363Y-113944759D01*
X121640241Y-114144637D01*
X121875273Y-114301680D01*
X122136426Y-114409853D01*
X122413665Y-114465000D01*
X122696335Y-114465000D01*
X122973574Y-114409853D01*
X123234727Y-114301680D01*
X123469759Y-114144637D01*
X123669637Y-113944759D01*
X123826680Y-113709727D01*
X123934853Y-113448574D01*
X123990000Y-113171335D01*
X123990000Y-112888665D01*
X123934853Y-112611426D01*
X123826680Y-112350273D01*
X123669637Y-112115241D01*
X123469759Y-111915363D01*
X123234727Y-111758320D01*
X122973574Y-111650147D01*
X122696335Y-111595000D01*
X122413665Y-111595000D01*
X122136426Y-111650147D01*
X121875273Y-111758320D01*
X121640241Y-111915363D01*
X121440363Y-112115241D01*
X121285000Y-112347759D01*
X121129637Y-112115241D01*
X120929759Y-111915363D01*
X120694727Y-111758320D01*
X120433574Y-111650147D01*
X120156335Y-111595000D01*
X119873665Y-111595000D01*
X119596426Y-111650147D01*
X119335273Y-111758320D01*
X119100241Y-111915363D01*
X118900363Y-112115241D01*
X118745000Y-112347759D01*
X118589637Y-112115241D01*
X118389759Y-111915363D01*
X118154727Y-111758320D01*
X117893574Y-111650147D01*
X117616335Y-111595000D01*
X117333665Y-111595000D01*
X117056426Y-111650147D01*
X116795273Y-111758320D01*
X116560241Y-111915363D01*
X116361643Y-112113961D01*
X116360812Y-112105518D01*
X116324502Y-111985820D01*
X116265537Y-111875506D01*
X116186185Y-111778815D01*
X116089494Y-111699463D01*
X115979180Y-111640498D01*
X115859482Y-111604188D01*
X115735000Y-111591928D01*
X115220750Y-111595000D01*
X115062000Y-111753750D01*
X114808000Y-111753750D01*
X114649250Y-111595000D01*
X114135000Y-111591928D01*
X114010518Y-111604188D01*
X113890820Y-111640498D01*
X113780506Y-111699463D01*
X113683815Y-111778815D01*
X113604463Y-111875506D01*
X113545498Y-111985820D01*
X113509188Y-112105518D01*
X113496928Y-112230000D01*
X109910414Y-112230000D01*
X109964853Y-112098574D01*
X110020000Y-111821335D01*
X110020000Y-111538665D01*
X109964853Y-111261426D01*
X109856680Y-111000273D01*
X109699637Y-110765241D01*
X109499759Y-110565363D01*
X109264727Y-110408320D01*
X109063575Y-110325000D01*
X131276928Y-110325000D01*
X131276928Y-111925000D01*
X131289188Y-112049482D01*
X131325498Y-112169180D01*
X131384463Y-112279494D01*
X131463815Y-112376185D01*
X131560506Y-112455537D01*
X131670820Y-112514502D01*
X131766943Y-112543661D01*
X131600363Y-112710241D01*
X131443320Y-112945273D01*
X131335147Y-113206426D01*
X131280000Y-113483665D01*
X131280000Y-113766335D01*
X131335147Y-114043574D01*
X131443320Y-114304727D01*
X131600363Y-114539759D01*
X131800241Y-114739637D01*
X132035273Y-114896680D01*
X132296426Y-115004853D01*
X132573665Y-115060000D01*
X132856335Y-115060000D01*
X133133574Y-115004853D01*
X133394727Y-114896680D01*
X133629759Y-114739637D01*
X133829637Y-114539759D01*
X133986680Y-114304727D01*
X134094853Y-114043574D01*
X134150000Y-113766335D01*
X134150000Y-113483665D01*
X134094853Y-113206426D01*
X133986680Y-112945273D01*
X133829637Y-112710241D01*
X133663057Y-112543661D01*
X133759180Y-112514502D01*
X133869494Y-112455537D01*
X133966185Y-112376185D01*
X134045537Y-112279494D01*
X134104502Y-112169180D01*
X134140812Y-112049482D01*
X134153072Y-111925000D01*
X134153072Y-110325000D01*
X134140812Y-110200518D01*
X134104502Y-110080820D01*
X134045537Y-109970506D01*
X133966185Y-109873815D01*
X133869494Y-109794463D01*
X133759180Y-109735498D01*
X133639482Y-109699188D01*
X133515000Y-109686928D01*
X131915000Y-109686928D01*
X131790518Y-109699188D01*
X131670820Y-109735498D01*
X131560506Y-109794463D01*
X131463815Y-109873815D01*
X131384463Y-109970506D01*
X131325498Y-110080820D01*
X131289188Y-110200518D01*
X131276928Y-110325000D01*
X109063575Y-110325000D01*
X109003574Y-110300147D01*
X108726335Y-110245000D01*
X108443665Y-110245000D01*
X108166426Y-110300147D01*
X107905273Y-110408320D01*
X107670241Y-110565363D01*
X107470363Y-110765241D01*
X107313320Y-111000273D01*
X107205147Y-111261426D01*
X107150000Y-111538665D01*
X100687687Y-111538665D01*
X100602147Y-111492943D01*
X100226088Y-111378867D01*
X99932998Y-111350000D01*
X99217002Y-111350000D01*
X98923912Y-111378867D01*
X98547853Y-111492943D01*
X98201275Y-111678193D01*
X97897497Y-111927497D01*
X97648193Y-112231275D01*
X97462943Y-112577853D01*
X97348867Y-112953912D01*
X97310348Y-113345000D01*
X88925000Y-113345000D01*
X88925000Y-105145000D01*
X90536928Y-105145000D01*
X90536928Y-106945000D01*
X90549188Y-107069482D01*
X90585498Y-107189180D01*
X90644463Y-107299494D01*
X90723815Y-107396185D01*
X90820506Y-107475537D01*
X90920303Y-107528880D01*
X90882688Y-107566495D01*
X90714701Y-107817905D01*
X90598989Y-108097257D01*
X90540000Y-108393816D01*
X90540000Y-108696184D01*
X90598989Y-108992743D01*
X90714701Y-109272095D01*
X90882688Y-109523505D01*
X91096495Y-109737312D01*
X91182831Y-109795000D01*
X91096495Y-109852688D01*
X90882688Y-110066495D01*
X90714701Y-110317905D01*
X90598989Y-110597257D01*
X90540000Y-110893816D01*
X90540000Y-111196184D01*
X90598989Y-111492743D01*
X90714701Y-111772095D01*
X90882688Y-112023505D01*
X91096495Y-112237312D01*
X91347905Y-112405299D01*
X91627257Y-112521011D01*
X91923816Y-112580000D01*
X92226184Y-112580000D01*
X92522743Y-112521011D01*
X92802095Y-112405299D01*
X93053505Y-112237312D01*
X93267312Y-112023505D01*
X93435299Y-111772095D01*
X93551011Y-111492743D01*
X93610000Y-111196184D01*
X93610000Y-110893816D01*
X93551011Y-110597257D01*
X93435299Y-110317905D01*
X93267312Y-110066495D01*
X93053505Y-109852688D01*
X92967169Y-109795000D01*
X93053505Y-109737312D01*
X93267312Y-109523505D01*
X93435299Y-109272095D01*
X93551011Y-108992743D01*
X93610000Y-108696184D01*
X93610000Y-108393816D01*
X93551011Y-108097257D01*
X93435299Y-107817905D01*
X93338278Y-107672702D01*
X107771903Y-107672702D01*
X107843486Y-107916671D01*
X108098996Y-108037571D01*
X108373184Y-108106300D01*
X108655512Y-108120217D01*
X108935130Y-108078787D01*
X109201292Y-107983603D01*
X109326514Y-107916671D01*
X109398097Y-107672702D01*
X108585000Y-106859605D01*
X107771903Y-107672702D01*
X93338278Y-107672702D01*
X93267312Y-107566495D01*
X93229697Y-107528880D01*
X93329494Y-107475537D01*
X93426185Y-107396185D01*
X93505537Y-107299494D01*
X93564502Y-107189180D01*
X93600812Y-107069482D01*
X93613072Y-106945000D01*
X93613072Y-106750512D01*
X107144783Y-106750512D01*
X107186213Y-107030130D01*
X107281397Y-107296292D01*
X107348329Y-107421514D01*
X107592298Y-107493097D01*
X108405395Y-106680000D01*
X108764605Y-106680000D01*
X109577702Y-107493097D01*
X109821671Y-107421514D01*
X109942571Y-107166004D01*
X110011300Y-106891816D01*
X110025217Y-106609488D01*
X109983787Y-106329870D01*
X109888603Y-106063708D01*
X109821671Y-105938486D01*
X109577702Y-105866903D01*
X108764605Y-106680000D01*
X108405395Y-106680000D01*
X107592298Y-105866903D01*
X107348329Y-105938486D01*
X107227429Y-106193996D01*
X107158700Y-106468184D01*
X107144783Y-106750512D01*
X93613072Y-106750512D01*
X93613072Y-105145000D01*
X93600812Y-105020518D01*
X93564502Y-104900820D01*
X93505537Y-104790506D01*
X93426185Y-104693815D01*
X93329494Y-104614463D01*
X93219180Y-104555498D01*
X93099482Y-104519188D01*
X92975000Y-104506928D01*
X91175000Y-104506928D01*
X91050518Y-104519188D01*
X90930820Y-104555498D01*
X90820506Y-104614463D01*
X90723815Y-104693815D01*
X90644463Y-104790506D01*
X90585498Y-104900820D01*
X90549188Y-105020518D01*
X90536928Y-105145000D01*
X88925000Y-105145000D01*
X88925000Y-103745000D01*
X97310348Y-103745000D01*
X97348867Y-104136088D01*
X97462943Y-104512147D01*
X97648193Y-104858725D01*
X97897497Y-105162503D01*
X98201275Y-105411807D01*
X98547853Y-105597057D01*
X98923912Y-105711133D01*
X99217002Y-105740000D01*
X99932998Y-105740000D01*
X100226088Y-105711133D01*
X100304661Y-105687298D01*
X107771903Y-105687298D01*
X108585000Y-106500395D01*
X109398097Y-105687298D01*
X109326514Y-105443329D01*
X109071004Y-105322429D01*
X108856518Y-105268665D01*
X113500000Y-105268665D01*
X113500000Y-105551335D01*
X113555147Y-105828574D01*
X113663320Y-106089727D01*
X113820363Y-106324759D01*
X114020241Y-106524637D01*
X114255273Y-106681680D01*
X114516426Y-106789853D01*
X114793665Y-106845000D01*
X115076335Y-106845000D01*
X115353574Y-106789853D01*
X115614727Y-106681680D01*
X115849759Y-106524637D01*
X116049637Y-106324759D01*
X116205000Y-106092241D01*
X116360363Y-106324759D01*
X116560241Y-106524637D01*
X116795273Y-106681680D01*
X117056426Y-106789853D01*
X117333665Y-106845000D01*
X117616335Y-106845000D01*
X117893574Y-106789853D01*
X118154727Y-106681680D01*
X118389759Y-106524637D01*
X118589637Y-106324759D01*
X118745000Y-106092241D01*
X118900363Y-106324759D01*
X119100241Y-106524637D01*
X119335273Y-106681680D01*
X119596426Y-106789853D01*
X119873665Y-106845000D01*
X120156335Y-106845000D01*
X120433574Y-106789853D01*
X120694727Y-106681680D01*
X120929759Y-106524637D01*
X121129637Y-106324759D01*
X121285000Y-106092241D01*
X121440363Y-106324759D01*
X121640241Y-106524637D01*
X121875273Y-106681680D01*
X122136426Y-106789853D01*
X122413665Y-106845000D01*
X122696335Y-106845000D01*
X122973574Y-106789853D01*
X123234727Y-106681680D01*
X123469759Y-106524637D01*
X123669637Y-106324759D01*
X123826680Y-106089727D01*
X123934853Y-105828574D01*
X123990000Y-105551335D01*
X123990000Y-105268665D01*
X123934853Y-104991426D01*
X123826680Y-104730273D01*
X123669637Y-104495241D01*
X123469759Y-104295363D01*
X123234727Y-104138320D01*
X122973574Y-104030147D01*
X122790547Y-103993740D01*
X129960000Y-103993740D01*
X129960000Y-104286260D01*
X130017068Y-104573158D01*
X130129010Y-104843411D01*
X130291525Y-105086632D01*
X130498368Y-105293475D01*
X130741589Y-105455990D01*
X131011842Y-105567932D01*
X131298740Y-105625000D01*
X131591260Y-105625000D01*
X131878158Y-105567932D01*
X132148411Y-105455990D01*
X132391632Y-105293475D01*
X132523487Y-105161620D01*
X132545498Y-105234180D01*
X132604463Y-105344494D01*
X132683815Y-105441185D01*
X132780506Y-105520537D01*
X132890820Y-105579502D01*
X133010518Y-105615812D01*
X133135000Y-105628072D01*
X133699250Y-105625000D01*
X133858000Y-105466250D01*
X133858000Y-104267000D01*
X134112000Y-104267000D01*
X134112000Y-105466250D01*
X134270750Y-105625000D01*
X134835000Y-105628072D01*
X134959482Y-105615812D01*
X135079180Y-105579502D01*
X135189494Y-105520537D01*
X135286185Y-105441185D01*
X135365537Y-105344494D01*
X135424502Y-105234180D01*
X135460812Y-105114482D01*
X135473072Y-104990000D01*
X135470000Y-104425750D01*
X135311250Y-104267000D01*
X134112000Y-104267000D01*
X133858000Y-104267000D01*
X133838000Y-104267000D01*
X133838000Y-104013000D01*
X133858000Y-104013000D01*
X133858000Y-102813750D01*
X134112000Y-102813750D01*
X134112000Y-104013000D01*
X135311250Y-104013000D01*
X135470000Y-103854250D01*
X135473072Y-103290000D01*
X135460812Y-103165518D01*
X135424502Y-103045820D01*
X135365537Y-102935506D01*
X135286185Y-102838815D01*
X135189494Y-102759463D01*
X135079180Y-102700498D01*
X134959482Y-102664188D01*
X134835000Y-102651928D01*
X134270750Y-102655000D01*
X134112000Y-102813750D01*
X133858000Y-102813750D01*
X133699250Y-102655000D01*
X133135000Y-102651928D01*
X133010518Y-102664188D01*
X132890820Y-102700498D01*
X132780506Y-102759463D01*
X132683815Y-102838815D01*
X132604463Y-102935506D01*
X132545498Y-103045820D01*
X132523487Y-103118380D01*
X132391632Y-102986525D01*
X132148411Y-102824010D01*
X131878158Y-102712068D01*
X131591260Y-102655000D01*
X131298740Y-102655000D01*
X131011842Y-102712068D01*
X130741589Y-102824010D01*
X130498368Y-102986525D01*
X130291525Y-103193368D01*
X130129010Y-103436589D01*
X130017068Y-103706842D01*
X129960000Y-103993740D01*
X122790547Y-103993740D01*
X122696335Y-103975000D01*
X122413665Y-103975000D01*
X122136426Y-104030147D01*
X121875273Y-104138320D01*
X121640241Y-104295363D01*
X121440363Y-104495241D01*
X121285000Y-104727759D01*
X121129637Y-104495241D01*
X120929759Y-104295363D01*
X120694727Y-104138320D01*
X120433574Y-104030147D01*
X120156335Y-103975000D01*
X119873665Y-103975000D01*
X119596426Y-104030147D01*
X119335273Y-104138320D01*
X119100241Y-104295363D01*
X118900363Y-104495241D01*
X118745000Y-104727759D01*
X118589637Y-104495241D01*
X118389759Y-104295363D01*
X118154727Y-104138320D01*
X117893574Y-104030147D01*
X117616335Y-103975000D01*
X117333665Y-103975000D01*
X117056426Y-104030147D01*
X116795273Y-104138320D01*
X116560241Y-104295363D01*
X116360363Y-104495241D01*
X116205000Y-104727759D01*
X116049637Y-104495241D01*
X115849759Y-104295363D01*
X115614727Y-104138320D01*
X115353574Y-104030147D01*
X115076335Y-103975000D01*
X114793665Y-103975000D01*
X114516426Y-104030147D01*
X114255273Y-104138320D01*
X114020241Y-104295363D01*
X113820363Y-104495241D01*
X113663320Y-104730273D01*
X113555147Y-104991426D01*
X113500000Y-105268665D01*
X108856518Y-105268665D01*
X108796816Y-105253700D01*
X108514488Y-105239783D01*
X108234870Y-105281213D01*
X107968708Y-105376397D01*
X107843486Y-105443329D01*
X107771903Y-105687298D01*
X100304661Y-105687298D01*
X100602147Y-105597057D01*
X100948725Y-105411807D01*
X101252503Y-105162503D01*
X101501807Y-104858725D01*
X101687057Y-104512147D01*
X101801133Y-104136088D01*
X101839652Y-103745000D01*
X101801133Y-103353912D01*
X101687057Y-102977853D01*
X101501807Y-102631275D01*
X101252503Y-102327497D01*
X100948725Y-102078193D01*
X100602147Y-101892943D01*
X100226088Y-101778867D01*
X99932998Y-101750000D01*
X99217002Y-101750000D01*
X98923912Y-101778867D01*
X98547853Y-101892943D01*
X98201275Y-102078193D01*
X97897497Y-102327497D01*
X97648193Y-102631275D01*
X97462943Y-102977853D01*
X97348867Y-103353912D01*
X97310348Y-103745000D01*
X88925000Y-103745000D01*
X88925000Y-100997279D01*
X88939722Y-100847131D01*
X88973953Y-100733754D01*
X89029555Y-100629181D01*
X89104407Y-100537404D01*
X89195664Y-100461909D01*
X89299844Y-100405581D01*
X89412976Y-100370560D01*
X89561022Y-100355000D01*
X137127721Y-100355000D01*
X137277869Y-100369722D01*
%TD*%
M02*
