%TF.GenerationSoftware,KiCad,Pcbnew,5.1.6-c6e7f7d~87~ubuntu18.04.1*%
%TF.CreationDate,2020-12-24T16:50:43+01:00*%
%TF.ProjectId,atari_punk,61746172-695f-4707-956e-6b2e6b696361,rev?*%
%TF.SameCoordinates,Original*%
%TF.FileFunction,Soldermask,Top*%
%TF.FilePolarity,Negative*%
%FSLAX46Y46*%
G04 Gerber Fmt 4.6, Leading zero omitted, Abs format (unit mm)*
G04 Created by KiCad (PCBNEW 5.1.6-c6e7f7d~87~ubuntu18.04.1) date 2020-12-24 16:50:43*
%MOMM*%
%LPD*%
G01*
G04 APERTURE LIST*
%ADD10C,1.700000*%
%ADD11R,1.700000X1.700000*%
%ADD12R,1.800000X1.800000*%
%ADD13O,1.800000X1.800000*%
%ADD14R,1.900000X1.900000*%
%ADD15C,1.900000*%
%ADD16O,3.340000X2.820000*%
%ADD17O,1.700000X1.700000*%
G04 APERTURE END LIST*
D10*
%TO.C,C1*%
X108585000Y-106680000D03*
X108585000Y-111680000D03*
%TD*%
D11*
%TO.C,C2*%
X132715000Y-111125000D03*
D10*
X132715000Y-113625000D03*
%TD*%
%TO.C,C3*%
X108585000Y-128985000D03*
X108585000Y-133985000D03*
%TD*%
D12*
%TO.C,J1*%
X133985000Y-104140000D03*
D13*
X131445000Y-104140000D03*
%TD*%
%TO.C,J2*%
X131445000Y-136525000D03*
D12*
X133985000Y-136525000D03*
%TD*%
D14*
%TO.C,R1*%
X92075000Y-106045000D03*
D15*
X92075000Y-108545000D03*
X92075000Y-111045000D03*
D16*
X99575000Y-113345000D03*
X99575000Y-103745000D03*
%TD*%
D10*
%TO.C,R2*%
X103505000Y-120015000D03*
D17*
X93345000Y-120015000D03*
%TD*%
%TO.C,R3*%
X132715000Y-120015000D03*
D10*
X132715000Y-130175000D03*
%TD*%
D16*
%TO.C,R4*%
X99575000Y-126605000D03*
X99575000Y-136205000D03*
D15*
X92075000Y-133905000D03*
X92075000Y-131405000D03*
D14*
X92075000Y-128905000D03*
%TD*%
D11*
%TO.C,U1*%
X114935000Y-113030000D03*
D17*
X122555000Y-105410000D03*
X117475000Y-113030000D03*
X120015000Y-105410000D03*
X120015000Y-113030000D03*
X117475000Y-105410000D03*
X122555000Y-113030000D03*
X114935000Y-105410000D03*
%TD*%
%TO.C,U2*%
X114935000Y-127635000D03*
X122555000Y-135255000D03*
X117475000Y-127635000D03*
X120015000Y-135255000D03*
X120015000Y-127635000D03*
X117475000Y-135255000D03*
X122555000Y-127635000D03*
D11*
X114935000Y-135255000D03*
%TD*%
M02*
