M48
; DRILL file {KiCad 5.1.10-88a1d61d58~88~ubuntu20.04.1} date Wed Jul 14 14:10:27 2021
; FORMAT={-:-/ absolute / metric / decimal}
; #@! TF.CreationDate,2021-07-14T14:10:27+02:00
; #@! TF.GenerationSoftware,Kicad,Pcbnew,5.1.10-88a1d61d58~88~ubuntu20.04.1
; #@! TF.FileFunction,Plated,1,2,PTH
FMAT,2
METRIC
T1C0.800
T2C0.900
T3C1.000
T4C1.100
T5C1.500
%
G90
G05
T1
X90.932Y-103.886
X90.932Y-114.046
X90.932Y-125.984
X90.932Y-136.144
X96.139Y-120.015
X106.299Y-120.015
X111.379Y-106.68
X111.379Y-111.68
X111.379Y-128.985
X111.379Y-133.985
X117.729Y-105.41
X117.729Y-113.03
X117.729Y-127.635
X117.729Y-135.255
X120.269Y-105.41
X120.269Y-113.03
X120.269Y-127.635
X120.269Y-135.255
X122.809Y-105.41
X122.809Y-113.03
X122.809Y-127.635
X122.809Y-135.255
X125.349Y-105.41
X125.349Y-113.03
X125.349Y-127.635
X125.349Y-135.255
X132.715Y-111.125
X132.715Y-113.625
X132.715Y-120.015
X132.715Y-130.175
T2
X119.825Y-100.076
X121.825Y-100.076
X123.825Y-100.076
T3
X94.869Y-106.045
X94.869Y-108.545
X94.869Y-111.045
X94.869Y-128.905
X94.869Y-131.405
X94.869Y-133.905
X131.318Y-104.14
X131.318Y-136.652
X133.858Y-104.14
X133.858Y-136.652
T5
X117.725Y-100.076
X125.925Y-100.076
T4
X101.769Y-103.745G85X102.969Y-103.745
G05
X101.769Y-113.345G85X102.969Y-113.345
G05
X101.769Y-126.605G85X102.969Y-126.605
G05
X101.769Y-136.205G85X102.969Y-136.205
G05
T0
M30
