%TF.GenerationSoftware,KiCad,Pcbnew,5.1.10-88a1d61d58~88~ubuntu20.04.1*%
%TF.CreationDate,2021-07-14T14:10:21+02:00*%
%TF.ProjectId,atari_punk,61746172-695f-4707-956e-6b2e6b696361,rev?*%
%TF.SameCoordinates,Original*%
%TF.FileFunction,Copper,L2,Bot*%
%TF.FilePolarity,Positive*%
%FSLAX46Y46*%
G04 Gerber Fmt 4.6, Leading zero omitted, Abs format (unit mm)*
G04 Created by KiCad (PCBNEW 5.1.10-88a1d61d58~88~ubuntu20.04.1) date 2021-07-14 14:10:21*
%MOMM*%
%LPD*%
G01*
G04 APERTURE LIST*
%TA.AperFunction,ComponentPad*%
%ADD10O,3.740000X2.720000*%
%TD*%
%TA.AperFunction,ComponentPad*%
%ADD11C,1.800000*%
%TD*%
%TA.AperFunction,ComponentPad*%
%ADD12R,1.800000X1.800000*%
%TD*%
%TA.AperFunction,ComponentPad*%
%ADD13O,2.200000X3.500000*%
%TD*%
%TA.AperFunction,ComponentPad*%
%ADD14O,1.500000X2.500000*%
%TD*%
%TA.AperFunction,ComponentPad*%
%ADD15R,1.500000X2.500000*%
%TD*%
%TA.AperFunction,ComponentPad*%
%ADD16O,1.700000X1.700000*%
%TD*%
%TA.AperFunction,ComponentPad*%
%ADD17R,1.700000X1.700000*%
%TD*%
%TA.AperFunction,ComponentPad*%
%ADD18O,1.600000X1.600000*%
%TD*%
%TA.AperFunction,ComponentPad*%
%ADD19C,1.600000*%
%TD*%
%TA.AperFunction,ComponentPad*%
%ADD20R,1.600000X1.600000*%
%TD*%
%TA.AperFunction,Conductor*%
%ADD21C,0.254000*%
%TD*%
%TA.AperFunction,Conductor*%
%ADD22C,0.100000*%
%TD*%
G04 APERTURE END LIST*
D10*
%TO.P,R4,*%
%TO.N,*%
X102369000Y-126605000D03*
X102369000Y-136205000D03*
D11*
%TO.P,R4,3*%
%TO.N,N/C*%
X94869000Y-133905000D03*
%TO.P,R4,2*%
%TO.N,Net-(R4-Pad2)*%
X94869000Y-131405000D03*
D12*
%TO.P,R4,1*%
%TO.N,+9V*%
X94869000Y-128905000D03*
%TD*%
D10*
%TO.P,R1,*%
%TO.N,*%
X102369000Y-103745000D03*
X102369000Y-113345000D03*
D11*
%TO.P,R1,3*%
%TO.N,N/C*%
X94869000Y-111045000D03*
%TO.P,R1,2*%
%TO.N,Net-(R1-Pad2)*%
X94869000Y-108545000D03*
D12*
%TO.P,R1,1*%
%TO.N,+9V*%
X94869000Y-106045000D03*
%TD*%
D13*
%TO.P,SW1,*%
%TO.N,*%
X117725000Y-100076000D03*
X125925000Y-100076000D03*
D14*
%TO.P,SW1,3*%
%TO.N,+9V*%
X119825000Y-100076000D03*
%TO.P,SW1,2*%
%TO.N,Net-(J1-Pad2)*%
X121825000Y-100076000D03*
D15*
%TO.P,SW1,1*%
%TO.N,Net-(SW1-Pad1)*%
X123825000Y-100076000D03*
%TD*%
D16*
%TO.P,J2,2*%
%TO.N,AUDIO*%
X131318000Y-136652000D03*
D17*
%TO.P,J2,1*%
%TO.N,GND*%
X133858000Y-136652000D03*
%TD*%
D16*
%TO.P,J1,2*%
%TO.N,Net-(J1-Pad2)*%
X131318000Y-104140000D03*
D17*
%TO.P,J1,1*%
%TO.N,GND*%
X133858000Y-104140000D03*
%TD*%
D18*
%TO.P,R6,2*%
%TO.N,Net-(R4-Pad2)*%
X90932000Y-125984000D03*
D19*
%TO.P,R6,1*%
%TO.N,Net-(C3-Pad1)*%
X90932000Y-136144000D03*
%TD*%
D18*
%TO.P,R5,2*%
%TO.N,Net-(R1-Pad2)*%
X90932000Y-103886000D03*
D19*
%TO.P,R5,1*%
%TO.N,Net-(R2-Pad2)*%
X90932000Y-114046000D03*
%TD*%
%TO.P,C1,1*%
%TO.N,GND*%
X111379000Y-106680000D03*
%TO.P,C1,2*%
%TO.N,Net-(C1-Pad2)*%
X111379000Y-111680000D03*
%TD*%
D20*
%TO.P,C2,1*%
%TO.N,Net-(C2-Pad1)*%
X132715000Y-111125000D03*
D19*
%TO.P,C2,2*%
%TO.N,Net-(C2-Pad2)*%
X132715000Y-113625000D03*
%TD*%
%TO.P,C3,2*%
%TO.N,GND*%
X111379000Y-128985000D03*
%TO.P,C3,1*%
%TO.N,Net-(C3-Pad1)*%
X111379000Y-133985000D03*
%TD*%
%TO.P,R2,1*%
%TO.N,Net-(C1-Pad2)*%
X106299000Y-120015000D03*
D18*
%TO.P,R2,2*%
%TO.N,Net-(R2-Pad2)*%
X96139000Y-120015000D03*
%TD*%
%TO.P,R3,2*%
%TO.N,Net-(C2-Pad2)*%
X132715000Y-120015000D03*
D19*
%TO.P,R3,1*%
%TO.N,AUDIO*%
X132715000Y-130175000D03*
%TD*%
D20*
%TO.P,U1,1*%
%TO.N,GND*%
X117729000Y-113030000D03*
D18*
%TO.P,U1,5*%
%TO.N,Net-(U1-Pad5)*%
X125349000Y-105410000D03*
%TO.P,U1,2*%
%TO.N,Net-(C1-Pad2)*%
X120269000Y-113030000D03*
%TO.P,U1,6*%
X122809000Y-105410000D03*
%TO.P,U1,3*%
%TO.N,Net-(U1-Pad3)*%
X122809000Y-113030000D03*
%TO.P,U1,7*%
%TO.N,Net-(R2-Pad2)*%
X120269000Y-105410000D03*
%TO.P,U1,4*%
%TO.N,+9V*%
X125349000Y-113030000D03*
%TO.P,U1,8*%
X117729000Y-105410000D03*
%TD*%
%TO.P,U2,8*%
%TO.N,+9V*%
X117729000Y-127635000D03*
%TO.P,U2,4*%
X125349000Y-135255000D03*
%TO.P,U2,7*%
%TO.N,Net-(C3-Pad1)*%
X120269000Y-127635000D03*
%TO.P,U2,3*%
%TO.N,Net-(C2-Pad1)*%
X122809000Y-135255000D03*
%TO.P,U2,6*%
%TO.N,Net-(C3-Pad1)*%
X122809000Y-127635000D03*
%TO.P,U2,2*%
%TO.N,Net-(U1-Pad3)*%
X120269000Y-135255000D03*
%TO.P,U2,5*%
%TO.N,Net-(U2-Pad5)*%
X125349000Y-127635000D03*
D20*
%TO.P,U2,1*%
%TO.N,GND*%
X117729000Y-135255000D03*
%TD*%
D21*
%TO.N,GND*%
X116275422Y-98457422D02*
X116114315Y-98758832D01*
X116015105Y-99085881D01*
X115990000Y-99340775D01*
X115990000Y-100811224D01*
X116015105Y-101066118D01*
X116114314Y-101393167D01*
X116275421Y-101694577D01*
X116492234Y-101958766D01*
X116756422Y-102175579D01*
X117057832Y-102336686D01*
X117384881Y-102435895D01*
X117725000Y-102469394D01*
X118065118Y-102435895D01*
X118392167Y-102336686D01*
X118693577Y-102175579D01*
X118957766Y-101958766D01*
X119115139Y-101767006D01*
X119292419Y-101861764D01*
X119553493Y-101940960D01*
X119825000Y-101967701D01*
X120096506Y-101940960D01*
X120357580Y-101861764D01*
X120598187Y-101733157D01*
X120809080Y-101560081D01*
X120825000Y-101540683D01*
X120840919Y-101560080D01*
X121051812Y-101733157D01*
X121292419Y-101861764D01*
X121553493Y-101940960D01*
X121825000Y-101967701D01*
X122096506Y-101940960D01*
X122357580Y-101861764D01*
X122590885Y-101737060D01*
X122623815Y-101777185D01*
X122720506Y-101856537D01*
X122830820Y-101915502D01*
X122950518Y-101951812D01*
X123075000Y-101964072D01*
X124575000Y-101964072D01*
X124687496Y-101952992D01*
X124692234Y-101958766D01*
X124956422Y-102175579D01*
X125257832Y-102336686D01*
X125584881Y-102435895D01*
X125925000Y-102469394D01*
X126265118Y-102435895D01*
X126592167Y-102336686D01*
X126893577Y-102175579D01*
X127157766Y-101958766D01*
X127374579Y-101694578D01*
X127535686Y-101393168D01*
X127634895Y-101066119D01*
X127660000Y-100811225D01*
X127660000Y-99340775D01*
X127634895Y-99085881D01*
X127535686Y-98758832D01*
X127374579Y-98457422D01*
X127368488Y-98450000D01*
X136664157Y-98450000D01*
X136593945Y-98463966D01*
X136240776Y-98610254D01*
X135922933Y-98822630D01*
X135652630Y-99092933D01*
X135440254Y-99410776D01*
X135293966Y-99763945D01*
X135219390Y-100138867D01*
X135219390Y-100521133D01*
X135293966Y-100896055D01*
X135440254Y-101249224D01*
X135652630Y-101567067D01*
X135922933Y-101837370D01*
X136240776Y-102049746D01*
X136593945Y-102196034D01*
X136968867Y-102270610D01*
X137351133Y-102270610D01*
X137726055Y-102196034D01*
X138079224Y-102049746D01*
X138397067Y-101837370D01*
X138667370Y-101567067D01*
X138879746Y-101249224D01*
X139026034Y-100896055D01*
X139040000Y-100825843D01*
X139040001Y-139839162D01*
X139026034Y-139768945D01*
X138879746Y-139415776D01*
X138667370Y-139097933D01*
X138397067Y-138827630D01*
X138079224Y-138615254D01*
X137726055Y-138468966D01*
X137351133Y-138394390D01*
X136968867Y-138394390D01*
X136593945Y-138468966D01*
X136240776Y-138615254D01*
X135922933Y-138827630D01*
X135652630Y-139097933D01*
X135440254Y-139415776D01*
X135293966Y-139768945D01*
X135219390Y-140143867D01*
X135219390Y-140526133D01*
X135293966Y-140901055D01*
X135440254Y-141254224D01*
X135652630Y-141572067D01*
X135922933Y-141842370D01*
X136240776Y-142054746D01*
X136593945Y-142201034D01*
X136664157Y-142215000D01*
X90030843Y-142215000D01*
X90101055Y-142201034D01*
X90454224Y-142054746D01*
X90772067Y-141842370D01*
X91042370Y-141572067D01*
X91254746Y-141254224D01*
X91401034Y-140901055D01*
X91475610Y-140526133D01*
X91475610Y-140143867D01*
X91401034Y-139768945D01*
X91254746Y-139415776D01*
X91042370Y-139097933D01*
X90772067Y-138827630D01*
X90454224Y-138615254D01*
X90101055Y-138468966D01*
X89726133Y-138394390D01*
X89343867Y-138394390D01*
X88968945Y-138468966D01*
X88615776Y-138615254D01*
X88297933Y-138827630D01*
X88027630Y-139097933D01*
X87815254Y-139415776D01*
X87668966Y-139768945D01*
X87655000Y-139839157D01*
X87655000Y-136002665D01*
X89497000Y-136002665D01*
X89497000Y-136285335D01*
X89552147Y-136562574D01*
X89660320Y-136823727D01*
X89817363Y-137058759D01*
X90017241Y-137258637D01*
X90252273Y-137415680D01*
X90513426Y-137523853D01*
X90790665Y-137579000D01*
X91073335Y-137579000D01*
X91350574Y-137523853D01*
X91611727Y-137415680D01*
X91846759Y-137258637D01*
X92046637Y-137058759D01*
X92203680Y-136823727D01*
X92311853Y-136562574D01*
X92367000Y-136285335D01*
X92367000Y-136205000D01*
X99854348Y-136205000D01*
X99892867Y-136596088D01*
X100006943Y-136972147D01*
X100192193Y-137318725D01*
X100441497Y-137622503D01*
X100745275Y-137871807D01*
X101091853Y-138057057D01*
X101467912Y-138171133D01*
X101761002Y-138200000D01*
X102976998Y-138200000D01*
X103270088Y-138171133D01*
X103646147Y-138057057D01*
X103992725Y-137871807D01*
X104296503Y-137622503D01*
X104545807Y-137318725D01*
X104731057Y-136972147D01*
X104845133Y-136596088D01*
X104883652Y-136205000D01*
X104868879Y-136055000D01*
X116290928Y-136055000D01*
X116303188Y-136179482D01*
X116339498Y-136299180D01*
X116398463Y-136409494D01*
X116477815Y-136506185D01*
X116574506Y-136585537D01*
X116684820Y-136644502D01*
X116804518Y-136680812D01*
X116929000Y-136693072D01*
X117443250Y-136690000D01*
X117602000Y-136531250D01*
X117602000Y-135382000D01*
X116452750Y-135382000D01*
X116294000Y-135540750D01*
X116290928Y-136055000D01*
X104868879Y-136055000D01*
X104845133Y-135813912D01*
X104731057Y-135437853D01*
X104545807Y-135091275D01*
X104296503Y-134787497D01*
X103992725Y-134538193D01*
X103646147Y-134352943D01*
X103270088Y-134238867D01*
X102976998Y-134210000D01*
X101761002Y-134210000D01*
X101467912Y-134238867D01*
X101091853Y-134352943D01*
X100745275Y-134538193D01*
X100441497Y-134787497D01*
X100192193Y-135091275D01*
X100006943Y-135437853D01*
X99892867Y-135813912D01*
X99854348Y-136205000D01*
X92367000Y-136205000D01*
X92367000Y-136002665D01*
X92311853Y-135725426D01*
X92203680Y-135464273D01*
X92046637Y-135229241D01*
X91846759Y-135029363D01*
X91611727Y-134872320D01*
X91350574Y-134764147D01*
X91073335Y-134709000D01*
X90790665Y-134709000D01*
X90513426Y-134764147D01*
X90252273Y-134872320D01*
X90017241Y-135029363D01*
X89817363Y-135229241D01*
X89660320Y-135464273D01*
X89552147Y-135725426D01*
X89497000Y-136002665D01*
X87655000Y-136002665D01*
X87655000Y-128005000D01*
X93330928Y-128005000D01*
X93330928Y-129805000D01*
X93343188Y-129929482D01*
X93379498Y-130049180D01*
X93438463Y-130159494D01*
X93517815Y-130256185D01*
X93614506Y-130335537D01*
X93714303Y-130388880D01*
X93676688Y-130426495D01*
X93508701Y-130677905D01*
X93392989Y-130957257D01*
X93334000Y-131253816D01*
X93334000Y-131556184D01*
X93392989Y-131852743D01*
X93508701Y-132132095D01*
X93676688Y-132383505D01*
X93890495Y-132597312D01*
X93976831Y-132655000D01*
X93890495Y-132712688D01*
X93676688Y-132926495D01*
X93508701Y-133177905D01*
X93392989Y-133457257D01*
X93334000Y-133753816D01*
X93334000Y-134056184D01*
X93392989Y-134352743D01*
X93508701Y-134632095D01*
X93676688Y-134883505D01*
X93890495Y-135097312D01*
X94141905Y-135265299D01*
X94421257Y-135381011D01*
X94717816Y-135440000D01*
X95020184Y-135440000D01*
X95316743Y-135381011D01*
X95596095Y-135265299D01*
X95847505Y-135097312D01*
X96061312Y-134883505D01*
X96229299Y-134632095D01*
X96345011Y-134352743D01*
X96404000Y-134056184D01*
X96404000Y-133843665D01*
X109944000Y-133843665D01*
X109944000Y-134126335D01*
X109999147Y-134403574D01*
X110107320Y-134664727D01*
X110264363Y-134899759D01*
X110464241Y-135099637D01*
X110699273Y-135256680D01*
X110960426Y-135364853D01*
X111237665Y-135420000D01*
X111520335Y-135420000D01*
X111797574Y-135364853D01*
X112058727Y-135256680D01*
X112293759Y-135099637D01*
X112493637Y-134899759D01*
X112650680Y-134664727D01*
X112737551Y-134455000D01*
X116290928Y-134455000D01*
X116294000Y-134969250D01*
X116452750Y-135128000D01*
X117602000Y-135128000D01*
X117602000Y-133978750D01*
X117856000Y-133978750D01*
X117856000Y-135128000D01*
X117876000Y-135128000D01*
X117876000Y-135382000D01*
X117856000Y-135382000D01*
X117856000Y-136531250D01*
X118014750Y-136690000D01*
X118529000Y-136693072D01*
X118653482Y-136680812D01*
X118773180Y-136644502D01*
X118883494Y-136585537D01*
X118980185Y-136506185D01*
X119059537Y-136409494D01*
X119118502Y-136299180D01*
X119154812Y-136179482D01*
X119155643Y-136171039D01*
X119354241Y-136369637D01*
X119589273Y-136526680D01*
X119850426Y-136634853D01*
X120127665Y-136690000D01*
X120410335Y-136690000D01*
X120687574Y-136634853D01*
X120948727Y-136526680D01*
X121183759Y-136369637D01*
X121383637Y-136169759D01*
X121539000Y-135937241D01*
X121694363Y-136169759D01*
X121894241Y-136369637D01*
X122129273Y-136526680D01*
X122390426Y-136634853D01*
X122667665Y-136690000D01*
X122950335Y-136690000D01*
X123227574Y-136634853D01*
X123488727Y-136526680D01*
X123723759Y-136369637D01*
X123923637Y-136169759D01*
X124079000Y-135937241D01*
X124234363Y-136169759D01*
X124434241Y-136369637D01*
X124669273Y-136526680D01*
X124930426Y-136634853D01*
X125207665Y-136690000D01*
X125490335Y-136690000D01*
X125767574Y-136634853D01*
X126028727Y-136526680D01*
X126060065Y-136505740D01*
X129833000Y-136505740D01*
X129833000Y-136798260D01*
X129890068Y-137085158D01*
X130002010Y-137355411D01*
X130164525Y-137598632D01*
X130371368Y-137805475D01*
X130614589Y-137967990D01*
X130884842Y-138079932D01*
X131171740Y-138137000D01*
X131464260Y-138137000D01*
X131751158Y-138079932D01*
X132021411Y-137967990D01*
X132264632Y-137805475D01*
X132396487Y-137673620D01*
X132418498Y-137746180D01*
X132477463Y-137856494D01*
X132556815Y-137953185D01*
X132653506Y-138032537D01*
X132763820Y-138091502D01*
X132883518Y-138127812D01*
X133008000Y-138140072D01*
X133572250Y-138137000D01*
X133731000Y-137978250D01*
X133731000Y-136779000D01*
X133985000Y-136779000D01*
X133985000Y-137978250D01*
X134143750Y-138137000D01*
X134708000Y-138140072D01*
X134832482Y-138127812D01*
X134952180Y-138091502D01*
X135062494Y-138032537D01*
X135159185Y-137953185D01*
X135238537Y-137856494D01*
X135297502Y-137746180D01*
X135333812Y-137626482D01*
X135346072Y-137502000D01*
X135343000Y-136937750D01*
X135184250Y-136779000D01*
X133985000Y-136779000D01*
X133731000Y-136779000D01*
X133711000Y-136779000D01*
X133711000Y-136525000D01*
X133731000Y-136525000D01*
X133731000Y-135325750D01*
X133985000Y-135325750D01*
X133985000Y-136525000D01*
X135184250Y-136525000D01*
X135343000Y-136366250D01*
X135346072Y-135802000D01*
X135333812Y-135677518D01*
X135297502Y-135557820D01*
X135238537Y-135447506D01*
X135159185Y-135350815D01*
X135062494Y-135271463D01*
X134952180Y-135212498D01*
X134832482Y-135176188D01*
X134708000Y-135163928D01*
X134143750Y-135167000D01*
X133985000Y-135325750D01*
X133731000Y-135325750D01*
X133572250Y-135167000D01*
X133008000Y-135163928D01*
X132883518Y-135176188D01*
X132763820Y-135212498D01*
X132653506Y-135271463D01*
X132556815Y-135350815D01*
X132477463Y-135447506D01*
X132418498Y-135557820D01*
X132396487Y-135630380D01*
X132264632Y-135498525D01*
X132021411Y-135336010D01*
X131751158Y-135224068D01*
X131464260Y-135167000D01*
X131171740Y-135167000D01*
X130884842Y-135224068D01*
X130614589Y-135336010D01*
X130371368Y-135498525D01*
X130164525Y-135705368D01*
X130002010Y-135948589D01*
X129890068Y-136218842D01*
X129833000Y-136505740D01*
X126060065Y-136505740D01*
X126263759Y-136369637D01*
X126463637Y-136169759D01*
X126620680Y-135934727D01*
X126728853Y-135673574D01*
X126784000Y-135396335D01*
X126784000Y-135113665D01*
X126728853Y-134836426D01*
X126620680Y-134575273D01*
X126463637Y-134340241D01*
X126263759Y-134140363D01*
X126028727Y-133983320D01*
X125767574Y-133875147D01*
X125490335Y-133820000D01*
X125207665Y-133820000D01*
X124930426Y-133875147D01*
X124669273Y-133983320D01*
X124434241Y-134140363D01*
X124234363Y-134340241D01*
X124079000Y-134572759D01*
X123923637Y-134340241D01*
X123723759Y-134140363D01*
X123488727Y-133983320D01*
X123227574Y-133875147D01*
X122950335Y-133820000D01*
X122667665Y-133820000D01*
X122390426Y-133875147D01*
X122129273Y-133983320D01*
X121894241Y-134140363D01*
X121694363Y-134340241D01*
X121539000Y-134572759D01*
X121383637Y-134340241D01*
X121183759Y-134140363D01*
X120948727Y-133983320D01*
X120687574Y-133875147D01*
X120410335Y-133820000D01*
X120127665Y-133820000D01*
X119850426Y-133875147D01*
X119589273Y-133983320D01*
X119354241Y-134140363D01*
X119155643Y-134338961D01*
X119154812Y-134330518D01*
X119118502Y-134210820D01*
X119059537Y-134100506D01*
X118980185Y-134003815D01*
X118883494Y-133924463D01*
X118773180Y-133865498D01*
X118653482Y-133829188D01*
X118529000Y-133816928D01*
X118014750Y-133820000D01*
X117856000Y-133978750D01*
X117602000Y-133978750D01*
X117443250Y-133820000D01*
X116929000Y-133816928D01*
X116804518Y-133829188D01*
X116684820Y-133865498D01*
X116574506Y-133924463D01*
X116477815Y-134003815D01*
X116398463Y-134100506D01*
X116339498Y-134210820D01*
X116303188Y-134330518D01*
X116290928Y-134455000D01*
X112737551Y-134455000D01*
X112758853Y-134403574D01*
X112814000Y-134126335D01*
X112814000Y-133843665D01*
X112758853Y-133566426D01*
X112650680Y-133305273D01*
X112493637Y-133070241D01*
X112293759Y-132870363D01*
X112058727Y-132713320D01*
X111797574Y-132605147D01*
X111520335Y-132550000D01*
X111237665Y-132550000D01*
X110960426Y-132605147D01*
X110699273Y-132713320D01*
X110464241Y-132870363D01*
X110264363Y-133070241D01*
X110107320Y-133305273D01*
X109999147Y-133566426D01*
X109944000Y-133843665D01*
X96404000Y-133843665D01*
X96404000Y-133753816D01*
X96345011Y-133457257D01*
X96229299Y-133177905D01*
X96061312Y-132926495D01*
X95847505Y-132712688D01*
X95761169Y-132655000D01*
X95847505Y-132597312D01*
X96061312Y-132383505D01*
X96229299Y-132132095D01*
X96345011Y-131852743D01*
X96404000Y-131556184D01*
X96404000Y-131253816D01*
X96345011Y-130957257D01*
X96229299Y-130677905D01*
X96061312Y-130426495D01*
X96023697Y-130388880D01*
X96123494Y-130335537D01*
X96220185Y-130256185D01*
X96299537Y-130159494D01*
X96358502Y-130049180D01*
X96380184Y-129977702D01*
X110565903Y-129977702D01*
X110637486Y-130221671D01*
X110892996Y-130342571D01*
X111167184Y-130411300D01*
X111449512Y-130425217D01*
X111729130Y-130383787D01*
X111995292Y-130288603D01*
X112120514Y-130221671D01*
X112175676Y-130033665D01*
X131280000Y-130033665D01*
X131280000Y-130316335D01*
X131335147Y-130593574D01*
X131443320Y-130854727D01*
X131600363Y-131089759D01*
X131800241Y-131289637D01*
X132035273Y-131446680D01*
X132296426Y-131554853D01*
X132573665Y-131610000D01*
X132856335Y-131610000D01*
X133133574Y-131554853D01*
X133394727Y-131446680D01*
X133629759Y-131289637D01*
X133829637Y-131089759D01*
X133986680Y-130854727D01*
X134094853Y-130593574D01*
X134150000Y-130316335D01*
X134150000Y-130033665D01*
X134094853Y-129756426D01*
X133986680Y-129495273D01*
X133829637Y-129260241D01*
X133629759Y-129060363D01*
X133394727Y-128903320D01*
X133133574Y-128795147D01*
X132856335Y-128740000D01*
X132573665Y-128740000D01*
X132296426Y-128795147D01*
X132035273Y-128903320D01*
X131800241Y-129060363D01*
X131600363Y-129260241D01*
X131443320Y-129495273D01*
X131335147Y-129756426D01*
X131280000Y-130033665D01*
X112175676Y-130033665D01*
X112192097Y-129977702D01*
X111379000Y-129164605D01*
X110565903Y-129977702D01*
X96380184Y-129977702D01*
X96394812Y-129929482D01*
X96407072Y-129805000D01*
X96407072Y-129055512D01*
X109938783Y-129055512D01*
X109980213Y-129335130D01*
X110075397Y-129601292D01*
X110142329Y-129726514D01*
X110386298Y-129798097D01*
X111199395Y-128985000D01*
X111558605Y-128985000D01*
X112371702Y-129798097D01*
X112615671Y-129726514D01*
X112736571Y-129471004D01*
X112805300Y-129196816D01*
X112819217Y-128914488D01*
X112777787Y-128634870D01*
X112682603Y-128368708D01*
X112615671Y-128243486D01*
X112371702Y-128171903D01*
X111558605Y-128985000D01*
X111199395Y-128985000D01*
X110386298Y-128171903D01*
X110142329Y-128243486D01*
X110021429Y-128498996D01*
X109952700Y-128773184D01*
X109938783Y-129055512D01*
X96407072Y-129055512D01*
X96407072Y-128005000D01*
X96394812Y-127880518D01*
X96358502Y-127760820D01*
X96299537Y-127650506D01*
X96220185Y-127553815D01*
X96123494Y-127474463D01*
X96013180Y-127415498D01*
X95893482Y-127379188D01*
X95769000Y-127366928D01*
X93969000Y-127366928D01*
X93844518Y-127379188D01*
X93724820Y-127415498D01*
X93614506Y-127474463D01*
X93517815Y-127553815D01*
X93438463Y-127650506D01*
X93379498Y-127760820D01*
X93343188Y-127880518D01*
X93330928Y-128005000D01*
X87655000Y-128005000D01*
X87655000Y-125842665D01*
X89497000Y-125842665D01*
X89497000Y-126125335D01*
X89552147Y-126402574D01*
X89660320Y-126663727D01*
X89817363Y-126898759D01*
X90017241Y-127098637D01*
X90252273Y-127255680D01*
X90513426Y-127363853D01*
X90790665Y-127419000D01*
X91073335Y-127419000D01*
X91350574Y-127363853D01*
X91611727Y-127255680D01*
X91846759Y-127098637D01*
X92046637Y-126898759D01*
X92203680Y-126663727D01*
X92228005Y-126605000D01*
X99854348Y-126605000D01*
X99892867Y-126996088D01*
X100006943Y-127372147D01*
X100192193Y-127718725D01*
X100441497Y-128022503D01*
X100745275Y-128271807D01*
X101091853Y-128457057D01*
X101467912Y-128571133D01*
X101761002Y-128600000D01*
X102976998Y-128600000D01*
X103270088Y-128571133D01*
X103646147Y-128457057D01*
X103992725Y-128271807D01*
X104296503Y-128022503D01*
X104321291Y-127992298D01*
X110565903Y-127992298D01*
X111379000Y-128805395D01*
X112192097Y-127992298D01*
X112120514Y-127748329D01*
X111865004Y-127627429D01*
X111590816Y-127558700D01*
X111308488Y-127544783D01*
X111028870Y-127586213D01*
X110762708Y-127681397D01*
X110637486Y-127748329D01*
X110565903Y-127992298D01*
X104321291Y-127992298D01*
X104545807Y-127718725D01*
X104666104Y-127493665D01*
X116294000Y-127493665D01*
X116294000Y-127776335D01*
X116349147Y-128053574D01*
X116457320Y-128314727D01*
X116614363Y-128549759D01*
X116814241Y-128749637D01*
X117049273Y-128906680D01*
X117310426Y-129014853D01*
X117587665Y-129070000D01*
X117870335Y-129070000D01*
X118147574Y-129014853D01*
X118408727Y-128906680D01*
X118643759Y-128749637D01*
X118843637Y-128549759D01*
X118999000Y-128317241D01*
X119154363Y-128549759D01*
X119354241Y-128749637D01*
X119589273Y-128906680D01*
X119850426Y-129014853D01*
X120127665Y-129070000D01*
X120410335Y-129070000D01*
X120687574Y-129014853D01*
X120948727Y-128906680D01*
X121183759Y-128749637D01*
X121383637Y-128549759D01*
X121539000Y-128317241D01*
X121694363Y-128549759D01*
X121894241Y-128749637D01*
X122129273Y-128906680D01*
X122390426Y-129014853D01*
X122667665Y-129070000D01*
X122950335Y-129070000D01*
X123227574Y-129014853D01*
X123488727Y-128906680D01*
X123723759Y-128749637D01*
X123923637Y-128549759D01*
X124079000Y-128317241D01*
X124234363Y-128549759D01*
X124434241Y-128749637D01*
X124669273Y-128906680D01*
X124930426Y-129014853D01*
X125207665Y-129070000D01*
X125490335Y-129070000D01*
X125767574Y-129014853D01*
X126028727Y-128906680D01*
X126263759Y-128749637D01*
X126463637Y-128549759D01*
X126620680Y-128314727D01*
X126728853Y-128053574D01*
X126784000Y-127776335D01*
X126784000Y-127493665D01*
X126728853Y-127216426D01*
X126620680Y-126955273D01*
X126463637Y-126720241D01*
X126263759Y-126520363D01*
X126028727Y-126363320D01*
X125767574Y-126255147D01*
X125490335Y-126200000D01*
X125207665Y-126200000D01*
X124930426Y-126255147D01*
X124669273Y-126363320D01*
X124434241Y-126520363D01*
X124234363Y-126720241D01*
X124079000Y-126952759D01*
X123923637Y-126720241D01*
X123723759Y-126520363D01*
X123488727Y-126363320D01*
X123227574Y-126255147D01*
X122950335Y-126200000D01*
X122667665Y-126200000D01*
X122390426Y-126255147D01*
X122129273Y-126363320D01*
X121894241Y-126520363D01*
X121694363Y-126720241D01*
X121539000Y-126952759D01*
X121383637Y-126720241D01*
X121183759Y-126520363D01*
X120948727Y-126363320D01*
X120687574Y-126255147D01*
X120410335Y-126200000D01*
X120127665Y-126200000D01*
X119850426Y-126255147D01*
X119589273Y-126363320D01*
X119354241Y-126520363D01*
X119154363Y-126720241D01*
X118999000Y-126952759D01*
X118843637Y-126720241D01*
X118643759Y-126520363D01*
X118408727Y-126363320D01*
X118147574Y-126255147D01*
X117870335Y-126200000D01*
X117587665Y-126200000D01*
X117310426Y-126255147D01*
X117049273Y-126363320D01*
X116814241Y-126520363D01*
X116614363Y-126720241D01*
X116457320Y-126955273D01*
X116349147Y-127216426D01*
X116294000Y-127493665D01*
X104666104Y-127493665D01*
X104731057Y-127372147D01*
X104845133Y-126996088D01*
X104883652Y-126605000D01*
X104845133Y-126213912D01*
X104731057Y-125837853D01*
X104545807Y-125491275D01*
X104296503Y-125187497D01*
X103992725Y-124938193D01*
X103646147Y-124752943D01*
X103270088Y-124638867D01*
X102976998Y-124610000D01*
X101761002Y-124610000D01*
X101467912Y-124638867D01*
X101091853Y-124752943D01*
X100745275Y-124938193D01*
X100441497Y-125187497D01*
X100192193Y-125491275D01*
X100006943Y-125837853D01*
X99892867Y-126213912D01*
X99854348Y-126605000D01*
X92228005Y-126605000D01*
X92311853Y-126402574D01*
X92367000Y-126125335D01*
X92367000Y-125842665D01*
X92311853Y-125565426D01*
X92203680Y-125304273D01*
X92046637Y-125069241D01*
X91846759Y-124869363D01*
X91611727Y-124712320D01*
X91350574Y-124604147D01*
X91073335Y-124549000D01*
X90790665Y-124549000D01*
X90513426Y-124604147D01*
X90252273Y-124712320D01*
X90017241Y-124869363D01*
X89817363Y-125069241D01*
X89660320Y-125304273D01*
X89552147Y-125565426D01*
X89497000Y-125842665D01*
X87655000Y-125842665D01*
X87655000Y-119873665D01*
X94704000Y-119873665D01*
X94704000Y-120156335D01*
X94759147Y-120433574D01*
X94867320Y-120694727D01*
X95024363Y-120929759D01*
X95224241Y-121129637D01*
X95459273Y-121286680D01*
X95720426Y-121394853D01*
X95997665Y-121450000D01*
X96280335Y-121450000D01*
X96557574Y-121394853D01*
X96818727Y-121286680D01*
X97053759Y-121129637D01*
X97253637Y-120929759D01*
X97410680Y-120694727D01*
X97518853Y-120433574D01*
X97574000Y-120156335D01*
X97574000Y-119873665D01*
X104864000Y-119873665D01*
X104864000Y-120156335D01*
X104919147Y-120433574D01*
X105027320Y-120694727D01*
X105184363Y-120929759D01*
X105384241Y-121129637D01*
X105619273Y-121286680D01*
X105880426Y-121394853D01*
X106157665Y-121450000D01*
X106440335Y-121450000D01*
X106717574Y-121394853D01*
X106978727Y-121286680D01*
X107213759Y-121129637D01*
X107413637Y-120929759D01*
X107570680Y-120694727D01*
X107678853Y-120433574D01*
X107734000Y-120156335D01*
X107734000Y-119873665D01*
X131280000Y-119873665D01*
X131280000Y-120156335D01*
X131335147Y-120433574D01*
X131443320Y-120694727D01*
X131600363Y-120929759D01*
X131800241Y-121129637D01*
X132035273Y-121286680D01*
X132296426Y-121394853D01*
X132573665Y-121450000D01*
X132856335Y-121450000D01*
X133133574Y-121394853D01*
X133394727Y-121286680D01*
X133629759Y-121129637D01*
X133829637Y-120929759D01*
X133986680Y-120694727D01*
X134094853Y-120433574D01*
X134150000Y-120156335D01*
X134150000Y-119873665D01*
X134094853Y-119596426D01*
X133986680Y-119335273D01*
X133829637Y-119100241D01*
X133629759Y-118900363D01*
X133394727Y-118743320D01*
X133133574Y-118635147D01*
X132856335Y-118580000D01*
X132573665Y-118580000D01*
X132296426Y-118635147D01*
X132035273Y-118743320D01*
X131800241Y-118900363D01*
X131600363Y-119100241D01*
X131443320Y-119335273D01*
X131335147Y-119596426D01*
X131280000Y-119873665D01*
X107734000Y-119873665D01*
X107678853Y-119596426D01*
X107570680Y-119335273D01*
X107413637Y-119100241D01*
X107213759Y-118900363D01*
X106978727Y-118743320D01*
X106717574Y-118635147D01*
X106440335Y-118580000D01*
X106157665Y-118580000D01*
X105880426Y-118635147D01*
X105619273Y-118743320D01*
X105384241Y-118900363D01*
X105184363Y-119100241D01*
X105027320Y-119335273D01*
X104919147Y-119596426D01*
X104864000Y-119873665D01*
X97574000Y-119873665D01*
X97518853Y-119596426D01*
X97410680Y-119335273D01*
X97253637Y-119100241D01*
X97053759Y-118900363D01*
X96818727Y-118743320D01*
X96557574Y-118635147D01*
X96280335Y-118580000D01*
X95997665Y-118580000D01*
X95720426Y-118635147D01*
X95459273Y-118743320D01*
X95224241Y-118900363D01*
X95024363Y-119100241D01*
X94867320Y-119335273D01*
X94759147Y-119596426D01*
X94704000Y-119873665D01*
X87655000Y-119873665D01*
X87655000Y-113904665D01*
X89497000Y-113904665D01*
X89497000Y-114187335D01*
X89552147Y-114464574D01*
X89660320Y-114725727D01*
X89817363Y-114960759D01*
X90017241Y-115160637D01*
X90252273Y-115317680D01*
X90513426Y-115425853D01*
X90790665Y-115481000D01*
X91073335Y-115481000D01*
X91350574Y-115425853D01*
X91611727Y-115317680D01*
X91846759Y-115160637D01*
X92046637Y-114960759D01*
X92203680Y-114725727D01*
X92311853Y-114464574D01*
X92367000Y-114187335D01*
X92367000Y-113904665D01*
X92311853Y-113627426D01*
X92203680Y-113366273D01*
X92189466Y-113345000D01*
X99854348Y-113345000D01*
X99892867Y-113736088D01*
X100006943Y-114112147D01*
X100192193Y-114458725D01*
X100441497Y-114762503D01*
X100745275Y-115011807D01*
X101091853Y-115197057D01*
X101467912Y-115311133D01*
X101761002Y-115340000D01*
X102976998Y-115340000D01*
X103270088Y-115311133D01*
X103646147Y-115197057D01*
X103992725Y-115011807D01*
X104296503Y-114762503D01*
X104545807Y-114458725D01*
X104731057Y-114112147D01*
X104816645Y-113830000D01*
X116290928Y-113830000D01*
X116303188Y-113954482D01*
X116339498Y-114074180D01*
X116398463Y-114184494D01*
X116477815Y-114281185D01*
X116574506Y-114360537D01*
X116684820Y-114419502D01*
X116804518Y-114455812D01*
X116929000Y-114468072D01*
X117443250Y-114465000D01*
X117602000Y-114306250D01*
X117602000Y-113157000D01*
X116452750Y-113157000D01*
X116294000Y-113315750D01*
X116290928Y-113830000D01*
X104816645Y-113830000D01*
X104845133Y-113736088D01*
X104883652Y-113345000D01*
X104845133Y-112953912D01*
X104731057Y-112577853D01*
X104545807Y-112231275D01*
X104296503Y-111927497D01*
X103992725Y-111678193D01*
X103731687Y-111538665D01*
X109944000Y-111538665D01*
X109944000Y-111821335D01*
X109999147Y-112098574D01*
X110107320Y-112359727D01*
X110264363Y-112594759D01*
X110464241Y-112794637D01*
X110699273Y-112951680D01*
X110960426Y-113059853D01*
X111237665Y-113115000D01*
X111520335Y-113115000D01*
X111797574Y-113059853D01*
X112058727Y-112951680D01*
X112293759Y-112794637D01*
X112493637Y-112594759D01*
X112650680Y-112359727D01*
X112704414Y-112230000D01*
X116290928Y-112230000D01*
X116294000Y-112744250D01*
X116452750Y-112903000D01*
X117602000Y-112903000D01*
X117602000Y-111753750D01*
X117856000Y-111753750D01*
X117856000Y-112903000D01*
X117876000Y-112903000D01*
X117876000Y-113157000D01*
X117856000Y-113157000D01*
X117856000Y-114306250D01*
X118014750Y-114465000D01*
X118529000Y-114468072D01*
X118653482Y-114455812D01*
X118773180Y-114419502D01*
X118883494Y-114360537D01*
X118980185Y-114281185D01*
X119059537Y-114184494D01*
X119118502Y-114074180D01*
X119154812Y-113954482D01*
X119155643Y-113946039D01*
X119354241Y-114144637D01*
X119589273Y-114301680D01*
X119850426Y-114409853D01*
X120127665Y-114465000D01*
X120410335Y-114465000D01*
X120687574Y-114409853D01*
X120948727Y-114301680D01*
X121183759Y-114144637D01*
X121383637Y-113944759D01*
X121539000Y-113712241D01*
X121694363Y-113944759D01*
X121894241Y-114144637D01*
X122129273Y-114301680D01*
X122390426Y-114409853D01*
X122667665Y-114465000D01*
X122950335Y-114465000D01*
X123227574Y-114409853D01*
X123488727Y-114301680D01*
X123723759Y-114144637D01*
X123923637Y-113944759D01*
X124079000Y-113712241D01*
X124234363Y-113944759D01*
X124434241Y-114144637D01*
X124669273Y-114301680D01*
X124930426Y-114409853D01*
X125207665Y-114465000D01*
X125490335Y-114465000D01*
X125767574Y-114409853D01*
X126028727Y-114301680D01*
X126263759Y-114144637D01*
X126463637Y-113944759D01*
X126620680Y-113709727D01*
X126728853Y-113448574D01*
X126784000Y-113171335D01*
X126784000Y-112888665D01*
X126728853Y-112611426D01*
X126620680Y-112350273D01*
X126463637Y-112115241D01*
X126263759Y-111915363D01*
X126028727Y-111758320D01*
X125767574Y-111650147D01*
X125490335Y-111595000D01*
X125207665Y-111595000D01*
X124930426Y-111650147D01*
X124669273Y-111758320D01*
X124434241Y-111915363D01*
X124234363Y-112115241D01*
X124079000Y-112347759D01*
X123923637Y-112115241D01*
X123723759Y-111915363D01*
X123488727Y-111758320D01*
X123227574Y-111650147D01*
X122950335Y-111595000D01*
X122667665Y-111595000D01*
X122390426Y-111650147D01*
X122129273Y-111758320D01*
X121894241Y-111915363D01*
X121694363Y-112115241D01*
X121539000Y-112347759D01*
X121383637Y-112115241D01*
X121183759Y-111915363D01*
X120948727Y-111758320D01*
X120687574Y-111650147D01*
X120410335Y-111595000D01*
X120127665Y-111595000D01*
X119850426Y-111650147D01*
X119589273Y-111758320D01*
X119354241Y-111915363D01*
X119155643Y-112113961D01*
X119154812Y-112105518D01*
X119118502Y-111985820D01*
X119059537Y-111875506D01*
X118980185Y-111778815D01*
X118883494Y-111699463D01*
X118773180Y-111640498D01*
X118653482Y-111604188D01*
X118529000Y-111591928D01*
X118014750Y-111595000D01*
X117856000Y-111753750D01*
X117602000Y-111753750D01*
X117443250Y-111595000D01*
X116929000Y-111591928D01*
X116804518Y-111604188D01*
X116684820Y-111640498D01*
X116574506Y-111699463D01*
X116477815Y-111778815D01*
X116398463Y-111875506D01*
X116339498Y-111985820D01*
X116303188Y-112105518D01*
X116290928Y-112230000D01*
X112704414Y-112230000D01*
X112758853Y-112098574D01*
X112814000Y-111821335D01*
X112814000Y-111538665D01*
X112758853Y-111261426D01*
X112650680Y-111000273D01*
X112493637Y-110765241D01*
X112293759Y-110565363D01*
X112058727Y-110408320D01*
X111857575Y-110325000D01*
X131276928Y-110325000D01*
X131276928Y-111925000D01*
X131289188Y-112049482D01*
X131325498Y-112169180D01*
X131384463Y-112279494D01*
X131463815Y-112376185D01*
X131560506Y-112455537D01*
X131670820Y-112514502D01*
X131766943Y-112543661D01*
X131600363Y-112710241D01*
X131443320Y-112945273D01*
X131335147Y-113206426D01*
X131280000Y-113483665D01*
X131280000Y-113766335D01*
X131335147Y-114043574D01*
X131443320Y-114304727D01*
X131600363Y-114539759D01*
X131800241Y-114739637D01*
X132035273Y-114896680D01*
X132296426Y-115004853D01*
X132573665Y-115060000D01*
X132856335Y-115060000D01*
X133133574Y-115004853D01*
X133394727Y-114896680D01*
X133629759Y-114739637D01*
X133829637Y-114539759D01*
X133986680Y-114304727D01*
X134094853Y-114043574D01*
X134150000Y-113766335D01*
X134150000Y-113483665D01*
X134094853Y-113206426D01*
X133986680Y-112945273D01*
X133829637Y-112710241D01*
X133663057Y-112543661D01*
X133759180Y-112514502D01*
X133869494Y-112455537D01*
X133966185Y-112376185D01*
X134045537Y-112279494D01*
X134104502Y-112169180D01*
X134140812Y-112049482D01*
X134153072Y-111925000D01*
X134153072Y-110325000D01*
X134140812Y-110200518D01*
X134104502Y-110080820D01*
X134045537Y-109970506D01*
X133966185Y-109873815D01*
X133869494Y-109794463D01*
X133759180Y-109735498D01*
X133639482Y-109699188D01*
X133515000Y-109686928D01*
X131915000Y-109686928D01*
X131790518Y-109699188D01*
X131670820Y-109735498D01*
X131560506Y-109794463D01*
X131463815Y-109873815D01*
X131384463Y-109970506D01*
X131325498Y-110080820D01*
X131289188Y-110200518D01*
X131276928Y-110325000D01*
X111857575Y-110325000D01*
X111797574Y-110300147D01*
X111520335Y-110245000D01*
X111237665Y-110245000D01*
X110960426Y-110300147D01*
X110699273Y-110408320D01*
X110464241Y-110565363D01*
X110264363Y-110765241D01*
X110107320Y-111000273D01*
X109999147Y-111261426D01*
X109944000Y-111538665D01*
X103731687Y-111538665D01*
X103646147Y-111492943D01*
X103270088Y-111378867D01*
X102976998Y-111350000D01*
X101761002Y-111350000D01*
X101467912Y-111378867D01*
X101091853Y-111492943D01*
X100745275Y-111678193D01*
X100441497Y-111927497D01*
X100192193Y-112231275D01*
X100006943Y-112577853D01*
X99892867Y-112953912D01*
X99854348Y-113345000D01*
X92189466Y-113345000D01*
X92046637Y-113131241D01*
X91846759Y-112931363D01*
X91611727Y-112774320D01*
X91350574Y-112666147D01*
X91073335Y-112611000D01*
X90790665Y-112611000D01*
X90513426Y-112666147D01*
X90252273Y-112774320D01*
X90017241Y-112931363D01*
X89817363Y-113131241D01*
X89660320Y-113366273D01*
X89552147Y-113627426D01*
X89497000Y-113904665D01*
X87655000Y-113904665D01*
X87655000Y-103744665D01*
X89497000Y-103744665D01*
X89497000Y-104027335D01*
X89552147Y-104304574D01*
X89660320Y-104565727D01*
X89817363Y-104800759D01*
X90017241Y-105000637D01*
X90252273Y-105157680D01*
X90513426Y-105265853D01*
X90790665Y-105321000D01*
X91073335Y-105321000D01*
X91350574Y-105265853D01*
X91611727Y-105157680D01*
X91630704Y-105145000D01*
X93330928Y-105145000D01*
X93330928Y-106945000D01*
X93343188Y-107069482D01*
X93379498Y-107189180D01*
X93438463Y-107299494D01*
X93517815Y-107396185D01*
X93614506Y-107475537D01*
X93714303Y-107528880D01*
X93676688Y-107566495D01*
X93508701Y-107817905D01*
X93392989Y-108097257D01*
X93334000Y-108393816D01*
X93334000Y-108696184D01*
X93392989Y-108992743D01*
X93508701Y-109272095D01*
X93676688Y-109523505D01*
X93890495Y-109737312D01*
X93976831Y-109795000D01*
X93890495Y-109852688D01*
X93676688Y-110066495D01*
X93508701Y-110317905D01*
X93392989Y-110597257D01*
X93334000Y-110893816D01*
X93334000Y-111196184D01*
X93392989Y-111492743D01*
X93508701Y-111772095D01*
X93676688Y-112023505D01*
X93890495Y-112237312D01*
X94141905Y-112405299D01*
X94421257Y-112521011D01*
X94717816Y-112580000D01*
X95020184Y-112580000D01*
X95316743Y-112521011D01*
X95596095Y-112405299D01*
X95847505Y-112237312D01*
X96061312Y-112023505D01*
X96229299Y-111772095D01*
X96345011Y-111492743D01*
X96404000Y-111196184D01*
X96404000Y-110893816D01*
X96345011Y-110597257D01*
X96229299Y-110317905D01*
X96061312Y-110066495D01*
X95847505Y-109852688D01*
X95761169Y-109795000D01*
X95847505Y-109737312D01*
X96061312Y-109523505D01*
X96229299Y-109272095D01*
X96345011Y-108992743D01*
X96404000Y-108696184D01*
X96404000Y-108393816D01*
X96345011Y-108097257D01*
X96229299Y-107817905D01*
X96132278Y-107672702D01*
X110565903Y-107672702D01*
X110637486Y-107916671D01*
X110892996Y-108037571D01*
X111167184Y-108106300D01*
X111449512Y-108120217D01*
X111729130Y-108078787D01*
X111995292Y-107983603D01*
X112120514Y-107916671D01*
X112192097Y-107672702D01*
X111379000Y-106859605D01*
X110565903Y-107672702D01*
X96132278Y-107672702D01*
X96061312Y-107566495D01*
X96023697Y-107528880D01*
X96123494Y-107475537D01*
X96220185Y-107396185D01*
X96299537Y-107299494D01*
X96358502Y-107189180D01*
X96394812Y-107069482D01*
X96407072Y-106945000D01*
X96407072Y-106750512D01*
X109938783Y-106750512D01*
X109980213Y-107030130D01*
X110075397Y-107296292D01*
X110142329Y-107421514D01*
X110386298Y-107493097D01*
X111199395Y-106680000D01*
X111558605Y-106680000D01*
X112371702Y-107493097D01*
X112615671Y-107421514D01*
X112736571Y-107166004D01*
X112805300Y-106891816D01*
X112819217Y-106609488D01*
X112777787Y-106329870D01*
X112682603Y-106063708D01*
X112615671Y-105938486D01*
X112371702Y-105866903D01*
X111558605Y-106680000D01*
X111199395Y-106680000D01*
X110386298Y-105866903D01*
X110142329Y-105938486D01*
X110021429Y-106193996D01*
X109952700Y-106468184D01*
X109938783Y-106750512D01*
X96407072Y-106750512D01*
X96407072Y-105145000D01*
X96394812Y-105020518D01*
X96358502Y-104900820D01*
X96299537Y-104790506D01*
X96220185Y-104693815D01*
X96123494Y-104614463D01*
X96013180Y-104555498D01*
X95893482Y-104519188D01*
X95769000Y-104506928D01*
X93969000Y-104506928D01*
X93844518Y-104519188D01*
X93724820Y-104555498D01*
X93614506Y-104614463D01*
X93517815Y-104693815D01*
X93438463Y-104790506D01*
X93379498Y-104900820D01*
X93343188Y-105020518D01*
X93330928Y-105145000D01*
X91630704Y-105145000D01*
X91846759Y-105000637D01*
X92046637Y-104800759D01*
X92203680Y-104565727D01*
X92311853Y-104304574D01*
X92367000Y-104027335D01*
X92367000Y-103745000D01*
X99854348Y-103745000D01*
X99892867Y-104136088D01*
X100006943Y-104512147D01*
X100192193Y-104858725D01*
X100441497Y-105162503D01*
X100745275Y-105411807D01*
X101091853Y-105597057D01*
X101467912Y-105711133D01*
X101761002Y-105740000D01*
X102976998Y-105740000D01*
X103270088Y-105711133D01*
X103348661Y-105687298D01*
X110565903Y-105687298D01*
X111379000Y-106500395D01*
X112192097Y-105687298D01*
X112120514Y-105443329D01*
X111865004Y-105322429D01*
X111650518Y-105268665D01*
X116294000Y-105268665D01*
X116294000Y-105551335D01*
X116349147Y-105828574D01*
X116457320Y-106089727D01*
X116614363Y-106324759D01*
X116814241Y-106524637D01*
X117049273Y-106681680D01*
X117310426Y-106789853D01*
X117587665Y-106845000D01*
X117870335Y-106845000D01*
X118147574Y-106789853D01*
X118408727Y-106681680D01*
X118643759Y-106524637D01*
X118843637Y-106324759D01*
X118999000Y-106092241D01*
X119154363Y-106324759D01*
X119354241Y-106524637D01*
X119589273Y-106681680D01*
X119850426Y-106789853D01*
X120127665Y-106845000D01*
X120410335Y-106845000D01*
X120687574Y-106789853D01*
X120948727Y-106681680D01*
X121183759Y-106524637D01*
X121383637Y-106324759D01*
X121539000Y-106092241D01*
X121694363Y-106324759D01*
X121894241Y-106524637D01*
X122129273Y-106681680D01*
X122390426Y-106789853D01*
X122667665Y-106845000D01*
X122950335Y-106845000D01*
X123227574Y-106789853D01*
X123488727Y-106681680D01*
X123723759Y-106524637D01*
X123923637Y-106324759D01*
X124079000Y-106092241D01*
X124234363Y-106324759D01*
X124434241Y-106524637D01*
X124669273Y-106681680D01*
X124930426Y-106789853D01*
X125207665Y-106845000D01*
X125490335Y-106845000D01*
X125767574Y-106789853D01*
X126028727Y-106681680D01*
X126263759Y-106524637D01*
X126463637Y-106324759D01*
X126620680Y-106089727D01*
X126728853Y-105828574D01*
X126784000Y-105551335D01*
X126784000Y-105268665D01*
X126728853Y-104991426D01*
X126620680Y-104730273D01*
X126463637Y-104495241D01*
X126263759Y-104295363D01*
X126028727Y-104138320D01*
X125767574Y-104030147D01*
X125584547Y-103993740D01*
X129833000Y-103993740D01*
X129833000Y-104286260D01*
X129890068Y-104573158D01*
X130002010Y-104843411D01*
X130164525Y-105086632D01*
X130371368Y-105293475D01*
X130614589Y-105455990D01*
X130884842Y-105567932D01*
X131171740Y-105625000D01*
X131464260Y-105625000D01*
X131751158Y-105567932D01*
X132021411Y-105455990D01*
X132264632Y-105293475D01*
X132396487Y-105161620D01*
X132418498Y-105234180D01*
X132477463Y-105344494D01*
X132556815Y-105441185D01*
X132653506Y-105520537D01*
X132763820Y-105579502D01*
X132883518Y-105615812D01*
X133008000Y-105628072D01*
X133572250Y-105625000D01*
X133731000Y-105466250D01*
X133731000Y-104267000D01*
X133985000Y-104267000D01*
X133985000Y-105466250D01*
X134143750Y-105625000D01*
X134708000Y-105628072D01*
X134832482Y-105615812D01*
X134952180Y-105579502D01*
X135062494Y-105520537D01*
X135159185Y-105441185D01*
X135238537Y-105344494D01*
X135297502Y-105234180D01*
X135333812Y-105114482D01*
X135346072Y-104990000D01*
X135343000Y-104425750D01*
X135184250Y-104267000D01*
X133985000Y-104267000D01*
X133731000Y-104267000D01*
X133711000Y-104267000D01*
X133711000Y-104013000D01*
X133731000Y-104013000D01*
X133731000Y-102813750D01*
X133985000Y-102813750D01*
X133985000Y-104013000D01*
X135184250Y-104013000D01*
X135343000Y-103854250D01*
X135346072Y-103290000D01*
X135333812Y-103165518D01*
X135297502Y-103045820D01*
X135238537Y-102935506D01*
X135159185Y-102838815D01*
X135062494Y-102759463D01*
X134952180Y-102700498D01*
X134832482Y-102664188D01*
X134708000Y-102651928D01*
X134143750Y-102655000D01*
X133985000Y-102813750D01*
X133731000Y-102813750D01*
X133572250Y-102655000D01*
X133008000Y-102651928D01*
X132883518Y-102664188D01*
X132763820Y-102700498D01*
X132653506Y-102759463D01*
X132556815Y-102838815D01*
X132477463Y-102935506D01*
X132418498Y-103045820D01*
X132396487Y-103118380D01*
X132264632Y-102986525D01*
X132021411Y-102824010D01*
X131751158Y-102712068D01*
X131464260Y-102655000D01*
X131171740Y-102655000D01*
X130884842Y-102712068D01*
X130614589Y-102824010D01*
X130371368Y-102986525D01*
X130164525Y-103193368D01*
X130002010Y-103436589D01*
X129890068Y-103706842D01*
X129833000Y-103993740D01*
X125584547Y-103993740D01*
X125490335Y-103975000D01*
X125207665Y-103975000D01*
X124930426Y-104030147D01*
X124669273Y-104138320D01*
X124434241Y-104295363D01*
X124234363Y-104495241D01*
X124079000Y-104727759D01*
X123923637Y-104495241D01*
X123723759Y-104295363D01*
X123488727Y-104138320D01*
X123227574Y-104030147D01*
X122950335Y-103975000D01*
X122667665Y-103975000D01*
X122390426Y-104030147D01*
X122129273Y-104138320D01*
X121894241Y-104295363D01*
X121694363Y-104495241D01*
X121539000Y-104727759D01*
X121383637Y-104495241D01*
X121183759Y-104295363D01*
X120948727Y-104138320D01*
X120687574Y-104030147D01*
X120410335Y-103975000D01*
X120127665Y-103975000D01*
X119850426Y-104030147D01*
X119589273Y-104138320D01*
X119354241Y-104295363D01*
X119154363Y-104495241D01*
X118999000Y-104727759D01*
X118843637Y-104495241D01*
X118643759Y-104295363D01*
X118408727Y-104138320D01*
X118147574Y-104030147D01*
X117870335Y-103975000D01*
X117587665Y-103975000D01*
X117310426Y-104030147D01*
X117049273Y-104138320D01*
X116814241Y-104295363D01*
X116614363Y-104495241D01*
X116457320Y-104730273D01*
X116349147Y-104991426D01*
X116294000Y-105268665D01*
X111650518Y-105268665D01*
X111590816Y-105253700D01*
X111308488Y-105239783D01*
X111028870Y-105281213D01*
X110762708Y-105376397D01*
X110637486Y-105443329D01*
X110565903Y-105687298D01*
X103348661Y-105687298D01*
X103646147Y-105597057D01*
X103992725Y-105411807D01*
X104296503Y-105162503D01*
X104545807Y-104858725D01*
X104731057Y-104512147D01*
X104845133Y-104136088D01*
X104883652Y-103745000D01*
X104845133Y-103353912D01*
X104731057Y-102977853D01*
X104545807Y-102631275D01*
X104296503Y-102327497D01*
X103992725Y-102078193D01*
X103646147Y-101892943D01*
X103270088Y-101778867D01*
X102976998Y-101750000D01*
X101761002Y-101750000D01*
X101467912Y-101778867D01*
X101091853Y-101892943D01*
X100745275Y-102078193D01*
X100441497Y-102327497D01*
X100192193Y-102631275D01*
X100006943Y-102977853D01*
X99892867Y-103353912D01*
X99854348Y-103745000D01*
X92367000Y-103745000D01*
X92367000Y-103744665D01*
X92311853Y-103467426D01*
X92203680Y-103206273D01*
X92046637Y-102971241D01*
X91846759Y-102771363D01*
X91611727Y-102614320D01*
X91350574Y-102506147D01*
X91073335Y-102451000D01*
X90790665Y-102451000D01*
X90513426Y-102506147D01*
X90252273Y-102614320D01*
X90017241Y-102771363D01*
X89817363Y-102971241D01*
X89660320Y-103206273D01*
X89552147Y-103467426D01*
X89497000Y-103744665D01*
X87655000Y-103744665D01*
X87655000Y-100825843D01*
X87668966Y-100896055D01*
X87815254Y-101249224D01*
X88027630Y-101567067D01*
X88297933Y-101837370D01*
X88615776Y-102049746D01*
X88968945Y-102196034D01*
X89343867Y-102270610D01*
X89726133Y-102270610D01*
X90101055Y-102196034D01*
X90454224Y-102049746D01*
X90772067Y-101837370D01*
X91042370Y-101567067D01*
X91254746Y-101249224D01*
X91401034Y-100896055D01*
X91475610Y-100521133D01*
X91475610Y-100138867D01*
X91401034Y-99763945D01*
X91254746Y-99410776D01*
X91042370Y-99092933D01*
X90772067Y-98822630D01*
X90454224Y-98610254D01*
X90101055Y-98463966D01*
X90030843Y-98450000D01*
X116281513Y-98450000D01*
X116275422Y-98457422D01*
%TA.AperFunction,Conductor*%
D22*
G36*
X116275422Y-98457422D02*
G01*
X116114315Y-98758832D01*
X116015105Y-99085881D01*
X115990000Y-99340775D01*
X115990000Y-100811224D01*
X116015105Y-101066118D01*
X116114314Y-101393167D01*
X116275421Y-101694577D01*
X116492234Y-101958766D01*
X116756422Y-102175579D01*
X117057832Y-102336686D01*
X117384881Y-102435895D01*
X117725000Y-102469394D01*
X118065118Y-102435895D01*
X118392167Y-102336686D01*
X118693577Y-102175579D01*
X118957766Y-101958766D01*
X119115139Y-101767006D01*
X119292419Y-101861764D01*
X119553493Y-101940960D01*
X119825000Y-101967701D01*
X120096506Y-101940960D01*
X120357580Y-101861764D01*
X120598187Y-101733157D01*
X120809080Y-101560081D01*
X120825000Y-101540683D01*
X120840919Y-101560080D01*
X121051812Y-101733157D01*
X121292419Y-101861764D01*
X121553493Y-101940960D01*
X121825000Y-101967701D01*
X122096506Y-101940960D01*
X122357580Y-101861764D01*
X122590885Y-101737060D01*
X122623815Y-101777185D01*
X122720506Y-101856537D01*
X122830820Y-101915502D01*
X122950518Y-101951812D01*
X123075000Y-101964072D01*
X124575000Y-101964072D01*
X124687496Y-101952992D01*
X124692234Y-101958766D01*
X124956422Y-102175579D01*
X125257832Y-102336686D01*
X125584881Y-102435895D01*
X125925000Y-102469394D01*
X126265118Y-102435895D01*
X126592167Y-102336686D01*
X126893577Y-102175579D01*
X127157766Y-101958766D01*
X127374579Y-101694578D01*
X127535686Y-101393168D01*
X127634895Y-101066119D01*
X127660000Y-100811225D01*
X127660000Y-99340775D01*
X127634895Y-99085881D01*
X127535686Y-98758832D01*
X127374579Y-98457422D01*
X127368488Y-98450000D01*
X136664157Y-98450000D01*
X136593945Y-98463966D01*
X136240776Y-98610254D01*
X135922933Y-98822630D01*
X135652630Y-99092933D01*
X135440254Y-99410776D01*
X135293966Y-99763945D01*
X135219390Y-100138867D01*
X135219390Y-100521133D01*
X135293966Y-100896055D01*
X135440254Y-101249224D01*
X135652630Y-101567067D01*
X135922933Y-101837370D01*
X136240776Y-102049746D01*
X136593945Y-102196034D01*
X136968867Y-102270610D01*
X137351133Y-102270610D01*
X137726055Y-102196034D01*
X138079224Y-102049746D01*
X138397067Y-101837370D01*
X138667370Y-101567067D01*
X138879746Y-101249224D01*
X139026034Y-100896055D01*
X139040000Y-100825843D01*
X139040001Y-139839162D01*
X139026034Y-139768945D01*
X138879746Y-139415776D01*
X138667370Y-139097933D01*
X138397067Y-138827630D01*
X138079224Y-138615254D01*
X137726055Y-138468966D01*
X137351133Y-138394390D01*
X136968867Y-138394390D01*
X136593945Y-138468966D01*
X136240776Y-138615254D01*
X135922933Y-138827630D01*
X135652630Y-139097933D01*
X135440254Y-139415776D01*
X135293966Y-139768945D01*
X135219390Y-140143867D01*
X135219390Y-140526133D01*
X135293966Y-140901055D01*
X135440254Y-141254224D01*
X135652630Y-141572067D01*
X135922933Y-141842370D01*
X136240776Y-142054746D01*
X136593945Y-142201034D01*
X136664157Y-142215000D01*
X90030843Y-142215000D01*
X90101055Y-142201034D01*
X90454224Y-142054746D01*
X90772067Y-141842370D01*
X91042370Y-141572067D01*
X91254746Y-141254224D01*
X91401034Y-140901055D01*
X91475610Y-140526133D01*
X91475610Y-140143867D01*
X91401034Y-139768945D01*
X91254746Y-139415776D01*
X91042370Y-139097933D01*
X90772067Y-138827630D01*
X90454224Y-138615254D01*
X90101055Y-138468966D01*
X89726133Y-138394390D01*
X89343867Y-138394390D01*
X88968945Y-138468966D01*
X88615776Y-138615254D01*
X88297933Y-138827630D01*
X88027630Y-139097933D01*
X87815254Y-139415776D01*
X87668966Y-139768945D01*
X87655000Y-139839157D01*
X87655000Y-136002665D01*
X89497000Y-136002665D01*
X89497000Y-136285335D01*
X89552147Y-136562574D01*
X89660320Y-136823727D01*
X89817363Y-137058759D01*
X90017241Y-137258637D01*
X90252273Y-137415680D01*
X90513426Y-137523853D01*
X90790665Y-137579000D01*
X91073335Y-137579000D01*
X91350574Y-137523853D01*
X91611727Y-137415680D01*
X91846759Y-137258637D01*
X92046637Y-137058759D01*
X92203680Y-136823727D01*
X92311853Y-136562574D01*
X92367000Y-136285335D01*
X92367000Y-136205000D01*
X99854348Y-136205000D01*
X99892867Y-136596088D01*
X100006943Y-136972147D01*
X100192193Y-137318725D01*
X100441497Y-137622503D01*
X100745275Y-137871807D01*
X101091853Y-138057057D01*
X101467912Y-138171133D01*
X101761002Y-138200000D01*
X102976998Y-138200000D01*
X103270088Y-138171133D01*
X103646147Y-138057057D01*
X103992725Y-137871807D01*
X104296503Y-137622503D01*
X104545807Y-137318725D01*
X104731057Y-136972147D01*
X104845133Y-136596088D01*
X104883652Y-136205000D01*
X104868879Y-136055000D01*
X116290928Y-136055000D01*
X116303188Y-136179482D01*
X116339498Y-136299180D01*
X116398463Y-136409494D01*
X116477815Y-136506185D01*
X116574506Y-136585537D01*
X116684820Y-136644502D01*
X116804518Y-136680812D01*
X116929000Y-136693072D01*
X117443250Y-136690000D01*
X117602000Y-136531250D01*
X117602000Y-135382000D01*
X116452750Y-135382000D01*
X116294000Y-135540750D01*
X116290928Y-136055000D01*
X104868879Y-136055000D01*
X104845133Y-135813912D01*
X104731057Y-135437853D01*
X104545807Y-135091275D01*
X104296503Y-134787497D01*
X103992725Y-134538193D01*
X103646147Y-134352943D01*
X103270088Y-134238867D01*
X102976998Y-134210000D01*
X101761002Y-134210000D01*
X101467912Y-134238867D01*
X101091853Y-134352943D01*
X100745275Y-134538193D01*
X100441497Y-134787497D01*
X100192193Y-135091275D01*
X100006943Y-135437853D01*
X99892867Y-135813912D01*
X99854348Y-136205000D01*
X92367000Y-136205000D01*
X92367000Y-136002665D01*
X92311853Y-135725426D01*
X92203680Y-135464273D01*
X92046637Y-135229241D01*
X91846759Y-135029363D01*
X91611727Y-134872320D01*
X91350574Y-134764147D01*
X91073335Y-134709000D01*
X90790665Y-134709000D01*
X90513426Y-134764147D01*
X90252273Y-134872320D01*
X90017241Y-135029363D01*
X89817363Y-135229241D01*
X89660320Y-135464273D01*
X89552147Y-135725426D01*
X89497000Y-136002665D01*
X87655000Y-136002665D01*
X87655000Y-128005000D01*
X93330928Y-128005000D01*
X93330928Y-129805000D01*
X93343188Y-129929482D01*
X93379498Y-130049180D01*
X93438463Y-130159494D01*
X93517815Y-130256185D01*
X93614506Y-130335537D01*
X93714303Y-130388880D01*
X93676688Y-130426495D01*
X93508701Y-130677905D01*
X93392989Y-130957257D01*
X93334000Y-131253816D01*
X93334000Y-131556184D01*
X93392989Y-131852743D01*
X93508701Y-132132095D01*
X93676688Y-132383505D01*
X93890495Y-132597312D01*
X93976831Y-132655000D01*
X93890495Y-132712688D01*
X93676688Y-132926495D01*
X93508701Y-133177905D01*
X93392989Y-133457257D01*
X93334000Y-133753816D01*
X93334000Y-134056184D01*
X93392989Y-134352743D01*
X93508701Y-134632095D01*
X93676688Y-134883505D01*
X93890495Y-135097312D01*
X94141905Y-135265299D01*
X94421257Y-135381011D01*
X94717816Y-135440000D01*
X95020184Y-135440000D01*
X95316743Y-135381011D01*
X95596095Y-135265299D01*
X95847505Y-135097312D01*
X96061312Y-134883505D01*
X96229299Y-134632095D01*
X96345011Y-134352743D01*
X96404000Y-134056184D01*
X96404000Y-133843665D01*
X109944000Y-133843665D01*
X109944000Y-134126335D01*
X109999147Y-134403574D01*
X110107320Y-134664727D01*
X110264363Y-134899759D01*
X110464241Y-135099637D01*
X110699273Y-135256680D01*
X110960426Y-135364853D01*
X111237665Y-135420000D01*
X111520335Y-135420000D01*
X111797574Y-135364853D01*
X112058727Y-135256680D01*
X112293759Y-135099637D01*
X112493637Y-134899759D01*
X112650680Y-134664727D01*
X112737551Y-134455000D01*
X116290928Y-134455000D01*
X116294000Y-134969250D01*
X116452750Y-135128000D01*
X117602000Y-135128000D01*
X117602000Y-133978750D01*
X117856000Y-133978750D01*
X117856000Y-135128000D01*
X117876000Y-135128000D01*
X117876000Y-135382000D01*
X117856000Y-135382000D01*
X117856000Y-136531250D01*
X118014750Y-136690000D01*
X118529000Y-136693072D01*
X118653482Y-136680812D01*
X118773180Y-136644502D01*
X118883494Y-136585537D01*
X118980185Y-136506185D01*
X119059537Y-136409494D01*
X119118502Y-136299180D01*
X119154812Y-136179482D01*
X119155643Y-136171039D01*
X119354241Y-136369637D01*
X119589273Y-136526680D01*
X119850426Y-136634853D01*
X120127665Y-136690000D01*
X120410335Y-136690000D01*
X120687574Y-136634853D01*
X120948727Y-136526680D01*
X121183759Y-136369637D01*
X121383637Y-136169759D01*
X121539000Y-135937241D01*
X121694363Y-136169759D01*
X121894241Y-136369637D01*
X122129273Y-136526680D01*
X122390426Y-136634853D01*
X122667665Y-136690000D01*
X122950335Y-136690000D01*
X123227574Y-136634853D01*
X123488727Y-136526680D01*
X123723759Y-136369637D01*
X123923637Y-136169759D01*
X124079000Y-135937241D01*
X124234363Y-136169759D01*
X124434241Y-136369637D01*
X124669273Y-136526680D01*
X124930426Y-136634853D01*
X125207665Y-136690000D01*
X125490335Y-136690000D01*
X125767574Y-136634853D01*
X126028727Y-136526680D01*
X126060065Y-136505740D01*
X129833000Y-136505740D01*
X129833000Y-136798260D01*
X129890068Y-137085158D01*
X130002010Y-137355411D01*
X130164525Y-137598632D01*
X130371368Y-137805475D01*
X130614589Y-137967990D01*
X130884842Y-138079932D01*
X131171740Y-138137000D01*
X131464260Y-138137000D01*
X131751158Y-138079932D01*
X132021411Y-137967990D01*
X132264632Y-137805475D01*
X132396487Y-137673620D01*
X132418498Y-137746180D01*
X132477463Y-137856494D01*
X132556815Y-137953185D01*
X132653506Y-138032537D01*
X132763820Y-138091502D01*
X132883518Y-138127812D01*
X133008000Y-138140072D01*
X133572250Y-138137000D01*
X133731000Y-137978250D01*
X133731000Y-136779000D01*
X133985000Y-136779000D01*
X133985000Y-137978250D01*
X134143750Y-138137000D01*
X134708000Y-138140072D01*
X134832482Y-138127812D01*
X134952180Y-138091502D01*
X135062494Y-138032537D01*
X135159185Y-137953185D01*
X135238537Y-137856494D01*
X135297502Y-137746180D01*
X135333812Y-137626482D01*
X135346072Y-137502000D01*
X135343000Y-136937750D01*
X135184250Y-136779000D01*
X133985000Y-136779000D01*
X133731000Y-136779000D01*
X133711000Y-136779000D01*
X133711000Y-136525000D01*
X133731000Y-136525000D01*
X133731000Y-135325750D01*
X133985000Y-135325750D01*
X133985000Y-136525000D01*
X135184250Y-136525000D01*
X135343000Y-136366250D01*
X135346072Y-135802000D01*
X135333812Y-135677518D01*
X135297502Y-135557820D01*
X135238537Y-135447506D01*
X135159185Y-135350815D01*
X135062494Y-135271463D01*
X134952180Y-135212498D01*
X134832482Y-135176188D01*
X134708000Y-135163928D01*
X134143750Y-135167000D01*
X133985000Y-135325750D01*
X133731000Y-135325750D01*
X133572250Y-135167000D01*
X133008000Y-135163928D01*
X132883518Y-135176188D01*
X132763820Y-135212498D01*
X132653506Y-135271463D01*
X132556815Y-135350815D01*
X132477463Y-135447506D01*
X132418498Y-135557820D01*
X132396487Y-135630380D01*
X132264632Y-135498525D01*
X132021411Y-135336010D01*
X131751158Y-135224068D01*
X131464260Y-135167000D01*
X131171740Y-135167000D01*
X130884842Y-135224068D01*
X130614589Y-135336010D01*
X130371368Y-135498525D01*
X130164525Y-135705368D01*
X130002010Y-135948589D01*
X129890068Y-136218842D01*
X129833000Y-136505740D01*
X126060065Y-136505740D01*
X126263759Y-136369637D01*
X126463637Y-136169759D01*
X126620680Y-135934727D01*
X126728853Y-135673574D01*
X126784000Y-135396335D01*
X126784000Y-135113665D01*
X126728853Y-134836426D01*
X126620680Y-134575273D01*
X126463637Y-134340241D01*
X126263759Y-134140363D01*
X126028727Y-133983320D01*
X125767574Y-133875147D01*
X125490335Y-133820000D01*
X125207665Y-133820000D01*
X124930426Y-133875147D01*
X124669273Y-133983320D01*
X124434241Y-134140363D01*
X124234363Y-134340241D01*
X124079000Y-134572759D01*
X123923637Y-134340241D01*
X123723759Y-134140363D01*
X123488727Y-133983320D01*
X123227574Y-133875147D01*
X122950335Y-133820000D01*
X122667665Y-133820000D01*
X122390426Y-133875147D01*
X122129273Y-133983320D01*
X121894241Y-134140363D01*
X121694363Y-134340241D01*
X121539000Y-134572759D01*
X121383637Y-134340241D01*
X121183759Y-134140363D01*
X120948727Y-133983320D01*
X120687574Y-133875147D01*
X120410335Y-133820000D01*
X120127665Y-133820000D01*
X119850426Y-133875147D01*
X119589273Y-133983320D01*
X119354241Y-134140363D01*
X119155643Y-134338961D01*
X119154812Y-134330518D01*
X119118502Y-134210820D01*
X119059537Y-134100506D01*
X118980185Y-134003815D01*
X118883494Y-133924463D01*
X118773180Y-133865498D01*
X118653482Y-133829188D01*
X118529000Y-133816928D01*
X118014750Y-133820000D01*
X117856000Y-133978750D01*
X117602000Y-133978750D01*
X117443250Y-133820000D01*
X116929000Y-133816928D01*
X116804518Y-133829188D01*
X116684820Y-133865498D01*
X116574506Y-133924463D01*
X116477815Y-134003815D01*
X116398463Y-134100506D01*
X116339498Y-134210820D01*
X116303188Y-134330518D01*
X116290928Y-134455000D01*
X112737551Y-134455000D01*
X112758853Y-134403574D01*
X112814000Y-134126335D01*
X112814000Y-133843665D01*
X112758853Y-133566426D01*
X112650680Y-133305273D01*
X112493637Y-133070241D01*
X112293759Y-132870363D01*
X112058727Y-132713320D01*
X111797574Y-132605147D01*
X111520335Y-132550000D01*
X111237665Y-132550000D01*
X110960426Y-132605147D01*
X110699273Y-132713320D01*
X110464241Y-132870363D01*
X110264363Y-133070241D01*
X110107320Y-133305273D01*
X109999147Y-133566426D01*
X109944000Y-133843665D01*
X96404000Y-133843665D01*
X96404000Y-133753816D01*
X96345011Y-133457257D01*
X96229299Y-133177905D01*
X96061312Y-132926495D01*
X95847505Y-132712688D01*
X95761169Y-132655000D01*
X95847505Y-132597312D01*
X96061312Y-132383505D01*
X96229299Y-132132095D01*
X96345011Y-131852743D01*
X96404000Y-131556184D01*
X96404000Y-131253816D01*
X96345011Y-130957257D01*
X96229299Y-130677905D01*
X96061312Y-130426495D01*
X96023697Y-130388880D01*
X96123494Y-130335537D01*
X96220185Y-130256185D01*
X96299537Y-130159494D01*
X96358502Y-130049180D01*
X96380184Y-129977702D01*
X110565903Y-129977702D01*
X110637486Y-130221671D01*
X110892996Y-130342571D01*
X111167184Y-130411300D01*
X111449512Y-130425217D01*
X111729130Y-130383787D01*
X111995292Y-130288603D01*
X112120514Y-130221671D01*
X112175676Y-130033665D01*
X131280000Y-130033665D01*
X131280000Y-130316335D01*
X131335147Y-130593574D01*
X131443320Y-130854727D01*
X131600363Y-131089759D01*
X131800241Y-131289637D01*
X132035273Y-131446680D01*
X132296426Y-131554853D01*
X132573665Y-131610000D01*
X132856335Y-131610000D01*
X133133574Y-131554853D01*
X133394727Y-131446680D01*
X133629759Y-131289637D01*
X133829637Y-131089759D01*
X133986680Y-130854727D01*
X134094853Y-130593574D01*
X134150000Y-130316335D01*
X134150000Y-130033665D01*
X134094853Y-129756426D01*
X133986680Y-129495273D01*
X133829637Y-129260241D01*
X133629759Y-129060363D01*
X133394727Y-128903320D01*
X133133574Y-128795147D01*
X132856335Y-128740000D01*
X132573665Y-128740000D01*
X132296426Y-128795147D01*
X132035273Y-128903320D01*
X131800241Y-129060363D01*
X131600363Y-129260241D01*
X131443320Y-129495273D01*
X131335147Y-129756426D01*
X131280000Y-130033665D01*
X112175676Y-130033665D01*
X112192097Y-129977702D01*
X111379000Y-129164605D01*
X110565903Y-129977702D01*
X96380184Y-129977702D01*
X96394812Y-129929482D01*
X96407072Y-129805000D01*
X96407072Y-129055512D01*
X109938783Y-129055512D01*
X109980213Y-129335130D01*
X110075397Y-129601292D01*
X110142329Y-129726514D01*
X110386298Y-129798097D01*
X111199395Y-128985000D01*
X111558605Y-128985000D01*
X112371702Y-129798097D01*
X112615671Y-129726514D01*
X112736571Y-129471004D01*
X112805300Y-129196816D01*
X112819217Y-128914488D01*
X112777787Y-128634870D01*
X112682603Y-128368708D01*
X112615671Y-128243486D01*
X112371702Y-128171903D01*
X111558605Y-128985000D01*
X111199395Y-128985000D01*
X110386298Y-128171903D01*
X110142329Y-128243486D01*
X110021429Y-128498996D01*
X109952700Y-128773184D01*
X109938783Y-129055512D01*
X96407072Y-129055512D01*
X96407072Y-128005000D01*
X96394812Y-127880518D01*
X96358502Y-127760820D01*
X96299537Y-127650506D01*
X96220185Y-127553815D01*
X96123494Y-127474463D01*
X96013180Y-127415498D01*
X95893482Y-127379188D01*
X95769000Y-127366928D01*
X93969000Y-127366928D01*
X93844518Y-127379188D01*
X93724820Y-127415498D01*
X93614506Y-127474463D01*
X93517815Y-127553815D01*
X93438463Y-127650506D01*
X93379498Y-127760820D01*
X93343188Y-127880518D01*
X93330928Y-128005000D01*
X87655000Y-128005000D01*
X87655000Y-125842665D01*
X89497000Y-125842665D01*
X89497000Y-126125335D01*
X89552147Y-126402574D01*
X89660320Y-126663727D01*
X89817363Y-126898759D01*
X90017241Y-127098637D01*
X90252273Y-127255680D01*
X90513426Y-127363853D01*
X90790665Y-127419000D01*
X91073335Y-127419000D01*
X91350574Y-127363853D01*
X91611727Y-127255680D01*
X91846759Y-127098637D01*
X92046637Y-126898759D01*
X92203680Y-126663727D01*
X92228005Y-126605000D01*
X99854348Y-126605000D01*
X99892867Y-126996088D01*
X100006943Y-127372147D01*
X100192193Y-127718725D01*
X100441497Y-128022503D01*
X100745275Y-128271807D01*
X101091853Y-128457057D01*
X101467912Y-128571133D01*
X101761002Y-128600000D01*
X102976998Y-128600000D01*
X103270088Y-128571133D01*
X103646147Y-128457057D01*
X103992725Y-128271807D01*
X104296503Y-128022503D01*
X104321291Y-127992298D01*
X110565903Y-127992298D01*
X111379000Y-128805395D01*
X112192097Y-127992298D01*
X112120514Y-127748329D01*
X111865004Y-127627429D01*
X111590816Y-127558700D01*
X111308488Y-127544783D01*
X111028870Y-127586213D01*
X110762708Y-127681397D01*
X110637486Y-127748329D01*
X110565903Y-127992298D01*
X104321291Y-127992298D01*
X104545807Y-127718725D01*
X104666104Y-127493665D01*
X116294000Y-127493665D01*
X116294000Y-127776335D01*
X116349147Y-128053574D01*
X116457320Y-128314727D01*
X116614363Y-128549759D01*
X116814241Y-128749637D01*
X117049273Y-128906680D01*
X117310426Y-129014853D01*
X117587665Y-129070000D01*
X117870335Y-129070000D01*
X118147574Y-129014853D01*
X118408727Y-128906680D01*
X118643759Y-128749637D01*
X118843637Y-128549759D01*
X118999000Y-128317241D01*
X119154363Y-128549759D01*
X119354241Y-128749637D01*
X119589273Y-128906680D01*
X119850426Y-129014853D01*
X120127665Y-129070000D01*
X120410335Y-129070000D01*
X120687574Y-129014853D01*
X120948727Y-128906680D01*
X121183759Y-128749637D01*
X121383637Y-128549759D01*
X121539000Y-128317241D01*
X121694363Y-128549759D01*
X121894241Y-128749637D01*
X122129273Y-128906680D01*
X122390426Y-129014853D01*
X122667665Y-129070000D01*
X122950335Y-129070000D01*
X123227574Y-129014853D01*
X123488727Y-128906680D01*
X123723759Y-128749637D01*
X123923637Y-128549759D01*
X124079000Y-128317241D01*
X124234363Y-128549759D01*
X124434241Y-128749637D01*
X124669273Y-128906680D01*
X124930426Y-129014853D01*
X125207665Y-129070000D01*
X125490335Y-129070000D01*
X125767574Y-129014853D01*
X126028727Y-128906680D01*
X126263759Y-128749637D01*
X126463637Y-128549759D01*
X126620680Y-128314727D01*
X126728853Y-128053574D01*
X126784000Y-127776335D01*
X126784000Y-127493665D01*
X126728853Y-127216426D01*
X126620680Y-126955273D01*
X126463637Y-126720241D01*
X126263759Y-126520363D01*
X126028727Y-126363320D01*
X125767574Y-126255147D01*
X125490335Y-126200000D01*
X125207665Y-126200000D01*
X124930426Y-126255147D01*
X124669273Y-126363320D01*
X124434241Y-126520363D01*
X124234363Y-126720241D01*
X124079000Y-126952759D01*
X123923637Y-126720241D01*
X123723759Y-126520363D01*
X123488727Y-126363320D01*
X123227574Y-126255147D01*
X122950335Y-126200000D01*
X122667665Y-126200000D01*
X122390426Y-126255147D01*
X122129273Y-126363320D01*
X121894241Y-126520363D01*
X121694363Y-126720241D01*
X121539000Y-126952759D01*
X121383637Y-126720241D01*
X121183759Y-126520363D01*
X120948727Y-126363320D01*
X120687574Y-126255147D01*
X120410335Y-126200000D01*
X120127665Y-126200000D01*
X119850426Y-126255147D01*
X119589273Y-126363320D01*
X119354241Y-126520363D01*
X119154363Y-126720241D01*
X118999000Y-126952759D01*
X118843637Y-126720241D01*
X118643759Y-126520363D01*
X118408727Y-126363320D01*
X118147574Y-126255147D01*
X117870335Y-126200000D01*
X117587665Y-126200000D01*
X117310426Y-126255147D01*
X117049273Y-126363320D01*
X116814241Y-126520363D01*
X116614363Y-126720241D01*
X116457320Y-126955273D01*
X116349147Y-127216426D01*
X116294000Y-127493665D01*
X104666104Y-127493665D01*
X104731057Y-127372147D01*
X104845133Y-126996088D01*
X104883652Y-126605000D01*
X104845133Y-126213912D01*
X104731057Y-125837853D01*
X104545807Y-125491275D01*
X104296503Y-125187497D01*
X103992725Y-124938193D01*
X103646147Y-124752943D01*
X103270088Y-124638867D01*
X102976998Y-124610000D01*
X101761002Y-124610000D01*
X101467912Y-124638867D01*
X101091853Y-124752943D01*
X100745275Y-124938193D01*
X100441497Y-125187497D01*
X100192193Y-125491275D01*
X100006943Y-125837853D01*
X99892867Y-126213912D01*
X99854348Y-126605000D01*
X92228005Y-126605000D01*
X92311853Y-126402574D01*
X92367000Y-126125335D01*
X92367000Y-125842665D01*
X92311853Y-125565426D01*
X92203680Y-125304273D01*
X92046637Y-125069241D01*
X91846759Y-124869363D01*
X91611727Y-124712320D01*
X91350574Y-124604147D01*
X91073335Y-124549000D01*
X90790665Y-124549000D01*
X90513426Y-124604147D01*
X90252273Y-124712320D01*
X90017241Y-124869363D01*
X89817363Y-125069241D01*
X89660320Y-125304273D01*
X89552147Y-125565426D01*
X89497000Y-125842665D01*
X87655000Y-125842665D01*
X87655000Y-119873665D01*
X94704000Y-119873665D01*
X94704000Y-120156335D01*
X94759147Y-120433574D01*
X94867320Y-120694727D01*
X95024363Y-120929759D01*
X95224241Y-121129637D01*
X95459273Y-121286680D01*
X95720426Y-121394853D01*
X95997665Y-121450000D01*
X96280335Y-121450000D01*
X96557574Y-121394853D01*
X96818727Y-121286680D01*
X97053759Y-121129637D01*
X97253637Y-120929759D01*
X97410680Y-120694727D01*
X97518853Y-120433574D01*
X97574000Y-120156335D01*
X97574000Y-119873665D01*
X104864000Y-119873665D01*
X104864000Y-120156335D01*
X104919147Y-120433574D01*
X105027320Y-120694727D01*
X105184363Y-120929759D01*
X105384241Y-121129637D01*
X105619273Y-121286680D01*
X105880426Y-121394853D01*
X106157665Y-121450000D01*
X106440335Y-121450000D01*
X106717574Y-121394853D01*
X106978727Y-121286680D01*
X107213759Y-121129637D01*
X107413637Y-120929759D01*
X107570680Y-120694727D01*
X107678853Y-120433574D01*
X107734000Y-120156335D01*
X107734000Y-119873665D01*
X131280000Y-119873665D01*
X131280000Y-120156335D01*
X131335147Y-120433574D01*
X131443320Y-120694727D01*
X131600363Y-120929759D01*
X131800241Y-121129637D01*
X132035273Y-121286680D01*
X132296426Y-121394853D01*
X132573665Y-121450000D01*
X132856335Y-121450000D01*
X133133574Y-121394853D01*
X133394727Y-121286680D01*
X133629759Y-121129637D01*
X133829637Y-120929759D01*
X133986680Y-120694727D01*
X134094853Y-120433574D01*
X134150000Y-120156335D01*
X134150000Y-119873665D01*
X134094853Y-119596426D01*
X133986680Y-119335273D01*
X133829637Y-119100241D01*
X133629759Y-118900363D01*
X133394727Y-118743320D01*
X133133574Y-118635147D01*
X132856335Y-118580000D01*
X132573665Y-118580000D01*
X132296426Y-118635147D01*
X132035273Y-118743320D01*
X131800241Y-118900363D01*
X131600363Y-119100241D01*
X131443320Y-119335273D01*
X131335147Y-119596426D01*
X131280000Y-119873665D01*
X107734000Y-119873665D01*
X107678853Y-119596426D01*
X107570680Y-119335273D01*
X107413637Y-119100241D01*
X107213759Y-118900363D01*
X106978727Y-118743320D01*
X106717574Y-118635147D01*
X106440335Y-118580000D01*
X106157665Y-118580000D01*
X105880426Y-118635147D01*
X105619273Y-118743320D01*
X105384241Y-118900363D01*
X105184363Y-119100241D01*
X105027320Y-119335273D01*
X104919147Y-119596426D01*
X104864000Y-119873665D01*
X97574000Y-119873665D01*
X97518853Y-119596426D01*
X97410680Y-119335273D01*
X97253637Y-119100241D01*
X97053759Y-118900363D01*
X96818727Y-118743320D01*
X96557574Y-118635147D01*
X96280335Y-118580000D01*
X95997665Y-118580000D01*
X95720426Y-118635147D01*
X95459273Y-118743320D01*
X95224241Y-118900363D01*
X95024363Y-119100241D01*
X94867320Y-119335273D01*
X94759147Y-119596426D01*
X94704000Y-119873665D01*
X87655000Y-119873665D01*
X87655000Y-113904665D01*
X89497000Y-113904665D01*
X89497000Y-114187335D01*
X89552147Y-114464574D01*
X89660320Y-114725727D01*
X89817363Y-114960759D01*
X90017241Y-115160637D01*
X90252273Y-115317680D01*
X90513426Y-115425853D01*
X90790665Y-115481000D01*
X91073335Y-115481000D01*
X91350574Y-115425853D01*
X91611727Y-115317680D01*
X91846759Y-115160637D01*
X92046637Y-114960759D01*
X92203680Y-114725727D01*
X92311853Y-114464574D01*
X92367000Y-114187335D01*
X92367000Y-113904665D01*
X92311853Y-113627426D01*
X92203680Y-113366273D01*
X92189466Y-113345000D01*
X99854348Y-113345000D01*
X99892867Y-113736088D01*
X100006943Y-114112147D01*
X100192193Y-114458725D01*
X100441497Y-114762503D01*
X100745275Y-115011807D01*
X101091853Y-115197057D01*
X101467912Y-115311133D01*
X101761002Y-115340000D01*
X102976998Y-115340000D01*
X103270088Y-115311133D01*
X103646147Y-115197057D01*
X103992725Y-115011807D01*
X104296503Y-114762503D01*
X104545807Y-114458725D01*
X104731057Y-114112147D01*
X104816645Y-113830000D01*
X116290928Y-113830000D01*
X116303188Y-113954482D01*
X116339498Y-114074180D01*
X116398463Y-114184494D01*
X116477815Y-114281185D01*
X116574506Y-114360537D01*
X116684820Y-114419502D01*
X116804518Y-114455812D01*
X116929000Y-114468072D01*
X117443250Y-114465000D01*
X117602000Y-114306250D01*
X117602000Y-113157000D01*
X116452750Y-113157000D01*
X116294000Y-113315750D01*
X116290928Y-113830000D01*
X104816645Y-113830000D01*
X104845133Y-113736088D01*
X104883652Y-113345000D01*
X104845133Y-112953912D01*
X104731057Y-112577853D01*
X104545807Y-112231275D01*
X104296503Y-111927497D01*
X103992725Y-111678193D01*
X103731687Y-111538665D01*
X109944000Y-111538665D01*
X109944000Y-111821335D01*
X109999147Y-112098574D01*
X110107320Y-112359727D01*
X110264363Y-112594759D01*
X110464241Y-112794637D01*
X110699273Y-112951680D01*
X110960426Y-113059853D01*
X111237665Y-113115000D01*
X111520335Y-113115000D01*
X111797574Y-113059853D01*
X112058727Y-112951680D01*
X112293759Y-112794637D01*
X112493637Y-112594759D01*
X112650680Y-112359727D01*
X112704414Y-112230000D01*
X116290928Y-112230000D01*
X116294000Y-112744250D01*
X116452750Y-112903000D01*
X117602000Y-112903000D01*
X117602000Y-111753750D01*
X117856000Y-111753750D01*
X117856000Y-112903000D01*
X117876000Y-112903000D01*
X117876000Y-113157000D01*
X117856000Y-113157000D01*
X117856000Y-114306250D01*
X118014750Y-114465000D01*
X118529000Y-114468072D01*
X118653482Y-114455812D01*
X118773180Y-114419502D01*
X118883494Y-114360537D01*
X118980185Y-114281185D01*
X119059537Y-114184494D01*
X119118502Y-114074180D01*
X119154812Y-113954482D01*
X119155643Y-113946039D01*
X119354241Y-114144637D01*
X119589273Y-114301680D01*
X119850426Y-114409853D01*
X120127665Y-114465000D01*
X120410335Y-114465000D01*
X120687574Y-114409853D01*
X120948727Y-114301680D01*
X121183759Y-114144637D01*
X121383637Y-113944759D01*
X121539000Y-113712241D01*
X121694363Y-113944759D01*
X121894241Y-114144637D01*
X122129273Y-114301680D01*
X122390426Y-114409853D01*
X122667665Y-114465000D01*
X122950335Y-114465000D01*
X123227574Y-114409853D01*
X123488727Y-114301680D01*
X123723759Y-114144637D01*
X123923637Y-113944759D01*
X124079000Y-113712241D01*
X124234363Y-113944759D01*
X124434241Y-114144637D01*
X124669273Y-114301680D01*
X124930426Y-114409853D01*
X125207665Y-114465000D01*
X125490335Y-114465000D01*
X125767574Y-114409853D01*
X126028727Y-114301680D01*
X126263759Y-114144637D01*
X126463637Y-113944759D01*
X126620680Y-113709727D01*
X126728853Y-113448574D01*
X126784000Y-113171335D01*
X126784000Y-112888665D01*
X126728853Y-112611426D01*
X126620680Y-112350273D01*
X126463637Y-112115241D01*
X126263759Y-111915363D01*
X126028727Y-111758320D01*
X125767574Y-111650147D01*
X125490335Y-111595000D01*
X125207665Y-111595000D01*
X124930426Y-111650147D01*
X124669273Y-111758320D01*
X124434241Y-111915363D01*
X124234363Y-112115241D01*
X124079000Y-112347759D01*
X123923637Y-112115241D01*
X123723759Y-111915363D01*
X123488727Y-111758320D01*
X123227574Y-111650147D01*
X122950335Y-111595000D01*
X122667665Y-111595000D01*
X122390426Y-111650147D01*
X122129273Y-111758320D01*
X121894241Y-111915363D01*
X121694363Y-112115241D01*
X121539000Y-112347759D01*
X121383637Y-112115241D01*
X121183759Y-111915363D01*
X120948727Y-111758320D01*
X120687574Y-111650147D01*
X120410335Y-111595000D01*
X120127665Y-111595000D01*
X119850426Y-111650147D01*
X119589273Y-111758320D01*
X119354241Y-111915363D01*
X119155643Y-112113961D01*
X119154812Y-112105518D01*
X119118502Y-111985820D01*
X119059537Y-111875506D01*
X118980185Y-111778815D01*
X118883494Y-111699463D01*
X118773180Y-111640498D01*
X118653482Y-111604188D01*
X118529000Y-111591928D01*
X118014750Y-111595000D01*
X117856000Y-111753750D01*
X117602000Y-111753750D01*
X117443250Y-111595000D01*
X116929000Y-111591928D01*
X116804518Y-111604188D01*
X116684820Y-111640498D01*
X116574506Y-111699463D01*
X116477815Y-111778815D01*
X116398463Y-111875506D01*
X116339498Y-111985820D01*
X116303188Y-112105518D01*
X116290928Y-112230000D01*
X112704414Y-112230000D01*
X112758853Y-112098574D01*
X112814000Y-111821335D01*
X112814000Y-111538665D01*
X112758853Y-111261426D01*
X112650680Y-111000273D01*
X112493637Y-110765241D01*
X112293759Y-110565363D01*
X112058727Y-110408320D01*
X111857575Y-110325000D01*
X131276928Y-110325000D01*
X131276928Y-111925000D01*
X131289188Y-112049482D01*
X131325498Y-112169180D01*
X131384463Y-112279494D01*
X131463815Y-112376185D01*
X131560506Y-112455537D01*
X131670820Y-112514502D01*
X131766943Y-112543661D01*
X131600363Y-112710241D01*
X131443320Y-112945273D01*
X131335147Y-113206426D01*
X131280000Y-113483665D01*
X131280000Y-113766335D01*
X131335147Y-114043574D01*
X131443320Y-114304727D01*
X131600363Y-114539759D01*
X131800241Y-114739637D01*
X132035273Y-114896680D01*
X132296426Y-115004853D01*
X132573665Y-115060000D01*
X132856335Y-115060000D01*
X133133574Y-115004853D01*
X133394727Y-114896680D01*
X133629759Y-114739637D01*
X133829637Y-114539759D01*
X133986680Y-114304727D01*
X134094853Y-114043574D01*
X134150000Y-113766335D01*
X134150000Y-113483665D01*
X134094853Y-113206426D01*
X133986680Y-112945273D01*
X133829637Y-112710241D01*
X133663057Y-112543661D01*
X133759180Y-112514502D01*
X133869494Y-112455537D01*
X133966185Y-112376185D01*
X134045537Y-112279494D01*
X134104502Y-112169180D01*
X134140812Y-112049482D01*
X134153072Y-111925000D01*
X134153072Y-110325000D01*
X134140812Y-110200518D01*
X134104502Y-110080820D01*
X134045537Y-109970506D01*
X133966185Y-109873815D01*
X133869494Y-109794463D01*
X133759180Y-109735498D01*
X133639482Y-109699188D01*
X133515000Y-109686928D01*
X131915000Y-109686928D01*
X131790518Y-109699188D01*
X131670820Y-109735498D01*
X131560506Y-109794463D01*
X131463815Y-109873815D01*
X131384463Y-109970506D01*
X131325498Y-110080820D01*
X131289188Y-110200518D01*
X131276928Y-110325000D01*
X111857575Y-110325000D01*
X111797574Y-110300147D01*
X111520335Y-110245000D01*
X111237665Y-110245000D01*
X110960426Y-110300147D01*
X110699273Y-110408320D01*
X110464241Y-110565363D01*
X110264363Y-110765241D01*
X110107320Y-111000273D01*
X109999147Y-111261426D01*
X109944000Y-111538665D01*
X103731687Y-111538665D01*
X103646147Y-111492943D01*
X103270088Y-111378867D01*
X102976998Y-111350000D01*
X101761002Y-111350000D01*
X101467912Y-111378867D01*
X101091853Y-111492943D01*
X100745275Y-111678193D01*
X100441497Y-111927497D01*
X100192193Y-112231275D01*
X100006943Y-112577853D01*
X99892867Y-112953912D01*
X99854348Y-113345000D01*
X92189466Y-113345000D01*
X92046637Y-113131241D01*
X91846759Y-112931363D01*
X91611727Y-112774320D01*
X91350574Y-112666147D01*
X91073335Y-112611000D01*
X90790665Y-112611000D01*
X90513426Y-112666147D01*
X90252273Y-112774320D01*
X90017241Y-112931363D01*
X89817363Y-113131241D01*
X89660320Y-113366273D01*
X89552147Y-113627426D01*
X89497000Y-113904665D01*
X87655000Y-113904665D01*
X87655000Y-103744665D01*
X89497000Y-103744665D01*
X89497000Y-104027335D01*
X89552147Y-104304574D01*
X89660320Y-104565727D01*
X89817363Y-104800759D01*
X90017241Y-105000637D01*
X90252273Y-105157680D01*
X90513426Y-105265853D01*
X90790665Y-105321000D01*
X91073335Y-105321000D01*
X91350574Y-105265853D01*
X91611727Y-105157680D01*
X91630704Y-105145000D01*
X93330928Y-105145000D01*
X93330928Y-106945000D01*
X93343188Y-107069482D01*
X93379498Y-107189180D01*
X93438463Y-107299494D01*
X93517815Y-107396185D01*
X93614506Y-107475537D01*
X93714303Y-107528880D01*
X93676688Y-107566495D01*
X93508701Y-107817905D01*
X93392989Y-108097257D01*
X93334000Y-108393816D01*
X93334000Y-108696184D01*
X93392989Y-108992743D01*
X93508701Y-109272095D01*
X93676688Y-109523505D01*
X93890495Y-109737312D01*
X93976831Y-109795000D01*
X93890495Y-109852688D01*
X93676688Y-110066495D01*
X93508701Y-110317905D01*
X93392989Y-110597257D01*
X93334000Y-110893816D01*
X93334000Y-111196184D01*
X93392989Y-111492743D01*
X93508701Y-111772095D01*
X93676688Y-112023505D01*
X93890495Y-112237312D01*
X94141905Y-112405299D01*
X94421257Y-112521011D01*
X94717816Y-112580000D01*
X95020184Y-112580000D01*
X95316743Y-112521011D01*
X95596095Y-112405299D01*
X95847505Y-112237312D01*
X96061312Y-112023505D01*
X96229299Y-111772095D01*
X96345011Y-111492743D01*
X96404000Y-111196184D01*
X96404000Y-110893816D01*
X96345011Y-110597257D01*
X96229299Y-110317905D01*
X96061312Y-110066495D01*
X95847505Y-109852688D01*
X95761169Y-109795000D01*
X95847505Y-109737312D01*
X96061312Y-109523505D01*
X96229299Y-109272095D01*
X96345011Y-108992743D01*
X96404000Y-108696184D01*
X96404000Y-108393816D01*
X96345011Y-108097257D01*
X96229299Y-107817905D01*
X96132278Y-107672702D01*
X110565903Y-107672702D01*
X110637486Y-107916671D01*
X110892996Y-108037571D01*
X111167184Y-108106300D01*
X111449512Y-108120217D01*
X111729130Y-108078787D01*
X111995292Y-107983603D01*
X112120514Y-107916671D01*
X112192097Y-107672702D01*
X111379000Y-106859605D01*
X110565903Y-107672702D01*
X96132278Y-107672702D01*
X96061312Y-107566495D01*
X96023697Y-107528880D01*
X96123494Y-107475537D01*
X96220185Y-107396185D01*
X96299537Y-107299494D01*
X96358502Y-107189180D01*
X96394812Y-107069482D01*
X96407072Y-106945000D01*
X96407072Y-106750512D01*
X109938783Y-106750512D01*
X109980213Y-107030130D01*
X110075397Y-107296292D01*
X110142329Y-107421514D01*
X110386298Y-107493097D01*
X111199395Y-106680000D01*
X111558605Y-106680000D01*
X112371702Y-107493097D01*
X112615671Y-107421514D01*
X112736571Y-107166004D01*
X112805300Y-106891816D01*
X112819217Y-106609488D01*
X112777787Y-106329870D01*
X112682603Y-106063708D01*
X112615671Y-105938486D01*
X112371702Y-105866903D01*
X111558605Y-106680000D01*
X111199395Y-106680000D01*
X110386298Y-105866903D01*
X110142329Y-105938486D01*
X110021429Y-106193996D01*
X109952700Y-106468184D01*
X109938783Y-106750512D01*
X96407072Y-106750512D01*
X96407072Y-105145000D01*
X96394812Y-105020518D01*
X96358502Y-104900820D01*
X96299537Y-104790506D01*
X96220185Y-104693815D01*
X96123494Y-104614463D01*
X96013180Y-104555498D01*
X95893482Y-104519188D01*
X95769000Y-104506928D01*
X93969000Y-104506928D01*
X93844518Y-104519188D01*
X93724820Y-104555498D01*
X93614506Y-104614463D01*
X93517815Y-104693815D01*
X93438463Y-104790506D01*
X93379498Y-104900820D01*
X93343188Y-105020518D01*
X93330928Y-105145000D01*
X91630704Y-105145000D01*
X91846759Y-105000637D01*
X92046637Y-104800759D01*
X92203680Y-104565727D01*
X92311853Y-104304574D01*
X92367000Y-104027335D01*
X92367000Y-103745000D01*
X99854348Y-103745000D01*
X99892867Y-104136088D01*
X100006943Y-104512147D01*
X100192193Y-104858725D01*
X100441497Y-105162503D01*
X100745275Y-105411807D01*
X101091853Y-105597057D01*
X101467912Y-105711133D01*
X101761002Y-105740000D01*
X102976998Y-105740000D01*
X103270088Y-105711133D01*
X103348661Y-105687298D01*
X110565903Y-105687298D01*
X111379000Y-106500395D01*
X112192097Y-105687298D01*
X112120514Y-105443329D01*
X111865004Y-105322429D01*
X111650518Y-105268665D01*
X116294000Y-105268665D01*
X116294000Y-105551335D01*
X116349147Y-105828574D01*
X116457320Y-106089727D01*
X116614363Y-106324759D01*
X116814241Y-106524637D01*
X117049273Y-106681680D01*
X117310426Y-106789853D01*
X117587665Y-106845000D01*
X117870335Y-106845000D01*
X118147574Y-106789853D01*
X118408727Y-106681680D01*
X118643759Y-106524637D01*
X118843637Y-106324759D01*
X118999000Y-106092241D01*
X119154363Y-106324759D01*
X119354241Y-106524637D01*
X119589273Y-106681680D01*
X119850426Y-106789853D01*
X120127665Y-106845000D01*
X120410335Y-106845000D01*
X120687574Y-106789853D01*
X120948727Y-106681680D01*
X121183759Y-106524637D01*
X121383637Y-106324759D01*
X121539000Y-106092241D01*
X121694363Y-106324759D01*
X121894241Y-106524637D01*
X122129273Y-106681680D01*
X122390426Y-106789853D01*
X122667665Y-106845000D01*
X122950335Y-106845000D01*
X123227574Y-106789853D01*
X123488727Y-106681680D01*
X123723759Y-106524637D01*
X123923637Y-106324759D01*
X124079000Y-106092241D01*
X124234363Y-106324759D01*
X124434241Y-106524637D01*
X124669273Y-106681680D01*
X124930426Y-106789853D01*
X125207665Y-106845000D01*
X125490335Y-106845000D01*
X125767574Y-106789853D01*
X126028727Y-106681680D01*
X126263759Y-106524637D01*
X126463637Y-106324759D01*
X126620680Y-106089727D01*
X126728853Y-105828574D01*
X126784000Y-105551335D01*
X126784000Y-105268665D01*
X126728853Y-104991426D01*
X126620680Y-104730273D01*
X126463637Y-104495241D01*
X126263759Y-104295363D01*
X126028727Y-104138320D01*
X125767574Y-104030147D01*
X125584547Y-103993740D01*
X129833000Y-103993740D01*
X129833000Y-104286260D01*
X129890068Y-104573158D01*
X130002010Y-104843411D01*
X130164525Y-105086632D01*
X130371368Y-105293475D01*
X130614589Y-105455990D01*
X130884842Y-105567932D01*
X131171740Y-105625000D01*
X131464260Y-105625000D01*
X131751158Y-105567932D01*
X132021411Y-105455990D01*
X132264632Y-105293475D01*
X132396487Y-105161620D01*
X132418498Y-105234180D01*
X132477463Y-105344494D01*
X132556815Y-105441185D01*
X132653506Y-105520537D01*
X132763820Y-105579502D01*
X132883518Y-105615812D01*
X133008000Y-105628072D01*
X133572250Y-105625000D01*
X133731000Y-105466250D01*
X133731000Y-104267000D01*
X133985000Y-104267000D01*
X133985000Y-105466250D01*
X134143750Y-105625000D01*
X134708000Y-105628072D01*
X134832482Y-105615812D01*
X134952180Y-105579502D01*
X135062494Y-105520537D01*
X135159185Y-105441185D01*
X135238537Y-105344494D01*
X135297502Y-105234180D01*
X135333812Y-105114482D01*
X135346072Y-104990000D01*
X135343000Y-104425750D01*
X135184250Y-104267000D01*
X133985000Y-104267000D01*
X133731000Y-104267000D01*
X133711000Y-104267000D01*
X133711000Y-104013000D01*
X133731000Y-104013000D01*
X133731000Y-102813750D01*
X133985000Y-102813750D01*
X133985000Y-104013000D01*
X135184250Y-104013000D01*
X135343000Y-103854250D01*
X135346072Y-103290000D01*
X135333812Y-103165518D01*
X135297502Y-103045820D01*
X135238537Y-102935506D01*
X135159185Y-102838815D01*
X135062494Y-102759463D01*
X134952180Y-102700498D01*
X134832482Y-102664188D01*
X134708000Y-102651928D01*
X134143750Y-102655000D01*
X133985000Y-102813750D01*
X133731000Y-102813750D01*
X133572250Y-102655000D01*
X133008000Y-102651928D01*
X132883518Y-102664188D01*
X132763820Y-102700498D01*
X132653506Y-102759463D01*
X132556815Y-102838815D01*
X132477463Y-102935506D01*
X132418498Y-103045820D01*
X132396487Y-103118380D01*
X132264632Y-102986525D01*
X132021411Y-102824010D01*
X131751158Y-102712068D01*
X131464260Y-102655000D01*
X131171740Y-102655000D01*
X130884842Y-102712068D01*
X130614589Y-102824010D01*
X130371368Y-102986525D01*
X130164525Y-103193368D01*
X130002010Y-103436589D01*
X129890068Y-103706842D01*
X129833000Y-103993740D01*
X125584547Y-103993740D01*
X125490335Y-103975000D01*
X125207665Y-103975000D01*
X124930426Y-104030147D01*
X124669273Y-104138320D01*
X124434241Y-104295363D01*
X124234363Y-104495241D01*
X124079000Y-104727759D01*
X123923637Y-104495241D01*
X123723759Y-104295363D01*
X123488727Y-104138320D01*
X123227574Y-104030147D01*
X122950335Y-103975000D01*
X122667665Y-103975000D01*
X122390426Y-104030147D01*
X122129273Y-104138320D01*
X121894241Y-104295363D01*
X121694363Y-104495241D01*
X121539000Y-104727759D01*
X121383637Y-104495241D01*
X121183759Y-104295363D01*
X120948727Y-104138320D01*
X120687574Y-104030147D01*
X120410335Y-103975000D01*
X120127665Y-103975000D01*
X119850426Y-104030147D01*
X119589273Y-104138320D01*
X119354241Y-104295363D01*
X119154363Y-104495241D01*
X118999000Y-104727759D01*
X118843637Y-104495241D01*
X118643759Y-104295363D01*
X118408727Y-104138320D01*
X118147574Y-104030147D01*
X117870335Y-103975000D01*
X117587665Y-103975000D01*
X117310426Y-104030147D01*
X117049273Y-104138320D01*
X116814241Y-104295363D01*
X116614363Y-104495241D01*
X116457320Y-104730273D01*
X116349147Y-104991426D01*
X116294000Y-105268665D01*
X111650518Y-105268665D01*
X111590816Y-105253700D01*
X111308488Y-105239783D01*
X111028870Y-105281213D01*
X110762708Y-105376397D01*
X110637486Y-105443329D01*
X110565903Y-105687298D01*
X103348661Y-105687298D01*
X103646147Y-105597057D01*
X103992725Y-105411807D01*
X104296503Y-105162503D01*
X104545807Y-104858725D01*
X104731057Y-104512147D01*
X104845133Y-104136088D01*
X104883652Y-103745000D01*
X104845133Y-103353912D01*
X104731057Y-102977853D01*
X104545807Y-102631275D01*
X104296503Y-102327497D01*
X103992725Y-102078193D01*
X103646147Y-101892943D01*
X103270088Y-101778867D01*
X102976998Y-101750000D01*
X101761002Y-101750000D01*
X101467912Y-101778867D01*
X101091853Y-101892943D01*
X100745275Y-102078193D01*
X100441497Y-102327497D01*
X100192193Y-102631275D01*
X100006943Y-102977853D01*
X99892867Y-103353912D01*
X99854348Y-103745000D01*
X92367000Y-103745000D01*
X92367000Y-103744665D01*
X92311853Y-103467426D01*
X92203680Y-103206273D01*
X92046637Y-102971241D01*
X91846759Y-102771363D01*
X91611727Y-102614320D01*
X91350574Y-102506147D01*
X91073335Y-102451000D01*
X90790665Y-102451000D01*
X90513426Y-102506147D01*
X90252273Y-102614320D01*
X90017241Y-102771363D01*
X89817363Y-102971241D01*
X89660320Y-103206273D01*
X89552147Y-103467426D01*
X89497000Y-103744665D01*
X87655000Y-103744665D01*
X87655000Y-100825843D01*
X87668966Y-100896055D01*
X87815254Y-101249224D01*
X88027630Y-101567067D01*
X88297933Y-101837370D01*
X88615776Y-102049746D01*
X88968945Y-102196034D01*
X89343867Y-102270610D01*
X89726133Y-102270610D01*
X90101055Y-102196034D01*
X90454224Y-102049746D01*
X90772067Y-101837370D01*
X91042370Y-101567067D01*
X91254746Y-101249224D01*
X91401034Y-100896055D01*
X91475610Y-100521133D01*
X91475610Y-100138867D01*
X91401034Y-99763945D01*
X91254746Y-99410776D01*
X91042370Y-99092933D01*
X90772067Y-98822630D01*
X90454224Y-98610254D01*
X90101055Y-98463966D01*
X90030843Y-98450000D01*
X116281513Y-98450000D01*
X116275422Y-98457422D01*
G37*
%TD.AperFunction*%
%TD*%
M02*
