M48
; DRILL file {KiCad 5.1.6-c6e7f7d~87~ubuntu18.04.1} date Mon May  3 12:22:14 2021
; FORMAT={-:-/ absolute / inch / decimal}
; #@! TF.CreationDate,2021-05-03T12:22:14+02:00
; #@! TF.GenerationSoftware,Kicad,Pcbnew,5.1.6-c6e7f7d~87~ubuntu18.04.1
; #@! TF.FileFunction,Plated,1,2,PTH
FMAT,2
INCH
T1C0.0315
T2C0.0354
T3C0.0394
T4C0.0433
T5C0.0591
%
G90
G05
T1
X4.385Y-4.2
X4.385Y-4.3969
X4.635Y-5.025
X4.635Y-5.325
X4.735Y-5.025
X4.735Y-5.325
X4.835Y-5.025
X4.835Y-5.325
X4.935Y-5.025
X4.935Y-5.325
X4.635Y-4.15
X4.635Y-4.45
X4.735Y-4.15
X4.735Y-4.45
X4.835Y-4.15
X4.835Y-4.45
X4.935Y-4.15
X4.935Y-4.45
X5.225Y-4.725
X5.225Y-5.125
X3.785Y-4.725
X4.185Y-4.725
X4.385Y-5.0781
X4.385Y-5.275
X3.58Y-4.96
X3.58Y-5.36
X5.225Y-4.375
X5.225Y-4.4734
X3.58Y-4.09
X3.58Y-4.49
T2
X4.7175Y-3.94
X4.7963Y-3.94
X4.875Y-3.94
T3
X3.735Y-5.075
X3.735Y-5.1734
X3.735Y-5.2719
X5.17Y-5.38
X5.27Y-5.38
X5.17Y-4.1
X5.27Y-4.1
X3.735Y-4.175
X3.735Y-4.2734
X3.735Y-4.3719
T5
X4.6348Y-3.94
X4.9577Y-3.94
T4
G00X4.0165Y-4.9844
M15
G01X4.0441Y-4.9844
M16
G05
G00X4.0165Y-5.3624
M15
G01X4.0441Y-5.3624
M16
G05
G00X4.0165Y-4.0844
M15
G01X4.0441Y-4.0844
M16
G05
G00X4.0165Y-4.4624
M15
G01X4.0441Y-4.4624
M16
G05
T0
M30
