%TF.GenerationSoftware,KiCad,Pcbnew,5.1.10-88a1d61d58~88~ubuntu20.04.1*%
%TF.CreationDate,2021-07-14T13:59:44+02:00*%
%TF.ProjectId,atari_punk,61746172-695f-4707-956e-6b2e6b696361,rev?*%
%TF.SameCoordinates,Original*%
%TF.FileFunction,Copper,L1,Top*%
%TF.FilePolarity,Positive*%
%FSLAX46Y46*%
G04 Gerber Fmt 4.6, Leading zero omitted, Abs format (unit mm)*
G04 Created by KiCad (PCBNEW 5.1.10-88a1d61d58~88~ubuntu20.04.1) date 2021-07-14 13:59:44*
%MOMM*%
%LPD*%
G01*
G04 APERTURE LIST*
%TA.AperFunction,ComponentPad*%
%ADD10O,3.740000X2.720000*%
%TD*%
%TA.AperFunction,ComponentPad*%
%ADD11C,1.800000*%
%TD*%
%TA.AperFunction,ComponentPad*%
%ADD12R,1.800000X1.800000*%
%TD*%
%TA.AperFunction,ComponentPad*%
%ADD13O,2.200000X3.500000*%
%TD*%
%TA.AperFunction,ComponentPad*%
%ADD14O,1.500000X2.500000*%
%TD*%
%TA.AperFunction,ComponentPad*%
%ADD15R,1.500000X2.500000*%
%TD*%
%TA.AperFunction,ComponentPad*%
%ADD16O,1.700000X1.700000*%
%TD*%
%TA.AperFunction,ComponentPad*%
%ADD17R,1.700000X1.700000*%
%TD*%
%TA.AperFunction,ComponentPad*%
%ADD18O,1.600000X1.600000*%
%TD*%
%TA.AperFunction,ComponentPad*%
%ADD19C,1.600000*%
%TD*%
%TA.AperFunction,ComponentPad*%
%ADD20R,1.600000X1.600000*%
%TD*%
%TA.AperFunction,Conductor*%
%ADD21C,0.609600*%
%TD*%
%TA.AperFunction,Conductor*%
%ADD22C,0.254000*%
%TD*%
%TA.AperFunction,Conductor*%
%ADD23C,0.100000*%
%TD*%
G04 APERTURE END LIST*
D10*
%TO.P,R4,*%
%TO.N,*%
X102369000Y-126605000D03*
X102369000Y-136205000D03*
D11*
%TO.P,R4,3*%
%TO.N,N/C*%
X94869000Y-133905000D03*
%TO.P,R4,2*%
%TO.N,Net-(R4-Pad2)*%
X94869000Y-131405000D03*
D12*
%TO.P,R4,1*%
%TO.N,+9V*%
X94869000Y-128905000D03*
%TD*%
D10*
%TO.P,R1,*%
%TO.N,*%
X102369000Y-103745000D03*
X102369000Y-113345000D03*
D11*
%TO.P,R1,3*%
%TO.N,N/C*%
X94869000Y-111045000D03*
%TO.P,R1,2*%
%TO.N,Net-(R1-Pad2)*%
X94869000Y-108545000D03*
D12*
%TO.P,R1,1*%
%TO.N,+9V*%
X94869000Y-106045000D03*
%TD*%
D13*
%TO.P,SW1,*%
%TO.N,*%
X117725000Y-100076000D03*
X125925000Y-100076000D03*
D14*
%TO.P,SW1,3*%
%TO.N,+9V*%
X119825000Y-100076000D03*
%TO.P,SW1,2*%
%TO.N,Net-(J1-Pad2)*%
X121825000Y-100076000D03*
D15*
%TO.P,SW1,1*%
%TO.N,Net-(SW1-Pad1)*%
X123825000Y-100076000D03*
%TD*%
D16*
%TO.P,J2,2*%
%TO.N,AUDIO*%
X131318000Y-136652000D03*
D17*
%TO.P,J2,1*%
%TO.N,GND*%
X133858000Y-136652000D03*
%TD*%
D16*
%TO.P,J1,2*%
%TO.N,Net-(J1-Pad2)*%
X131318000Y-104140000D03*
D17*
%TO.P,J1,1*%
%TO.N,GND*%
X133858000Y-104140000D03*
%TD*%
D18*
%TO.P,R6,2*%
%TO.N,Net-(R4-Pad2)*%
X90932000Y-125984000D03*
D19*
%TO.P,R6,1*%
%TO.N,Net-(C3-Pad1)*%
X90932000Y-136144000D03*
%TD*%
D18*
%TO.P,R5,2*%
%TO.N,Net-(R1-Pad2)*%
X90932000Y-103886000D03*
D19*
%TO.P,R5,1*%
%TO.N,Net-(R2-Pad2)*%
X90932000Y-114046000D03*
%TD*%
%TO.P,C1,1*%
%TO.N,GND*%
X111379000Y-106680000D03*
%TO.P,C1,2*%
%TO.N,Net-(C1-Pad2)*%
X111379000Y-111680000D03*
%TD*%
D20*
%TO.P,C2,1*%
%TO.N,Net-(C2-Pad1)*%
X132715000Y-111125000D03*
D19*
%TO.P,C2,2*%
%TO.N,Net-(C2-Pad2)*%
X132715000Y-113625000D03*
%TD*%
%TO.P,C3,2*%
%TO.N,GND*%
X111379000Y-128985000D03*
%TO.P,C3,1*%
%TO.N,Net-(C3-Pad1)*%
X111379000Y-133985000D03*
%TD*%
%TO.P,R2,1*%
%TO.N,Net-(C1-Pad2)*%
X106299000Y-120015000D03*
D18*
%TO.P,R2,2*%
%TO.N,Net-(R2-Pad2)*%
X96139000Y-120015000D03*
%TD*%
%TO.P,R3,2*%
%TO.N,Net-(C2-Pad2)*%
X132715000Y-120015000D03*
D19*
%TO.P,R3,1*%
%TO.N,AUDIO*%
X132715000Y-130175000D03*
%TD*%
D20*
%TO.P,U1,1*%
%TO.N,GND*%
X117729000Y-113030000D03*
D18*
%TO.P,U1,5*%
%TO.N,Net-(U1-Pad5)*%
X125349000Y-105410000D03*
%TO.P,U1,2*%
%TO.N,Net-(C1-Pad2)*%
X120269000Y-113030000D03*
%TO.P,U1,6*%
X122809000Y-105410000D03*
%TO.P,U1,3*%
%TO.N,Net-(U1-Pad3)*%
X122809000Y-113030000D03*
%TO.P,U1,7*%
%TO.N,Net-(R2-Pad2)*%
X120269000Y-105410000D03*
%TO.P,U1,4*%
%TO.N,+9V*%
X125349000Y-113030000D03*
%TO.P,U1,8*%
X117729000Y-105410000D03*
%TD*%
%TO.P,U2,8*%
%TO.N,+9V*%
X117729000Y-127635000D03*
%TO.P,U2,4*%
X125349000Y-135255000D03*
%TO.P,U2,7*%
%TO.N,Net-(C3-Pad1)*%
X120269000Y-127635000D03*
%TO.P,U2,3*%
%TO.N,Net-(C2-Pad1)*%
X122809000Y-135255000D03*
%TO.P,U2,6*%
%TO.N,Net-(C3-Pad1)*%
X122809000Y-127635000D03*
%TO.P,U2,2*%
%TO.N,Net-(U1-Pad3)*%
X120269000Y-135255000D03*
%TO.P,U2,5*%
%TO.N,Net-(U2-Pad5)*%
X125349000Y-127635000D03*
D20*
%TO.P,U2,1*%
%TO.N,GND*%
X117729000Y-135255000D03*
%TD*%
D21*
%TO.N,Net-(C1-Pad2)*%
X111379000Y-114935000D02*
X106299000Y-120015000D01*
X111379000Y-111680000D02*
X111379000Y-114935000D01*
X122809000Y-110490000D02*
X120269000Y-113030000D01*
X122809000Y-105410000D02*
X122809000Y-110490000D01*
X120269000Y-114300000D02*
X120269000Y-113030000D01*
X118999000Y-115570000D02*
X120269000Y-114300000D01*
X112014000Y-115570000D02*
X118999000Y-115570000D01*
X111379000Y-114935000D02*
X112014000Y-115570000D01*
%TO.N,Net-(C2-Pad1)*%
X122809000Y-135191000D02*
X122809000Y-135255000D01*
X130175000Y-129825000D02*
X127000000Y-133000000D01*
X130175000Y-113665000D02*
X130175000Y-129825000D01*
X132715000Y-111125000D02*
X130175000Y-113665000D01*
X122809000Y-135255000D02*
X125064000Y-133000000D01*
X125064000Y-133000000D02*
X127000000Y-133000000D01*
%TO.N,Net-(C2-Pad2)*%
X132715000Y-113625000D02*
X132715000Y-120015000D01*
%TO.N,Net-(C3-Pad1)*%
X120269000Y-127635000D02*
X122809000Y-127635000D01*
X113919000Y-133985000D02*
X111379000Y-133985000D01*
X120269000Y-127635000D02*
X113919000Y-133985000D01*
X99695000Y-133985000D02*
X111379000Y-133985000D01*
X97536000Y-136144000D02*
X99695000Y-133985000D01*
X90932000Y-136144000D02*
X97536000Y-136144000D01*
%TO.N,AUDIO*%
X131445000Y-133350000D02*
X131445000Y-136525000D01*
X132715000Y-132080000D02*
X131445000Y-133350000D01*
X132715000Y-130175000D02*
X132715000Y-132080000D01*
%TO.N,Net-(R1-Pad2)*%
X90932000Y-105880792D02*
X90932000Y-103886000D01*
X93596208Y-108545000D02*
X90932000Y-105880792D01*
X94869000Y-108545000D02*
X93596208Y-108545000D01*
%TO.N,Net-(U1-Pad3)*%
X124714000Y-129540000D02*
X120269000Y-133985000D01*
X127254000Y-128270000D02*
X125984000Y-129540000D01*
X127254000Y-119380000D02*
X127254000Y-128270000D01*
X120269000Y-133985000D02*
X120269000Y-135255000D01*
X122809000Y-114935000D02*
X127254000Y-119380000D01*
X125984000Y-129540000D02*
X124714000Y-129540000D01*
X122809000Y-113030000D02*
X122809000Y-114935000D01*
%TO.N,Net-(R2-Pad2)*%
X117859000Y-103000000D02*
X120269000Y-105410000D01*
X107908381Y-103000000D02*
X117859000Y-103000000D01*
X96139000Y-114769381D02*
X107908381Y-103000000D01*
X96139000Y-120015000D02*
X96139000Y-114769381D01*
X95415619Y-114046000D02*
X96139000Y-114769381D01*
X90932000Y-114046000D02*
X95415619Y-114046000D01*
%TO.N,Net-(R4-Pad2)*%
X90932000Y-128740792D02*
X90932000Y-125984000D01*
X93596208Y-131405000D02*
X90932000Y-128740792D01*
X94869000Y-131405000D02*
X93596208Y-131405000D01*
%TO.N,Net-(J1-Pad2)*%
X123710358Y-102870000D02*
X121825000Y-100984642D01*
X130048000Y-102870000D02*
X123710358Y-102870000D01*
X121825000Y-100984642D02*
X121825000Y-100076000D01*
X131318000Y-104140000D02*
X130048000Y-102870000D01*
%TD*%
D22*
%TO.N,+9V*%
X116275422Y-98457422D02*
X116114315Y-98758832D01*
X116015105Y-99085881D01*
X115990000Y-99340775D01*
X115990000Y-100811224D01*
X116015105Y-101066118D01*
X116114314Y-101393167D01*
X116275421Y-101694577D01*
X116492234Y-101958766D01*
X116615832Y-102060200D01*
X107954537Y-102060200D01*
X107908380Y-102055654D01*
X107862223Y-102060200D01*
X107862214Y-102060200D01*
X107724148Y-102073798D01*
X107546995Y-102127537D01*
X107383730Y-102214804D01*
X107240627Y-102332246D01*
X107211199Y-102368104D01*
X96139000Y-113440305D01*
X96112809Y-113414114D01*
X96083373Y-113378246D01*
X95940270Y-113260804D01*
X95777005Y-113173537D01*
X95599852Y-113119798D01*
X95461786Y-113106200D01*
X95461776Y-113106200D01*
X95415619Y-113101654D01*
X95369462Y-113106200D01*
X92021596Y-113106200D01*
X91846759Y-112931363D01*
X91611727Y-112774320D01*
X91350574Y-112666147D01*
X91073335Y-112611000D01*
X90790665Y-112611000D01*
X90513426Y-112666147D01*
X90252273Y-112774320D01*
X90017241Y-112931363D01*
X89817363Y-113131241D01*
X89660320Y-113366273D01*
X89552147Y-113627426D01*
X89497000Y-113904665D01*
X89497000Y-114187335D01*
X89552147Y-114464574D01*
X89660320Y-114725727D01*
X89817363Y-114960759D01*
X90017241Y-115160637D01*
X90252273Y-115317680D01*
X90513426Y-115425853D01*
X90790665Y-115481000D01*
X91073335Y-115481000D01*
X91350574Y-115425853D01*
X91611727Y-115317680D01*
X91846759Y-115160637D01*
X92021596Y-114985800D01*
X95026342Y-114985800D01*
X95199201Y-115158659D01*
X95199200Y-118925404D01*
X95024363Y-119100241D01*
X94867320Y-119335273D01*
X94759147Y-119596426D01*
X94704000Y-119873665D01*
X94704000Y-120156335D01*
X94759147Y-120433574D01*
X94867320Y-120694727D01*
X95024363Y-120929759D01*
X95224241Y-121129637D01*
X95459273Y-121286680D01*
X95720426Y-121394853D01*
X95997665Y-121450000D01*
X96280335Y-121450000D01*
X96557574Y-121394853D01*
X96818727Y-121286680D01*
X97053759Y-121129637D01*
X97253637Y-120929759D01*
X97410680Y-120694727D01*
X97518853Y-120433574D01*
X97574000Y-120156335D01*
X97574000Y-119873665D01*
X97518853Y-119596426D01*
X97410680Y-119335273D01*
X97253637Y-119100241D01*
X97078800Y-118925404D01*
X97078800Y-115158657D01*
X98892457Y-113345000D01*
X99854348Y-113345000D01*
X99892867Y-113736088D01*
X100006943Y-114112147D01*
X100192193Y-114458725D01*
X100441497Y-114762503D01*
X100745275Y-115011807D01*
X101091853Y-115197057D01*
X101467912Y-115311133D01*
X101761002Y-115340000D01*
X102976998Y-115340000D01*
X103270088Y-115311133D01*
X103646147Y-115197057D01*
X103992725Y-115011807D01*
X104296503Y-114762503D01*
X104545807Y-114458725D01*
X104731057Y-114112147D01*
X104845133Y-113736088D01*
X104883652Y-113345000D01*
X104845133Y-112953912D01*
X104731057Y-112577853D01*
X104545807Y-112231275D01*
X104296503Y-111927497D01*
X103992725Y-111678193D01*
X103646147Y-111492943D01*
X103270088Y-111378867D01*
X102976998Y-111350000D01*
X101761002Y-111350000D01*
X101467912Y-111378867D01*
X101091853Y-111492943D01*
X100745275Y-111678193D01*
X100441497Y-111927497D01*
X100192193Y-112231275D01*
X100006943Y-112577853D01*
X99892867Y-112953912D01*
X99854348Y-113345000D01*
X98892457Y-113345000D01*
X105698793Y-106538665D01*
X109944000Y-106538665D01*
X109944000Y-106821335D01*
X109999147Y-107098574D01*
X110107320Y-107359727D01*
X110264363Y-107594759D01*
X110464241Y-107794637D01*
X110699273Y-107951680D01*
X110960426Y-108059853D01*
X111237665Y-108115000D01*
X111520335Y-108115000D01*
X111797574Y-108059853D01*
X112058727Y-107951680D01*
X112293759Y-107794637D01*
X112493637Y-107594759D01*
X112650680Y-107359727D01*
X112758853Y-107098574D01*
X112814000Y-106821335D01*
X112814000Y-106538665D01*
X112758853Y-106261426D01*
X112650680Y-106000273D01*
X112493637Y-105765241D01*
X112487436Y-105759040D01*
X116337091Y-105759040D01*
X116431930Y-106023881D01*
X116576615Y-106265131D01*
X116765586Y-106473519D01*
X116991580Y-106641037D01*
X117245913Y-106761246D01*
X117379961Y-106801904D01*
X117602000Y-106679915D01*
X117602000Y-105537000D01*
X116458376Y-105537000D01*
X116337091Y-105759040D01*
X112487436Y-105759040D01*
X112293759Y-105565363D01*
X112058727Y-105408320D01*
X111797574Y-105300147D01*
X111520335Y-105245000D01*
X111237665Y-105245000D01*
X110960426Y-105300147D01*
X110699273Y-105408320D01*
X110464241Y-105565363D01*
X110264363Y-105765241D01*
X110107320Y-106000273D01*
X109999147Y-106261426D01*
X109944000Y-106538665D01*
X105698793Y-106538665D01*
X108297659Y-103939800D01*
X117469724Y-103939800D01*
X117601998Y-104072074D01*
X117601998Y-104140084D01*
X117379961Y-104018096D01*
X117245913Y-104058754D01*
X116991580Y-104178963D01*
X116765586Y-104346481D01*
X116576615Y-104554869D01*
X116431930Y-104796119D01*
X116337091Y-105060960D01*
X116458376Y-105283000D01*
X117602000Y-105283000D01*
X117602000Y-105263000D01*
X117856000Y-105263000D01*
X117856000Y-105283000D01*
X117876000Y-105283000D01*
X117876000Y-105537000D01*
X117856000Y-105537000D01*
X117856000Y-106679915D01*
X118078039Y-106801904D01*
X118212087Y-106761246D01*
X118466420Y-106641037D01*
X118692414Y-106473519D01*
X118881385Y-106265131D01*
X118992933Y-106079135D01*
X118997320Y-106089727D01*
X119154363Y-106324759D01*
X119354241Y-106524637D01*
X119589273Y-106681680D01*
X119850426Y-106789853D01*
X120127665Y-106845000D01*
X120410335Y-106845000D01*
X120687574Y-106789853D01*
X120948727Y-106681680D01*
X121183759Y-106524637D01*
X121383637Y-106324759D01*
X121539000Y-106092241D01*
X121694363Y-106324759D01*
X121869200Y-106499596D01*
X121869201Y-110100721D01*
X120374923Y-111595000D01*
X120127665Y-111595000D01*
X119850426Y-111650147D01*
X119589273Y-111758320D01*
X119354241Y-111915363D01*
X119155643Y-112113961D01*
X119154812Y-112105518D01*
X119118502Y-111985820D01*
X119059537Y-111875506D01*
X118980185Y-111778815D01*
X118883494Y-111699463D01*
X118773180Y-111640498D01*
X118653482Y-111604188D01*
X118529000Y-111591928D01*
X116929000Y-111591928D01*
X116804518Y-111604188D01*
X116684820Y-111640498D01*
X116574506Y-111699463D01*
X116477815Y-111778815D01*
X116398463Y-111875506D01*
X116339498Y-111985820D01*
X116303188Y-112105518D01*
X116290928Y-112230000D01*
X116290928Y-113830000D01*
X116303188Y-113954482D01*
X116339498Y-114074180D01*
X116398463Y-114184494D01*
X116477815Y-114281185D01*
X116574506Y-114360537D01*
X116684820Y-114419502D01*
X116804518Y-114455812D01*
X116929000Y-114468072D01*
X118529000Y-114468072D01*
X118653482Y-114455812D01*
X118773180Y-114419502D01*
X118874669Y-114365254D01*
X118609724Y-114630200D01*
X112403277Y-114630200D01*
X112318800Y-114545723D01*
X112318800Y-112769596D01*
X112493637Y-112594759D01*
X112650680Y-112359727D01*
X112758853Y-112098574D01*
X112814000Y-111821335D01*
X112814000Y-111538665D01*
X112758853Y-111261426D01*
X112650680Y-111000273D01*
X112493637Y-110765241D01*
X112293759Y-110565363D01*
X112058727Y-110408320D01*
X111797574Y-110300147D01*
X111520335Y-110245000D01*
X111237665Y-110245000D01*
X110960426Y-110300147D01*
X110699273Y-110408320D01*
X110464241Y-110565363D01*
X110264363Y-110765241D01*
X110107320Y-111000273D01*
X109999147Y-111261426D01*
X109944000Y-111538665D01*
X109944000Y-111821335D01*
X109999147Y-112098574D01*
X110107320Y-112359727D01*
X110264363Y-112594759D01*
X110439200Y-112769596D01*
X110439201Y-114545721D01*
X106404924Y-118580000D01*
X106157665Y-118580000D01*
X105880426Y-118635147D01*
X105619273Y-118743320D01*
X105384241Y-118900363D01*
X105184363Y-119100241D01*
X105027320Y-119335273D01*
X104919147Y-119596426D01*
X104864000Y-119873665D01*
X104864000Y-120156335D01*
X104919147Y-120433574D01*
X105027320Y-120694727D01*
X105184363Y-120929759D01*
X105384241Y-121129637D01*
X105619273Y-121286680D01*
X105880426Y-121394853D01*
X106157665Y-121450000D01*
X106440335Y-121450000D01*
X106717574Y-121394853D01*
X106978727Y-121286680D01*
X107213759Y-121129637D01*
X107413637Y-120929759D01*
X107570680Y-120694727D01*
X107678853Y-120433574D01*
X107734000Y-120156335D01*
X107734000Y-119909076D01*
X111378694Y-116264384D01*
X111382104Y-116267182D01*
X111382106Y-116267184D01*
X111489348Y-116355196D01*
X111652612Y-116442462D01*
X111652614Y-116442463D01*
X111829767Y-116496202D01*
X111967833Y-116509800D01*
X111967835Y-116509800D01*
X112014000Y-116514347D01*
X112060165Y-116509800D01*
X118952843Y-116509800D01*
X118999000Y-116514346D01*
X119045157Y-116509800D01*
X119045167Y-116509800D01*
X119183233Y-116496202D01*
X119360386Y-116442463D01*
X119523651Y-116355196D01*
X119666754Y-116237754D01*
X119696191Y-116201885D01*
X120900895Y-114997182D01*
X120936754Y-114967754D01*
X121054196Y-114824651D01*
X121141463Y-114661386D01*
X121195202Y-114484233D01*
X121208800Y-114346167D01*
X121208800Y-114346158D01*
X121213346Y-114300001D01*
X121208800Y-114253844D01*
X121208800Y-114119596D01*
X121383637Y-113944759D01*
X121539000Y-113712241D01*
X121694363Y-113944759D01*
X121869201Y-114119597D01*
X121869201Y-114888833D01*
X121864654Y-114935000D01*
X121882799Y-115119233D01*
X121936538Y-115296386D01*
X122023804Y-115459651D01*
X122083959Y-115532948D01*
X122141247Y-115602754D01*
X122177110Y-115632186D01*
X126314200Y-119769278D01*
X126314201Y-126570805D01*
X126263759Y-126520363D01*
X126028727Y-126363320D01*
X125767574Y-126255147D01*
X125490335Y-126200000D01*
X125207665Y-126200000D01*
X124930426Y-126255147D01*
X124669273Y-126363320D01*
X124434241Y-126520363D01*
X124234363Y-126720241D01*
X124079000Y-126952759D01*
X123923637Y-126720241D01*
X123723759Y-126520363D01*
X123488727Y-126363320D01*
X123227574Y-126255147D01*
X122950335Y-126200000D01*
X122667665Y-126200000D01*
X122390426Y-126255147D01*
X122129273Y-126363320D01*
X121894241Y-126520363D01*
X121719404Y-126695200D01*
X121358596Y-126695200D01*
X121183759Y-126520363D01*
X120948727Y-126363320D01*
X120687574Y-126255147D01*
X120410335Y-126200000D01*
X120127665Y-126200000D01*
X119850426Y-126255147D01*
X119589273Y-126363320D01*
X119354241Y-126520363D01*
X119154363Y-126720241D01*
X118997320Y-126955273D01*
X118992933Y-126965865D01*
X118881385Y-126779869D01*
X118692414Y-126571481D01*
X118466420Y-126403963D01*
X118212087Y-126283754D01*
X118078039Y-126243096D01*
X117856000Y-126365085D01*
X117856000Y-127508000D01*
X117876000Y-127508000D01*
X117876000Y-127762000D01*
X117856000Y-127762000D01*
X117856000Y-127782000D01*
X117602000Y-127782000D01*
X117602000Y-127762000D01*
X116458376Y-127762000D01*
X116337091Y-127984040D01*
X116431930Y-128248881D01*
X116576615Y-128490131D01*
X116765586Y-128698519D01*
X116991580Y-128866037D01*
X117245913Y-128986246D01*
X117379961Y-129026904D01*
X117601998Y-128904916D01*
X117601998Y-128972925D01*
X113529724Y-133045200D01*
X112468596Y-133045200D01*
X112293759Y-132870363D01*
X112058727Y-132713320D01*
X111797574Y-132605147D01*
X111520335Y-132550000D01*
X111237665Y-132550000D01*
X110960426Y-132605147D01*
X110699273Y-132713320D01*
X110464241Y-132870363D01*
X110289404Y-133045200D01*
X99741156Y-133045200D01*
X99694999Y-133040654D01*
X99648842Y-133045200D01*
X99648833Y-133045200D01*
X99510767Y-133058798D01*
X99333614Y-133112537D01*
X99257615Y-133153159D01*
X99170348Y-133199804D01*
X99063105Y-133287817D01*
X99027246Y-133317246D01*
X98997818Y-133353104D01*
X97146724Y-135204200D01*
X95687536Y-135204200D01*
X95847505Y-135097312D01*
X96061312Y-134883505D01*
X96229299Y-134632095D01*
X96345011Y-134352743D01*
X96404000Y-134056184D01*
X96404000Y-133753816D01*
X96345011Y-133457257D01*
X96229299Y-133177905D01*
X96061312Y-132926495D01*
X95847505Y-132712688D01*
X95761169Y-132655000D01*
X95847505Y-132597312D01*
X96061312Y-132383505D01*
X96229299Y-132132095D01*
X96345011Y-131852743D01*
X96404000Y-131556184D01*
X96404000Y-131253816D01*
X96345011Y-130957257D01*
X96229299Y-130677905D01*
X96061312Y-130426495D01*
X96023697Y-130388880D01*
X96123494Y-130335537D01*
X96220185Y-130256185D01*
X96299537Y-130159494D01*
X96358502Y-130049180D01*
X96394812Y-129929482D01*
X96407072Y-129805000D01*
X96404000Y-129190750D01*
X96245250Y-129032000D01*
X94996000Y-129032000D01*
X94996000Y-129052000D01*
X94742000Y-129052000D01*
X94742000Y-129032000D01*
X93492750Y-129032000D01*
X93334000Y-129190750D01*
X93330928Y-129805000D01*
X93331544Y-129811259D01*
X92363950Y-128843665D01*
X109944000Y-128843665D01*
X109944000Y-129126335D01*
X109999147Y-129403574D01*
X110107320Y-129664727D01*
X110264363Y-129899759D01*
X110464241Y-130099637D01*
X110699273Y-130256680D01*
X110960426Y-130364853D01*
X111237665Y-130420000D01*
X111520335Y-130420000D01*
X111797574Y-130364853D01*
X112058727Y-130256680D01*
X112293759Y-130099637D01*
X112493637Y-129899759D01*
X112650680Y-129664727D01*
X112758853Y-129403574D01*
X112814000Y-129126335D01*
X112814000Y-128843665D01*
X112758853Y-128566426D01*
X112650680Y-128305273D01*
X112493637Y-128070241D01*
X112293759Y-127870363D01*
X112058727Y-127713320D01*
X111797574Y-127605147D01*
X111520335Y-127550000D01*
X111237665Y-127550000D01*
X110960426Y-127605147D01*
X110699273Y-127713320D01*
X110464241Y-127870363D01*
X110264363Y-128070241D01*
X110107320Y-128305273D01*
X109999147Y-128566426D01*
X109944000Y-128843665D01*
X92363950Y-128843665D01*
X91871800Y-128351516D01*
X91871800Y-128005000D01*
X93330928Y-128005000D01*
X93334000Y-128619250D01*
X93492750Y-128778000D01*
X94742000Y-128778000D01*
X94742000Y-127528750D01*
X94996000Y-127528750D01*
X94996000Y-128778000D01*
X96245250Y-128778000D01*
X96404000Y-128619250D01*
X96407072Y-128005000D01*
X96394812Y-127880518D01*
X96358502Y-127760820D01*
X96299537Y-127650506D01*
X96220185Y-127553815D01*
X96123494Y-127474463D01*
X96013180Y-127415498D01*
X95893482Y-127379188D01*
X95769000Y-127366928D01*
X95154750Y-127370000D01*
X94996000Y-127528750D01*
X94742000Y-127528750D01*
X94583250Y-127370000D01*
X93969000Y-127366928D01*
X93844518Y-127379188D01*
X93724820Y-127415498D01*
X93614506Y-127474463D01*
X93517815Y-127553815D01*
X93438463Y-127650506D01*
X93379498Y-127760820D01*
X93343188Y-127880518D01*
X93330928Y-128005000D01*
X91871800Y-128005000D01*
X91871800Y-127073596D01*
X92046637Y-126898759D01*
X92203680Y-126663727D01*
X92228005Y-126605000D01*
X99854348Y-126605000D01*
X99892867Y-126996088D01*
X100006943Y-127372147D01*
X100192193Y-127718725D01*
X100441497Y-128022503D01*
X100745275Y-128271807D01*
X101091853Y-128457057D01*
X101467912Y-128571133D01*
X101761002Y-128600000D01*
X102976998Y-128600000D01*
X103270088Y-128571133D01*
X103646147Y-128457057D01*
X103992725Y-128271807D01*
X104296503Y-128022503D01*
X104545807Y-127718725D01*
X104731057Y-127372147D01*
X104757201Y-127285960D01*
X116337091Y-127285960D01*
X116458376Y-127508000D01*
X117602000Y-127508000D01*
X117602000Y-126365085D01*
X117379961Y-126243096D01*
X117245913Y-126283754D01*
X116991580Y-126403963D01*
X116765586Y-126571481D01*
X116576615Y-126779869D01*
X116431930Y-127021119D01*
X116337091Y-127285960D01*
X104757201Y-127285960D01*
X104845133Y-126996088D01*
X104883652Y-126605000D01*
X104845133Y-126213912D01*
X104731057Y-125837853D01*
X104545807Y-125491275D01*
X104296503Y-125187497D01*
X103992725Y-124938193D01*
X103646147Y-124752943D01*
X103270088Y-124638867D01*
X102976998Y-124610000D01*
X101761002Y-124610000D01*
X101467912Y-124638867D01*
X101091853Y-124752943D01*
X100745275Y-124938193D01*
X100441497Y-125187497D01*
X100192193Y-125491275D01*
X100006943Y-125837853D01*
X99892867Y-126213912D01*
X99854348Y-126605000D01*
X92228005Y-126605000D01*
X92311853Y-126402574D01*
X92367000Y-126125335D01*
X92367000Y-125842665D01*
X92311853Y-125565426D01*
X92203680Y-125304273D01*
X92046637Y-125069241D01*
X91846759Y-124869363D01*
X91611727Y-124712320D01*
X91350574Y-124604147D01*
X91073335Y-124549000D01*
X90790665Y-124549000D01*
X90513426Y-124604147D01*
X90252273Y-124712320D01*
X90017241Y-124869363D01*
X89817363Y-125069241D01*
X89660320Y-125304273D01*
X89552147Y-125565426D01*
X89497000Y-125842665D01*
X89497000Y-126125335D01*
X89552147Y-126402574D01*
X89660320Y-126663727D01*
X89817363Y-126898759D01*
X89992201Y-127073597D01*
X89992200Y-128694634D01*
X89987654Y-128740792D01*
X89992200Y-128786949D01*
X89992200Y-128786958D01*
X90005798Y-128925024D01*
X90059537Y-129102177D01*
X90146804Y-129265443D01*
X90264246Y-129408546D01*
X90300115Y-129437983D01*
X92899026Y-132036896D01*
X92928454Y-132072754D01*
X92964312Y-132102182D01*
X92964313Y-132102183D01*
X93071556Y-132190196D01*
X93117595Y-132214804D01*
X93234822Y-132277463D01*
X93411975Y-132331202D01*
X93550041Y-132344800D01*
X93550050Y-132344800D01*
X93596207Y-132349346D01*
X93642364Y-132344800D01*
X93650826Y-132344800D01*
X93676688Y-132383505D01*
X93890495Y-132597312D01*
X93976831Y-132655000D01*
X93890495Y-132712688D01*
X93676688Y-132926495D01*
X93508701Y-133177905D01*
X93392989Y-133457257D01*
X93334000Y-133753816D01*
X93334000Y-134056184D01*
X93392989Y-134352743D01*
X93508701Y-134632095D01*
X93676688Y-134883505D01*
X93890495Y-135097312D01*
X94050464Y-135204200D01*
X92021596Y-135204200D01*
X91846759Y-135029363D01*
X91611727Y-134872320D01*
X91350574Y-134764147D01*
X91073335Y-134709000D01*
X90790665Y-134709000D01*
X90513426Y-134764147D01*
X90252273Y-134872320D01*
X90017241Y-135029363D01*
X89817363Y-135229241D01*
X89660320Y-135464273D01*
X89552147Y-135725426D01*
X89497000Y-136002665D01*
X89497000Y-136285335D01*
X89552147Y-136562574D01*
X89660320Y-136823727D01*
X89817363Y-137058759D01*
X90017241Y-137258637D01*
X90252273Y-137415680D01*
X90513426Y-137523853D01*
X90790665Y-137579000D01*
X91073335Y-137579000D01*
X91350574Y-137523853D01*
X91611727Y-137415680D01*
X91846759Y-137258637D01*
X92021596Y-137083800D01*
X97489843Y-137083800D01*
X97536000Y-137088346D01*
X97582157Y-137083800D01*
X97582167Y-137083800D01*
X97720233Y-137070202D01*
X97897386Y-137016463D01*
X98060651Y-136929196D01*
X98203754Y-136811754D01*
X98233191Y-136775885D01*
X100084278Y-134924800D01*
X100328815Y-134924800D01*
X100192193Y-135091275D01*
X100006943Y-135437853D01*
X99892867Y-135813912D01*
X99854348Y-136205000D01*
X99892867Y-136596088D01*
X100006943Y-136972147D01*
X100192193Y-137318725D01*
X100441497Y-137622503D01*
X100745275Y-137871807D01*
X101091853Y-138057057D01*
X101467912Y-138171133D01*
X101761002Y-138200000D01*
X102976998Y-138200000D01*
X103270088Y-138171133D01*
X103646147Y-138057057D01*
X103992725Y-137871807D01*
X104296503Y-137622503D01*
X104545807Y-137318725D01*
X104731057Y-136972147D01*
X104845133Y-136596088D01*
X104883652Y-136205000D01*
X104845133Y-135813912D01*
X104731057Y-135437853D01*
X104545807Y-135091275D01*
X104409185Y-134924800D01*
X110289404Y-134924800D01*
X110464241Y-135099637D01*
X110699273Y-135256680D01*
X110960426Y-135364853D01*
X111237665Y-135420000D01*
X111520335Y-135420000D01*
X111797574Y-135364853D01*
X112058727Y-135256680D01*
X112293759Y-135099637D01*
X112468596Y-134924800D01*
X113872843Y-134924800D01*
X113919000Y-134929346D01*
X113965157Y-134924800D01*
X113965167Y-134924800D01*
X114103233Y-134911202D01*
X114280386Y-134857463D01*
X114443651Y-134770196D01*
X114586754Y-134652754D01*
X114616191Y-134616885D01*
X120163078Y-129070000D01*
X120410335Y-129070000D01*
X120687574Y-129014853D01*
X120948727Y-128906680D01*
X121183759Y-128749637D01*
X121358596Y-128574800D01*
X121719404Y-128574800D01*
X121894241Y-128749637D01*
X122129273Y-128906680D01*
X122390426Y-129014853D01*
X122667665Y-129070000D01*
X122950335Y-129070000D01*
X123227574Y-129014853D01*
X123488727Y-128906680D01*
X123723759Y-128749637D01*
X123923637Y-128549759D01*
X124079000Y-128317241D01*
X124234363Y-128549759D01*
X124352306Y-128667702D01*
X124189349Y-128754804D01*
X124046246Y-128872246D01*
X124016818Y-128908104D01*
X119637115Y-133287809D01*
X119601246Y-133317246D01*
X119483804Y-133460349D01*
X119396537Y-133623615D01*
X119342798Y-133800768D01*
X119329200Y-133938834D01*
X119329200Y-133938843D01*
X119324654Y-133985000D01*
X119329200Y-134031158D01*
X119329200Y-134165404D01*
X119155643Y-134338961D01*
X119154812Y-134330518D01*
X119118502Y-134210820D01*
X119059537Y-134100506D01*
X118980185Y-134003815D01*
X118883494Y-133924463D01*
X118773180Y-133865498D01*
X118653482Y-133829188D01*
X118529000Y-133816928D01*
X116929000Y-133816928D01*
X116804518Y-133829188D01*
X116684820Y-133865498D01*
X116574506Y-133924463D01*
X116477815Y-134003815D01*
X116398463Y-134100506D01*
X116339498Y-134210820D01*
X116303188Y-134330518D01*
X116290928Y-134455000D01*
X116290928Y-136055000D01*
X116303188Y-136179482D01*
X116339498Y-136299180D01*
X116398463Y-136409494D01*
X116477815Y-136506185D01*
X116574506Y-136585537D01*
X116684820Y-136644502D01*
X116804518Y-136680812D01*
X116929000Y-136693072D01*
X118529000Y-136693072D01*
X118653482Y-136680812D01*
X118773180Y-136644502D01*
X118883494Y-136585537D01*
X118980185Y-136506185D01*
X119059537Y-136409494D01*
X119118502Y-136299180D01*
X119154812Y-136179482D01*
X119155643Y-136171039D01*
X119354241Y-136369637D01*
X119589273Y-136526680D01*
X119850426Y-136634853D01*
X120127665Y-136690000D01*
X120410335Y-136690000D01*
X120687574Y-136634853D01*
X120948727Y-136526680D01*
X121183759Y-136369637D01*
X121383637Y-136169759D01*
X121539000Y-135937241D01*
X121694363Y-136169759D01*
X121894241Y-136369637D01*
X122129273Y-136526680D01*
X122390426Y-136634853D01*
X122667665Y-136690000D01*
X122950335Y-136690000D01*
X123227574Y-136634853D01*
X123488727Y-136526680D01*
X123723759Y-136369637D01*
X123923637Y-136169759D01*
X124080680Y-135934727D01*
X124085067Y-135924135D01*
X124196615Y-136110131D01*
X124385586Y-136318519D01*
X124611580Y-136486037D01*
X124865913Y-136606246D01*
X124999961Y-136646904D01*
X125222000Y-136524915D01*
X125222000Y-135382000D01*
X125476000Y-135382000D01*
X125476000Y-136524915D01*
X125698039Y-136646904D01*
X125832087Y-136606246D01*
X126044733Y-136505740D01*
X129833000Y-136505740D01*
X129833000Y-136798260D01*
X129890068Y-137085158D01*
X130002010Y-137355411D01*
X130164525Y-137598632D01*
X130371368Y-137805475D01*
X130614589Y-137967990D01*
X130884842Y-138079932D01*
X131171740Y-138137000D01*
X131464260Y-138137000D01*
X131751158Y-138079932D01*
X132021411Y-137967990D01*
X132264632Y-137805475D01*
X132396487Y-137673620D01*
X132418498Y-137746180D01*
X132477463Y-137856494D01*
X132556815Y-137953185D01*
X132653506Y-138032537D01*
X132763820Y-138091502D01*
X132883518Y-138127812D01*
X133008000Y-138140072D01*
X134708000Y-138140072D01*
X134832482Y-138127812D01*
X134952180Y-138091502D01*
X135062494Y-138032537D01*
X135159185Y-137953185D01*
X135238537Y-137856494D01*
X135297502Y-137746180D01*
X135333812Y-137626482D01*
X135346072Y-137502000D01*
X135346072Y-135802000D01*
X135333812Y-135677518D01*
X135297502Y-135557820D01*
X135238537Y-135447506D01*
X135159185Y-135350815D01*
X135062494Y-135271463D01*
X134952180Y-135212498D01*
X134832482Y-135176188D01*
X134708000Y-135163928D01*
X133008000Y-135163928D01*
X132883518Y-135176188D01*
X132763820Y-135212498D01*
X132653506Y-135271463D01*
X132556815Y-135350815D01*
X132477463Y-135447506D01*
X132418498Y-135557820D01*
X132396487Y-135630380D01*
X132384800Y-135618693D01*
X132384800Y-133739276D01*
X133346895Y-132777182D01*
X133382754Y-132747754D01*
X133500196Y-132604651D01*
X133587463Y-132441386D01*
X133641202Y-132264233D01*
X133654800Y-132126167D01*
X133654800Y-132126158D01*
X133659346Y-132080001D01*
X133654800Y-132033844D01*
X133654800Y-131264596D01*
X133829637Y-131089759D01*
X133986680Y-130854727D01*
X134094853Y-130593574D01*
X134150000Y-130316335D01*
X134150000Y-130033665D01*
X134094853Y-129756426D01*
X133986680Y-129495273D01*
X133829637Y-129260241D01*
X133629759Y-129060363D01*
X133394727Y-128903320D01*
X133133574Y-128795147D01*
X132856335Y-128740000D01*
X132573665Y-128740000D01*
X132296426Y-128795147D01*
X132035273Y-128903320D01*
X131800241Y-129060363D01*
X131600363Y-129260241D01*
X131443320Y-129495273D01*
X131335147Y-129756426D01*
X131280000Y-130033665D01*
X131280000Y-130316335D01*
X131335147Y-130593574D01*
X131443320Y-130854727D01*
X131600363Y-131089759D01*
X131775201Y-131264597D01*
X131775201Y-131690722D01*
X130813115Y-132652809D01*
X130777246Y-132682246D01*
X130659804Y-132825349D01*
X130572537Y-132988615D01*
X130518798Y-133165768D01*
X130505200Y-133303834D01*
X130505200Y-133303843D01*
X130500654Y-133350000D01*
X130505200Y-133396158D01*
X130505201Y-135409101D01*
X130371368Y-135498525D01*
X130164525Y-135705368D01*
X130002010Y-135948589D01*
X129890068Y-136218842D01*
X129833000Y-136505740D01*
X126044733Y-136505740D01*
X126086420Y-136486037D01*
X126312414Y-136318519D01*
X126501385Y-136110131D01*
X126646070Y-135868881D01*
X126740909Y-135604040D01*
X126619624Y-135382000D01*
X125476000Y-135382000D01*
X125222000Y-135382000D01*
X125202000Y-135382000D01*
X125202000Y-135128000D01*
X125222000Y-135128000D01*
X125222000Y-135108000D01*
X125476000Y-135108000D01*
X125476000Y-135128000D01*
X126619624Y-135128000D01*
X126740909Y-134905960D01*
X126646070Y-134641119D01*
X126501385Y-134399869D01*
X126312414Y-134191481D01*
X126086420Y-134023963D01*
X125908352Y-133939800D01*
X126953843Y-133939800D01*
X127000000Y-133944346D01*
X127046157Y-133939800D01*
X127046167Y-133939800D01*
X127184233Y-133926202D01*
X127361386Y-133872463D01*
X127524651Y-133785196D01*
X127667754Y-133667754D01*
X127697191Y-133631885D01*
X130806890Y-130522187D01*
X130842754Y-130492754D01*
X130923388Y-130394502D01*
X130960196Y-130349652D01*
X131033404Y-130212688D01*
X131047463Y-130186386D01*
X131101202Y-130009233D01*
X131114800Y-129871167D01*
X131114800Y-129871158D01*
X131119346Y-129825001D01*
X131114800Y-129778844D01*
X131114800Y-114054276D01*
X131300364Y-113868712D01*
X131335147Y-114043574D01*
X131443320Y-114304727D01*
X131600363Y-114539759D01*
X131775200Y-114714596D01*
X131775201Y-118925403D01*
X131600363Y-119100241D01*
X131443320Y-119335273D01*
X131335147Y-119596426D01*
X131280000Y-119873665D01*
X131280000Y-120156335D01*
X131335147Y-120433574D01*
X131443320Y-120694727D01*
X131600363Y-120929759D01*
X131800241Y-121129637D01*
X132035273Y-121286680D01*
X132296426Y-121394853D01*
X132573665Y-121450000D01*
X132856335Y-121450000D01*
X133133574Y-121394853D01*
X133394727Y-121286680D01*
X133629759Y-121129637D01*
X133829637Y-120929759D01*
X133986680Y-120694727D01*
X134094853Y-120433574D01*
X134150000Y-120156335D01*
X134150000Y-119873665D01*
X134094853Y-119596426D01*
X133986680Y-119335273D01*
X133829637Y-119100241D01*
X133654800Y-118925404D01*
X133654800Y-114714596D01*
X133829637Y-114539759D01*
X133986680Y-114304727D01*
X134094853Y-114043574D01*
X134150000Y-113766335D01*
X134150000Y-113483665D01*
X134094853Y-113206426D01*
X133986680Y-112945273D01*
X133829637Y-112710241D01*
X133663057Y-112543661D01*
X133759180Y-112514502D01*
X133869494Y-112455537D01*
X133966185Y-112376185D01*
X134045537Y-112279494D01*
X134104502Y-112169180D01*
X134140812Y-112049482D01*
X134153072Y-111925000D01*
X134153072Y-110325000D01*
X134140812Y-110200518D01*
X134104502Y-110080820D01*
X134045537Y-109970506D01*
X133966185Y-109873815D01*
X133869494Y-109794463D01*
X133759180Y-109735498D01*
X133639482Y-109699188D01*
X133515000Y-109686928D01*
X131915000Y-109686928D01*
X131790518Y-109699188D01*
X131670820Y-109735498D01*
X131560506Y-109794463D01*
X131463815Y-109873815D01*
X131384463Y-109970506D01*
X131325498Y-110080820D01*
X131289188Y-110200518D01*
X131276928Y-110325000D01*
X131276928Y-111233995D01*
X129543115Y-112967809D01*
X129507246Y-112997246D01*
X129389804Y-113140349D01*
X129302537Y-113303615D01*
X129248798Y-113480768D01*
X129235200Y-113618834D01*
X129235200Y-113618843D01*
X129230654Y-113665000D01*
X129235200Y-113711157D01*
X129235201Y-129435722D01*
X126610724Y-132060200D01*
X125110165Y-132060200D01*
X125064000Y-132055653D01*
X125017835Y-132060200D01*
X125017833Y-132060200D01*
X124879767Y-132073798D01*
X124707130Y-132126167D01*
X124702614Y-132127537D01*
X124539348Y-132214804D01*
X124432106Y-132302816D01*
X124396246Y-132332246D01*
X124366818Y-132368104D01*
X122914923Y-133820000D01*
X122667665Y-133820000D01*
X122390426Y-133875147D01*
X122129273Y-133983320D01*
X121894241Y-134140363D01*
X121694363Y-134340241D01*
X121539000Y-134572759D01*
X121383637Y-134340241D01*
X121313236Y-134269840D01*
X125103278Y-130479800D01*
X125937843Y-130479800D01*
X125984000Y-130484346D01*
X126030157Y-130479800D01*
X126030167Y-130479800D01*
X126168233Y-130466202D01*
X126345386Y-130412463D01*
X126508651Y-130325196D01*
X126651754Y-130207754D01*
X126681191Y-130171885D01*
X127885895Y-128967182D01*
X127921754Y-128937754D01*
X128039196Y-128794651D01*
X128126463Y-128631386D01*
X128180202Y-128454233D01*
X128193800Y-128316167D01*
X128193800Y-128316158D01*
X128198346Y-128270001D01*
X128193800Y-128223844D01*
X128193800Y-119426156D01*
X128198346Y-119379999D01*
X128193800Y-119333842D01*
X128193800Y-119333833D01*
X128180202Y-119195767D01*
X128126463Y-119018614D01*
X128039196Y-118855349D01*
X127921754Y-118712246D01*
X127885896Y-118682818D01*
X123748800Y-114545724D01*
X123748800Y-114119596D01*
X123923637Y-113944759D01*
X124080680Y-113709727D01*
X124085067Y-113699135D01*
X124196615Y-113885131D01*
X124385586Y-114093519D01*
X124611580Y-114261037D01*
X124865913Y-114381246D01*
X124999961Y-114421904D01*
X125222000Y-114299915D01*
X125222000Y-113157000D01*
X125476000Y-113157000D01*
X125476000Y-114299915D01*
X125698039Y-114421904D01*
X125832087Y-114381246D01*
X126086420Y-114261037D01*
X126312414Y-114093519D01*
X126501385Y-113885131D01*
X126646070Y-113643881D01*
X126740909Y-113379040D01*
X126619624Y-113157000D01*
X125476000Y-113157000D01*
X125222000Y-113157000D01*
X125202000Y-113157000D01*
X125202000Y-112903000D01*
X125222000Y-112903000D01*
X125222000Y-111760085D01*
X125476000Y-111760085D01*
X125476000Y-112903000D01*
X126619624Y-112903000D01*
X126740909Y-112680960D01*
X126646070Y-112416119D01*
X126501385Y-112174869D01*
X126312414Y-111966481D01*
X126086420Y-111798963D01*
X125832087Y-111678754D01*
X125698039Y-111638096D01*
X125476000Y-111760085D01*
X125222000Y-111760085D01*
X124999961Y-111638096D01*
X124865913Y-111678754D01*
X124611580Y-111798963D01*
X124385586Y-111966481D01*
X124196615Y-112174869D01*
X124085067Y-112360865D01*
X124080680Y-112350273D01*
X123923637Y-112115241D01*
X123723759Y-111915363D01*
X123488727Y-111758320D01*
X123227574Y-111650147D01*
X123019350Y-111608728D01*
X123440896Y-111187182D01*
X123476754Y-111157754D01*
X123594196Y-111014651D01*
X123681463Y-110851386D01*
X123735202Y-110674233D01*
X123748800Y-110536167D01*
X123748800Y-110536158D01*
X123753346Y-110490001D01*
X123748800Y-110443844D01*
X123748800Y-106499596D01*
X123923637Y-106324759D01*
X124079000Y-106092241D01*
X124234363Y-106324759D01*
X124434241Y-106524637D01*
X124669273Y-106681680D01*
X124930426Y-106789853D01*
X125207665Y-106845000D01*
X125490335Y-106845000D01*
X125767574Y-106789853D01*
X126028727Y-106681680D01*
X126263759Y-106524637D01*
X126463637Y-106324759D01*
X126620680Y-106089727D01*
X126728853Y-105828574D01*
X126784000Y-105551335D01*
X126784000Y-105268665D01*
X126728853Y-104991426D01*
X126620680Y-104730273D01*
X126463637Y-104495241D01*
X126263759Y-104295363D01*
X126028727Y-104138320D01*
X125767574Y-104030147D01*
X125490335Y-103975000D01*
X125207665Y-103975000D01*
X124930426Y-104030147D01*
X124669273Y-104138320D01*
X124434241Y-104295363D01*
X124234363Y-104495241D01*
X124079000Y-104727759D01*
X123923637Y-104495241D01*
X123723759Y-104295363D01*
X123488727Y-104138320D01*
X123227574Y-104030147D01*
X122950335Y-103975000D01*
X122667665Y-103975000D01*
X122390426Y-104030147D01*
X122129273Y-104138320D01*
X121894241Y-104295363D01*
X121694363Y-104495241D01*
X121539000Y-104727759D01*
X121383637Y-104495241D01*
X121183759Y-104295363D01*
X120948727Y-104138320D01*
X120687574Y-104030147D01*
X120410335Y-103975000D01*
X120163077Y-103975000D01*
X118556191Y-102368115D01*
X118526754Y-102332246D01*
X118476947Y-102291370D01*
X118693577Y-102175579D01*
X118957766Y-101958766D01*
X119115163Y-101766977D01*
X119161132Y-101798142D01*
X119412316Y-101904173D01*
X119483815Y-101918318D01*
X119698000Y-101795656D01*
X119698000Y-100203000D01*
X119678000Y-100203000D01*
X119678000Y-99949000D01*
X119698000Y-99949000D01*
X119698000Y-99929000D01*
X119952000Y-99929000D01*
X119952000Y-99949000D01*
X119972000Y-99949000D01*
X119972000Y-100203000D01*
X119952000Y-100203000D01*
X119952000Y-101795656D01*
X120166185Y-101918318D01*
X120237684Y-101904173D01*
X120488868Y-101798142D01*
X120714540Y-101645145D01*
X120821642Y-101536591D01*
X120840919Y-101560080D01*
X121051812Y-101733157D01*
X121292419Y-101861764D01*
X121408153Y-101896872D01*
X123013176Y-103501896D01*
X123042604Y-103537754D01*
X123078462Y-103567182D01*
X123078464Y-103567184D01*
X123185706Y-103655196D01*
X123348972Y-103742463D01*
X123526125Y-103796202D01*
X123664191Y-103809800D01*
X123664201Y-103809800D01*
X123710358Y-103814346D01*
X123756515Y-103809800D01*
X129658724Y-103809800D01*
X129834603Y-103985680D01*
X129833000Y-103993740D01*
X129833000Y-104286260D01*
X129890068Y-104573158D01*
X130002010Y-104843411D01*
X130164525Y-105086632D01*
X130371368Y-105293475D01*
X130614589Y-105455990D01*
X130884842Y-105567932D01*
X131171740Y-105625000D01*
X131464260Y-105625000D01*
X131751158Y-105567932D01*
X132021411Y-105455990D01*
X132264632Y-105293475D01*
X132396487Y-105161620D01*
X132418498Y-105234180D01*
X132477463Y-105344494D01*
X132556815Y-105441185D01*
X132653506Y-105520537D01*
X132763820Y-105579502D01*
X132883518Y-105615812D01*
X133008000Y-105628072D01*
X134708000Y-105628072D01*
X134832482Y-105615812D01*
X134952180Y-105579502D01*
X135062494Y-105520537D01*
X135159185Y-105441185D01*
X135238537Y-105344494D01*
X135297502Y-105234180D01*
X135333812Y-105114482D01*
X135346072Y-104990000D01*
X135346072Y-103290000D01*
X135333812Y-103165518D01*
X135297502Y-103045820D01*
X135238537Y-102935506D01*
X135159185Y-102838815D01*
X135062494Y-102759463D01*
X134952180Y-102700498D01*
X134832482Y-102664188D01*
X134708000Y-102651928D01*
X133008000Y-102651928D01*
X132883518Y-102664188D01*
X132763820Y-102700498D01*
X132653506Y-102759463D01*
X132556815Y-102838815D01*
X132477463Y-102935506D01*
X132418498Y-103045820D01*
X132396487Y-103118380D01*
X132264632Y-102986525D01*
X132021411Y-102824010D01*
X131751158Y-102712068D01*
X131464260Y-102655000D01*
X131171740Y-102655000D01*
X131163680Y-102656603D01*
X130745191Y-102238115D01*
X130715754Y-102202246D01*
X130572651Y-102084804D01*
X130409386Y-101997537D01*
X130232233Y-101943798D01*
X130094167Y-101930200D01*
X130094157Y-101930200D01*
X130048000Y-101925654D01*
X130001843Y-101930200D01*
X127181209Y-101930200D01*
X127374579Y-101694578D01*
X127535686Y-101393168D01*
X127634895Y-101066119D01*
X127660000Y-100811225D01*
X127660000Y-99340775D01*
X127634895Y-99085881D01*
X127535686Y-98758832D01*
X127374579Y-98457422D01*
X127368488Y-98450000D01*
X136664157Y-98450000D01*
X136593945Y-98463966D01*
X136240776Y-98610254D01*
X135922933Y-98822630D01*
X135652630Y-99092933D01*
X135440254Y-99410776D01*
X135293966Y-99763945D01*
X135219390Y-100138867D01*
X135219390Y-100521133D01*
X135293966Y-100896055D01*
X135440254Y-101249224D01*
X135652630Y-101567067D01*
X135922933Y-101837370D01*
X136240776Y-102049746D01*
X136593945Y-102196034D01*
X136968867Y-102270610D01*
X137351133Y-102270610D01*
X137726055Y-102196034D01*
X138079224Y-102049746D01*
X138397067Y-101837370D01*
X138667370Y-101567067D01*
X138879746Y-101249224D01*
X139026034Y-100896055D01*
X139040000Y-100825843D01*
X139040001Y-139839162D01*
X139026034Y-139768945D01*
X138879746Y-139415776D01*
X138667370Y-139097933D01*
X138397067Y-138827630D01*
X138079224Y-138615254D01*
X137726055Y-138468966D01*
X137351133Y-138394390D01*
X136968867Y-138394390D01*
X136593945Y-138468966D01*
X136240776Y-138615254D01*
X135922933Y-138827630D01*
X135652630Y-139097933D01*
X135440254Y-139415776D01*
X135293966Y-139768945D01*
X135219390Y-140143867D01*
X135219390Y-140526133D01*
X135293966Y-140901055D01*
X135440254Y-141254224D01*
X135652630Y-141572067D01*
X135922933Y-141842370D01*
X136240776Y-142054746D01*
X136593945Y-142201034D01*
X136664157Y-142215000D01*
X90030843Y-142215000D01*
X90101055Y-142201034D01*
X90454224Y-142054746D01*
X90772067Y-141842370D01*
X91042370Y-141572067D01*
X91254746Y-141254224D01*
X91401034Y-140901055D01*
X91475610Y-140526133D01*
X91475610Y-140143867D01*
X91401034Y-139768945D01*
X91254746Y-139415776D01*
X91042370Y-139097933D01*
X90772067Y-138827630D01*
X90454224Y-138615254D01*
X90101055Y-138468966D01*
X89726133Y-138394390D01*
X89343867Y-138394390D01*
X88968945Y-138468966D01*
X88615776Y-138615254D01*
X88297933Y-138827630D01*
X88027630Y-139097933D01*
X87815254Y-139415776D01*
X87668966Y-139768945D01*
X87655000Y-139839157D01*
X87655000Y-103744665D01*
X89497000Y-103744665D01*
X89497000Y-104027335D01*
X89552147Y-104304574D01*
X89660320Y-104565727D01*
X89817363Y-104800759D01*
X89992200Y-104975596D01*
X89992200Y-105834634D01*
X89987654Y-105880792D01*
X89992200Y-105926949D01*
X89992200Y-105926958D01*
X90005798Y-106065024D01*
X90059537Y-106242177D01*
X90146804Y-106405443D01*
X90264246Y-106548546D01*
X90300115Y-106577983D01*
X92899026Y-109176896D01*
X92928454Y-109212754D01*
X92964312Y-109242182D01*
X92964313Y-109242183D01*
X93071556Y-109330196D01*
X93158823Y-109376841D01*
X93234822Y-109417463D01*
X93411975Y-109471202D01*
X93550041Y-109484800D01*
X93550050Y-109484800D01*
X93596207Y-109489346D01*
X93642364Y-109484800D01*
X93650826Y-109484800D01*
X93676688Y-109523505D01*
X93890495Y-109737312D01*
X93976831Y-109795000D01*
X93890495Y-109852688D01*
X93676688Y-110066495D01*
X93508701Y-110317905D01*
X93392989Y-110597257D01*
X93334000Y-110893816D01*
X93334000Y-111196184D01*
X93392989Y-111492743D01*
X93508701Y-111772095D01*
X93676688Y-112023505D01*
X93890495Y-112237312D01*
X94141905Y-112405299D01*
X94421257Y-112521011D01*
X94717816Y-112580000D01*
X95020184Y-112580000D01*
X95316743Y-112521011D01*
X95596095Y-112405299D01*
X95847505Y-112237312D01*
X96061312Y-112023505D01*
X96229299Y-111772095D01*
X96345011Y-111492743D01*
X96404000Y-111196184D01*
X96404000Y-110893816D01*
X96345011Y-110597257D01*
X96229299Y-110317905D01*
X96061312Y-110066495D01*
X95847505Y-109852688D01*
X95761169Y-109795000D01*
X95847505Y-109737312D01*
X96061312Y-109523505D01*
X96229299Y-109272095D01*
X96345011Y-108992743D01*
X96404000Y-108696184D01*
X96404000Y-108393816D01*
X96345011Y-108097257D01*
X96229299Y-107817905D01*
X96061312Y-107566495D01*
X96023697Y-107528880D01*
X96123494Y-107475537D01*
X96220185Y-107396185D01*
X96299537Y-107299494D01*
X96358502Y-107189180D01*
X96394812Y-107069482D01*
X96407072Y-106945000D01*
X96404000Y-106330750D01*
X96245250Y-106172000D01*
X94996000Y-106172000D01*
X94996000Y-106192000D01*
X94742000Y-106192000D01*
X94742000Y-106172000D01*
X93492750Y-106172000D01*
X93334000Y-106330750D01*
X93330928Y-106945000D01*
X93331544Y-106951259D01*
X91871800Y-105491516D01*
X91871800Y-105145000D01*
X93330928Y-105145000D01*
X93334000Y-105759250D01*
X93492750Y-105918000D01*
X94742000Y-105918000D01*
X94742000Y-104668750D01*
X94996000Y-104668750D01*
X94996000Y-105918000D01*
X96245250Y-105918000D01*
X96404000Y-105759250D01*
X96407072Y-105145000D01*
X96394812Y-105020518D01*
X96358502Y-104900820D01*
X96299537Y-104790506D01*
X96220185Y-104693815D01*
X96123494Y-104614463D01*
X96013180Y-104555498D01*
X95893482Y-104519188D01*
X95769000Y-104506928D01*
X95154750Y-104510000D01*
X94996000Y-104668750D01*
X94742000Y-104668750D01*
X94583250Y-104510000D01*
X93969000Y-104506928D01*
X93844518Y-104519188D01*
X93724820Y-104555498D01*
X93614506Y-104614463D01*
X93517815Y-104693815D01*
X93438463Y-104790506D01*
X93379498Y-104900820D01*
X93343188Y-105020518D01*
X93330928Y-105145000D01*
X91871800Y-105145000D01*
X91871800Y-104975596D01*
X92046637Y-104800759D01*
X92203680Y-104565727D01*
X92311853Y-104304574D01*
X92367000Y-104027335D01*
X92367000Y-103745000D01*
X99854348Y-103745000D01*
X99892867Y-104136088D01*
X100006943Y-104512147D01*
X100192193Y-104858725D01*
X100441497Y-105162503D01*
X100745275Y-105411807D01*
X101091853Y-105597057D01*
X101467912Y-105711133D01*
X101761002Y-105740000D01*
X102976998Y-105740000D01*
X103270088Y-105711133D01*
X103646147Y-105597057D01*
X103992725Y-105411807D01*
X104296503Y-105162503D01*
X104545807Y-104858725D01*
X104731057Y-104512147D01*
X104845133Y-104136088D01*
X104883652Y-103745000D01*
X104845133Y-103353912D01*
X104731057Y-102977853D01*
X104545807Y-102631275D01*
X104296503Y-102327497D01*
X103992725Y-102078193D01*
X103646147Y-101892943D01*
X103270088Y-101778867D01*
X102976998Y-101750000D01*
X101761002Y-101750000D01*
X101467912Y-101778867D01*
X101091853Y-101892943D01*
X100745275Y-102078193D01*
X100441497Y-102327497D01*
X100192193Y-102631275D01*
X100006943Y-102977853D01*
X99892867Y-103353912D01*
X99854348Y-103745000D01*
X92367000Y-103745000D01*
X92367000Y-103744665D01*
X92311853Y-103467426D01*
X92203680Y-103206273D01*
X92046637Y-102971241D01*
X91846759Y-102771363D01*
X91611727Y-102614320D01*
X91350574Y-102506147D01*
X91073335Y-102451000D01*
X90790665Y-102451000D01*
X90513426Y-102506147D01*
X90252273Y-102614320D01*
X90017241Y-102771363D01*
X89817363Y-102971241D01*
X89660320Y-103206273D01*
X89552147Y-103467426D01*
X89497000Y-103744665D01*
X87655000Y-103744665D01*
X87655000Y-100825843D01*
X87668966Y-100896055D01*
X87815254Y-101249224D01*
X88027630Y-101567067D01*
X88297933Y-101837370D01*
X88615776Y-102049746D01*
X88968945Y-102196034D01*
X89343867Y-102270610D01*
X89726133Y-102270610D01*
X90101055Y-102196034D01*
X90454224Y-102049746D01*
X90772067Y-101837370D01*
X91042370Y-101567067D01*
X91254746Y-101249224D01*
X91401034Y-100896055D01*
X91475610Y-100521133D01*
X91475610Y-100138867D01*
X91401034Y-99763945D01*
X91254746Y-99410776D01*
X91042370Y-99092933D01*
X90772067Y-98822630D01*
X90454224Y-98610254D01*
X90101055Y-98463966D01*
X90030843Y-98450000D01*
X116281513Y-98450000D01*
X116275422Y-98457422D01*
%TA.AperFunction,Conductor*%
D23*
G36*
X116275422Y-98457422D02*
G01*
X116114315Y-98758832D01*
X116015105Y-99085881D01*
X115990000Y-99340775D01*
X115990000Y-100811224D01*
X116015105Y-101066118D01*
X116114314Y-101393167D01*
X116275421Y-101694577D01*
X116492234Y-101958766D01*
X116615832Y-102060200D01*
X107954537Y-102060200D01*
X107908380Y-102055654D01*
X107862223Y-102060200D01*
X107862214Y-102060200D01*
X107724148Y-102073798D01*
X107546995Y-102127537D01*
X107383730Y-102214804D01*
X107240627Y-102332246D01*
X107211199Y-102368104D01*
X96139000Y-113440305D01*
X96112809Y-113414114D01*
X96083373Y-113378246D01*
X95940270Y-113260804D01*
X95777005Y-113173537D01*
X95599852Y-113119798D01*
X95461786Y-113106200D01*
X95461776Y-113106200D01*
X95415619Y-113101654D01*
X95369462Y-113106200D01*
X92021596Y-113106200D01*
X91846759Y-112931363D01*
X91611727Y-112774320D01*
X91350574Y-112666147D01*
X91073335Y-112611000D01*
X90790665Y-112611000D01*
X90513426Y-112666147D01*
X90252273Y-112774320D01*
X90017241Y-112931363D01*
X89817363Y-113131241D01*
X89660320Y-113366273D01*
X89552147Y-113627426D01*
X89497000Y-113904665D01*
X89497000Y-114187335D01*
X89552147Y-114464574D01*
X89660320Y-114725727D01*
X89817363Y-114960759D01*
X90017241Y-115160637D01*
X90252273Y-115317680D01*
X90513426Y-115425853D01*
X90790665Y-115481000D01*
X91073335Y-115481000D01*
X91350574Y-115425853D01*
X91611727Y-115317680D01*
X91846759Y-115160637D01*
X92021596Y-114985800D01*
X95026342Y-114985800D01*
X95199201Y-115158659D01*
X95199200Y-118925404D01*
X95024363Y-119100241D01*
X94867320Y-119335273D01*
X94759147Y-119596426D01*
X94704000Y-119873665D01*
X94704000Y-120156335D01*
X94759147Y-120433574D01*
X94867320Y-120694727D01*
X95024363Y-120929759D01*
X95224241Y-121129637D01*
X95459273Y-121286680D01*
X95720426Y-121394853D01*
X95997665Y-121450000D01*
X96280335Y-121450000D01*
X96557574Y-121394853D01*
X96818727Y-121286680D01*
X97053759Y-121129637D01*
X97253637Y-120929759D01*
X97410680Y-120694727D01*
X97518853Y-120433574D01*
X97574000Y-120156335D01*
X97574000Y-119873665D01*
X97518853Y-119596426D01*
X97410680Y-119335273D01*
X97253637Y-119100241D01*
X97078800Y-118925404D01*
X97078800Y-115158657D01*
X98892457Y-113345000D01*
X99854348Y-113345000D01*
X99892867Y-113736088D01*
X100006943Y-114112147D01*
X100192193Y-114458725D01*
X100441497Y-114762503D01*
X100745275Y-115011807D01*
X101091853Y-115197057D01*
X101467912Y-115311133D01*
X101761002Y-115340000D01*
X102976998Y-115340000D01*
X103270088Y-115311133D01*
X103646147Y-115197057D01*
X103992725Y-115011807D01*
X104296503Y-114762503D01*
X104545807Y-114458725D01*
X104731057Y-114112147D01*
X104845133Y-113736088D01*
X104883652Y-113345000D01*
X104845133Y-112953912D01*
X104731057Y-112577853D01*
X104545807Y-112231275D01*
X104296503Y-111927497D01*
X103992725Y-111678193D01*
X103646147Y-111492943D01*
X103270088Y-111378867D01*
X102976998Y-111350000D01*
X101761002Y-111350000D01*
X101467912Y-111378867D01*
X101091853Y-111492943D01*
X100745275Y-111678193D01*
X100441497Y-111927497D01*
X100192193Y-112231275D01*
X100006943Y-112577853D01*
X99892867Y-112953912D01*
X99854348Y-113345000D01*
X98892457Y-113345000D01*
X105698793Y-106538665D01*
X109944000Y-106538665D01*
X109944000Y-106821335D01*
X109999147Y-107098574D01*
X110107320Y-107359727D01*
X110264363Y-107594759D01*
X110464241Y-107794637D01*
X110699273Y-107951680D01*
X110960426Y-108059853D01*
X111237665Y-108115000D01*
X111520335Y-108115000D01*
X111797574Y-108059853D01*
X112058727Y-107951680D01*
X112293759Y-107794637D01*
X112493637Y-107594759D01*
X112650680Y-107359727D01*
X112758853Y-107098574D01*
X112814000Y-106821335D01*
X112814000Y-106538665D01*
X112758853Y-106261426D01*
X112650680Y-106000273D01*
X112493637Y-105765241D01*
X112487436Y-105759040D01*
X116337091Y-105759040D01*
X116431930Y-106023881D01*
X116576615Y-106265131D01*
X116765586Y-106473519D01*
X116991580Y-106641037D01*
X117245913Y-106761246D01*
X117379961Y-106801904D01*
X117602000Y-106679915D01*
X117602000Y-105537000D01*
X116458376Y-105537000D01*
X116337091Y-105759040D01*
X112487436Y-105759040D01*
X112293759Y-105565363D01*
X112058727Y-105408320D01*
X111797574Y-105300147D01*
X111520335Y-105245000D01*
X111237665Y-105245000D01*
X110960426Y-105300147D01*
X110699273Y-105408320D01*
X110464241Y-105565363D01*
X110264363Y-105765241D01*
X110107320Y-106000273D01*
X109999147Y-106261426D01*
X109944000Y-106538665D01*
X105698793Y-106538665D01*
X108297659Y-103939800D01*
X117469724Y-103939800D01*
X117601998Y-104072074D01*
X117601998Y-104140084D01*
X117379961Y-104018096D01*
X117245913Y-104058754D01*
X116991580Y-104178963D01*
X116765586Y-104346481D01*
X116576615Y-104554869D01*
X116431930Y-104796119D01*
X116337091Y-105060960D01*
X116458376Y-105283000D01*
X117602000Y-105283000D01*
X117602000Y-105263000D01*
X117856000Y-105263000D01*
X117856000Y-105283000D01*
X117876000Y-105283000D01*
X117876000Y-105537000D01*
X117856000Y-105537000D01*
X117856000Y-106679915D01*
X118078039Y-106801904D01*
X118212087Y-106761246D01*
X118466420Y-106641037D01*
X118692414Y-106473519D01*
X118881385Y-106265131D01*
X118992933Y-106079135D01*
X118997320Y-106089727D01*
X119154363Y-106324759D01*
X119354241Y-106524637D01*
X119589273Y-106681680D01*
X119850426Y-106789853D01*
X120127665Y-106845000D01*
X120410335Y-106845000D01*
X120687574Y-106789853D01*
X120948727Y-106681680D01*
X121183759Y-106524637D01*
X121383637Y-106324759D01*
X121539000Y-106092241D01*
X121694363Y-106324759D01*
X121869200Y-106499596D01*
X121869201Y-110100721D01*
X120374923Y-111595000D01*
X120127665Y-111595000D01*
X119850426Y-111650147D01*
X119589273Y-111758320D01*
X119354241Y-111915363D01*
X119155643Y-112113961D01*
X119154812Y-112105518D01*
X119118502Y-111985820D01*
X119059537Y-111875506D01*
X118980185Y-111778815D01*
X118883494Y-111699463D01*
X118773180Y-111640498D01*
X118653482Y-111604188D01*
X118529000Y-111591928D01*
X116929000Y-111591928D01*
X116804518Y-111604188D01*
X116684820Y-111640498D01*
X116574506Y-111699463D01*
X116477815Y-111778815D01*
X116398463Y-111875506D01*
X116339498Y-111985820D01*
X116303188Y-112105518D01*
X116290928Y-112230000D01*
X116290928Y-113830000D01*
X116303188Y-113954482D01*
X116339498Y-114074180D01*
X116398463Y-114184494D01*
X116477815Y-114281185D01*
X116574506Y-114360537D01*
X116684820Y-114419502D01*
X116804518Y-114455812D01*
X116929000Y-114468072D01*
X118529000Y-114468072D01*
X118653482Y-114455812D01*
X118773180Y-114419502D01*
X118874669Y-114365254D01*
X118609724Y-114630200D01*
X112403277Y-114630200D01*
X112318800Y-114545723D01*
X112318800Y-112769596D01*
X112493637Y-112594759D01*
X112650680Y-112359727D01*
X112758853Y-112098574D01*
X112814000Y-111821335D01*
X112814000Y-111538665D01*
X112758853Y-111261426D01*
X112650680Y-111000273D01*
X112493637Y-110765241D01*
X112293759Y-110565363D01*
X112058727Y-110408320D01*
X111797574Y-110300147D01*
X111520335Y-110245000D01*
X111237665Y-110245000D01*
X110960426Y-110300147D01*
X110699273Y-110408320D01*
X110464241Y-110565363D01*
X110264363Y-110765241D01*
X110107320Y-111000273D01*
X109999147Y-111261426D01*
X109944000Y-111538665D01*
X109944000Y-111821335D01*
X109999147Y-112098574D01*
X110107320Y-112359727D01*
X110264363Y-112594759D01*
X110439200Y-112769596D01*
X110439201Y-114545721D01*
X106404924Y-118580000D01*
X106157665Y-118580000D01*
X105880426Y-118635147D01*
X105619273Y-118743320D01*
X105384241Y-118900363D01*
X105184363Y-119100241D01*
X105027320Y-119335273D01*
X104919147Y-119596426D01*
X104864000Y-119873665D01*
X104864000Y-120156335D01*
X104919147Y-120433574D01*
X105027320Y-120694727D01*
X105184363Y-120929759D01*
X105384241Y-121129637D01*
X105619273Y-121286680D01*
X105880426Y-121394853D01*
X106157665Y-121450000D01*
X106440335Y-121450000D01*
X106717574Y-121394853D01*
X106978727Y-121286680D01*
X107213759Y-121129637D01*
X107413637Y-120929759D01*
X107570680Y-120694727D01*
X107678853Y-120433574D01*
X107734000Y-120156335D01*
X107734000Y-119909076D01*
X111378694Y-116264384D01*
X111382104Y-116267182D01*
X111382106Y-116267184D01*
X111489348Y-116355196D01*
X111652612Y-116442462D01*
X111652614Y-116442463D01*
X111829767Y-116496202D01*
X111967833Y-116509800D01*
X111967835Y-116509800D01*
X112014000Y-116514347D01*
X112060165Y-116509800D01*
X118952843Y-116509800D01*
X118999000Y-116514346D01*
X119045157Y-116509800D01*
X119045167Y-116509800D01*
X119183233Y-116496202D01*
X119360386Y-116442463D01*
X119523651Y-116355196D01*
X119666754Y-116237754D01*
X119696191Y-116201885D01*
X120900895Y-114997182D01*
X120936754Y-114967754D01*
X121054196Y-114824651D01*
X121141463Y-114661386D01*
X121195202Y-114484233D01*
X121208800Y-114346167D01*
X121208800Y-114346158D01*
X121213346Y-114300001D01*
X121208800Y-114253844D01*
X121208800Y-114119596D01*
X121383637Y-113944759D01*
X121539000Y-113712241D01*
X121694363Y-113944759D01*
X121869201Y-114119597D01*
X121869201Y-114888833D01*
X121864654Y-114935000D01*
X121882799Y-115119233D01*
X121936538Y-115296386D01*
X122023804Y-115459651D01*
X122083959Y-115532948D01*
X122141247Y-115602754D01*
X122177110Y-115632186D01*
X126314200Y-119769278D01*
X126314201Y-126570805D01*
X126263759Y-126520363D01*
X126028727Y-126363320D01*
X125767574Y-126255147D01*
X125490335Y-126200000D01*
X125207665Y-126200000D01*
X124930426Y-126255147D01*
X124669273Y-126363320D01*
X124434241Y-126520363D01*
X124234363Y-126720241D01*
X124079000Y-126952759D01*
X123923637Y-126720241D01*
X123723759Y-126520363D01*
X123488727Y-126363320D01*
X123227574Y-126255147D01*
X122950335Y-126200000D01*
X122667665Y-126200000D01*
X122390426Y-126255147D01*
X122129273Y-126363320D01*
X121894241Y-126520363D01*
X121719404Y-126695200D01*
X121358596Y-126695200D01*
X121183759Y-126520363D01*
X120948727Y-126363320D01*
X120687574Y-126255147D01*
X120410335Y-126200000D01*
X120127665Y-126200000D01*
X119850426Y-126255147D01*
X119589273Y-126363320D01*
X119354241Y-126520363D01*
X119154363Y-126720241D01*
X118997320Y-126955273D01*
X118992933Y-126965865D01*
X118881385Y-126779869D01*
X118692414Y-126571481D01*
X118466420Y-126403963D01*
X118212087Y-126283754D01*
X118078039Y-126243096D01*
X117856000Y-126365085D01*
X117856000Y-127508000D01*
X117876000Y-127508000D01*
X117876000Y-127762000D01*
X117856000Y-127762000D01*
X117856000Y-127782000D01*
X117602000Y-127782000D01*
X117602000Y-127762000D01*
X116458376Y-127762000D01*
X116337091Y-127984040D01*
X116431930Y-128248881D01*
X116576615Y-128490131D01*
X116765586Y-128698519D01*
X116991580Y-128866037D01*
X117245913Y-128986246D01*
X117379961Y-129026904D01*
X117601998Y-128904916D01*
X117601998Y-128972925D01*
X113529724Y-133045200D01*
X112468596Y-133045200D01*
X112293759Y-132870363D01*
X112058727Y-132713320D01*
X111797574Y-132605147D01*
X111520335Y-132550000D01*
X111237665Y-132550000D01*
X110960426Y-132605147D01*
X110699273Y-132713320D01*
X110464241Y-132870363D01*
X110289404Y-133045200D01*
X99741156Y-133045200D01*
X99694999Y-133040654D01*
X99648842Y-133045200D01*
X99648833Y-133045200D01*
X99510767Y-133058798D01*
X99333614Y-133112537D01*
X99257615Y-133153159D01*
X99170348Y-133199804D01*
X99063105Y-133287817D01*
X99027246Y-133317246D01*
X98997818Y-133353104D01*
X97146724Y-135204200D01*
X95687536Y-135204200D01*
X95847505Y-135097312D01*
X96061312Y-134883505D01*
X96229299Y-134632095D01*
X96345011Y-134352743D01*
X96404000Y-134056184D01*
X96404000Y-133753816D01*
X96345011Y-133457257D01*
X96229299Y-133177905D01*
X96061312Y-132926495D01*
X95847505Y-132712688D01*
X95761169Y-132655000D01*
X95847505Y-132597312D01*
X96061312Y-132383505D01*
X96229299Y-132132095D01*
X96345011Y-131852743D01*
X96404000Y-131556184D01*
X96404000Y-131253816D01*
X96345011Y-130957257D01*
X96229299Y-130677905D01*
X96061312Y-130426495D01*
X96023697Y-130388880D01*
X96123494Y-130335537D01*
X96220185Y-130256185D01*
X96299537Y-130159494D01*
X96358502Y-130049180D01*
X96394812Y-129929482D01*
X96407072Y-129805000D01*
X96404000Y-129190750D01*
X96245250Y-129032000D01*
X94996000Y-129032000D01*
X94996000Y-129052000D01*
X94742000Y-129052000D01*
X94742000Y-129032000D01*
X93492750Y-129032000D01*
X93334000Y-129190750D01*
X93330928Y-129805000D01*
X93331544Y-129811259D01*
X92363950Y-128843665D01*
X109944000Y-128843665D01*
X109944000Y-129126335D01*
X109999147Y-129403574D01*
X110107320Y-129664727D01*
X110264363Y-129899759D01*
X110464241Y-130099637D01*
X110699273Y-130256680D01*
X110960426Y-130364853D01*
X111237665Y-130420000D01*
X111520335Y-130420000D01*
X111797574Y-130364853D01*
X112058727Y-130256680D01*
X112293759Y-130099637D01*
X112493637Y-129899759D01*
X112650680Y-129664727D01*
X112758853Y-129403574D01*
X112814000Y-129126335D01*
X112814000Y-128843665D01*
X112758853Y-128566426D01*
X112650680Y-128305273D01*
X112493637Y-128070241D01*
X112293759Y-127870363D01*
X112058727Y-127713320D01*
X111797574Y-127605147D01*
X111520335Y-127550000D01*
X111237665Y-127550000D01*
X110960426Y-127605147D01*
X110699273Y-127713320D01*
X110464241Y-127870363D01*
X110264363Y-128070241D01*
X110107320Y-128305273D01*
X109999147Y-128566426D01*
X109944000Y-128843665D01*
X92363950Y-128843665D01*
X91871800Y-128351516D01*
X91871800Y-128005000D01*
X93330928Y-128005000D01*
X93334000Y-128619250D01*
X93492750Y-128778000D01*
X94742000Y-128778000D01*
X94742000Y-127528750D01*
X94996000Y-127528750D01*
X94996000Y-128778000D01*
X96245250Y-128778000D01*
X96404000Y-128619250D01*
X96407072Y-128005000D01*
X96394812Y-127880518D01*
X96358502Y-127760820D01*
X96299537Y-127650506D01*
X96220185Y-127553815D01*
X96123494Y-127474463D01*
X96013180Y-127415498D01*
X95893482Y-127379188D01*
X95769000Y-127366928D01*
X95154750Y-127370000D01*
X94996000Y-127528750D01*
X94742000Y-127528750D01*
X94583250Y-127370000D01*
X93969000Y-127366928D01*
X93844518Y-127379188D01*
X93724820Y-127415498D01*
X93614506Y-127474463D01*
X93517815Y-127553815D01*
X93438463Y-127650506D01*
X93379498Y-127760820D01*
X93343188Y-127880518D01*
X93330928Y-128005000D01*
X91871800Y-128005000D01*
X91871800Y-127073596D01*
X92046637Y-126898759D01*
X92203680Y-126663727D01*
X92228005Y-126605000D01*
X99854348Y-126605000D01*
X99892867Y-126996088D01*
X100006943Y-127372147D01*
X100192193Y-127718725D01*
X100441497Y-128022503D01*
X100745275Y-128271807D01*
X101091853Y-128457057D01*
X101467912Y-128571133D01*
X101761002Y-128600000D01*
X102976998Y-128600000D01*
X103270088Y-128571133D01*
X103646147Y-128457057D01*
X103992725Y-128271807D01*
X104296503Y-128022503D01*
X104545807Y-127718725D01*
X104731057Y-127372147D01*
X104757201Y-127285960D01*
X116337091Y-127285960D01*
X116458376Y-127508000D01*
X117602000Y-127508000D01*
X117602000Y-126365085D01*
X117379961Y-126243096D01*
X117245913Y-126283754D01*
X116991580Y-126403963D01*
X116765586Y-126571481D01*
X116576615Y-126779869D01*
X116431930Y-127021119D01*
X116337091Y-127285960D01*
X104757201Y-127285960D01*
X104845133Y-126996088D01*
X104883652Y-126605000D01*
X104845133Y-126213912D01*
X104731057Y-125837853D01*
X104545807Y-125491275D01*
X104296503Y-125187497D01*
X103992725Y-124938193D01*
X103646147Y-124752943D01*
X103270088Y-124638867D01*
X102976998Y-124610000D01*
X101761002Y-124610000D01*
X101467912Y-124638867D01*
X101091853Y-124752943D01*
X100745275Y-124938193D01*
X100441497Y-125187497D01*
X100192193Y-125491275D01*
X100006943Y-125837853D01*
X99892867Y-126213912D01*
X99854348Y-126605000D01*
X92228005Y-126605000D01*
X92311853Y-126402574D01*
X92367000Y-126125335D01*
X92367000Y-125842665D01*
X92311853Y-125565426D01*
X92203680Y-125304273D01*
X92046637Y-125069241D01*
X91846759Y-124869363D01*
X91611727Y-124712320D01*
X91350574Y-124604147D01*
X91073335Y-124549000D01*
X90790665Y-124549000D01*
X90513426Y-124604147D01*
X90252273Y-124712320D01*
X90017241Y-124869363D01*
X89817363Y-125069241D01*
X89660320Y-125304273D01*
X89552147Y-125565426D01*
X89497000Y-125842665D01*
X89497000Y-126125335D01*
X89552147Y-126402574D01*
X89660320Y-126663727D01*
X89817363Y-126898759D01*
X89992201Y-127073597D01*
X89992200Y-128694634D01*
X89987654Y-128740792D01*
X89992200Y-128786949D01*
X89992200Y-128786958D01*
X90005798Y-128925024D01*
X90059537Y-129102177D01*
X90146804Y-129265443D01*
X90264246Y-129408546D01*
X90300115Y-129437983D01*
X92899026Y-132036896D01*
X92928454Y-132072754D01*
X92964312Y-132102182D01*
X92964313Y-132102183D01*
X93071556Y-132190196D01*
X93117595Y-132214804D01*
X93234822Y-132277463D01*
X93411975Y-132331202D01*
X93550041Y-132344800D01*
X93550050Y-132344800D01*
X93596207Y-132349346D01*
X93642364Y-132344800D01*
X93650826Y-132344800D01*
X93676688Y-132383505D01*
X93890495Y-132597312D01*
X93976831Y-132655000D01*
X93890495Y-132712688D01*
X93676688Y-132926495D01*
X93508701Y-133177905D01*
X93392989Y-133457257D01*
X93334000Y-133753816D01*
X93334000Y-134056184D01*
X93392989Y-134352743D01*
X93508701Y-134632095D01*
X93676688Y-134883505D01*
X93890495Y-135097312D01*
X94050464Y-135204200D01*
X92021596Y-135204200D01*
X91846759Y-135029363D01*
X91611727Y-134872320D01*
X91350574Y-134764147D01*
X91073335Y-134709000D01*
X90790665Y-134709000D01*
X90513426Y-134764147D01*
X90252273Y-134872320D01*
X90017241Y-135029363D01*
X89817363Y-135229241D01*
X89660320Y-135464273D01*
X89552147Y-135725426D01*
X89497000Y-136002665D01*
X89497000Y-136285335D01*
X89552147Y-136562574D01*
X89660320Y-136823727D01*
X89817363Y-137058759D01*
X90017241Y-137258637D01*
X90252273Y-137415680D01*
X90513426Y-137523853D01*
X90790665Y-137579000D01*
X91073335Y-137579000D01*
X91350574Y-137523853D01*
X91611727Y-137415680D01*
X91846759Y-137258637D01*
X92021596Y-137083800D01*
X97489843Y-137083800D01*
X97536000Y-137088346D01*
X97582157Y-137083800D01*
X97582167Y-137083800D01*
X97720233Y-137070202D01*
X97897386Y-137016463D01*
X98060651Y-136929196D01*
X98203754Y-136811754D01*
X98233191Y-136775885D01*
X100084278Y-134924800D01*
X100328815Y-134924800D01*
X100192193Y-135091275D01*
X100006943Y-135437853D01*
X99892867Y-135813912D01*
X99854348Y-136205000D01*
X99892867Y-136596088D01*
X100006943Y-136972147D01*
X100192193Y-137318725D01*
X100441497Y-137622503D01*
X100745275Y-137871807D01*
X101091853Y-138057057D01*
X101467912Y-138171133D01*
X101761002Y-138200000D01*
X102976998Y-138200000D01*
X103270088Y-138171133D01*
X103646147Y-138057057D01*
X103992725Y-137871807D01*
X104296503Y-137622503D01*
X104545807Y-137318725D01*
X104731057Y-136972147D01*
X104845133Y-136596088D01*
X104883652Y-136205000D01*
X104845133Y-135813912D01*
X104731057Y-135437853D01*
X104545807Y-135091275D01*
X104409185Y-134924800D01*
X110289404Y-134924800D01*
X110464241Y-135099637D01*
X110699273Y-135256680D01*
X110960426Y-135364853D01*
X111237665Y-135420000D01*
X111520335Y-135420000D01*
X111797574Y-135364853D01*
X112058727Y-135256680D01*
X112293759Y-135099637D01*
X112468596Y-134924800D01*
X113872843Y-134924800D01*
X113919000Y-134929346D01*
X113965157Y-134924800D01*
X113965167Y-134924800D01*
X114103233Y-134911202D01*
X114280386Y-134857463D01*
X114443651Y-134770196D01*
X114586754Y-134652754D01*
X114616191Y-134616885D01*
X120163078Y-129070000D01*
X120410335Y-129070000D01*
X120687574Y-129014853D01*
X120948727Y-128906680D01*
X121183759Y-128749637D01*
X121358596Y-128574800D01*
X121719404Y-128574800D01*
X121894241Y-128749637D01*
X122129273Y-128906680D01*
X122390426Y-129014853D01*
X122667665Y-129070000D01*
X122950335Y-129070000D01*
X123227574Y-129014853D01*
X123488727Y-128906680D01*
X123723759Y-128749637D01*
X123923637Y-128549759D01*
X124079000Y-128317241D01*
X124234363Y-128549759D01*
X124352306Y-128667702D01*
X124189349Y-128754804D01*
X124046246Y-128872246D01*
X124016818Y-128908104D01*
X119637115Y-133287809D01*
X119601246Y-133317246D01*
X119483804Y-133460349D01*
X119396537Y-133623615D01*
X119342798Y-133800768D01*
X119329200Y-133938834D01*
X119329200Y-133938843D01*
X119324654Y-133985000D01*
X119329200Y-134031158D01*
X119329200Y-134165404D01*
X119155643Y-134338961D01*
X119154812Y-134330518D01*
X119118502Y-134210820D01*
X119059537Y-134100506D01*
X118980185Y-134003815D01*
X118883494Y-133924463D01*
X118773180Y-133865498D01*
X118653482Y-133829188D01*
X118529000Y-133816928D01*
X116929000Y-133816928D01*
X116804518Y-133829188D01*
X116684820Y-133865498D01*
X116574506Y-133924463D01*
X116477815Y-134003815D01*
X116398463Y-134100506D01*
X116339498Y-134210820D01*
X116303188Y-134330518D01*
X116290928Y-134455000D01*
X116290928Y-136055000D01*
X116303188Y-136179482D01*
X116339498Y-136299180D01*
X116398463Y-136409494D01*
X116477815Y-136506185D01*
X116574506Y-136585537D01*
X116684820Y-136644502D01*
X116804518Y-136680812D01*
X116929000Y-136693072D01*
X118529000Y-136693072D01*
X118653482Y-136680812D01*
X118773180Y-136644502D01*
X118883494Y-136585537D01*
X118980185Y-136506185D01*
X119059537Y-136409494D01*
X119118502Y-136299180D01*
X119154812Y-136179482D01*
X119155643Y-136171039D01*
X119354241Y-136369637D01*
X119589273Y-136526680D01*
X119850426Y-136634853D01*
X120127665Y-136690000D01*
X120410335Y-136690000D01*
X120687574Y-136634853D01*
X120948727Y-136526680D01*
X121183759Y-136369637D01*
X121383637Y-136169759D01*
X121539000Y-135937241D01*
X121694363Y-136169759D01*
X121894241Y-136369637D01*
X122129273Y-136526680D01*
X122390426Y-136634853D01*
X122667665Y-136690000D01*
X122950335Y-136690000D01*
X123227574Y-136634853D01*
X123488727Y-136526680D01*
X123723759Y-136369637D01*
X123923637Y-136169759D01*
X124080680Y-135934727D01*
X124085067Y-135924135D01*
X124196615Y-136110131D01*
X124385586Y-136318519D01*
X124611580Y-136486037D01*
X124865913Y-136606246D01*
X124999961Y-136646904D01*
X125222000Y-136524915D01*
X125222000Y-135382000D01*
X125476000Y-135382000D01*
X125476000Y-136524915D01*
X125698039Y-136646904D01*
X125832087Y-136606246D01*
X126044733Y-136505740D01*
X129833000Y-136505740D01*
X129833000Y-136798260D01*
X129890068Y-137085158D01*
X130002010Y-137355411D01*
X130164525Y-137598632D01*
X130371368Y-137805475D01*
X130614589Y-137967990D01*
X130884842Y-138079932D01*
X131171740Y-138137000D01*
X131464260Y-138137000D01*
X131751158Y-138079932D01*
X132021411Y-137967990D01*
X132264632Y-137805475D01*
X132396487Y-137673620D01*
X132418498Y-137746180D01*
X132477463Y-137856494D01*
X132556815Y-137953185D01*
X132653506Y-138032537D01*
X132763820Y-138091502D01*
X132883518Y-138127812D01*
X133008000Y-138140072D01*
X134708000Y-138140072D01*
X134832482Y-138127812D01*
X134952180Y-138091502D01*
X135062494Y-138032537D01*
X135159185Y-137953185D01*
X135238537Y-137856494D01*
X135297502Y-137746180D01*
X135333812Y-137626482D01*
X135346072Y-137502000D01*
X135346072Y-135802000D01*
X135333812Y-135677518D01*
X135297502Y-135557820D01*
X135238537Y-135447506D01*
X135159185Y-135350815D01*
X135062494Y-135271463D01*
X134952180Y-135212498D01*
X134832482Y-135176188D01*
X134708000Y-135163928D01*
X133008000Y-135163928D01*
X132883518Y-135176188D01*
X132763820Y-135212498D01*
X132653506Y-135271463D01*
X132556815Y-135350815D01*
X132477463Y-135447506D01*
X132418498Y-135557820D01*
X132396487Y-135630380D01*
X132384800Y-135618693D01*
X132384800Y-133739276D01*
X133346895Y-132777182D01*
X133382754Y-132747754D01*
X133500196Y-132604651D01*
X133587463Y-132441386D01*
X133641202Y-132264233D01*
X133654800Y-132126167D01*
X133654800Y-132126158D01*
X133659346Y-132080001D01*
X133654800Y-132033844D01*
X133654800Y-131264596D01*
X133829637Y-131089759D01*
X133986680Y-130854727D01*
X134094853Y-130593574D01*
X134150000Y-130316335D01*
X134150000Y-130033665D01*
X134094853Y-129756426D01*
X133986680Y-129495273D01*
X133829637Y-129260241D01*
X133629759Y-129060363D01*
X133394727Y-128903320D01*
X133133574Y-128795147D01*
X132856335Y-128740000D01*
X132573665Y-128740000D01*
X132296426Y-128795147D01*
X132035273Y-128903320D01*
X131800241Y-129060363D01*
X131600363Y-129260241D01*
X131443320Y-129495273D01*
X131335147Y-129756426D01*
X131280000Y-130033665D01*
X131280000Y-130316335D01*
X131335147Y-130593574D01*
X131443320Y-130854727D01*
X131600363Y-131089759D01*
X131775201Y-131264597D01*
X131775201Y-131690722D01*
X130813115Y-132652809D01*
X130777246Y-132682246D01*
X130659804Y-132825349D01*
X130572537Y-132988615D01*
X130518798Y-133165768D01*
X130505200Y-133303834D01*
X130505200Y-133303843D01*
X130500654Y-133350000D01*
X130505200Y-133396158D01*
X130505201Y-135409101D01*
X130371368Y-135498525D01*
X130164525Y-135705368D01*
X130002010Y-135948589D01*
X129890068Y-136218842D01*
X129833000Y-136505740D01*
X126044733Y-136505740D01*
X126086420Y-136486037D01*
X126312414Y-136318519D01*
X126501385Y-136110131D01*
X126646070Y-135868881D01*
X126740909Y-135604040D01*
X126619624Y-135382000D01*
X125476000Y-135382000D01*
X125222000Y-135382000D01*
X125202000Y-135382000D01*
X125202000Y-135128000D01*
X125222000Y-135128000D01*
X125222000Y-135108000D01*
X125476000Y-135108000D01*
X125476000Y-135128000D01*
X126619624Y-135128000D01*
X126740909Y-134905960D01*
X126646070Y-134641119D01*
X126501385Y-134399869D01*
X126312414Y-134191481D01*
X126086420Y-134023963D01*
X125908352Y-133939800D01*
X126953843Y-133939800D01*
X127000000Y-133944346D01*
X127046157Y-133939800D01*
X127046167Y-133939800D01*
X127184233Y-133926202D01*
X127361386Y-133872463D01*
X127524651Y-133785196D01*
X127667754Y-133667754D01*
X127697191Y-133631885D01*
X130806890Y-130522187D01*
X130842754Y-130492754D01*
X130923388Y-130394502D01*
X130960196Y-130349652D01*
X131033404Y-130212688D01*
X131047463Y-130186386D01*
X131101202Y-130009233D01*
X131114800Y-129871167D01*
X131114800Y-129871158D01*
X131119346Y-129825001D01*
X131114800Y-129778844D01*
X131114800Y-114054276D01*
X131300364Y-113868712D01*
X131335147Y-114043574D01*
X131443320Y-114304727D01*
X131600363Y-114539759D01*
X131775200Y-114714596D01*
X131775201Y-118925403D01*
X131600363Y-119100241D01*
X131443320Y-119335273D01*
X131335147Y-119596426D01*
X131280000Y-119873665D01*
X131280000Y-120156335D01*
X131335147Y-120433574D01*
X131443320Y-120694727D01*
X131600363Y-120929759D01*
X131800241Y-121129637D01*
X132035273Y-121286680D01*
X132296426Y-121394853D01*
X132573665Y-121450000D01*
X132856335Y-121450000D01*
X133133574Y-121394853D01*
X133394727Y-121286680D01*
X133629759Y-121129637D01*
X133829637Y-120929759D01*
X133986680Y-120694727D01*
X134094853Y-120433574D01*
X134150000Y-120156335D01*
X134150000Y-119873665D01*
X134094853Y-119596426D01*
X133986680Y-119335273D01*
X133829637Y-119100241D01*
X133654800Y-118925404D01*
X133654800Y-114714596D01*
X133829637Y-114539759D01*
X133986680Y-114304727D01*
X134094853Y-114043574D01*
X134150000Y-113766335D01*
X134150000Y-113483665D01*
X134094853Y-113206426D01*
X133986680Y-112945273D01*
X133829637Y-112710241D01*
X133663057Y-112543661D01*
X133759180Y-112514502D01*
X133869494Y-112455537D01*
X133966185Y-112376185D01*
X134045537Y-112279494D01*
X134104502Y-112169180D01*
X134140812Y-112049482D01*
X134153072Y-111925000D01*
X134153072Y-110325000D01*
X134140812Y-110200518D01*
X134104502Y-110080820D01*
X134045537Y-109970506D01*
X133966185Y-109873815D01*
X133869494Y-109794463D01*
X133759180Y-109735498D01*
X133639482Y-109699188D01*
X133515000Y-109686928D01*
X131915000Y-109686928D01*
X131790518Y-109699188D01*
X131670820Y-109735498D01*
X131560506Y-109794463D01*
X131463815Y-109873815D01*
X131384463Y-109970506D01*
X131325498Y-110080820D01*
X131289188Y-110200518D01*
X131276928Y-110325000D01*
X131276928Y-111233995D01*
X129543115Y-112967809D01*
X129507246Y-112997246D01*
X129389804Y-113140349D01*
X129302537Y-113303615D01*
X129248798Y-113480768D01*
X129235200Y-113618834D01*
X129235200Y-113618843D01*
X129230654Y-113665000D01*
X129235200Y-113711157D01*
X129235201Y-129435722D01*
X126610724Y-132060200D01*
X125110165Y-132060200D01*
X125064000Y-132055653D01*
X125017835Y-132060200D01*
X125017833Y-132060200D01*
X124879767Y-132073798D01*
X124707130Y-132126167D01*
X124702614Y-132127537D01*
X124539348Y-132214804D01*
X124432106Y-132302816D01*
X124396246Y-132332246D01*
X124366818Y-132368104D01*
X122914923Y-133820000D01*
X122667665Y-133820000D01*
X122390426Y-133875147D01*
X122129273Y-133983320D01*
X121894241Y-134140363D01*
X121694363Y-134340241D01*
X121539000Y-134572759D01*
X121383637Y-134340241D01*
X121313236Y-134269840D01*
X125103278Y-130479800D01*
X125937843Y-130479800D01*
X125984000Y-130484346D01*
X126030157Y-130479800D01*
X126030167Y-130479800D01*
X126168233Y-130466202D01*
X126345386Y-130412463D01*
X126508651Y-130325196D01*
X126651754Y-130207754D01*
X126681191Y-130171885D01*
X127885895Y-128967182D01*
X127921754Y-128937754D01*
X128039196Y-128794651D01*
X128126463Y-128631386D01*
X128180202Y-128454233D01*
X128193800Y-128316167D01*
X128193800Y-128316158D01*
X128198346Y-128270001D01*
X128193800Y-128223844D01*
X128193800Y-119426156D01*
X128198346Y-119379999D01*
X128193800Y-119333842D01*
X128193800Y-119333833D01*
X128180202Y-119195767D01*
X128126463Y-119018614D01*
X128039196Y-118855349D01*
X127921754Y-118712246D01*
X127885896Y-118682818D01*
X123748800Y-114545724D01*
X123748800Y-114119596D01*
X123923637Y-113944759D01*
X124080680Y-113709727D01*
X124085067Y-113699135D01*
X124196615Y-113885131D01*
X124385586Y-114093519D01*
X124611580Y-114261037D01*
X124865913Y-114381246D01*
X124999961Y-114421904D01*
X125222000Y-114299915D01*
X125222000Y-113157000D01*
X125476000Y-113157000D01*
X125476000Y-114299915D01*
X125698039Y-114421904D01*
X125832087Y-114381246D01*
X126086420Y-114261037D01*
X126312414Y-114093519D01*
X126501385Y-113885131D01*
X126646070Y-113643881D01*
X126740909Y-113379040D01*
X126619624Y-113157000D01*
X125476000Y-113157000D01*
X125222000Y-113157000D01*
X125202000Y-113157000D01*
X125202000Y-112903000D01*
X125222000Y-112903000D01*
X125222000Y-111760085D01*
X125476000Y-111760085D01*
X125476000Y-112903000D01*
X126619624Y-112903000D01*
X126740909Y-112680960D01*
X126646070Y-112416119D01*
X126501385Y-112174869D01*
X126312414Y-111966481D01*
X126086420Y-111798963D01*
X125832087Y-111678754D01*
X125698039Y-111638096D01*
X125476000Y-111760085D01*
X125222000Y-111760085D01*
X124999961Y-111638096D01*
X124865913Y-111678754D01*
X124611580Y-111798963D01*
X124385586Y-111966481D01*
X124196615Y-112174869D01*
X124085067Y-112360865D01*
X124080680Y-112350273D01*
X123923637Y-112115241D01*
X123723759Y-111915363D01*
X123488727Y-111758320D01*
X123227574Y-111650147D01*
X123019350Y-111608728D01*
X123440896Y-111187182D01*
X123476754Y-111157754D01*
X123594196Y-111014651D01*
X123681463Y-110851386D01*
X123735202Y-110674233D01*
X123748800Y-110536167D01*
X123748800Y-110536158D01*
X123753346Y-110490001D01*
X123748800Y-110443844D01*
X123748800Y-106499596D01*
X123923637Y-106324759D01*
X124079000Y-106092241D01*
X124234363Y-106324759D01*
X124434241Y-106524637D01*
X124669273Y-106681680D01*
X124930426Y-106789853D01*
X125207665Y-106845000D01*
X125490335Y-106845000D01*
X125767574Y-106789853D01*
X126028727Y-106681680D01*
X126263759Y-106524637D01*
X126463637Y-106324759D01*
X126620680Y-106089727D01*
X126728853Y-105828574D01*
X126784000Y-105551335D01*
X126784000Y-105268665D01*
X126728853Y-104991426D01*
X126620680Y-104730273D01*
X126463637Y-104495241D01*
X126263759Y-104295363D01*
X126028727Y-104138320D01*
X125767574Y-104030147D01*
X125490335Y-103975000D01*
X125207665Y-103975000D01*
X124930426Y-104030147D01*
X124669273Y-104138320D01*
X124434241Y-104295363D01*
X124234363Y-104495241D01*
X124079000Y-104727759D01*
X123923637Y-104495241D01*
X123723759Y-104295363D01*
X123488727Y-104138320D01*
X123227574Y-104030147D01*
X122950335Y-103975000D01*
X122667665Y-103975000D01*
X122390426Y-104030147D01*
X122129273Y-104138320D01*
X121894241Y-104295363D01*
X121694363Y-104495241D01*
X121539000Y-104727759D01*
X121383637Y-104495241D01*
X121183759Y-104295363D01*
X120948727Y-104138320D01*
X120687574Y-104030147D01*
X120410335Y-103975000D01*
X120163077Y-103975000D01*
X118556191Y-102368115D01*
X118526754Y-102332246D01*
X118476947Y-102291370D01*
X118693577Y-102175579D01*
X118957766Y-101958766D01*
X119115163Y-101766977D01*
X119161132Y-101798142D01*
X119412316Y-101904173D01*
X119483815Y-101918318D01*
X119698000Y-101795656D01*
X119698000Y-100203000D01*
X119678000Y-100203000D01*
X119678000Y-99949000D01*
X119698000Y-99949000D01*
X119698000Y-99929000D01*
X119952000Y-99929000D01*
X119952000Y-99949000D01*
X119972000Y-99949000D01*
X119972000Y-100203000D01*
X119952000Y-100203000D01*
X119952000Y-101795656D01*
X120166185Y-101918318D01*
X120237684Y-101904173D01*
X120488868Y-101798142D01*
X120714540Y-101645145D01*
X120821642Y-101536591D01*
X120840919Y-101560080D01*
X121051812Y-101733157D01*
X121292419Y-101861764D01*
X121408153Y-101896872D01*
X123013176Y-103501896D01*
X123042604Y-103537754D01*
X123078462Y-103567182D01*
X123078464Y-103567184D01*
X123185706Y-103655196D01*
X123348972Y-103742463D01*
X123526125Y-103796202D01*
X123664191Y-103809800D01*
X123664201Y-103809800D01*
X123710358Y-103814346D01*
X123756515Y-103809800D01*
X129658724Y-103809800D01*
X129834603Y-103985680D01*
X129833000Y-103993740D01*
X129833000Y-104286260D01*
X129890068Y-104573158D01*
X130002010Y-104843411D01*
X130164525Y-105086632D01*
X130371368Y-105293475D01*
X130614589Y-105455990D01*
X130884842Y-105567932D01*
X131171740Y-105625000D01*
X131464260Y-105625000D01*
X131751158Y-105567932D01*
X132021411Y-105455990D01*
X132264632Y-105293475D01*
X132396487Y-105161620D01*
X132418498Y-105234180D01*
X132477463Y-105344494D01*
X132556815Y-105441185D01*
X132653506Y-105520537D01*
X132763820Y-105579502D01*
X132883518Y-105615812D01*
X133008000Y-105628072D01*
X134708000Y-105628072D01*
X134832482Y-105615812D01*
X134952180Y-105579502D01*
X135062494Y-105520537D01*
X135159185Y-105441185D01*
X135238537Y-105344494D01*
X135297502Y-105234180D01*
X135333812Y-105114482D01*
X135346072Y-104990000D01*
X135346072Y-103290000D01*
X135333812Y-103165518D01*
X135297502Y-103045820D01*
X135238537Y-102935506D01*
X135159185Y-102838815D01*
X135062494Y-102759463D01*
X134952180Y-102700498D01*
X134832482Y-102664188D01*
X134708000Y-102651928D01*
X133008000Y-102651928D01*
X132883518Y-102664188D01*
X132763820Y-102700498D01*
X132653506Y-102759463D01*
X132556815Y-102838815D01*
X132477463Y-102935506D01*
X132418498Y-103045820D01*
X132396487Y-103118380D01*
X132264632Y-102986525D01*
X132021411Y-102824010D01*
X131751158Y-102712068D01*
X131464260Y-102655000D01*
X131171740Y-102655000D01*
X131163680Y-102656603D01*
X130745191Y-102238115D01*
X130715754Y-102202246D01*
X130572651Y-102084804D01*
X130409386Y-101997537D01*
X130232233Y-101943798D01*
X130094167Y-101930200D01*
X130094157Y-101930200D01*
X130048000Y-101925654D01*
X130001843Y-101930200D01*
X127181209Y-101930200D01*
X127374579Y-101694578D01*
X127535686Y-101393168D01*
X127634895Y-101066119D01*
X127660000Y-100811225D01*
X127660000Y-99340775D01*
X127634895Y-99085881D01*
X127535686Y-98758832D01*
X127374579Y-98457422D01*
X127368488Y-98450000D01*
X136664157Y-98450000D01*
X136593945Y-98463966D01*
X136240776Y-98610254D01*
X135922933Y-98822630D01*
X135652630Y-99092933D01*
X135440254Y-99410776D01*
X135293966Y-99763945D01*
X135219390Y-100138867D01*
X135219390Y-100521133D01*
X135293966Y-100896055D01*
X135440254Y-101249224D01*
X135652630Y-101567067D01*
X135922933Y-101837370D01*
X136240776Y-102049746D01*
X136593945Y-102196034D01*
X136968867Y-102270610D01*
X137351133Y-102270610D01*
X137726055Y-102196034D01*
X138079224Y-102049746D01*
X138397067Y-101837370D01*
X138667370Y-101567067D01*
X138879746Y-101249224D01*
X139026034Y-100896055D01*
X139040000Y-100825843D01*
X139040001Y-139839162D01*
X139026034Y-139768945D01*
X138879746Y-139415776D01*
X138667370Y-139097933D01*
X138397067Y-138827630D01*
X138079224Y-138615254D01*
X137726055Y-138468966D01*
X137351133Y-138394390D01*
X136968867Y-138394390D01*
X136593945Y-138468966D01*
X136240776Y-138615254D01*
X135922933Y-138827630D01*
X135652630Y-139097933D01*
X135440254Y-139415776D01*
X135293966Y-139768945D01*
X135219390Y-140143867D01*
X135219390Y-140526133D01*
X135293966Y-140901055D01*
X135440254Y-141254224D01*
X135652630Y-141572067D01*
X135922933Y-141842370D01*
X136240776Y-142054746D01*
X136593945Y-142201034D01*
X136664157Y-142215000D01*
X90030843Y-142215000D01*
X90101055Y-142201034D01*
X90454224Y-142054746D01*
X90772067Y-141842370D01*
X91042370Y-141572067D01*
X91254746Y-141254224D01*
X91401034Y-140901055D01*
X91475610Y-140526133D01*
X91475610Y-140143867D01*
X91401034Y-139768945D01*
X91254746Y-139415776D01*
X91042370Y-139097933D01*
X90772067Y-138827630D01*
X90454224Y-138615254D01*
X90101055Y-138468966D01*
X89726133Y-138394390D01*
X89343867Y-138394390D01*
X88968945Y-138468966D01*
X88615776Y-138615254D01*
X88297933Y-138827630D01*
X88027630Y-139097933D01*
X87815254Y-139415776D01*
X87668966Y-139768945D01*
X87655000Y-139839157D01*
X87655000Y-103744665D01*
X89497000Y-103744665D01*
X89497000Y-104027335D01*
X89552147Y-104304574D01*
X89660320Y-104565727D01*
X89817363Y-104800759D01*
X89992200Y-104975596D01*
X89992200Y-105834634D01*
X89987654Y-105880792D01*
X89992200Y-105926949D01*
X89992200Y-105926958D01*
X90005798Y-106065024D01*
X90059537Y-106242177D01*
X90146804Y-106405443D01*
X90264246Y-106548546D01*
X90300115Y-106577983D01*
X92899026Y-109176896D01*
X92928454Y-109212754D01*
X92964312Y-109242182D01*
X92964313Y-109242183D01*
X93071556Y-109330196D01*
X93158823Y-109376841D01*
X93234822Y-109417463D01*
X93411975Y-109471202D01*
X93550041Y-109484800D01*
X93550050Y-109484800D01*
X93596207Y-109489346D01*
X93642364Y-109484800D01*
X93650826Y-109484800D01*
X93676688Y-109523505D01*
X93890495Y-109737312D01*
X93976831Y-109795000D01*
X93890495Y-109852688D01*
X93676688Y-110066495D01*
X93508701Y-110317905D01*
X93392989Y-110597257D01*
X93334000Y-110893816D01*
X93334000Y-111196184D01*
X93392989Y-111492743D01*
X93508701Y-111772095D01*
X93676688Y-112023505D01*
X93890495Y-112237312D01*
X94141905Y-112405299D01*
X94421257Y-112521011D01*
X94717816Y-112580000D01*
X95020184Y-112580000D01*
X95316743Y-112521011D01*
X95596095Y-112405299D01*
X95847505Y-112237312D01*
X96061312Y-112023505D01*
X96229299Y-111772095D01*
X96345011Y-111492743D01*
X96404000Y-111196184D01*
X96404000Y-110893816D01*
X96345011Y-110597257D01*
X96229299Y-110317905D01*
X96061312Y-110066495D01*
X95847505Y-109852688D01*
X95761169Y-109795000D01*
X95847505Y-109737312D01*
X96061312Y-109523505D01*
X96229299Y-109272095D01*
X96345011Y-108992743D01*
X96404000Y-108696184D01*
X96404000Y-108393816D01*
X96345011Y-108097257D01*
X96229299Y-107817905D01*
X96061312Y-107566495D01*
X96023697Y-107528880D01*
X96123494Y-107475537D01*
X96220185Y-107396185D01*
X96299537Y-107299494D01*
X96358502Y-107189180D01*
X96394812Y-107069482D01*
X96407072Y-106945000D01*
X96404000Y-106330750D01*
X96245250Y-106172000D01*
X94996000Y-106172000D01*
X94996000Y-106192000D01*
X94742000Y-106192000D01*
X94742000Y-106172000D01*
X93492750Y-106172000D01*
X93334000Y-106330750D01*
X93330928Y-106945000D01*
X93331544Y-106951259D01*
X91871800Y-105491516D01*
X91871800Y-105145000D01*
X93330928Y-105145000D01*
X93334000Y-105759250D01*
X93492750Y-105918000D01*
X94742000Y-105918000D01*
X94742000Y-104668750D01*
X94996000Y-104668750D01*
X94996000Y-105918000D01*
X96245250Y-105918000D01*
X96404000Y-105759250D01*
X96407072Y-105145000D01*
X96394812Y-105020518D01*
X96358502Y-104900820D01*
X96299537Y-104790506D01*
X96220185Y-104693815D01*
X96123494Y-104614463D01*
X96013180Y-104555498D01*
X95893482Y-104519188D01*
X95769000Y-104506928D01*
X95154750Y-104510000D01*
X94996000Y-104668750D01*
X94742000Y-104668750D01*
X94583250Y-104510000D01*
X93969000Y-104506928D01*
X93844518Y-104519188D01*
X93724820Y-104555498D01*
X93614506Y-104614463D01*
X93517815Y-104693815D01*
X93438463Y-104790506D01*
X93379498Y-104900820D01*
X93343188Y-105020518D01*
X93330928Y-105145000D01*
X91871800Y-105145000D01*
X91871800Y-104975596D01*
X92046637Y-104800759D01*
X92203680Y-104565727D01*
X92311853Y-104304574D01*
X92367000Y-104027335D01*
X92367000Y-103745000D01*
X99854348Y-103745000D01*
X99892867Y-104136088D01*
X100006943Y-104512147D01*
X100192193Y-104858725D01*
X100441497Y-105162503D01*
X100745275Y-105411807D01*
X101091853Y-105597057D01*
X101467912Y-105711133D01*
X101761002Y-105740000D01*
X102976998Y-105740000D01*
X103270088Y-105711133D01*
X103646147Y-105597057D01*
X103992725Y-105411807D01*
X104296503Y-105162503D01*
X104545807Y-104858725D01*
X104731057Y-104512147D01*
X104845133Y-104136088D01*
X104883652Y-103745000D01*
X104845133Y-103353912D01*
X104731057Y-102977853D01*
X104545807Y-102631275D01*
X104296503Y-102327497D01*
X103992725Y-102078193D01*
X103646147Y-101892943D01*
X103270088Y-101778867D01*
X102976998Y-101750000D01*
X101761002Y-101750000D01*
X101467912Y-101778867D01*
X101091853Y-101892943D01*
X100745275Y-102078193D01*
X100441497Y-102327497D01*
X100192193Y-102631275D01*
X100006943Y-102977853D01*
X99892867Y-103353912D01*
X99854348Y-103745000D01*
X92367000Y-103745000D01*
X92367000Y-103744665D01*
X92311853Y-103467426D01*
X92203680Y-103206273D01*
X92046637Y-102971241D01*
X91846759Y-102771363D01*
X91611727Y-102614320D01*
X91350574Y-102506147D01*
X91073335Y-102451000D01*
X90790665Y-102451000D01*
X90513426Y-102506147D01*
X90252273Y-102614320D01*
X90017241Y-102771363D01*
X89817363Y-102971241D01*
X89660320Y-103206273D01*
X89552147Y-103467426D01*
X89497000Y-103744665D01*
X87655000Y-103744665D01*
X87655000Y-100825843D01*
X87668966Y-100896055D01*
X87815254Y-101249224D01*
X88027630Y-101567067D01*
X88297933Y-101837370D01*
X88615776Y-102049746D01*
X88968945Y-102196034D01*
X89343867Y-102270610D01*
X89726133Y-102270610D01*
X90101055Y-102196034D01*
X90454224Y-102049746D01*
X90772067Y-101837370D01*
X91042370Y-101567067D01*
X91254746Y-101249224D01*
X91401034Y-100896055D01*
X91475610Y-100521133D01*
X91475610Y-100138867D01*
X91401034Y-99763945D01*
X91254746Y-99410776D01*
X91042370Y-99092933D01*
X90772067Y-98822630D01*
X90454224Y-98610254D01*
X90101055Y-98463966D01*
X90030843Y-98450000D01*
X116281513Y-98450000D01*
X116275422Y-98457422D01*
G37*
%TD.AperFunction*%
%TD*%
M02*
