M48
; DRILL file {KiCad 5.1.6-c6e7f7d~87~ubuntu18.04.1} date Thu Dec 24 16:50:48 2020
; FORMAT={-:-/ absolute / inch / decimal}
; #@! TF.CreationDate,2020-12-24T16:50:48+01:00
; #@! TF.GenerationSoftware,Kicad,Pcbnew,5.1.6-c6e7f7d~87~ubuntu18.04.1
; #@! TF.FileFunction,Plated,1,2,PTH
FMAT,2
INCH
T1C0.0315
T2C0.0394
T3C0.0433
%
G90
G05
T1
X4.525Y-4.15
X4.525Y-4.45
X4.625Y-4.15
X4.625Y-4.45
X4.725Y-4.15
X4.725Y-4.45
X4.825Y-4.15
X4.825Y-4.45
X5.225Y-4.725
X5.225Y-5.125
X4.525Y-5.025
X4.525Y-5.325
X4.625Y-5.025
X4.625Y-5.325
X4.725Y-5.025
X4.725Y-5.325
X4.825Y-5.025
X4.825Y-5.325
X3.675Y-4.725
X4.075Y-4.725
X5.225Y-4.375
X5.225Y-4.4734
X4.275Y-4.2
X4.275Y-4.3969
X4.275Y-5.0781
X4.275Y-5.275
T2
X3.625Y-5.075
X3.625Y-5.1734
X3.625Y-5.2719
X3.625Y-4.175
X3.625Y-4.2734
X3.625Y-4.3719
X5.175Y-5.375
X5.275Y-5.375
X5.175Y-4.1
X5.275Y-4.1
T3
G00X3.9065Y-4.9844
M15
G01X3.9341Y-4.9844
M16
G05
G00X3.9065Y-5.3624
M15
G01X3.9341Y-5.3624
M16
G05
G00X3.9065Y-4.0844
M15
G01X3.9341Y-4.0844
M16
G05
G00X3.9065Y-4.4624
M15
G01X3.9341Y-4.4624
M16
G05
T0
M30
